%TF.GenerationSoftware,KiCad,Pcbnew,10.0.4*%
%TF.CreationDate,2026-09-14T17:50:23-07:00*%
%TF.ProjectId,keeboard,6b656562-6f61-4726-942e-6b696361645f,rev?*%
%TF.SameCoordinates,Original*%
%TF.FileFunction,Copper,L1,Top*%
%TF.FilePolarity,Positive*%
%FSLAX46Y46*%
G04 Gerber Fmt 4.6, Leading zero omitted, Abs format (unit mm)*
G04 Created by KiCad (PCBNEW 10.0.4) date 2026-09-14 17:50:23*
%MOMM*%
%LPD*%
G01*
G04 APERTURE LIST*
%TA.AperFunction,ComponentPad*%
%ADD10R,2.000000X2.000000*%
%TD*%
%TA.AperFunction,ComponentPad*%
%ADD11C,2.000000*%
%TD*%
%TA.AperFunction,ComponentPad*%
%ADD12R,3.200000X2.000000*%
%TD*%
%TA.AperFunction,ComponentPad*%
%ADD13R,2.000000X1.200000*%
%TD*%
%TA.AperFunction,ComponentPad*%
%ADD14O,2.000000X1.200000*%
%TD*%
%TA.AperFunction,ComponentPad*%
%ADD15C,3.300000*%
%TD*%
%TA.AperFunction,Conductor*%
%ADD16C,0.200000*%
%TD*%
G04 APERTURE END LIST*
D10*
%TO.P,SW1,A,A_A*%
%TO.N,Net-(U1-GPIO40{slash}MTDO)*%
X490000000Y-76000000D03*
D11*
%TO.P,SW1,B,B_B*%
%TO.N,Net-(U1-GPIO41{slash}MTDI)*%
X490000000Y-81000000D03*
%TO.P,SW1,C,C_C*%
%TO.N,GND*%
X490000000Y-78500000D03*
D12*
%TO.P,SW1,MP*%
%TO.N,N/C*%
X497500000Y-72900000D03*
X497500000Y-84100000D03*
D11*
%TO.P,SW1,S1,S1_S1*%
%TO.N,Net-(U1-GPIO42{slash}MTMS)*%
X504500000Y-81000000D03*
%TO.P,SW1,S2,S2_S2*%
%TO.N,GND*%
X504500000Y-76000000D03*
%TD*%
D13*
%TO.P,U1,1,3V3_1*%
%TO.N,/unconnected-(U1-3V3-Pad1)_1*%
X87000000Y-125500000D03*
D14*
%TO.P,U1,2,3V3_2*%
%TO.N,/unconnected-(U1-3V3-Pad1)_1_1*%
X87000000Y-122960000D03*
%TO.P,U1,3,CHIP_PU_3*%
%TO.N,unconnected-(U1-CHIP_PU-Pad3)*%
X87000000Y-120420000D03*
%TO.P,U1,4,GPIO4/ADC1_CH3_4*%
%TO.N,/ROW4*%
X87000000Y-117880000D03*
%TO.P,U1,5,GPIO5/ADC1_CH4_5*%
%TO.N,/ROW5*%
X87000000Y-115340000D03*
%TO.P,U1,6,GPIO6/ADC1_CH5_6*%
%TO.N,/COL0*%
X87000000Y-112800000D03*
%TO.P,U1,7,GPIO7/ADC1_CH6_7*%
%TO.N,/COL1*%
X87000000Y-110260000D03*
%TO.P,U1,8,GPIO15/ADC2_CH4/32K_P_8*%
%TO.N,unconnected-(U1-GPIO15{slash}ADC2_CH4{slash}32K_P-Pad8)*%
X87000000Y-107720000D03*
%TO.P,U1,9,GPIO16/ADC2_CH5/32K_N_9*%
%TO.N,unconnected-(U1-GPIO16{slash}ADC2_CH5{slash}32K_N-Pad9)*%
X87000000Y-105180000D03*
%TO.P,U1,10,GPIO17/ADC2_CH6_10*%
%TO.N,/COL9*%
X87000000Y-102640000D03*
%TO.P,U1,11,GPIO18/ADC2_CH7_11*%
%TO.N,/COL10*%
X87000000Y-100100000D03*
%TO.P,U1,12,GPIO8/ADC1_CH7_12*%
%TO.N,/COL2*%
X87000000Y-97560000D03*
%TO.P,U1,13,GPIO3/ADC1_CH2_13*%
%TO.N,/ROW3*%
X87000000Y-95020000D03*
%TO.P,U1,14,GPIO46_14*%
%TO.N,/COL17*%
X87000000Y-92480000D03*
%TO.P,U1,15,GPIO9/ADC1_CH8_15*%
%TO.N,/COL3*%
X87000000Y-89940000D03*
%TO.P,U1,16,GPIO10/ADC1_CH9_16*%
%TO.N,/COL4*%
X87000000Y-87400000D03*
%TO.P,U1,17,GPIO11/ADC2_CH0_17*%
%TO.N,/COL5*%
X87000000Y-84860000D03*
%TO.P,U1,18,GPIO12/ADC2_CH1_18*%
%TO.N,/COL6*%
X87000000Y-82320000D03*
%TO.P,U1,19,GPIO13/ADC2_CH2_19*%
%TO.N,/COL7*%
X87000000Y-79780000D03*
%TO.P,U1,20,GPIO14/ADC2_CH3_20*%
%TO.N,/COL8*%
X87003680Y-77242720D03*
%TO.P,U1,21,5V_21*%
%TO.N,unconnected-(U1-5V-Pad21)*%
X87003680Y-74702720D03*
%TO.P,U1,22,GND_22*%
%TO.N,GND*%
X87003680Y-72162720D03*
%TO.P,U1,23,GND_23*%
X64140000Y-72160000D03*
%TO.P,U1,24,GND_24*%
X64140000Y-74700000D03*
%TO.P,U1,25,GPIO19/USB_D-_25*%
%TO.N,unconnected-(U1-GPIO19{slash}USB_D--Pad25)*%
X64140000Y-77240000D03*
%TO.P,U1,26,GPIO20/USB_D+_26*%
%TO.N,unconnected-(U1-GPIO20{slash}USB_D+-Pad26)*%
X64140000Y-79780000D03*
%TO.P,U1,27,GPIO21_27*%
%TO.N,/COL11*%
X64140000Y-82320000D03*
%TO.P,U1,28,GPIO47_28*%
%TO.N,/COL18*%
X64140000Y-84860000D03*
%TO.P,U1,29,GPIO48_29*%
%TO.N,/COL19*%
X64140000Y-87400000D03*
%TO.P,U1,30,GPIO45_30*%
%TO.N,/COL16*%
X64140000Y-89940000D03*
%TO.P,U1,31,GPIO0_31*%
%TO.N,/ROW0*%
X64140000Y-92480000D03*
%TO.P,U1,32,GPIO35_32*%
%TO.N,/COL12*%
X64140000Y-95020000D03*
%TO.P,U1,33,GPIO36_33*%
%TO.N,/COL13*%
X64140000Y-97560000D03*
%TO.P,U1,34,GPIO37_34*%
%TO.N,/COL14*%
X64140000Y-100100000D03*
%TO.P,U1,35,GPIO38_35*%
%TO.N,/COL15*%
X64140000Y-102640000D03*
%TO.P,U1,36,GPIO39/MTCK_36*%
%TO.N,/COL20*%
X64140000Y-105180000D03*
%TO.P,U1,37,GPIO40/MTDO_37*%
%TO.N,Net-(U1-GPIO40{slash}MTDO)*%
X64140000Y-107720000D03*
%TO.P,U1,38,GPIO41/MTDI_38*%
%TO.N,Net-(U1-GPIO41{slash}MTDI)*%
X64140000Y-110260000D03*
%TO.P,U1,39,GPIO42/MTMS_39*%
%TO.N,Net-(U1-GPIO42{slash}MTMS)*%
X64140000Y-112800000D03*
%TO.P,U1,40,GPIO2/ADC1_CH1_40*%
%TO.N,/ROW2*%
X64140000Y-115340000D03*
%TO.P,U1,41,GPIO1/ADC1_CH0_41*%
%TO.N,/ROW1*%
X64140000Y-117880000D03*
%TO.P,U1,42,GPIO44/U0RXD_42*%
%TO.N,unconnected-(U1-GPIO44{slash}U0RXD-Pad42)*%
X64140000Y-120420000D03*
%TO.P,U1,43,GPIO43/U0TXD_43*%
%TO.N,unconnected-(U1-GPIO43{slash}U0TXD-Pad43)*%
X64140000Y-122960000D03*
%TO.P,U1,44,GND_44*%
%TO.N,GND*%
X64140000Y-125500000D03*
%TD*%
D15*
%TO.P,SW30,1,1_1*%
%TO.N,/COL12*%
X360323750Y-104840000D03*
%TO.P,SW30,2,2_2*%
%TO.N,Net-(D29-A)*%
X366673750Y-102300000D03*
%TD*%
%TO.P,SW57,1,1_1*%
%TO.N,/COL18*%
X493673750Y-123890000D03*
%TO.P,SW57,2,2_2*%
%TO.N,Net-(D56-A)*%
X500023750Y-121350000D03*
%TD*%
%TO.P,SW4,1,1_1*%
%TO.N,/COL3*%
X179348750Y-76265000D03*
%TO.P,SW4,2,2_2*%
%TO.N,Net-(D3-A)*%
X185698750Y-73725000D03*
%TD*%
%TO.P,SW102,1,1_1*%
%TO.N,/COL15*%
X412711250Y-181040000D03*
%TO.P,SW102,2,2_2*%
%TO.N,Net-(D101-A)*%
X419061250Y-178500000D03*
%TD*%
%TO.P,SW29,1,1_1*%
%TO.N,/COL11*%
X331748750Y-104840000D03*
%TO.P,SW29,2,2_2*%
%TO.N,Net-(D28-A)*%
X338098750Y-102300000D03*
%TD*%
%TO.P,SW53,1,1_1*%
%TO.N,/COL14*%
X412711250Y-123890000D03*
%TO.P,SW53,2,2_2*%
%TO.N,Net-(D52-A)*%
X419061250Y-121350000D03*
%TD*%
%TO.P,SW73,1,1_1*%
%TO.N,/COL17*%
X474623750Y-142940000D03*
%TO.P,SW73,2,2_2*%
%TO.N,Net-(D72-A)*%
X480973750Y-140400000D03*
%TD*%
%TO.P,SW34,1,1_1*%
%TO.N,/COL16*%
X455573750Y-104840000D03*
%TO.P,SW34,2,2_2*%
%TO.N,Net-(D33-A)*%
X461923750Y-102300000D03*
%TD*%
%TO.P,SW15,1,1_1*%
%TO.N,/COL14*%
X412711250Y-76265000D03*
%TO.P,SW15,2,2_2*%
%TO.N,Net-(D14-A)*%
X419061250Y-73725000D03*
%TD*%
%TO.P,SW84,1,1_1*%
%TO.N,/COL9*%
X279361250Y-161990000D03*
%TO.P,SW84,2,2_2*%
%TO.N,Net-(D83-A)*%
X285711250Y-159450000D03*
%TD*%
%TO.P,SW74,1,1_1*%
%TO.N,/COL18*%
X493673750Y-142940000D03*
%TO.P,SW74,2,2_2*%
%TO.N,Net-(D73-A)*%
X500023750Y-140400000D03*
%TD*%
%TO.P,SW101,1,1_1*%
%TO.N,/COL14*%
X393661250Y-181040000D03*
%TO.P,SW101,2,2_2*%
%TO.N,Net-(D100-A)*%
X400011250Y-178500000D03*
%TD*%
%TO.P,SW51,1,1_1*%
%TO.N,/COL12*%
X365086250Y-123890000D03*
%TO.P,SW51,2,2_2*%
%TO.N,Net-(D50-A)*%
X371436250Y-121350000D03*
%TD*%
%TO.P,SW19,1,1_1*%
%TO.N,/COL1*%
X141248750Y-104840000D03*
%TO.P,SW19,2,2_2*%
%TO.N,Net-(D18-A)*%
X147598750Y-102300000D03*
%TD*%
%TO.P,SW5,1,1_1*%
%TO.N,/COL4*%
X198398750Y-76265000D03*
%TO.P,SW5,2,2_2*%
%TO.N,Net-(D4-A)*%
X204748750Y-73725000D03*
%TD*%
%TO.P,SW65,1,1_1*%
%TO.N,/COL5*%
X231736250Y-142940000D03*
%TO.P,SW65,2,2_2*%
%TO.N,Net-(D64-A)*%
X238086250Y-140400000D03*
%TD*%
%TO.P,SW11,1,1_1*%
%TO.N,/COL10*%
X331748750Y-76265000D03*
%TO.P,SW11,2,2_2*%
%TO.N,Net-(D10-A)*%
X338098750Y-73725000D03*
%TD*%
%TO.P,SW13,1,1_1*%
%TO.N,/COL12*%
X369848750Y-76265000D03*
%TO.P,SW13,2,2_2*%
%TO.N,Net-(D12-A)*%
X376198750Y-73725000D03*
%TD*%
%TO.P,SW82,1,1_1*%
%TO.N,/COL7*%
X241261250Y-161990000D03*
%TO.P,SW82,2,2_2*%
%TO.N,Net-(D81-A)*%
X247611250Y-159450000D03*
%TD*%
%TO.P,SW36,1,1_1*%
%TO.N,/COL18*%
X493673750Y-104840000D03*
%TO.P,SW36,2,2_2*%
%TO.N,Net-(D35-A)*%
X500023750Y-102300000D03*
%TD*%
%TO.P,SW60,1,1_1*%
%TO.N,/COL0*%
X136486250Y-142940000D03*
%TO.P,SW60,2,2_2*%
%TO.N,Net-(D59-A)*%
X142836250Y-140400000D03*
%TD*%
%TO.P,SW79,1,1_1*%
%TO.N,/COL4*%
X184111250Y-161990000D03*
%TO.P,SW79,2,2_2*%
%TO.N,Net-(D78-A)*%
X190461250Y-159450000D03*
%TD*%
%TO.P,SW47,1,1_1*%
%TO.N,/COL8*%
X284123750Y-123890000D03*
%TO.P,SW47,2,2_2*%
%TO.N,Net-(D46-A)*%
X290473750Y-121350000D03*
%TD*%
%TO.P,SW31,1,1_1*%
%TO.N,/COL13*%
X393661250Y-104840000D03*
%TO.P,SW31,2,2_2*%
%TO.N,Net-(D30-A)*%
X400011250Y-102300000D03*
%TD*%
%TO.P,SW59,1,1_1*%
%TO.N,/COL20*%
X110292500Y-142940000D03*
%TO.P,SW59,2,2_2*%
%TO.N,Net-(D58-A)*%
X116642500Y-140400000D03*
%TD*%
%TO.P,SW46,1,1_1*%
%TO.N,/COL7*%
X265073750Y-123890000D03*
%TO.P,SW46,2,2_2*%
%TO.N,Net-(D45-A)*%
X271423750Y-121350000D03*
%TD*%
%TO.P,SW40,1,1_1*%
%TO.N,/COL1*%
X150773750Y-123890000D03*
%TO.P,SW40,2,2_2*%
%TO.N,Net-(D39-A)*%
X157123750Y-121350000D03*
%TD*%
%TO.P,SW63,1,1_1*%
%TO.N,/COL3*%
X193636250Y-142940000D03*
%TO.P,SW63,2,2_2*%
%TO.N,Net-(D62-A)*%
X199986250Y-140400000D03*
%TD*%
%TO.P,SW100,1,1_1*%
%TO.N,/COL13*%
X367467500Y-181040000D03*
%TO.P,SW100,2,2_2*%
%TO.N,Net-(D99-A)*%
X373817500Y-178500000D03*
%TD*%
%TO.P,SW6,1,1_1*%
%TO.N,/COL5*%
X226973750Y-76265000D03*
%TO.P,SW6,2,2_2*%
%TO.N,Net-(D5-A)*%
X233323750Y-73725000D03*
%TD*%
%TO.P,SW43,1,1_1*%
%TO.N,/COL4*%
X207923750Y-123890000D03*
%TO.P,SW43,2,2_2*%
%TO.N,Net-(D42-A)*%
X214273750Y-121350000D03*
%TD*%
%TO.P,SW27,1,1_1*%
%TO.N,/COL9*%
X293648750Y-104840000D03*
%TO.P,SW27,2,2_2*%
%TO.N,Net-(D26-A)*%
X299998750Y-102300000D03*
%TD*%
%TO.P,SW41,1,1_1*%
%TO.N,/COL2*%
X169823750Y-123890000D03*
%TO.P,SW41,2,2_2*%
%TO.N,Net-(D40-A)*%
X176173750Y-121350000D03*
%TD*%
%TO.P,SW81,1,1_1*%
%TO.N,/COL6*%
X222211250Y-161990000D03*
%TO.P,SW81,2,2_2*%
%TO.N,Net-(D80-A)*%
X228561250Y-159450000D03*
%TD*%
%TO.P,SW28,1,1_1*%
%TO.N,/COL10*%
X312698750Y-104840000D03*
%TO.P,SW28,2,2_2*%
%TO.N,Net-(D27-A)*%
X319048750Y-102300000D03*
%TD*%
%TO.P,SW69,1,1_1*%
%TO.N,/COL9*%
X307936250Y-142940000D03*
%TO.P,SW69,2,2_2*%
%TO.N,Net-(D68-A)*%
X314286250Y-140400000D03*
%TD*%
%TO.P,SW37,1,1_1*%
%TO.N,/COL19*%
X512723750Y-104840000D03*
%TO.P,SW37,2,2_2*%
%TO.N,Net-(D36-A)*%
X519073750Y-102300000D03*
%TD*%
%TO.P,SW99,1,1_1*%
%TO.N,/COL12*%
X343655000Y-181040000D03*
%TO.P,SW99,2,2_2*%
%TO.N,Net-(D98-A)*%
X350005000Y-178500000D03*
%TD*%
%TO.P,SW95,1,1_1*%
%TO.N,/COL2*%
X153155000Y-181040000D03*
%TO.P,SW95,2,2_2*%
%TO.N,Net-(D94-A)*%
X159505000Y-178500000D03*
%TD*%
%TO.P,SW50,1,1_1*%
%TO.N,/COL11*%
X341273750Y-123890000D03*
%TO.P,SW50,2,2_2*%
%TO.N,Net-(D49-A)*%
X347623750Y-121350000D03*
%TD*%
%TO.P,SW55,1,1_1*%
%TO.N,/COL16*%
X455573750Y-123890000D03*
%TO.P,SW55,2,2_2*%
%TO.N,Net-(D54-A)*%
X461923750Y-121350000D03*
%TD*%
%TO.P,SW92,1,1_1*%
%TO.N,/COL20*%
X512723750Y-171515000D03*
%TO.P,SW92,2,2_2*%
%TO.N,Net-(D91-A)*%
X519073750Y-168975000D03*
%TD*%
%TO.P,SW23,1,1_1*%
%TO.N,/COL5*%
X217448750Y-104840000D03*
%TO.P,SW23,2,2_2*%
%TO.N,Net-(D22-A)*%
X223798750Y-102300000D03*
%TD*%
%TO.P,SW49,1,1_1*%
%TO.N,/COL10*%
X322223750Y-123890000D03*
%TO.P,SW49,2,2_2*%
%TO.N,Net-(D48-A)*%
X328573750Y-121350000D03*
%TD*%
%TO.P,SW42,1,1_1*%
%TO.N,/COL3*%
X188873750Y-123890000D03*
%TO.P,SW42,2,2_2*%
%TO.N,Net-(D41-A)*%
X195223750Y-121350000D03*
%TD*%
%TO.P,SW18,1,1_1*%
%TO.N,N/C*%
X122198750Y-104840000D03*
%TO.P,SW18,2,2_2*%
X128548750Y-102300000D03*
%TD*%
%TO.P,SW8,1,1_1*%
%TO.N,/COL7*%
X265073750Y-76265000D03*
%TO.P,SW8,2,2_2*%
%TO.N,Net-(D7-A)*%
X271423750Y-73725000D03*
%TD*%
%TO.P,SW58,1,1_1*%
%TO.N,/COL19*%
X512723750Y-133415000D03*
%TO.P,SW58,2,2_2*%
%TO.N,Net-(D57-A)*%
X519073750Y-130875000D03*
%TD*%
%TO.P,SW24,1,1_1*%
%TO.N,/COL6*%
X236498750Y-104840000D03*
%TO.P,SW24,2,2_2*%
%TO.N,Net-(D23-A)*%
X242848750Y-102300000D03*
%TD*%
%TO.P,SW56,1,1_1*%
%TO.N,/COL17*%
X474623750Y-123890000D03*
%TO.P,SW56,2,2_2*%
%TO.N,Net-(D55-A)*%
X480973750Y-121350000D03*
%TD*%
%TO.P,SW2,1,1_1*%
%TO.N,/COL0*%
X103148750Y-76265000D03*
%TO.P,SW2,2,2_2*%
%TO.N,Net-(D1-A)*%
X109498750Y-73725000D03*
%TD*%
%TO.P,SW98,1,1_1*%
%TO.N,/COL11*%
X319842500Y-181040000D03*
%TO.P,SW98,2,2_2*%
%TO.N,Net-(D97-A)*%
X326192500Y-178500000D03*
%TD*%
%TO.P,SW85,1,1_1*%
%TO.N,/COL10*%
X298411250Y-161990000D03*
%TO.P,SW85,2,2_2*%
%TO.N,Net-(D84-A)*%
X304761250Y-159450000D03*
%TD*%
%TO.P,SW97,1,1_1*%
%TO.N,/COL10*%
X296030000Y-181040000D03*
%TO.P,SW97,2,2_2*%
%TO.N,Net-(D96-A)*%
X302380000Y-178500000D03*
%TD*%
%TO.P,SW103,1,1_1*%
%TO.N,/COL16*%
X431761250Y-181040000D03*
%TO.P,SW103,2,2_2*%
%TO.N,Net-(D102-A)*%
X438111250Y-178500000D03*
%TD*%
%TO.P,SW90,1,1_1*%
%TO.N,/COL18*%
X474623750Y-161990000D03*
%TO.P,SW90,2,2_2*%
%TO.N,Net-(D89-A)*%
X480973750Y-159450000D03*
%TD*%
%TO.P,SW77,1,1_1*%
%TO.N,/COL2*%
X146011250Y-161990000D03*
%TO.P,SW77,2,2_2*%
%TO.N,Net-(D76-A)*%
X152361250Y-159450000D03*
%TD*%
%TO.P,SW52,1,1_1*%
%TO.N,/COL13*%
X393661250Y-123890000D03*
%TO.P,SW52,2,2_2*%
%TO.N,Net-(D51-A)*%
X400011250Y-121350000D03*
%TD*%
%TO.P,SW39,1,1_1*%
%TO.N,N/C*%
X131723750Y-123890000D03*
%TO.P,SW39,2,2_2*%
X138073750Y-121350000D03*
%TD*%
%TO.P,SW20,1,1_1*%
%TO.N,/COL2*%
X160298750Y-104840000D03*
%TO.P,SW20,2,2_2*%
%TO.N,Net-(D19-A)*%
X166648750Y-102300000D03*
%TD*%
%TO.P,SW33,1,1_1*%
%TO.N,/COL15*%
X431761250Y-104840000D03*
%TO.P,SW33,2,2_2*%
%TO.N,Net-(D32-A)*%
X438111250Y-102300000D03*
%TD*%
%TO.P,SW83,1,1_1*%
%TO.N,/COL8*%
X260311250Y-161990000D03*
%TO.P,SW83,2,2_2*%
%TO.N,Net-(D82-A)*%
X266661250Y-159450000D03*
%TD*%
%TO.P,SW72,1,1_1*%
%TO.N,/COL12*%
X455573750Y-142940000D03*
%TO.P,SW72,2,2_2*%
%TO.N,Net-(D71-A)*%
X461923750Y-140400000D03*
%TD*%
%TO.P,SW78,1,1_1*%
%TO.N,/COL3*%
X165061250Y-161990000D03*
%TO.P,SW78,2,2_2*%
%TO.N,Net-(D77-A)*%
X171411250Y-159450000D03*
%TD*%
%TO.P,SW61,1,1_1*%
%TO.N,/COL1*%
X155536250Y-142940000D03*
%TO.P,SW61,2,2_2*%
%TO.N,Net-(D60-A)*%
X161886250Y-140400000D03*
%TD*%
%TO.P,SW16,1,1_1*%
%TO.N,/COL15*%
X431761250Y-76265000D03*
%TO.P,SW16,2,2_2*%
%TO.N,Net-(D15-A)*%
X438111250Y-73725000D03*
%TD*%
%TO.P,SW14,1,1_1*%
%TO.N,/COL13*%
X393661250Y-76265000D03*
%TO.P,SW14,2,2_2*%
%TO.N,Net-(D13-A)*%
X400011250Y-73725000D03*
%TD*%
%TO.P,SW68,1,1_1*%
%TO.N,/COL8*%
X288886250Y-142940000D03*
%TO.P,SW68,2,2_2*%
%TO.N,Net-(D67-A)*%
X295236250Y-140400000D03*
%TD*%
%TO.P,SW64,1,1_1*%
%TO.N,/COL4*%
X212686250Y-142940000D03*
%TO.P,SW64,2,2_2*%
%TO.N,Net-(D63-A)*%
X219036250Y-140400000D03*
%TD*%
%TO.P,SW26,1,1_1*%
%TO.N,/COL8*%
X274598750Y-104840000D03*
%TO.P,SW26,2,2_2*%
%TO.N,Net-(D25-A)*%
X280948750Y-102300000D03*
%TD*%
%TO.P,SW89,1,1_1*%
%TO.N,/COL17*%
X455573750Y-161990000D03*
%TO.P,SW89,2,2_2*%
%TO.N,Net-(D88-A)*%
X461923750Y-159450000D03*
%TD*%
%TO.P,SW44,1,1_1*%
%TO.N,/COL5*%
X226973750Y-123890000D03*
%TO.P,SW44,2,2_2*%
%TO.N,Net-(D43-A)*%
X233323750Y-121350000D03*
%TD*%
%TO.P,SW3,1,1_1*%
%TO.N,/COL2*%
X160298750Y-76265000D03*
%TO.P,SW3,2,2_2*%
%TO.N,Net-(D2-A)*%
X166648750Y-73725000D03*
%TD*%
%TO.P,SW35,1,1_1*%
%TO.N,/COL17*%
X474623750Y-104840000D03*
%TO.P,SW35,2,2_2*%
%TO.N,Net-(D34-A)*%
X480973750Y-102300000D03*
%TD*%
%TO.P,SW21,1,1_1*%
%TO.N,/COL3*%
X179348750Y-104840000D03*
%TO.P,SW21,2,2_2*%
%TO.N,Net-(D20-A)*%
X185698750Y-102300000D03*
%TD*%
%TO.P,SW12,1,1_1*%
%TO.N,/COL11*%
X350798750Y-76265000D03*
%TO.P,SW12,2,2_2*%
%TO.N,Net-(D11-A)*%
X357148750Y-73725000D03*
%TD*%
%TO.P,SW9,1,1_1*%
%TO.N,/COL8*%
X284123750Y-76265000D03*
%TO.P,SW9,2,2_2*%
%TO.N,Net-(D8-A)*%
X290473750Y-73725000D03*
%TD*%
%TO.P,SW45,1,1_1*%
%TO.N,/COL6*%
X246023750Y-123890000D03*
%TO.P,SW45,2,2_2*%
%TO.N,Net-(D44-A)*%
X252373750Y-121350000D03*
%TD*%
%TO.P,SW2,1,1_1*%
%TO.N,N/C*%
X141248750Y-76265000D03*
%TO.P,SW2,2,2_2*%
X147598750Y-73725000D03*
%TD*%
%TO.P,SW67,1,1_1*%
%TO.N,/COL7*%
X269836250Y-142940000D03*
%TO.P,SW67,2,2_2*%
%TO.N,Net-(D66-A)*%
X276186250Y-140400000D03*
%TD*%
%TO.P,SW93,1,1_1*%
%TO.N,/COL0*%
X105530000Y-181040000D03*
%TO.P,SW93,2,2_2*%
%TO.N,Net-(D92-A)*%
X111880000Y-178500000D03*
%TD*%
%TO.P,SW86,1,1_1*%
%TO.N,/COL11*%
X317461250Y-161990000D03*
%TO.P,SW86,2,2_2*%
%TO.N,Net-(D85-A)*%
X323811250Y-159450000D03*
%TD*%
%TO.P,SW70,1,1_1*%
%TO.N,/COL10*%
X326986250Y-142940000D03*
%TO.P,SW70,2,2_2*%
%TO.N,Net-(D69-A)*%
X333336250Y-140400000D03*
%TD*%
%TO.P,SW62,1,1_1*%
%TO.N,/COL2*%
X174586250Y-142940000D03*
%TO.P,SW62,2,2_2*%
%TO.N,Net-(D61-A)*%
X180936250Y-140400000D03*
%TD*%
%TO.P,SW25,1,1_1*%
%TO.N,/COL7*%
X255548750Y-104840000D03*
%TO.P,SW25,2,2_2*%
%TO.N,Net-(D24-A)*%
X261898750Y-102300000D03*
%TD*%
%TO.P,SW71,1,1_1*%
%TO.N,/COL11*%
X357942500Y-142940000D03*
%TO.P,SW71,2,2_2*%
%TO.N,Net-(D70-A)*%
X364292500Y-140400000D03*
%TD*%
%TO.P,SW17,1,1_1*%
%TO.N,/COL16*%
X103148750Y-104840000D03*
%TO.P,SW17,2,2_2*%
%TO.N,Net-(D16-A)*%
X109498750Y-102300000D03*
%TD*%
%TO.P,SW87,1,1_1*%
%TO.N,/COL12*%
X353180000Y-161990000D03*
%TO.P,SW87,2,2_2*%
%TO.N,Net-(D86-A)*%
X359530000Y-159450000D03*
%TD*%
%TO.P,SW104,1,1_1*%
%TO.N,/COL17*%
X465098750Y-181040000D03*
%TO.P,SW104,2,2_2*%
%TO.N,Net-(D103-A)*%
X471448750Y-178500000D03*
%TD*%
%TO.P,SW66,1,1_1*%
%TO.N,/COL6*%
X250786250Y-142940000D03*
%TO.P,SW66,2,2_2*%
%TO.N,Net-(D65-A)*%
X257136250Y-140400000D03*
%TD*%
%TO.P,SW80,1,1_1*%
%TO.N,/COL5*%
X203161250Y-161990000D03*
%TO.P,SW80,2,2_2*%
%TO.N,Net-(D79-A)*%
X209511250Y-159450000D03*
%TD*%
%TO.P,SW22,1,1_1*%
%TO.N,/COL4*%
X198398750Y-104840000D03*
%TO.P,SW22,2,2_2*%
%TO.N,Net-(D21-A)*%
X204748750Y-102300000D03*
%TD*%
%TO.P,SW88,1,1_1*%
%TO.N,/COL15*%
X412711250Y-161990000D03*
%TO.P,SW88,2,2_2*%
%TO.N,Net-(D87-A)*%
X419061250Y-159450000D03*
%TD*%
%TO.P,SW48,1,1_1*%
%TO.N,/COL9*%
X303173750Y-123890000D03*
%TO.P,SW48,2,2_2*%
%TO.N,Net-(D47-A)*%
X309523750Y-121350000D03*
%TD*%
%TO.P,SW105,1,1_1*%
%TO.N,/COL19*%
X493673750Y-181040000D03*
%TO.P,SW105,2,2_2*%
%TO.N,Net-(D104-A)*%
X500023750Y-178500000D03*
%TD*%
%TO.P,SW94,1,1_1*%
%TO.N,/COL1*%
X129342500Y-181040000D03*
%TO.P,SW94,2,2_2*%
%TO.N,Net-(D93-A)*%
X135692500Y-178500000D03*
%TD*%
%TO.P,SW7,1,1_1*%
%TO.N,/COL6*%
X246023750Y-76265000D03*
%TO.P,SW7,2,2_2*%
%TO.N,Net-(D6-A)*%
X252373750Y-73725000D03*
%TD*%
%TO.P,SW91,1,1_1*%
%TO.N,/COL19*%
X493673750Y-161990000D03*
%TO.P,SW91,2,2_2*%
%TO.N,Net-(D90-A)*%
X500023750Y-159450000D03*
%TD*%
%TO.P,SW10,1,1_1*%
%TO.N,/COL9*%
X312698750Y-76265000D03*
%TO.P,SW10,2,2_2*%
%TO.N,Net-(D9-A)*%
X319048750Y-73725000D03*
%TD*%
%TO.P,SW96,1,1_1*%
%TO.N,/COL5*%
X224592500Y-181040000D03*
%TO.P,SW96,2,2_2*%
%TO.N,Net-(D95-A)*%
X230942500Y-178500000D03*
%TD*%
%TO.P,SW54,1,1_1*%
%TO.N,/COL15*%
X431761250Y-123890000D03*
%TO.P,SW54,2,2_2*%
%TO.N,Net-(D53-A)*%
X438111250Y-121350000D03*
%TD*%
%TO.P,SW38,1,1_1*%
%TO.N,/COL20*%
X107911250Y-123890000D03*
%TO.P,SW38,2,2_2*%
%TO.N,Net-(D37-A)*%
X114261250Y-121350000D03*
%TD*%
%TO.P,SW32,1,1_1*%
%TO.N,/COL14*%
X412711250Y-104840000D03*
%TO.P,SW32,2,2_2*%
%TO.N,Net-(D31-A)*%
X419061250Y-102300000D03*
%TD*%
%TO.P,SW76,1,1_1*%
%TO.N,/COL1*%
X115055000Y-161990000D03*
%TO.P,SW76,2,2_2*%
%TO.N,Net-(D75-A)*%
X121405000Y-159450000D03*
%TD*%
%TO.N,*%
D16*
X207923750Y-118576250D02*
X214500000Y-112000000D01*
X141248750Y-76265000D02*
X124765000Y-76265000D01*
X131723750Y-123890000D02*
X142000000Y-113613750D01*
X180000000Y-105491250D02*
X179348750Y-104840000D01*
X338000000Y-128500000D02*
X338000000Y-125000000D01*
X367000000Y-77000000D02*
X367735000Y-76265000D01*
X104000000Y-119978750D02*
X104000000Y-105691250D01*
X374000000Y-159000000D02*
X380000000Y-153000000D01*
X326986250Y-142940000D02*
X326986250Y-136486250D01*
X137000000Y-152978750D02*
X137000000Y-143453750D01*
X227500000Y-81000000D02*
X227500000Y-76791250D01*
X309500000Y-117563750D02*
X309500000Y-105500000D01*
X115055000Y-152555000D02*
X111000000Y-148500000D01*
X233000000Y-106000000D02*
X234160000Y-104840000D01*
X360323750Y-92676250D02*
X367000000Y-86000000D01*
X188873750Y-118626250D02*
X199000000Y-108500000D01*
X179348750Y-104840000D02*
X179348750Y-81151250D01*
X307936250Y-131936250D02*
X304000000Y-128000000D01*
X155536250Y-142940000D02*
X155536250Y-131036250D01*
X295500000Y-163000000D02*
X296510000Y-161990000D01*
X465098750Y-178098750D02*
X455573750Y-168573750D01*
X252500000Y-105500000D02*
X253160000Y-104840000D01*
X303173750Y-123890000D02*
X309500000Y-117563750D01*
X465098750Y-181040000D02*
X465098750Y-178098750D01*
X287060000Y-142940000D02*
X288886250Y-142940000D01*
X119000000Y-70500000D02*
X97000000Y-70500000D01*
X279361250Y-161990000D02*
X279361250Y-156361250D01*
X253160000Y-104840000D02*
X255548750Y-104840000D01*
X228000000Y-128500000D02*
X228000000Y-124916250D01*
X223000000Y-162778750D02*
X222211250Y-161990000D01*
X260311250Y-161990000D02*
X260311250Y-155811250D01*
X369500000Y-136000000D02*
X361500000Y-128000000D01*
X347500000Y-77500000D02*
X348735000Y-76265000D01*
X115055000Y-161990000D02*
X115055000Y-152555000D01*
X199000000Y-80500000D02*
X199000000Y-76866250D01*
X338000000Y-125000000D02*
X339110000Y-123890000D01*
X319000000Y-125000000D02*
X320110000Y-123890000D01*
X296510000Y-161990000D02*
X298411250Y-161990000D01*
X281000000Y-81000000D02*
X281000000Y-77000000D01*
X198398750Y-81101250D02*
X199000000Y-80500000D01*
X236498750Y-104840000D02*
X236498750Y-89998750D01*
X266000000Y-128000000D02*
X266000000Y-124816250D01*
X354000000Y-170695000D02*
X354000000Y-162810000D01*
X213500000Y-143753750D02*
X212686250Y-142940000D01*
X266000000Y-124816250D02*
X265073750Y-123890000D01*
X103148750Y-81851250D02*
X103500000Y-81500000D01*
X326986250Y-136486250D02*
X319000000Y-128500000D01*
X285500000Y-125266250D02*
X284123750Y-123890000D01*
X189500000Y-128000000D02*
X189500000Y-124516250D01*
X115500000Y-171070000D02*
X115500000Y-162435000D01*
X160298750Y-104840000D02*
X160298750Y-80701250D01*
X156000000Y-143403750D02*
X155536250Y-142940000D01*
X298411250Y-161990000D02*
X286000000Y-149578750D01*
X266000000Y-81500000D02*
X266000000Y-77191250D01*
X269836250Y-142940000D02*
X269836250Y-131836250D01*
X252000000Y-147500000D02*
X252000000Y-144153750D01*
X109000000Y-124978750D02*
X104000000Y-119978750D01*
X103500000Y-81500000D02*
X103500000Y-76616250D01*
X393661250Y-181040000D02*
X393661250Y-76265000D01*
X279361250Y-156361250D02*
X271000000Y-148000000D01*
X146011250Y-161990000D02*
X137000000Y-152978750D01*
X474623750Y-161990000D02*
X474623750Y-82123750D01*
X318500000Y-166500000D02*
X318500000Y-163028750D01*
X357000000Y-105500000D02*
X357660000Y-104840000D01*
X348735000Y-76265000D02*
X350798750Y-76265000D01*
X208500000Y-129000000D02*
X208500000Y-124466250D01*
X361500000Y-128000000D02*
X361500000Y-125500000D01*
X188873750Y-123890000D02*
X188873750Y-118626250D01*
X296030000Y-181040000D02*
X296030000Y-167530000D01*
X214500000Y-112000000D02*
X214500000Y-105500000D01*
X274598750Y-104840000D02*
X274598750Y-90098750D01*
X161000000Y-113663750D02*
X161000000Y-105541250D01*
X234160000Y-104840000D02*
X236498750Y-104840000D01*
X328500000Y-106000000D02*
X330000000Y-104500000D01*
X367467500Y-181040000D02*
X374000000Y-174507500D01*
X317461250Y-161990000D02*
X317461250Y-155961250D01*
X132500000Y-128500000D02*
X132500000Y-124666250D01*
X231736250Y-144236250D02*
X231736250Y-142940000D01*
X194000000Y-143303750D02*
X193636250Y-142940000D01*
X320110000Y-123890000D02*
X322223750Y-123890000D01*
X343655000Y-181040000D02*
X354000000Y-170695000D01*
X246023750Y-119476250D02*
X252500000Y-113000000D01*
X250786250Y-131286250D02*
X247000000Y-127500000D01*
X199000000Y-105441250D02*
X198398750Y-104840000D01*
X214500000Y-105500000D02*
X215160000Y-104840000D01*
X124765000Y-76265000D02*
X119000000Y-70500000D01*
X247000000Y-127500000D02*
X247000000Y-124866250D01*
X318500000Y-163028750D02*
X317461250Y-161990000D01*
X357000000Y-109500000D02*
X357000000Y-105500000D01*
X412711250Y-181040000D02*
X412711250Y-76265000D01*
X355560000Y-142940000D02*
X357942500Y-142940000D01*
X103148750Y-104840000D02*
X103148750Y-81851250D01*
X286000000Y-144000000D02*
X287060000Y-142940000D01*
X203161250Y-161990000D02*
X203161250Y-156161250D01*
X246500000Y-76741250D02*
X246023750Y-76265000D01*
X319842500Y-181040000D02*
X319842500Y-167842500D01*
X367000000Y-86000000D02*
X367000000Y-77000000D01*
X288886250Y-131886250D02*
X285500000Y-128500000D01*
X317461250Y-155961250D02*
X309000000Y-147500000D01*
X355000000Y-143500000D02*
X355560000Y-142940000D01*
X374000000Y-174507500D02*
X374000000Y-159000000D01*
X110292500Y-142940000D02*
X110292500Y-131292500D01*
X227500000Y-76791250D02*
X226973750Y-76265000D01*
X184111250Y-157111250D02*
X174586250Y-147586250D01*
X341273750Y-119226250D02*
X347500000Y-113000000D01*
X274598750Y-90098750D02*
X266000000Y-81500000D01*
X331408750Y-104500000D02*
X331748750Y-104840000D01*
X241261250Y-161990000D02*
X241261250Y-155261250D01*
X341273750Y-123890000D02*
X341273750Y-119226250D01*
X266000000Y-77191250D02*
X265073750Y-76265000D01*
X228000000Y-124916250D02*
X226973750Y-123890000D01*
X194000000Y-147000000D02*
X194000000Y-143303750D01*
X110292500Y-131292500D02*
X109000000Y-130000000D01*
X247000000Y-124866250D02*
X246023750Y-123890000D01*
X137000000Y-143453750D02*
X136486250Y-142940000D01*
X141248750Y-80751250D02*
X142000000Y-80000000D01*
X330000000Y-104500000D02*
X331408750Y-104500000D01*
X161000000Y-105541250D02*
X160298750Y-104840000D01*
X160298750Y-80701250D02*
X161000000Y-80000000D01*
X153155000Y-181040000D02*
X165500000Y-168695000D01*
X269836250Y-131836250D02*
X266000000Y-128000000D01*
X223000000Y-168000000D02*
X223000000Y-162778750D01*
X179348750Y-81151250D02*
X180000000Y-80500000D01*
X169823750Y-118676250D02*
X180000000Y-108500000D01*
X174586250Y-142940000D02*
X170500000Y-138853750D01*
X281735000Y-76265000D02*
X284123750Y-76265000D01*
X170500000Y-124566250D02*
X169823750Y-123890000D01*
X142000000Y-105591250D02*
X141248750Y-104840000D01*
X474623750Y-82123750D02*
X456000000Y-63500000D01*
X380000000Y-153000000D02*
X380000000Y-137500000D01*
X150773750Y-126273750D02*
X150773750Y-123890000D01*
X231736250Y-142940000D02*
X231736250Y-132236250D01*
X250786250Y-142940000D02*
X250786250Y-131286250D01*
X136486250Y-132486250D02*
X132500000Y-128500000D01*
X281000000Y-77000000D02*
X281735000Y-76265000D01*
X310160000Y-104840000D02*
X312698750Y-104840000D01*
X367735000Y-76265000D02*
X369848750Y-76265000D01*
X328500000Y-112000000D02*
X328500000Y-106000000D01*
X331748750Y-84248750D02*
X328500000Y-81000000D01*
X111000000Y-148500000D02*
X111000000Y-143647500D01*
X290000000Y-106000000D02*
X291160000Y-104840000D01*
X236498750Y-89998750D02*
X227500000Y-81000000D01*
X199000000Y-76866250D02*
X198398750Y-76265000D01*
X165061250Y-161990000D02*
X165061250Y-156561250D01*
X165061250Y-156561250D02*
X156000000Y-147500000D01*
X309000000Y-147500000D02*
X309000000Y-144003750D01*
X212686250Y-133186250D02*
X208500000Y-129000000D01*
X233000000Y-145500000D02*
X231736250Y-144236250D01*
X367467500Y-181532500D02*
X367000000Y-182000000D01*
X296030000Y-167530000D02*
X295500000Y-167000000D01*
X290000000Y-118013750D02*
X290000000Y-106000000D01*
X226973750Y-123890000D02*
X233000000Y-117863750D01*
X155536250Y-131036250D02*
X150773750Y-126273750D01*
X293648750Y-104840000D02*
X293648750Y-93648750D01*
X360323750Y-104840000D02*
X360323750Y-92676250D01*
X246500000Y-95791250D02*
X246500000Y-76741250D01*
X97000000Y-70500000D02*
X95500000Y-72000000D01*
X109000000Y-130000000D02*
X109000000Y-124978750D01*
X353180000Y-161990000D02*
X355000000Y-160170000D01*
X271500000Y-112000000D02*
X271500000Y-105000000D01*
X203161250Y-156161250D02*
X194000000Y-147000000D01*
X288886250Y-142940000D02*
X288886250Y-131886250D01*
X193636250Y-132136250D02*
X189500000Y-128000000D01*
X260311250Y-155811250D02*
X252000000Y-147500000D01*
X355500000Y-135500000D02*
X345000000Y-135500000D01*
X141248750Y-104840000D02*
X141248750Y-80751250D01*
X115500000Y-162435000D02*
X115055000Y-161990000D01*
X355500000Y-140497500D02*
X355500000Y-135500000D01*
X357942500Y-142940000D02*
X355500000Y-140497500D01*
X271500000Y-105000000D02*
X271660000Y-104840000D01*
X165500000Y-162428750D02*
X165061250Y-161990000D01*
X174586250Y-147586250D02*
X174586250Y-142940000D01*
X156000000Y-147500000D02*
X156000000Y-143403750D01*
X104000000Y-105691250D02*
X103148750Y-104840000D01*
X355000000Y-160170000D02*
X355000000Y-143500000D01*
X319842500Y-167842500D02*
X318500000Y-166500000D01*
X142000000Y-77016250D02*
X141248750Y-76265000D01*
X180000000Y-80500000D02*
X180000000Y-76916250D01*
X322223750Y-118276250D02*
X328500000Y-112000000D01*
X224592500Y-181040000D02*
X224592500Y-169592500D01*
X208500000Y-124466250D02*
X207923750Y-123890000D01*
X246023750Y-123890000D02*
X246023750Y-119476250D01*
X180000000Y-108500000D02*
X180000000Y-105491250D01*
X165500000Y-168695000D02*
X165500000Y-162428750D01*
X431761250Y-181040000D02*
X431761250Y-76265000D01*
X199000000Y-108500000D02*
X199000000Y-105441250D01*
X455573750Y-168573750D02*
X455573750Y-83573750D01*
X252500000Y-113000000D02*
X252500000Y-105500000D01*
X213500000Y-148500000D02*
X213500000Y-143753750D01*
X286000000Y-149578750D02*
X286000000Y-144000000D01*
X331748750Y-104840000D02*
X331748750Y-84248750D01*
X161000000Y-80000000D02*
X161000000Y-76966250D01*
X252000000Y-144153750D02*
X250786250Y-142940000D01*
X255548750Y-104840000D02*
X246500000Y-95791250D01*
X224592500Y-169592500D02*
X223000000Y-168000000D01*
X328500000Y-81000000D02*
X328500000Y-78000000D01*
X304000000Y-128000000D02*
X304000000Y-124716250D01*
X132500000Y-124666250D02*
X131723750Y-123890000D01*
X111000000Y-143647500D02*
X110292500Y-142940000D01*
X319000000Y-128500000D02*
X319000000Y-125000000D01*
X142000000Y-113613750D02*
X142000000Y-105591250D01*
X285500000Y-128500000D02*
X285500000Y-125266250D01*
X347500000Y-113000000D02*
X347500000Y-77500000D01*
X284123750Y-123890000D02*
X290000000Y-118013750D01*
X380000000Y-137500000D02*
X378500000Y-136000000D01*
X367467500Y-181532500D02*
X367467500Y-181040000D01*
X233000000Y-147000000D02*
X233000000Y-145500000D01*
X265073750Y-123890000D02*
X265073750Y-118426250D01*
X339110000Y-123890000D02*
X341273750Y-123890000D01*
X233000000Y-117863750D02*
X233000000Y-106000000D01*
X271000000Y-144103750D02*
X269836250Y-142940000D01*
X363110000Y-123890000D02*
X365086250Y-123890000D01*
X170500000Y-138853750D02*
X170500000Y-124566250D01*
X330235000Y-76265000D02*
X331748750Y-76265000D01*
X193636250Y-142940000D02*
X193636250Y-132136250D01*
X136486250Y-142940000D02*
X136486250Y-132486250D01*
X212686250Y-142940000D02*
X212686250Y-133186250D01*
X304000000Y-124716250D02*
X303173750Y-123890000D01*
X241261250Y-155261250D02*
X233000000Y-147000000D01*
X215160000Y-104840000D02*
X217448750Y-104840000D01*
X150773750Y-123890000D02*
X161000000Y-113663750D01*
X322223750Y-123890000D02*
X322223750Y-118276250D01*
X184111250Y-161990000D02*
X184111250Y-157111250D01*
X161000000Y-76966250D02*
X160298750Y-76265000D01*
X105530000Y-181040000D02*
X115500000Y-171070000D01*
X378500000Y-136000000D02*
X369500000Y-136000000D01*
X198398750Y-104840000D02*
X198398750Y-81101250D01*
X312698750Y-104840000D02*
X312698750Y-76265000D01*
X295500000Y-167000000D02*
X295500000Y-163000000D01*
X361500000Y-125500000D02*
X363110000Y-123890000D01*
X169823750Y-123890000D02*
X169823750Y-118676250D01*
X189500000Y-124516250D02*
X188873750Y-123890000D01*
X365086250Y-123890000D02*
X365086250Y-117586250D01*
X207923750Y-123890000D02*
X207923750Y-118576250D01*
X103500000Y-76616250D02*
X103148750Y-76265000D01*
X222211250Y-157211250D02*
X213500000Y-148500000D01*
X291160000Y-104840000D02*
X293648750Y-104840000D01*
X271000000Y-148000000D02*
X271000000Y-144103750D01*
X357660000Y-104840000D02*
X360323750Y-104840000D01*
X365086250Y-117586250D02*
X357000000Y-109500000D01*
X354000000Y-162810000D02*
X353180000Y-161990000D01*
X345000000Y-135500000D02*
X338000000Y-128500000D01*
X328500000Y-78000000D02*
X330235000Y-76265000D01*
X309500000Y-105500000D02*
X310160000Y-104840000D01*
X180000000Y-76916250D02*
X179348750Y-76265000D01*
X231736250Y-132236250D02*
X228000000Y-128500000D01*
X307936250Y-142940000D02*
X307936250Y-131936250D01*
X142000000Y-80000000D02*
X142000000Y-77016250D01*
X293648750Y-93648750D02*
X281000000Y-81000000D01*
X265073750Y-118426250D02*
X271500000Y-112000000D01*
X309000000Y-144003750D02*
X307936250Y-142940000D01*
X222211250Y-161990000D02*
X222211250Y-157211250D01*
X271660000Y-104840000D02*
X274598750Y-104840000D01*
%TO.N,Net-(U1-GPIO42{slash}MTMS)*%
X531500000Y-194000000D02*
X527000000Y-198500000D01*
X428500000Y-68500000D02*
X426000000Y-71000000D01*
X527000000Y-198500000D02*
X448000000Y-198500000D01*
X448000000Y-198500000D02*
X448000000Y-84000000D01*
X71000000Y-171000000D02*
X71000000Y-114000000D01*
X437000000Y-68500000D02*
X428500000Y-68500000D01*
X416396184Y-197603816D02*
X97603816Y-197603816D01*
X531500000Y-108000000D02*
X531500000Y-194000000D01*
X504500000Y-81000000D02*
X531500000Y-108000000D01*
X69800000Y-112800000D02*
X64140000Y-112800000D01*
X448000000Y-84000000D02*
X446500000Y-82500000D01*
X426000000Y-188000000D02*
X416396184Y-197603816D01*
X71000000Y-114000000D02*
X69800000Y-112800000D01*
X97603816Y-197603816D02*
X71000000Y-171000000D01*
X446500000Y-78000000D02*
X437000000Y-68500000D01*
X446500000Y-82500000D02*
X446500000Y-78000000D01*
X426000000Y-71000000D02*
X426000000Y-188000000D01*
%TO.N,/COL0*%
X96500000Y-103300000D02*
X87000000Y-112800000D01*
X103148750Y-76265000D02*
X103148750Y-72148750D01*
X98000000Y-71500000D02*
X96500000Y-73000000D01*
X103148750Y-72148750D02*
X102500000Y-71500000D01*
X102500000Y-71500000D02*
X98000000Y-71500000D01*
X96500000Y-73000000D02*
X96500000Y-103300000D01*
%TO.N,/COL1*%
X122500000Y-110000000D02*
X122500000Y-105141250D01*
X97500000Y-71000000D02*
X96000000Y-72500000D01*
X136500000Y-173882500D02*
X136500000Y-156500000D01*
X96000000Y-101260000D02*
X87000000Y-110260000D01*
X96000000Y-73000000D02*
X96000000Y-101260000D01*
X124500000Y-144500000D02*
X124500000Y-112000000D01*
X122500000Y-105141250D02*
X122198750Y-104840000D01*
X122198750Y-104840000D02*
X118000000Y-100641250D01*
X118000000Y-100641250D02*
X118000000Y-71000000D01*
X136500000Y-156500000D02*
X124500000Y-144500000D01*
X118000000Y-71000000D02*
X97500000Y-71000000D01*
X129342500Y-181040000D02*
X136500000Y-173882500D01*
X124500000Y-112000000D02*
X122500000Y-110000000D01*
X96000000Y-72500000D02*
X96000000Y-73000000D01*
%TO.N,/COL9*%
X85500000Y-100000000D02*
X87000000Y-100000000D01*
X312698750Y-76265000D02*
X312698750Y-76198750D01*
X303000000Y-66500000D02*
X84000000Y-66500000D01*
X84000000Y-98500000D02*
X85500000Y-100000000D01*
X84000000Y-66500000D02*
X84000000Y-98500000D01*
X312698750Y-76198750D02*
X303000000Y-66500000D01*
%TO.N,/COL10*%
X81500000Y-82000000D02*
X64500000Y-82000000D01*
X321500000Y-66000000D02*
X81500000Y-66000000D01*
X81500000Y-66000000D02*
X81500000Y-82000000D01*
X64500000Y-82000000D02*
X64000000Y-82500000D01*
X331748750Y-76265000D02*
X331748750Y-76248750D01*
X331748750Y-76248750D02*
X321500000Y-66000000D01*
%TO.N,/COL2*%
X95500000Y-70000000D02*
X94500000Y-71000000D01*
X94500000Y-71000000D02*
X94500000Y-85500000D01*
X160298750Y-76265000D02*
X160265000Y-76265000D01*
X95500000Y-72000000D02*
X95500000Y-89060000D01*
X160265000Y-76265000D02*
X154000000Y-70000000D01*
X95500000Y-89060000D02*
X87000000Y-97560000D01*
X90000000Y-90000000D02*
X87000000Y-90000000D01*
X94500000Y-85500000D02*
X90000000Y-90000000D01*
X154000000Y-70000000D02*
X95500000Y-70000000D01*
%TO.N,/COL17*%
X85032843Y-94467157D02*
X85032843Y-97967157D01*
X173500000Y-191500000D02*
X177000000Y-188000000D01*
X434500000Y-62500000D02*
X455500000Y-83500000D01*
X89000000Y-103000000D02*
X88000000Y-104000000D01*
X83500000Y-177000000D02*
X98000000Y-191500000D01*
X224000000Y-188000000D02*
X229000000Y-193000000D01*
X229000000Y-193000000D02*
X270500000Y-193000000D01*
X85032843Y-97967157D02*
X85565686Y-98500000D01*
X382500000Y-193000000D02*
X382500000Y-160000000D01*
X387500000Y-137500000D02*
X387500000Y-62500000D01*
X98000000Y-191500000D02*
X173500000Y-191500000D01*
X382500000Y-160000000D02*
X388500000Y-154000000D01*
X83500000Y-104000000D02*
X83500000Y-177000000D01*
X388500000Y-138500000D02*
X387500000Y-137500000D01*
X290500000Y-193000000D02*
X382500000Y-193000000D01*
X387500000Y-62500000D02*
X434500000Y-62500000D01*
X177000000Y-188000000D02*
X224000000Y-188000000D01*
X87000000Y-92500000D02*
X85032843Y-94467157D01*
X89000000Y-98500000D02*
X89000000Y-103000000D01*
X85565686Y-98500000D02*
X89000000Y-98500000D01*
X88000000Y-104000000D02*
X83500000Y-104000000D01*
X87000000Y-92480000D02*
X87000000Y-92500000D01*
X285000000Y-187500000D02*
X290500000Y-193000000D01*
X276000000Y-187500000D02*
X285000000Y-187500000D01*
X270500000Y-193000000D02*
X276000000Y-187500000D01*
X388500000Y-154000000D02*
X388500000Y-138500000D01*
%TO.N,/COL3*%
X91000000Y-87500000D02*
X87000000Y-87500000D01*
X172583750Y-69500000D02*
X95000000Y-69500000D01*
X94000000Y-70500000D02*
X94000000Y-84500000D01*
X95000000Y-69500000D02*
X94000000Y-70500000D01*
X94000000Y-84500000D02*
X91000000Y-87500000D01*
X179348750Y-76265000D02*
X172583750Y-69500000D01*
%TO.N,/COL4*%
X198265000Y-76265000D02*
X191000000Y-69000000D01*
X90000000Y-85000000D02*
X87000000Y-85000000D01*
X93500000Y-81500000D02*
X90000000Y-85000000D01*
X191000000Y-69000000D02*
X94500000Y-69000000D01*
X198398750Y-76265000D02*
X198265000Y-76265000D01*
X94500000Y-69000000D02*
X93500000Y-70000000D01*
X93500000Y-70000000D02*
X93500000Y-81500000D01*
%TO.N,/COL5*%
X224592500Y-181040000D02*
X222552500Y-179000000D01*
X89500000Y-82500000D02*
X87500000Y-82500000D01*
X92500000Y-118000000D02*
X88500000Y-114000000D01*
X226973750Y-76265000D02*
X226765000Y-76265000D01*
X174500000Y-186500000D02*
X101500000Y-186500000D01*
X222552500Y-179000000D02*
X182000000Y-179000000D01*
X182000000Y-179000000D02*
X174500000Y-186500000D01*
X88500000Y-114000000D02*
X85500000Y-114000000D01*
X93000000Y-79000000D02*
X89500000Y-82500000D01*
X84500000Y-107500000D02*
X86500000Y-105500000D01*
X93000000Y-69500000D02*
X93000000Y-79000000D01*
X84500000Y-113000000D02*
X84500000Y-107500000D01*
X92500000Y-177500000D02*
X92500000Y-118000000D01*
X101500000Y-186500000D02*
X92500000Y-177500000D01*
X219000000Y-68500000D02*
X94000000Y-68500000D01*
X226765000Y-76265000D02*
X219000000Y-68500000D01*
X85500000Y-114000000D02*
X84500000Y-113000000D01*
X94000000Y-68500000D02*
X93000000Y-69500000D01*
%TO.N,/COL6*%
X245765000Y-76265000D02*
X237500000Y-68000000D01*
X92500000Y-69434314D02*
X92500000Y-77500000D01*
X93934314Y-68000000D02*
X92500000Y-69434314D01*
X237500000Y-68000000D02*
X93934314Y-68000000D01*
X92500000Y-77500000D02*
X90000000Y-80000000D01*
X246023750Y-76265000D02*
X245765000Y-76265000D01*
X90000000Y-80000000D02*
X87000000Y-80000000D01*
%TO.N,/COL7*%
X90500000Y-77500000D02*
X87500000Y-77500000D01*
X92000000Y-76000000D02*
X90500000Y-77500000D01*
X265073750Y-76265000D02*
X256308750Y-67500000D01*
X92000000Y-69000000D02*
X92000000Y-76000000D01*
X93500000Y-67500000D02*
X92000000Y-69000000D01*
X256308750Y-67500000D02*
X93500000Y-67500000D01*
%TO.N,/COL8*%
X84500000Y-98000000D02*
X85500000Y-99000000D01*
X85500000Y-99000000D02*
X88500000Y-99000000D01*
X84500000Y-67000000D02*
X84500000Y-98000000D01*
X284123750Y-76265000D02*
X284123750Y-76123750D01*
X88500000Y-101500000D02*
X87000000Y-103000000D01*
X88500000Y-99000000D02*
X88500000Y-101500000D01*
X275000000Y-67000000D02*
X84500000Y-67000000D01*
X284123750Y-76123750D02*
X275000000Y-67000000D01*
%TO.N,/COL11*%
X339500000Y-65000000D02*
X62000000Y-65000000D01*
X62000000Y-65000000D02*
X62000000Y-83000000D01*
X65800000Y-83300000D02*
X66500000Y-84000000D01*
X350798750Y-76265000D02*
X350765000Y-76265000D01*
X62300000Y-83300000D02*
X65800000Y-83300000D01*
X350765000Y-76265000D02*
X339500000Y-65000000D01*
X62000000Y-83000000D02*
X62300000Y-83300000D01*
%TO.N,/COL18*%
X60500000Y-84000000D02*
X61360000Y-84860000D01*
X454500000Y-62000000D02*
X63000000Y-62000000D01*
X63000000Y-62000000D02*
X60500000Y-64500000D01*
X61360000Y-84860000D02*
X64140000Y-84860000D01*
X60500000Y-64500000D02*
X60500000Y-84000000D01*
X456000000Y-63500000D02*
X454500000Y-62000000D01*
%TO.N,/COL19*%
X458500000Y-61500000D02*
X62500000Y-61500000D01*
X512723750Y-104840000D02*
X512723750Y-171223750D01*
X512723750Y-171223750D02*
X513000000Y-171500000D01*
X62400000Y-87400000D02*
X64140000Y-87400000D01*
X493673750Y-181040000D02*
X493673750Y-96673750D01*
X60000000Y-64000000D02*
X60000000Y-85000000D01*
X62500000Y-61500000D02*
X60000000Y-64000000D01*
X60000000Y-85000000D02*
X62400000Y-87400000D01*
X493673750Y-96673750D02*
X458500000Y-61500000D01*
%TO.N,/COL16*%
X96500000Y-198500000D02*
X59000000Y-161000000D01*
X427000000Y-194500000D02*
X424000000Y-198000000D01*
X61499999Y-90282358D02*
X64140000Y-89940000D01*
X427000000Y-182000000D02*
X427000000Y-194500000D01*
X431761250Y-181040000D02*
X427960000Y-181040000D01*
X427960000Y-181040000D02*
X427000000Y-182000000D01*
X61000000Y-92500000D02*
X61499999Y-90282358D01*
X59000000Y-161000000D02*
X61000000Y-92500000D01*
X424000000Y-198000000D02*
X96500000Y-198500000D01*
%TO.N,/COL12*%
X358083750Y-64500000D02*
X61500000Y-64500000D01*
X64000000Y-95000000D02*
X66500000Y-92500000D01*
X61500000Y-64500000D02*
X61500000Y-83500000D01*
X66500000Y-92500000D02*
X66500000Y-84000000D01*
X66500000Y-84000000D02*
X66000000Y-83500000D01*
X61500000Y-83500000D02*
X61900000Y-83900000D01*
X61900000Y-83900000D02*
X65400000Y-83900000D01*
X65400000Y-83900000D02*
X66000000Y-84500000D01*
X369848750Y-76265000D02*
X358083750Y-64500000D01*
%TO.N,/COL13*%
X64000000Y-91550000D02*
X65450000Y-91550000D01*
X62868131Y-91650489D02*
X64000000Y-91550000D01*
X65450000Y-91550000D02*
X66000000Y-91000000D01*
X64000000Y-97500000D02*
X62500000Y-96000000D01*
X62500000Y-96000000D02*
X62868131Y-91650489D01*
X66000000Y-91000000D02*
X66000000Y-84500000D01*
%TO.N,/COL14*%
X385000000Y-193500000D02*
X384000000Y-194500000D01*
X64240000Y-100000000D02*
X64140000Y-100100000D01*
X393661250Y-181040000D02*
X393621250Y-181000000D01*
X385000000Y-184500000D02*
X385000000Y-193500000D01*
X99000000Y-194500000D02*
X75500000Y-171000000D01*
X384000000Y-194500000D02*
X99000000Y-194500000D01*
X75500000Y-100000000D02*
X64240000Y-100000000D01*
X75500000Y-171000000D02*
X75500000Y-100000000D01*
X388500000Y-181000000D02*
X385000000Y-184500000D01*
X393621250Y-181000000D02*
X388500000Y-181000000D01*
%TO.N,/COL15*%
X98500000Y-195000000D02*
X75000000Y-171500000D01*
X72500000Y-103000000D02*
X64500000Y-103000000D01*
X75000000Y-171500000D02*
X75000000Y-105500000D01*
X64500000Y-103000000D02*
X64140000Y-102640000D01*
X412711250Y-181040000D02*
X408540000Y-181040000D01*
X408500000Y-192500000D02*
X406000000Y-195000000D01*
X408540000Y-181040000D02*
X408500000Y-181000000D01*
X75000000Y-105500000D02*
X72500000Y-103000000D01*
X408500000Y-181000000D02*
X408500000Y-192500000D01*
X406000000Y-195000000D02*
X98500000Y-195000000D01*
%TO.N,/COL20*%
X459000000Y-60500000D02*
X496000000Y-97500000D01*
X512500000Y-97500000D02*
X513000000Y-98000000D01*
X62500000Y-88500000D02*
X59000000Y-85000000D01*
X59000000Y-85000000D02*
X59000000Y-64000000D01*
X59000000Y-64000000D02*
X62500000Y-60500000D01*
X62500000Y-60500000D02*
X459000000Y-60500000D01*
X61500000Y-92565686D02*
X62918802Y-90991759D01*
X65500000Y-88500000D02*
X62500000Y-88500000D01*
X61500000Y-102500000D02*
X61500000Y-92565686D01*
X64140000Y-105180000D02*
X64140000Y-105140000D01*
X62918802Y-90991759D02*
X65008241Y-90991759D01*
X65500000Y-90500000D02*
X65500000Y-88500000D01*
X513000000Y-98000000D02*
X513000000Y-104500000D01*
X65008241Y-90991759D02*
X65500000Y-90500000D01*
X496000000Y-97500000D02*
X512500000Y-97500000D01*
X64140000Y-105140000D02*
X61500000Y-102500000D01*
%TD*%
M02*
