%TF.GenerationSoftware,KiCad,Pcbnew,10.0.4*%
%TF.CreationDate,2026-09-14T17:50:23-07:00*%
%TF.ProjectId,keeboard,6b656562-6f61-4726-942e-6b696361645f,rev?*%
%TF.SameCoordinates,Original*%
%TF.FileFunction,Soldermask,Bot*%
%TF.FilePolarity,Negative*%
%FSLAX46Y46*%
G04 Gerber Fmt 4.6, Leading zero omitted, Abs format (unit mm)*
G04 Created by KiCad (PCBNEW 10.0.4) date 2026-09-14 17:50:23*
%MOMM*%
%LPD*%
G01*
G04 APERTURE LIST*
G04 Aperture macros list*
%AMRoundRect*
0 Rectangle with rounded corners*
0 $1 Rounding radius*
0 $2 $3 $4 $5 $6 $7 $8 $9 X,Y pos of 4 corners*
0 Add a 4 corners polygon primitive as box body*
4,1,4,$2,$3,$4,$5,$6,$7,$8,$9,$2,$3,0*
0 Add four circle primitives for the rounded corners*
1,1,$1+$1,$2,$3*
1,1,$1+$1,$4,$5*
1,1,$1+$1,$6,$7*
1,1,$1+$1,$8,$9*
0 Add four rect primitives between the rounded corners*
20,1,$1+$1,$2,$3,$4,$5,0*
20,1,$1+$1,$4,$5,$6,$7,0*
20,1,$1+$1,$6,$7,$8,$9,0*
20,1,$1+$1,$8,$9,$2,$3,0*%
G04 Aperture macros list end*
%ADD10C,3.048000*%
%ADD11C,3.987800*%
%ADD12R,2.000000X2.000000*%
%ADD13C,2.000000*%
%ADD14R,3.200000X2.000000*%
%ADD15R,2.000000X1.200000*%
%ADD16O,2.000000X1.200000*%
%ADD17RoundRect,0.225000X0.375000X-0.225000X0.375000X0.225000X-0.375000X0.225000X-0.375000X-0.225000X0*%
%ADD18C,1.750000*%
%ADD19C,3.300000*%
%ADD20RoundRect,0.250000X1.025000X1.000000X-1.025000X1.000000X-1.025000X-1.000000X1.025000X-1.000000X0*%
G04 APERTURE END LIST*
D10*
%TO.C,S5*%
X106958750Y-157545000D03*
D11*
X106958750Y-172785000D03*
D10*
X130771250Y-157545000D03*
D11*
X130771250Y-172785000D03*
%TD*%
D12*
%TO.C,SW1*%
X490000000Y-76000000D03*
D13*
X490000000Y-81000000D03*
X490000000Y-78500000D03*
D14*
X497500000Y-72900000D03*
X497500000Y-84100000D03*
D13*
X504500000Y-81000000D03*
X504500000Y-76000000D03*
%TD*%
D10*
%TO.C,S4*%
X509548750Y-185961250D03*
D11*
X524788750Y-185961250D03*
D10*
X509548750Y-162148750D03*
D11*
X524788750Y-162148750D03*
%TD*%
D10*
%TO.C,S2*%
X457002500Y-176595000D03*
D11*
X457002500Y-191835000D03*
D10*
X480815000Y-176595000D03*
D11*
X480815000Y-191835000D03*
%TD*%
D10*
%TO.C,S7*%
X178396250Y-176595000D03*
D11*
X178396250Y-191835000D03*
D10*
X278408750Y-176595000D03*
D11*
X278408750Y-191835000D03*
%TD*%
D10*
%TO.C,S8*%
X349846250Y-138495000D03*
D11*
X349846250Y-153735000D03*
D10*
X373658750Y-138495000D03*
D11*
X373658750Y-153735000D03*
%TD*%
D15*
%TO.C,U1*%
X87000000Y-125500000D03*
D16*
X87000000Y-122960000D03*
X87000000Y-120420000D03*
X87000000Y-117880000D03*
X87000000Y-115340000D03*
X87000000Y-112800000D03*
X87000000Y-110260000D03*
X87000000Y-107720000D03*
X87000000Y-105180000D03*
X87000000Y-102640000D03*
X87000000Y-100100000D03*
X87000000Y-97560000D03*
X87000000Y-95020000D03*
X87000000Y-92480000D03*
X87000000Y-89940000D03*
X87000000Y-87400000D03*
X87000000Y-84860000D03*
X87000000Y-82320000D03*
X87000000Y-79780000D03*
X87003680Y-77242720D03*
X87003680Y-74702720D03*
X87003680Y-72162720D03*
X64140000Y-72160000D03*
X64140000Y-74700000D03*
X64140000Y-77240000D03*
X64140000Y-79780000D03*
X64140000Y-82320000D03*
X64140000Y-84860000D03*
X64140000Y-87400000D03*
X64140000Y-89940000D03*
X64140000Y-92480000D03*
X64140000Y-95020000D03*
X64140000Y-97560000D03*
X64140000Y-100100000D03*
X64140000Y-102640000D03*
X64140000Y-105180000D03*
X64140000Y-107720000D03*
X64140000Y-110260000D03*
X64140000Y-112800000D03*
X64140000Y-115340000D03*
X64140000Y-117880000D03*
X64140000Y-120420000D03*
X64140000Y-122960000D03*
X64140000Y-125500000D03*
%TD*%
D10*
%TO.C,S6*%
X345083750Y-157545000D03*
D11*
X345083750Y-172785000D03*
D10*
X368896250Y-157545000D03*
D11*
X368896250Y-172785000D03*
%TD*%
D10*
%TO.C,S1*%
X509548750Y-147861250D03*
D11*
X524788750Y-147861250D03*
D10*
X509548750Y-124048750D03*
D11*
X524788750Y-124048750D03*
%TD*%
D10*
%TO.C,S3*%
X352227500Y-100395000D03*
D11*
X352227500Y-115635000D03*
D10*
X376040000Y-100395000D03*
D11*
X376040000Y-115635000D03*
%TD*%
D17*
%TO.C,D7*%
X274289776Y-85666260D03*
X274289776Y-82366260D03*
%TD*%
D18*
%TO.C,SW30*%
X369213750Y-107380000D03*
D11*
X364133750Y-107380000D03*
D18*
X359053750Y-107380000D03*
D19*
X360323750Y-104840000D03*
D20*
X356773750Y-104840000D03*
X370223750Y-102300000D03*
D19*
X366673750Y-102300000D03*
%TD*%
D18*
%TO.C,SW57*%
X502563750Y-126430000D03*
D11*
X497483750Y-126430000D03*
D18*
X492403750Y-126430000D03*
D19*
X493673750Y-123890000D03*
D20*
X490123750Y-123890000D03*
X503573750Y-121350000D03*
D19*
X500023750Y-121350000D03*
%TD*%
D17*
%TO.C,D33*%
X464789776Y-114241260D03*
X464789776Y-110941260D03*
%TD*%
D18*
%TO.C,SW4*%
X188238750Y-78805000D03*
D11*
X183158750Y-78805000D03*
D18*
X178078750Y-78805000D03*
D19*
X179348750Y-76265000D03*
D20*
X175798750Y-76265000D03*
X189248750Y-73725000D03*
D19*
X185698750Y-73725000D03*
%TD*%
D18*
%TO.C,SW102*%
X421601250Y-183580000D03*
D11*
X416521250Y-183580000D03*
D18*
X411441250Y-183580000D03*
D19*
X412711250Y-181040000D03*
D20*
X409161250Y-181040000D03*
X422611250Y-178500000D03*
D19*
X419061250Y-178500000D03*
%TD*%
D17*
%TO.C,D79*%
X212377276Y-171391260D03*
X212377276Y-168091260D03*
%TD*%
D18*
%TO.C,SW29*%
X340638750Y-107380000D03*
D11*
X335558750Y-107380000D03*
D18*
X330478750Y-107380000D03*
D19*
X331748750Y-104840000D03*
D20*
X328198750Y-104840000D03*
X341648750Y-102300000D03*
D19*
X338098750Y-102300000D03*
%TD*%
D18*
%TO.C,SW53*%
X421601250Y-126430000D03*
D11*
X416521250Y-126430000D03*
D18*
X411441250Y-126430000D03*
D19*
X412711250Y-123890000D03*
D20*
X409161250Y-123890000D03*
X422611250Y-121350000D03*
D19*
X419061250Y-121350000D03*
%TD*%
D18*
%TO.C,SW73*%
X483513750Y-145480000D03*
D11*
X478433750Y-145480000D03*
D18*
X473353750Y-145480000D03*
D19*
X474623750Y-142940000D03*
D20*
X471073750Y-142940000D03*
X484523750Y-140400000D03*
D19*
X480973750Y-140400000D03*
%TD*%
D18*
%TO.C,SW34*%
X464463750Y-107380000D03*
D11*
X459383750Y-107380000D03*
D18*
X454303750Y-107380000D03*
D19*
X455573750Y-104840000D03*
D20*
X452023750Y-104840000D03*
X465473750Y-102300000D03*
D19*
X461923750Y-102300000D03*
%TD*%
D18*
%TO.C,SW15*%
X421601250Y-78805000D03*
D11*
X416521250Y-78805000D03*
D18*
X411441250Y-78805000D03*
D19*
X412711250Y-76265000D03*
D20*
X409161250Y-76265000D03*
X422611250Y-73725000D03*
D19*
X419061250Y-73725000D03*
%TD*%
D18*
%TO.C,SW84*%
X288251250Y-164530000D03*
D11*
X283171250Y-164530000D03*
D18*
X278091250Y-164530000D03*
D19*
X279361250Y-161990000D03*
D20*
X275811250Y-161990000D03*
X289261250Y-159450000D03*
D19*
X285711250Y-159450000D03*
%TD*%
D17*
%TO.C,D26*%
X302864776Y-114241260D03*
X302864776Y-110941260D03*
%TD*%
%TO.C,D49*%
X350489776Y-133291260D03*
X350489776Y-129991260D03*
%TD*%
%TO.C,D12*%
X379064776Y-85666260D03*
X379064776Y-82366260D03*
%TD*%
%TO.C,D71*%
X464789776Y-152341260D03*
X464789776Y-149041260D03*
%TD*%
D18*
%TO.C,SW74*%
X502563750Y-145480000D03*
D11*
X497483750Y-145480000D03*
D18*
X492403750Y-145480000D03*
D19*
X493673750Y-142940000D03*
D20*
X490123750Y-142940000D03*
X503573750Y-140400000D03*
D19*
X500023750Y-140400000D03*
%TD*%
D17*
%TO.C,D54*%
X464789776Y-133291260D03*
X464789776Y-129991260D03*
%TD*%
D18*
%TO.C,SW101*%
X402551250Y-183580000D03*
D11*
X397471250Y-183580000D03*
D18*
X392391250Y-183580000D03*
D19*
X393661250Y-181040000D03*
D20*
X390111250Y-181040000D03*
X403561250Y-178500000D03*
D19*
X400011250Y-178500000D03*
%TD*%
D18*
%TO.C,SW51*%
X373976250Y-126430000D03*
D11*
X368896250Y-126430000D03*
D18*
X363816250Y-126430000D03*
D19*
X365086250Y-123890000D03*
D20*
X361536250Y-123890000D03*
X374986250Y-121350000D03*
D19*
X371436250Y-121350000D03*
%TD*%
D18*
%TO.C,SW19*%
X150138750Y-107380000D03*
D11*
X145058750Y-107380000D03*
D18*
X139978750Y-107380000D03*
D19*
X141248750Y-104840000D03*
D20*
X137698750Y-104840000D03*
X151148750Y-102300000D03*
D19*
X147598750Y-102300000D03*
%TD*%
D18*
%TO.C,SW5*%
X207288750Y-78805000D03*
D11*
X202208750Y-78805000D03*
D18*
X197128750Y-78805000D03*
D19*
X198398750Y-76265000D03*
D20*
X194848750Y-76265000D03*
X208298750Y-73725000D03*
D19*
X204748750Y-73725000D03*
%TD*%
D17*
%TO.C,D14*%
X421927276Y-85666260D03*
X421927276Y-82366260D03*
%TD*%
D18*
%TO.C,SW65*%
X240626250Y-145480000D03*
D11*
X235546250Y-145480000D03*
D18*
X230466250Y-145480000D03*
D19*
X231736250Y-142940000D03*
D20*
X228186250Y-142940000D03*
X241636250Y-140400000D03*
D19*
X238086250Y-140400000D03*
%TD*%
D18*
%TO.C,SW11*%
X340638750Y-78805000D03*
D11*
X335558750Y-78805000D03*
D18*
X330478750Y-78805000D03*
D19*
X331748750Y-76265000D03*
D20*
X328198750Y-76265000D03*
X341648750Y-73725000D03*
D19*
X338098750Y-73725000D03*
%TD*%
D18*
%TO.C,SW13*%
X378738750Y-78805000D03*
D11*
X373658750Y-78805000D03*
D18*
X368578750Y-78805000D03*
D19*
X369848750Y-76265000D03*
D20*
X366298750Y-76265000D03*
X379748750Y-73725000D03*
D19*
X376198750Y-73725000D03*
%TD*%
D17*
%TO.C,D19*%
X169514776Y-114241260D03*
X169514776Y-110941260D03*
%TD*%
D18*
%TO.C,SW82*%
X250151250Y-164530000D03*
D11*
X245071250Y-164530000D03*
D18*
X239991250Y-164530000D03*
D19*
X241261250Y-161990000D03*
D20*
X237711250Y-161990000D03*
X251161250Y-159450000D03*
D19*
X247611250Y-159450000D03*
%TD*%
D17*
%TO.C,D75*%
X124271026Y-171391260D03*
X124271026Y-168091260D03*
%TD*%
%TO.C,D36*%
X521939776Y-114241260D03*
X521939776Y-110941260D03*
%TD*%
%TO.C,D44*%
X255239776Y-133291260D03*
X255239776Y-129991260D03*
%TD*%
D18*
%TO.C,SW36*%
X502563750Y-107380000D03*
D11*
X497483750Y-107380000D03*
D18*
X492403750Y-107380000D03*
D19*
X493673750Y-104840000D03*
D20*
X490123750Y-104840000D03*
X503573750Y-102300000D03*
D19*
X500023750Y-102300000D03*
%TD*%
D18*
%TO.C,SW60*%
X145376250Y-145480000D03*
D11*
X140296250Y-145480000D03*
D18*
X135216250Y-145480000D03*
D19*
X136486250Y-142940000D03*
D20*
X132936250Y-142940000D03*
X146386250Y-140400000D03*
D19*
X142836250Y-140400000D03*
%TD*%
D17*
%TO.C,D94*%
X162371026Y-190441260D03*
X162371026Y-187141260D03*
%TD*%
%TO.C,D21*%
X207614776Y-114241260D03*
X207614776Y-110941260D03*
%TD*%
%TO.C,D96*%
X305246026Y-190441260D03*
X305246026Y-187141260D03*
%TD*%
%TO.C,D97*%
X329058526Y-190441260D03*
X329058526Y-187141260D03*
%TD*%
D18*
%TO.C,SW79*%
X193001250Y-164530000D03*
D11*
X187921250Y-164530000D03*
D18*
X182841250Y-164530000D03*
D19*
X184111250Y-161990000D03*
D20*
X180561250Y-161990000D03*
X194011250Y-159450000D03*
D19*
X190461250Y-159450000D03*
%TD*%
D17*
%TO.C,D92*%
X114746026Y-190441260D03*
X114746026Y-187141260D03*
%TD*%
%TO.C,D43*%
X236189776Y-133291260D03*
X236189776Y-129991260D03*
%TD*%
%TO.C,D32*%
X440977276Y-114241260D03*
X440977276Y-110941260D03*
%TD*%
%TO.C,D70*%
X367158526Y-152341260D03*
X367158526Y-149041260D03*
%TD*%
D18*
%TO.C,SW47*%
X293013750Y-126430000D03*
D11*
X287933750Y-126430000D03*
D18*
X282853750Y-126430000D03*
D19*
X284123750Y-123890000D03*
D20*
X280573750Y-123890000D03*
X294023750Y-121350000D03*
D19*
X290473750Y-121350000D03*
%TD*%
D18*
%TO.C,SW31*%
X402551250Y-107380000D03*
D11*
X397471250Y-107380000D03*
D18*
X392391250Y-107380000D03*
D19*
X393661250Y-104840000D03*
D20*
X390111250Y-104840000D03*
X403561250Y-102300000D03*
D19*
X400011250Y-102300000D03*
%TD*%
D18*
%TO.C,SW59*%
X119182500Y-145480000D03*
D11*
X114102500Y-145480000D03*
D18*
X109022500Y-145480000D03*
D19*
X110292500Y-142940000D03*
D20*
X106742500Y-142940000D03*
X120192500Y-140400000D03*
D19*
X116642500Y-140400000D03*
%TD*%
D17*
%TO.C,D57*%
X521939776Y-142816260D03*
X521939776Y-139516260D03*
%TD*%
D18*
%TO.C,SW46*%
X273963750Y-126430000D03*
D11*
X268883750Y-126430000D03*
D18*
X263803750Y-126430000D03*
D19*
X265073750Y-123890000D03*
D20*
X261523750Y-123890000D03*
X274973750Y-121350000D03*
D19*
X271423750Y-121350000D03*
%TD*%
D18*
%TO.C,SW40*%
X159663750Y-126430000D03*
D11*
X154583750Y-126430000D03*
D18*
X149503750Y-126430000D03*
D19*
X150773750Y-123890000D03*
D20*
X147223750Y-123890000D03*
X160673750Y-121350000D03*
D19*
X157123750Y-121350000D03*
%TD*%
D17*
%TO.C,D6*%
X255239776Y-85666260D03*
X255239776Y-82366260D03*
%TD*%
D18*
%TO.C,SW63*%
X202526250Y-145480000D03*
D11*
X197446250Y-145480000D03*
D18*
X192366250Y-145480000D03*
D19*
X193636250Y-142940000D03*
D20*
X190086250Y-142940000D03*
X203536250Y-140400000D03*
D19*
X199986250Y-140400000D03*
%TD*%
D18*
%TO.C,SW100*%
X376357500Y-183580000D03*
D11*
X371277500Y-183580000D03*
D18*
X366197500Y-183580000D03*
D19*
X367467500Y-181040000D03*
D20*
X363917500Y-181040000D03*
X377367500Y-178500000D03*
D19*
X373817500Y-178500000D03*
%TD*%
D18*
%TO.C,SW6*%
X235863750Y-78805000D03*
D11*
X230783750Y-78805000D03*
D18*
X225703750Y-78805000D03*
D19*
X226973750Y-76265000D03*
D20*
X223423750Y-76265000D03*
X236873750Y-73725000D03*
D19*
X233323750Y-73725000D03*
%TD*%
D17*
%TO.C,D29*%
X369539776Y-114241260D03*
X369539776Y-110941260D03*
%TD*%
D18*
%TO.C,SW43*%
X216813750Y-126430000D03*
D11*
X211733750Y-126430000D03*
D18*
X206653750Y-126430000D03*
D19*
X207923750Y-123890000D03*
D20*
X204373750Y-123890000D03*
X217823750Y-121350000D03*
D19*
X214273750Y-121350000D03*
%TD*%
D18*
%TO.C,SW27*%
X302538750Y-107380000D03*
D11*
X297458750Y-107380000D03*
D18*
X292378750Y-107380000D03*
D19*
X293648750Y-104840000D03*
D20*
X290098750Y-104840000D03*
X303548750Y-102300000D03*
D19*
X299998750Y-102300000D03*
%TD*%
D18*
%TO.C,SW41*%
X178713750Y-126430000D03*
D11*
X173633750Y-126430000D03*
D18*
X168553750Y-126430000D03*
D19*
X169823750Y-123890000D03*
D20*
X166273750Y-123890000D03*
X179723750Y-121350000D03*
D19*
X176173750Y-121350000D03*
%TD*%
D18*
%TO.C,SW81*%
X231101250Y-164530000D03*
D11*
X226021250Y-164530000D03*
D18*
X220941250Y-164530000D03*
D19*
X222211250Y-161990000D03*
D20*
X218661250Y-161990000D03*
X232111250Y-159450000D03*
D19*
X228561250Y-159450000D03*
%TD*%
D17*
%TO.C,D37*%
X117127276Y-133291260D03*
X117127276Y-129991260D03*
%TD*%
%TO.C,D65*%
X260002276Y-152341260D03*
X260002276Y-149041260D03*
%TD*%
%TO.C,D76*%
X155227276Y-171391260D03*
X155227276Y-168091260D03*
%TD*%
D18*
%TO.C,SW28*%
X321588750Y-107380000D03*
D11*
X316508750Y-107380000D03*
D18*
X311428750Y-107380000D03*
D19*
X312698750Y-104840000D03*
D20*
X309148750Y-104840000D03*
X322598750Y-102300000D03*
D19*
X319048750Y-102300000D03*
%TD*%
D18*
%TO.C,SW69*%
X316826250Y-145480000D03*
D11*
X311746250Y-145480000D03*
D18*
X306666250Y-145480000D03*
D19*
X307936250Y-142940000D03*
D20*
X304386250Y-142940000D03*
X317836250Y-140400000D03*
D19*
X314286250Y-140400000D03*
%TD*%
D17*
%TO.C,D87*%
X421927276Y-171391260D03*
X421927276Y-168091260D03*
%TD*%
%TO.C,D86*%
X362396026Y-171391260D03*
X362396026Y-168091260D03*
%TD*%
D18*
%TO.C,SW37*%
X521613750Y-107380000D03*
D11*
X516533750Y-107380000D03*
D18*
X511453750Y-107380000D03*
D19*
X512723750Y-104840000D03*
D20*
X509173750Y-104840000D03*
X522623750Y-102300000D03*
D19*
X519073750Y-102300000D03*
%TD*%
D17*
%TO.C,D81*%
X250477276Y-171391260D03*
X250477276Y-168091260D03*
%TD*%
%TO.C,D58*%
X119508526Y-152341260D03*
X119508526Y-149041260D03*
%TD*%
%TO.C,D52*%
X421927276Y-133291260D03*
X421927276Y-129991260D03*
%TD*%
D18*
%TO.C,SW99*%
X352545000Y-183580000D03*
D11*
X347465000Y-183580000D03*
D18*
X342385000Y-183580000D03*
D19*
X343655000Y-181040000D03*
D20*
X340105000Y-181040000D03*
X353555000Y-178500000D03*
D19*
X350005000Y-178500000D03*
%TD*%
D17*
%TO.C,D22*%
X226664776Y-114241260D03*
X226664776Y-110941260D03*
%TD*%
%TO.C,D41*%
X198089776Y-133291260D03*
X198089776Y-129991260D03*
%TD*%
%TO.C,D63*%
X221902276Y-152341260D03*
X221902276Y-149041260D03*
%TD*%
D18*
%TO.C,SW95*%
X162045000Y-183580000D03*
D11*
X156965000Y-183580000D03*
D18*
X151885000Y-183580000D03*
D19*
X153155000Y-181040000D03*
D20*
X149605000Y-181040000D03*
X163055000Y-178500000D03*
D19*
X159505000Y-178500000D03*
%TD*%
D17*
%TO.C,D39*%
X159989776Y-133291260D03*
X159989776Y-129991260D03*
%TD*%
D18*
%TO.C,SW50*%
X350163750Y-126430000D03*
D11*
X345083750Y-126430000D03*
D18*
X340003750Y-126430000D03*
D19*
X341273750Y-123890000D03*
D20*
X337723750Y-123890000D03*
X351173750Y-121350000D03*
D19*
X347623750Y-121350000D03*
%TD*%
D18*
%TO.C,SW55*%
X464463750Y-126430000D03*
D11*
X459383750Y-126430000D03*
D18*
X454303750Y-126430000D03*
D19*
X455573750Y-123890000D03*
D20*
X452023750Y-123890000D03*
X465473750Y-121350000D03*
D19*
X461923750Y-121350000D03*
%TD*%
D17*
%TO.C,D31*%
X421927276Y-114241260D03*
X421927276Y-110941260D03*
%TD*%
%TO.C,D89*%
X483839776Y-171391260D03*
X483839776Y-168091260D03*
%TD*%
%TO.C,D11*%
X360014776Y-85666260D03*
X360014776Y-82366260D03*
%TD*%
%TO.C,D80*%
X231427276Y-171391260D03*
X231427276Y-168091260D03*
%TD*%
%TO.C,D13*%
X402877276Y-85666260D03*
X402877276Y-82366260D03*
%TD*%
D18*
%TO.C,SW92*%
X521613750Y-174055000D03*
D11*
X516533750Y-174055000D03*
D18*
X511453750Y-174055000D03*
D19*
X512723750Y-171515000D03*
D20*
X509173750Y-171515000D03*
X522623750Y-168975000D03*
D19*
X519073750Y-168975000D03*
%TD*%
D17*
%TO.C,D20*%
X188564776Y-114241260D03*
X188564776Y-110941260D03*
%TD*%
D18*
%TO.C,SW23*%
X226338750Y-107380000D03*
D11*
X221258750Y-107380000D03*
D18*
X216178750Y-107380000D03*
D19*
X217448750Y-104840000D03*
D20*
X213898750Y-104840000D03*
X227348750Y-102300000D03*
D19*
X223798750Y-102300000D03*
%TD*%
D18*
%TO.C,SW49*%
X331113750Y-126430000D03*
D11*
X326033750Y-126430000D03*
D18*
X320953750Y-126430000D03*
D19*
X322223750Y-123890000D03*
D20*
X318673750Y-123890000D03*
X332123750Y-121350000D03*
D19*
X328573750Y-121350000D03*
%TD*%
D18*
%TO.C,SW42*%
X197763750Y-126430000D03*
D11*
X192683750Y-126430000D03*
D18*
X187603750Y-126430000D03*
D19*
X188873750Y-123890000D03*
D20*
X185323750Y-123890000D03*
X198773750Y-121350000D03*
D19*
X195223750Y-121350000D03*
%TD*%
D18*
%TO.C,SW18*%
X131088750Y-107380000D03*
D11*
X126008750Y-107380000D03*
D18*
X120928750Y-107380000D03*
D19*
X122198750Y-104840000D03*
D20*
X118648750Y-104840000D03*
X132098750Y-102300000D03*
D19*
X128548750Y-102300000D03*
%TD*%
D18*
%TO.C,SW8*%
X273963750Y-78805000D03*
D11*
X268883750Y-78805000D03*
D18*
X263803750Y-78805000D03*
D19*
X265073750Y-76265000D03*
D20*
X261523750Y-76265000D03*
X274973750Y-73725000D03*
D19*
X271423750Y-73725000D03*
%TD*%
D17*
%TO.C,D55*%
X483839776Y-133291260D03*
X483839776Y-129991260D03*
%TD*%
%TO.C,D85*%
X326677276Y-171391260D03*
X326677276Y-168091260D03*
%TD*%
%TO.C,D93*%
X138558526Y-190441260D03*
X138558526Y-187141260D03*
%TD*%
%TO.C,D67*%
X298102276Y-152341260D03*
X298102276Y-149041260D03*
%TD*%
%TO.C,D38*%
X140939776Y-133291260D03*
X140939776Y-129991260D03*
%TD*%
%TO.C,D15*%
X440977276Y-85666260D03*
X440977276Y-82366260D03*
%TD*%
D18*
%TO.C,SW58*%
X521613750Y-135955000D03*
D11*
X516533750Y-135955000D03*
D18*
X511453750Y-135955000D03*
D19*
X512723750Y-133415000D03*
D20*
X509173750Y-133415000D03*
X522623750Y-130875000D03*
D19*
X519073750Y-130875000D03*
%TD*%
D17*
%TO.C,D90*%
X502889776Y-171391260D03*
X502889776Y-168091260D03*
%TD*%
D18*
%TO.C,SW24*%
X245388750Y-107380000D03*
D11*
X240308750Y-107380000D03*
D18*
X235228750Y-107380000D03*
D19*
X236498750Y-104840000D03*
D20*
X232948750Y-104840000D03*
X246398750Y-102300000D03*
D19*
X242848750Y-102300000D03*
%TD*%
D17*
%TO.C,D42*%
X217139776Y-133291260D03*
X217139776Y-129991260D03*
%TD*%
%TO.C,D1*%
X150464776Y-85666260D03*
X150464776Y-82366260D03*
%TD*%
%TO.C,D46*%
X293339776Y-133291260D03*
X293339776Y-129991260D03*
%TD*%
D18*
%TO.C,SW56*%
X483513750Y-126430000D03*
D11*
X478433750Y-126430000D03*
D18*
X473353750Y-126430000D03*
D19*
X474623750Y-123890000D03*
D20*
X471073750Y-123890000D03*
X484523750Y-121350000D03*
D19*
X480973750Y-121350000D03*
%TD*%
D17*
%TO.C,D59*%
X145702276Y-152341260D03*
X145702276Y-149041260D03*
%TD*%
%TO.C,D34*%
X483839776Y-114241260D03*
X483839776Y-110941260D03*
%TD*%
D18*
%TO.C,SW2*%
X112038750Y-78805000D03*
D11*
X106958750Y-78805000D03*
D18*
X101878750Y-78805000D03*
D19*
X103148750Y-76265000D03*
D20*
X99598750Y-76265000D03*
X113048750Y-73725000D03*
D19*
X109498750Y-73725000D03*
%TD*%
D18*
%TO.C,SW98*%
X328732500Y-183580000D03*
D11*
X323652500Y-183580000D03*
D18*
X318572500Y-183580000D03*
D19*
X319842500Y-181040000D03*
D20*
X316292500Y-181040000D03*
X329742500Y-178500000D03*
D19*
X326192500Y-178500000D03*
%TD*%
D17*
%TO.C,D2*%
X169514776Y-85666260D03*
X169514776Y-82366260D03*
%TD*%
D18*
%TO.C,SW85*%
X307301250Y-164530000D03*
D11*
X302221250Y-164530000D03*
D18*
X297141250Y-164530000D03*
D19*
X298411250Y-161990000D03*
D20*
X294861250Y-161990000D03*
X308311250Y-159450000D03*
D19*
X304761250Y-159450000D03*
%TD*%
D18*
%TO.C,SW97*%
X304920000Y-183580000D03*
D11*
X299840000Y-183580000D03*
D18*
X294760000Y-183580000D03*
D19*
X296030000Y-181040000D03*
D20*
X292480000Y-181040000D03*
X305930000Y-178500000D03*
D19*
X302380000Y-178500000D03*
%TD*%
D18*
%TO.C,SW103*%
X440651250Y-183580000D03*
D11*
X435571250Y-183580000D03*
D18*
X430491250Y-183580000D03*
D19*
X431761250Y-181040000D03*
D20*
X428211250Y-181040000D03*
X441661250Y-178500000D03*
D19*
X438111250Y-178500000D03*
%TD*%
D18*
%TO.C,SW90*%
X483513750Y-164530000D03*
D11*
X478433750Y-164530000D03*
D18*
X473353750Y-164530000D03*
D19*
X474623750Y-161990000D03*
D20*
X471073750Y-161990000D03*
X484523750Y-159450000D03*
D19*
X480973750Y-159450000D03*
%TD*%
D18*
%TO.C,SW77*%
X154901250Y-164530000D03*
D11*
X149821250Y-164530000D03*
D18*
X144741250Y-164530000D03*
D19*
X146011250Y-161990000D03*
D20*
X142461250Y-161990000D03*
X155911250Y-159450000D03*
D19*
X152361250Y-159450000D03*
%TD*%
D18*
%TO.C,SW52*%
X402551250Y-126430000D03*
D11*
X397471250Y-126430000D03*
D18*
X392391250Y-126430000D03*
D19*
X393661250Y-123890000D03*
D20*
X390111250Y-123890000D03*
X403561250Y-121350000D03*
D19*
X400011250Y-121350000D03*
%TD*%
D17*
%TO.C,D77*%
X174277276Y-171391260D03*
X174277276Y-168091260D03*
%TD*%
%TO.C,D100*%
X402877276Y-190441260D03*
X402877276Y-187141260D03*
%TD*%
D18*
%TO.C,SW39*%
X140613750Y-126430000D03*
D11*
X135533750Y-126430000D03*
D18*
X130453750Y-126430000D03*
D19*
X131723750Y-123890000D03*
D20*
X128173750Y-123890000D03*
X141623750Y-121350000D03*
D19*
X138073750Y-121350000D03*
%TD*%
D18*
%TO.C,SW20*%
X169188750Y-107380000D03*
D11*
X164108750Y-107380000D03*
D18*
X159028750Y-107380000D03*
D19*
X160298750Y-104840000D03*
D20*
X156748750Y-104840000D03*
X170198750Y-102300000D03*
D19*
X166648750Y-102300000D03*
%TD*%
D17*
%TO.C,D9*%
X321914776Y-85666260D03*
X321914776Y-82366260D03*
%TD*%
D18*
%TO.C,SW33*%
X440651250Y-107380000D03*
D11*
X435571250Y-107380000D03*
D18*
X430491250Y-107380000D03*
D19*
X431761250Y-104840000D03*
D20*
X428211250Y-104840000D03*
X441661250Y-102300000D03*
D19*
X438111250Y-102300000D03*
%TD*%
D18*
%TO.C,SW83*%
X269201250Y-164530000D03*
D11*
X264121250Y-164530000D03*
D18*
X259041250Y-164530000D03*
D19*
X260311250Y-161990000D03*
D20*
X256761250Y-161990000D03*
X270211250Y-159450000D03*
D19*
X266661250Y-159450000D03*
%TD*%
D18*
%TO.C,SW72*%
X464463750Y-145480000D03*
D11*
X459383750Y-145480000D03*
D18*
X454303750Y-145480000D03*
D19*
X455573750Y-142940000D03*
D20*
X452023750Y-142940000D03*
X465473750Y-140400000D03*
D19*
X461923750Y-140400000D03*
%TD*%
D17*
%TO.C,D4*%
X207614776Y-85666260D03*
X207614776Y-82366260D03*
%TD*%
D18*
%TO.C,SW78*%
X173951250Y-164530000D03*
D11*
X168871250Y-164530000D03*
D18*
X163791250Y-164530000D03*
D19*
X165061250Y-161990000D03*
D20*
X161511250Y-161990000D03*
X174961250Y-159450000D03*
D19*
X171411250Y-159450000D03*
%TD*%
D17*
%TO.C,D69*%
X336202276Y-152341260D03*
X336202276Y-149041260D03*
%TD*%
%TO.C,D53*%
X440977276Y-133291260D03*
X440977276Y-129991260D03*
%TD*%
%TO.C,D25*%
X283814776Y-114241260D03*
X283814776Y-110941260D03*
%TD*%
%TO.C,D17*%
X131414776Y-114241260D03*
X131414776Y-110941260D03*
%TD*%
D18*
%TO.C,SW61*%
X164426250Y-145480000D03*
D11*
X159346250Y-145480000D03*
D18*
X154266250Y-145480000D03*
D19*
X155536250Y-142940000D03*
D20*
X151986250Y-142940000D03*
X165436250Y-140400000D03*
D19*
X161886250Y-140400000D03*
%TD*%
D18*
%TO.C,SW16*%
X440651250Y-78805000D03*
D11*
X435571250Y-78805000D03*
D18*
X430491250Y-78805000D03*
D19*
X431761250Y-76265000D03*
D20*
X428211250Y-76265000D03*
X441661250Y-73725000D03*
D19*
X438111250Y-73725000D03*
%TD*%
D17*
%TO.C,D48*%
X331439776Y-133291260D03*
X331439776Y-129991260D03*
%TD*%
%TO.C,D0*%
X112191928Y-85666260D03*
X112191928Y-82366260D03*
%TD*%
%TO.C,D8*%
X293339776Y-85666260D03*
X293339776Y-82366260D03*
%TD*%
D18*
%TO.C,SW14*%
X402551250Y-78805000D03*
D11*
X397471250Y-78805000D03*
D18*
X392391250Y-78805000D03*
D19*
X393661250Y-76265000D03*
D20*
X390111250Y-76265000D03*
X403561250Y-73725000D03*
D19*
X400011250Y-73725000D03*
%TD*%
D18*
%TO.C,SW68*%
X297776250Y-145480000D03*
D11*
X292696250Y-145480000D03*
D18*
X287616250Y-145480000D03*
D19*
X288886250Y-142940000D03*
D20*
X285336250Y-142940000D03*
X298786250Y-140400000D03*
D19*
X295236250Y-140400000D03*
%TD*%
D17*
%TO.C,D16*%
X112364776Y-114241260D03*
X112364776Y-110941260D03*
%TD*%
D18*
%TO.C,SW64*%
X221576250Y-145480000D03*
D11*
X216496250Y-145480000D03*
D18*
X211416250Y-145480000D03*
D19*
X212686250Y-142940000D03*
D20*
X209136250Y-142940000D03*
X222586250Y-140400000D03*
D19*
X219036250Y-140400000D03*
%TD*%
D18*
%TO.C,SW26*%
X283488750Y-107380000D03*
D11*
X278408750Y-107380000D03*
D18*
X273328750Y-107380000D03*
D19*
X274598750Y-104840000D03*
D20*
X271048750Y-104840000D03*
X284498750Y-102300000D03*
D19*
X280948750Y-102300000D03*
%TD*%
D17*
%TO.C,D23*%
X245714776Y-114241260D03*
X245714776Y-110941260D03*
%TD*%
%TO.C,D60*%
X164752276Y-152341260D03*
X164752276Y-149041260D03*
%TD*%
%TO.C,D91*%
X521939776Y-180916260D03*
X521939776Y-177616260D03*
%TD*%
%TO.C,D28*%
X340964776Y-114241260D03*
X340964776Y-110941260D03*
%TD*%
%TO.C,D3*%
X188564776Y-85666260D03*
X188564776Y-82366260D03*
%TD*%
D18*
%TO.C,SW89*%
X464463750Y-164530000D03*
D11*
X459383750Y-164530000D03*
D18*
X454303750Y-164530000D03*
D19*
X455573750Y-161990000D03*
D20*
X452023750Y-161990000D03*
X465473750Y-159450000D03*
D19*
X461923750Y-159450000D03*
%TD*%
D17*
%TO.C,D82*%
X269527276Y-171391260D03*
X269527276Y-168091260D03*
%TD*%
%TO.C,D18*%
X150464776Y-114241260D03*
X150464776Y-110941260D03*
%TD*%
D18*
%TO.C,SW44*%
X235863750Y-126430000D03*
D11*
X230783750Y-126430000D03*
D18*
X225703750Y-126430000D03*
D19*
X226973750Y-123890000D03*
D20*
X223423750Y-123890000D03*
X236873750Y-121350000D03*
D19*
X233323750Y-121350000D03*
%TD*%
D17*
%TO.C,D35*%
X502889776Y-114241260D03*
X502889776Y-110941260D03*
%TD*%
D18*
%TO.C,SW3*%
X169188750Y-78805000D03*
D11*
X164108750Y-78805000D03*
D18*
X159028750Y-78805000D03*
D19*
X160298750Y-76265000D03*
D20*
X156748750Y-76265000D03*
X170198750Y-73725000D03*
D19*
X166648750Y-73725000D03*
%TD*%
D17*
%TO.C,D56*%
X502889776Y-133291260D03*
X502889776Y-129991260D03*
%TD*%
D18*
%TO.C,SW35*%
X483513750Y-107380000D03*
D11*
X478433750Y-107380000D03*
D18*
X473353750Y-107380000D03*
D19*
X474623750Y-104840000D03*
D20*
X471073750Y-104840000D03*
X484523750Y-102300000D03*
D19*
X480973750Y-102300000D03*
%TD*%
D18*
%TO.C,SW21*%
X188238750Y-107380000D03*
D11*
X183158750Y-107380000D03*
D18*
X178078750Y-107380000D03*
D19*
X179348750Y-104840000D03*
D20*
X175798750Y-104840000D03*
X189248750Y-102300000D03*
D19*
X185698750Y-102300000D03*
%TD*%
D18*
%TO.C,SW12*%
X359688750Y-78805000D03*
D11*
X354608750Y-78805000D03*
D18*
X349528750Y-78805000D03*
D19*
X350798750Y-76265000D03*
D20*
X347248750Y-76265000D03*
X360698750Y-73725000D03*
D19*
X357148750Y-73725000D03*
%TD*%
D18*
%TO.C,SW9*%
X293013750Y-78805000D03*
D11*
X287933750Y-78805000D03*
D18*
X282853750Y-78805000D03*
D19*
X284123750Y-76265000D03*
D20*
X280573750Y-76265000D03*
X294023750Y-73725000D03*
D19*
X290473750Y-73725000D03*
%TD*%
D18*
%TO.C,SW45*%
X254913750Y-126430000D03*
D11*
X249833750Y-126430000D03*
D18*
X244753750Y-126430000D03*
D19*
X246023750Y-123890000D03*
D20*
X242473750Y-123890000D03*
X255923750Y-121350000D03*
D19*
X252373750Y-121350000D03*
%TD*%
D17*
%TO.C,D45*%
X274289776Y-133291260D03*
X274289776Y-129991260D03*
%TD*%
%TO.C,D10*%
X340964776Y-85666260D03*
X340964776Y-82366260D03*
%TD*%
%TO.C,D98*%
X352871026Y-190441260D03*
X352871026Y-187141260D03*
%TD*%
D18*
%TO.C,SW2*%
X150138750Y-78805000D03*
D11*
X145058750Y-78805000D03*
D18*
X139978750Y-78805000D03*
D19*
X141248750Y-76265000D03*
D20*
X137698750Y-76265000D03*
X151148750Y-73725000D03*
D19*
X147598750Y-73725000D03*
%TD*%
D17*
%TO.C,D68*%
X317152276Y-152341260D03*
X317152276Y-149041260D03*
%TD*%
%TO.C,D102*%
X440977276Y-190441260D03*
X440977276Y-187141260D03*
%TD*%
D18*
%TO.C,SW67*%
X278726250Y-145480000D03*
D11*
X273646250Y-145480000D03*
D18*
X268566250Y-145480000D03*
D19*
X269836250Y-142940000D03*
D20*
X266286250Y-142940000D03*
X279736250Y-140400000D03*
D19*
X276186250Y-140400000D03*
%TD*%
D18*
%TO.C,SW93*%
X114420000Y-183580000D03*
D11*
X109340000Y-183580000D03*
D18*
X104260000Y-183580000D03*
D19*
X105530000Y-181040000D03*
D20*
X101980000Y-181040000D03*
X115430000Y-178500000D03*
D19*
X111880000Y-178500000D03*
%TD*%
D17*
%TO.C,D72*%
X483839776Y-152341260D03*
X483839776Y-149041260D03*
%TD*%
%TO.C,D27*%
X321914776Y-114241260D03*
X321914776Y-110941260D03*
%TD*%
%TO.C,D24*%
X264764776Y-114241260D03*
X264764776Y-110941260D03*
%TD*%
%TO.C,D104*%
X502889776Y-190441260D03*
X502889776Y-187141260D03*
%TD*%
%TO.C,D78*%
X193327276Y-171391260D03*
X193327276Y-168091260D03*
%TD*%
%TO.C,D95*%
X233808526Y-190441260D03*
X233808526Y-187141260D03*
%TD*%
D18*
%TO.C,SW86*%
X326351250Y-164530000D03*
D11*
X321271250Y-164530000D03*
D18*
X316191250Y-164530000D03*
D19*
X317461250Y-161990000D03*
D20*
X313911250Y-161990000D03*
X327361250Y-159450000D03*
D19*
X323811250Y-159450000D03*
%TD*%
D18*
%TO.C,SW70*%
X335876250Y-145480000D03*
D11*
X330796250Y-145480000D03*
D18*
X325716250Y-145480000D03*
D19*
X326986250Y-142940000D03*
D20*
X323436250Y-142940000D03*
X336886250Y-140400000D03*
D19*
X333336250Y-140400000D03*
%TD*%
D17*
%TO.C,D51*%
X402877276Y-133291260D03*
X402877276Y-129991260D03*
%TD*%
%TO.C,D64*%
X240952276Y-152341260D03*
X240952276Y-149041260D03*
%TD*%
D18*
%TO.C,SW62*%
X183476250Y-145480000D03*
D11*
X178396250Y-145480000D03*
D18*
X173316250Y-145480000D03*
D19*
X174586250Y-142940000D03*
D20*
X171036250Y-142940000D03*
X184486250Y-140400000D03*
D19*
X180936250Y-140400000D03*
%TD*%
D18*
%TO.C,SW25*%
X264438750Y-107380000D03*
D11*
X259358750Y-107380000D03*
D18*
X254278750Y-107380000D03*
D19*
X255548750Y-104840000D03*
D20*
X251998750Y-104840000D03*
X265448750Y-102300000D03*
D19*
X261898750Y-102300000D03*
%TD*%
D18*
%TO.C,SW71*%
X366832500Y-145480000D03*
D11*
X361752500Y-145480000D03*
D18*
X356672500Y-145480000D03*
D19*
X357942500Y-142940000D03*
D20*
X354392500Y-142940000D03*
X367842500Y-140400000D03*
D19*
X364292500Y-140400000D03*
%TD*%
D18*
%TO.C,SW17*%
X112038750Y-107380000D03*
D11*
X106958750Y-107380000D03*
D18*
X101878750Y-107380000D03*
D19*
X103148750Y-104840000D03*
D20*
X99598750Y-104840000D03*
X113048750Y-102300000D03*
D19*
X109498750Y-102300000D03*
%TD*%
D17*
%TO.C,D103*%
X474314776Y-190441260D03*
X474314776Y-187141260D03*
%TD*%
D18*
%TO.C,SW87*%
X362070000Y-164530000D03*
D11*
X356990000Y-164530000D03*
D18*
X351910000Y-164530000D03*
D19*
X353180000Y-161990000D03*
D20*
X349630000Y-161990000D03*
X363080000Y-159450000D03*
D19*
X359530000Y-159450000D03*
%TD*%
D17*
%TO.C,D88*%
X464789776Y-171391260D03*
X464789776Y-168091260D03*
%TD*%
%TO.C,D61*%
X183802276Y-152341260D03*
X183802276Y-149041260D03*
%TD*%
D18*
%TO.C,SW104*%
X473988750Y-183580000D03*
D11*
X468908750Y-183580000D03*
D18*
X463828750Y-183580000D03*
D19*
X465098750Y-181040000D03*
D20*
X461548750Y-181040000D03*
X474998750Y-178500000D03*
D19*
X471448750Y-178500000D03*
%TD*%
D17*
%TO.C,D99*%
X376683526Y-190441260D03*
X376683526Y-187141260D03*
%TD*%
D18*
%TO.C,SW66*%
X259676250Y-145480000D03*
D11*
X254596250Y-145480000D03*
D18*
X249516250Y-145480000D03*
D19*
X250786250Y-142940000D03*
D20*
X247236250Y-142940000D03*
X260686250Y-140400000D03*
D19*
X257136250Y-140400000D03*
%TD*%
D18*
%TO.C,SW80*%
X212051250Y-164530000D03*
D11*
X206971250Y-164530000D03*
D18*
X201891250Y-164530000D03*
D19*
X203161250Y-161990000D03*
D20*
X199611250Y-161990000D03*
X213061250Y-159450000D03*
D19*
X209511250Y-159450000D03*
%TD*%
D17*
%TO.C,D40*%
X179039776Y-133291260D03*
X179039776Y-129991260D03*
%TD*%
%TO.C,D83*%
X288577276Y-171391260D03*
X288577276Y-168091260D03*
%TD*%
%TO.C,D47*%
X312389776Y-133291260D03*
X312389776Y-129991260D03*
%TD*%
%TO.C,D101*%
X421927276Y-190441260D03*
X421927276Y-187141260D03*
%TD*%
%TO.C,D62*%
X202852276Y-152341260D03*
X202852276Y-149041260D03*
%TD*%
D18*
%TO.C,SW22*%
X207288750Y-107380000D03*
D11*
X202208750Y-107380000D03*
D18*
X197128750Y-107380000D03*
D19*
X198398750Y-104840000D03*
D20*
X194848750Y-104840000D03*
X208298750Y-102300000D03*
D19*
X204748750Y-102300000D03*
%TD*%
D18*
%TO.C,SW88*%
X421601250Y-164530000D03*
D11*
X416521250Y-164530000D03*
D18*
X411441250Y-164530000D03*
D19*
X412711250Y-161990000D03*
D20*
X409161250Y-161990000D03*
X422611250Y-159450000D03*
D19*
X419061250Y-159450000D03*
%TD*%
D17*
%TO.C,D50*%
X374302276Y-133291260D03*
X374302276Y-129991260D03*
%TD*%
D18*
%TO.C,SW48*%
X312063750Y-126430000D03*
D11*
X306983750Y-126430000D03*
D18*
X301903750Y-126430000D03*
D19*
X303173750Y-123890000D03*
D20*
X299623750Y-123890000D03*
X313073750Y-121350000D03*
D19*
X309523750Y-121350000D03*
%TD*%
D17*
%TO.C,D66*%
X279052276Y-152341260D03*
X279052276Y-149041260D03*
%TD*%
%TO.C,D30*%
X402877276Y-114241260D03*
X402877276Y-110941260D03*
%TD*%
D18*
%TO.C,SW105*%
X502563750Y-183580000D03*
D11*
X497483750Y-183580000D03*
D18*
X492403750Y-183580000D03*
D19*
X493673750Y-181040000D03*
D20*
X490123750Y-181040000D03*
X503573750Y-178500000D03*
D19*
X500023750Y-178500000D03*
%TD*%
D18*
%TO.C,SW94*%
X138232500Y-183580000D03*
D11*
X133152500Y-183580000D03*
D18*
X128072500Y-183580000D03*
D19*
X129342500Y-181040000D03*
D20*
X125792500Y-181040000D03*
X139242500Y-178500000D03*
D19*
X135692500Y-178500000D03*
%TD*%
D18*
%TO.C,SW7*%
X254913750Y-78805000D03*
D11*
X249833750Y-78805000D03*
D18*
X244753750Y-78805000D03*
D19*
X246023750Y-76265000D03*
D20*
X242473750Y-76265000D03*
X255923750Y-73725000D03*
D19*
X252373750Y-73725000D03*
%TD*%
D18*
%TO.C,SW91*%
X502563750Y-164530000D03*
D11*
X497483750Y-164530000D03*
D18*
X492403750Y-164530000D03*
D19*
X493673750Y-161990000D03*
D20*
X490123750Y-161990000D03*
X503573750Y-159450000D03*
D19*
X500023750Y-159450000D03*
%TD*%
D18*
%TO.C,SW10*%
X321588750Y-78805000D03*
D11*
X316508750Y-78805000D03*
D18*
X311428750Y-78805000D03*
D19*
X312698750Y-76265000D03*
D20*
X309148750Y-76265000D03*
X322598750Y-73725000D03*
D19*
X319048750Y-73725000D03*
%TD*%
D18*
%TO.C,SW96*%
X233482500Y-183580000D03*
D11*
X228402500Y-183580000D03*
D18*
X223322500Y-183580000D03*
D19*
X224592500Y-181040000D03*
D20*
X221042500Y-181040000D03*
X234492500Y-178500000D03*
D19*
X230942500Y-178500000D03*
%TD*%
D18*
%TO.C,SW54*%
X440651250Y-126430000D03*
D11*
X435571250Y-126430000D03*
D18*
X430491250Y-126430000D03*
D19*
X431761250Y-123890000D03*
D20*
X428211250Y-123890000D03*
X441661250Y-121350000D03*
D19*
X438111250Y-121350000D03*
%TD*%
D18*
%TO.C,SW38*%
X116801250Y-126430000D03*
D11*
X111721250Y-126430000D03*
D18*
X106641250Y-126430000D03*
D19*
X107911250Y-123890000D03*
D20*
X104361250Y-123890000D03*
X117811250Y-121350000D03*
D19*
X114261250Y-121350000D03*
%TD*%
D17*
%TO.C,D73*%
X502889776Y-152341260D03*
X502889776Y-149041260D03*
%TD*%
D18*
%TO.C,SW32*%
X421601250Y-107380000D03*
D11*
X416521250Y-107380000D03*
D18*
X411441250Y-107380000D03*
D19*
X412711250Y-104840000D03*
D20*
X409161250Y-104840000D03*
X422611250Y-102300000D03*
D19*
X419061250Y-102300000D03*
%TD*%
D18*
%TO.C,SW76*%
X123945000Y-164530000D03*
D11*
X118865000Y-164530000D03*
D18*
X113785000Y-164530000D03*
D19*
X115055000Y-161990000D03*
D20*
X111505000Y-161990000D03*
X124955000Y-159450000D03*
D19*
X121405000Y-159450000D03*
%TD*%
D17*
%TO.C,D5*%
X236189776Y-85666260D03*
X236189776Y-82366260D03*
%TD*%
%TO.C,D84*%
X307627276Y-171391260D03*
X307627276Y-168091260D03*
%TD*%
M02*
