%TF.GenerationSoftware,KiCad,Pcbnew,10.0.4*%
%TF.CreationDate,2026-09-14T17:50:23-07:00*%
%TF.ProjectId,keeboard,6b656562-6f61-4726-942e-6b696361645f,rev?*%
%TF.SameCoordinates,Original*%
%TF.FileFunction,Paste,Bot*%
%TF.FilePolarity,Positive*%
%FSLAX46Y46*%
G04 Gerber Fmt 4.6, Leading zero omitted, Abs format (unit mm)*
G04 Created by KiCad (PCBNEW 10.0.4) date 2026-09-14 17:50:23*
%MOMM*%
%LPD*%
G01*
G04 APERTURE LIST*
G04 Aperture macros list*
%AMRoundRect*
0 Rectangle with rounded corners*
0 $1 Rounding radius*
0 $2 $3 $4 $5 $6 $7 $8 $9 X,Y pos of 4 corners*
0 Add a 4 corners polygon primitive as box body*
4,1,4,$2,$3,$4,$5,$6,$7,$8,$9,$2,$3,0*
0 Add four circle primitives for the rounded corners*
1,1,$1+$1,$2,$3*
1,1,$1+$1,$4,$5*
1,1,$1+$1,$6,$7*
1,1,$1+$1,$8,$9*
0 Add four rect primitives between the rounded corners*
20,1,$1+$1,$2,$3,$4,$5,0*
20,1,$1+$1,$4,$5,$6,$7,0*
20,1,$1+$1,$6,$7,$8,$9,0*
20,1,$1+$1,$8,$9,$2,$3,0*%
G04 Aperture macros list end*
%ADD10RoundRect,0.225000X0.375000X-0.225000X0.375000X0.225000X-0.375000X0.225000X-0.375000X-0.225000X0*%
%ADD11RoundRect,0.250000X1.025000X1.000000X-1.025000X1.000000X-1.025000X-1.000000X1.025000X-1.000000X0*%
G04 APERTURE END LIST*
D10*
%TO.C,D7*%
X274289776Y-85666260D03*
X274289776Y-82366260D03*
%TD*%
D11*
%TO.C,SW30*%
X356773750Y-104840000D03*
X370223750Y-102300000D03*
%TD*%
%TO.C,SW57*%
X490123750Y-123890000D03*
X503573750Y-121350000D03*
%TD*%
D10*
%TO.C,D33*%
X464789776Y-114241260D03*
X464789776Y-110941260D03*
%TD*%
D11*
%TO.C,SW4*%
X175798750Y-76265000D03*
X189248750Y-73725000D03*
%TD*%
%TO.C,SW102*%
X409161250Y-181040000D03*
X422611250Y-178500000D03*
%TD*%
D10*
%TO.C,D79*%
X212377276Y-171391260D03*
X212377276Y-168091260D03*
%TD*%
D11*
%TO.C,SW29*%
X328198750Y-104840000D03*
X341648750Y-102300000D03*
%TD*%
%TO.C,SW53*%
X409161250Y-123890000D03*
X422611250Y-121350000D03*
%TD*%
%TO.C,SW73*%
X471073750Y-142940000D03*
X484523750Y-140400000D03*
%TD*%
%TO.C,SW34*%
X452023750Y-104840000D03*
X465473750Y-102300000D03*
%TD*%
%TO.C,SW15*%
X409161250Y-76265000D03*
X422611250Y-73725000D03*
%TD*%
%TO.C,SW84*%
X275811250Y-161990000D03*
X289261250Y-159450000D03*
%TD*%
D10*
%TO.C,D26*%
X302864776Y-114241260D03*
X302864776Y-110941260D03*
%TD*%
%TO.C,D49*%
X350489776Y-133291260D03*
X350489776Y-129991260D03*
%TD*%
%TO.C,D12*%
X379064776Y-85666260D03*
X379064776Y-82366260D03*
%TD*%
%TO.C,D71*%
X464789776Y-152341260D03*
X464789776Y-149041260D03*
%TD*%
D11*
%TO.C,SW74*%
X490123750Y-142940000D03*
X503573750Y-140400000D03*
%TD*%
D10*
%TO.C,D54*%
X464789776Y-133291260D03*
X464789776Y-129991260D03*
%TD*%
D11*
%TO.C,SW101*%
X390111250Y-181040000D03*
X403561250Y-178500000D03*
%TD*%
%TO.C,SW51*%
X361536250Y-123890000D03*
X374986250Y-121350000D03*
%TD*%
%TO.C,SW19*%
X137698750Y-104840000D03*
X151148750Y-102300000D03*
%TD*%
%TO.C,SW5*%
X194848750Y-76265000D03*
X208298750Y-73725000D03*
%TD*%
D10*
%TO.C,D14*%
X421927276Y-85666260D03*
X421927276Y-82366260D03*
%TD*%
D11*
%TO.C,SW65*%
X228186250Y-142940000D03*
X241636250Y-140400000D03*
%TD*%
%TO.C,SW11*%
X328198750Y-76265000D03*
X341648750Y-73725000D03*
%TD*%
%TO.C,SW13*%
X366298750Y-76265000D03*
X379748750Y-73725000D03*
%TD*%
D10*
%TO.C,D19*%
X169514776Y-114241260D03*
X169514776Y-110941260D03*
%TD*%
D11*
%TO.C,SW82*%
X237711250Y-161990000D03*
X251161250Y-159450000D03*
%TD*%
D10*
%TO.C,D75*%
X124271026Y-171391260D03*
X124271026Y-168091260D03*
%TD*%
%TO.C,D36*%
X521939776Y-114241260D03*
X521939776Y-110941260D03*
%TD*%
%TO.C,D44*%
X255239776Y-133291260D03*
X255239776Y-129991260D03*
%TD*%
D11*
%TO.C,SW36*%
X490123750Y-104840000D03*
X503573750Y-102300000D03*
%TD*%
%TO.C,SW60*%
X132936250Y-142940000D03*
X146386250Y-140400000D03*
%TD*%
D10*
%TO.C,D94*%
X162371026Y-190441260D03*
X162371026Y-187141260D03*
%TD*%
%TO.C,D21*%
X207614776Y-114241260D03*
X207614776Y-110941260D03*
%TD*%
%TO.C,D96*%
X305246026Y-190441260D03*
X305246026Y-187141260D03*
%TD*%
%TO.C,D97*%
X329058526Y-190441260D03*
X329058526Y-187141260D03*
%TD*%
D11*
%TO.C,SW79*%
X180561250Y-161990000D03*
X194011250Y-159450000D03*
%TD*%
D10*
%TO.C,D92*%
X114746026Y-190441260D03*
X114746026Y-187141260D03*
%TD*%
%TO.C,D43*%
X236189776Y-133291260D03*
X236189776Y-129991260D03*
%TD*%
%TO.C,D32*%
X440977276Y-114241260D03*
X440977276Y-110941260D03*
%TD*%
%TO.C,D70*%
X367158526Y-152341260D03*
X367158526Y-149041260D03*
%TD*%
D11*
%TO.C,SW47*%
X280573750Y-123890000D03*
X294023750Y-121350000D03*
%TD*%
%TO.C,SW31*%
X390111250Y-104840000D03*
X403561250Y-102300000D03*
%TD*%
%TO.C,SW59*%
X106742500Y-142940000D03*
X120192500Y-140400000D03*
%TD*%
D10*
%TO.C,D57*%
X521939776Y-142816260D03*
X521939776Y-139516260D03*
%TD*%
D11*
%TO.C,SW46*%
X261523750Y-123890000D03*
X274973750Y-121350000D03*
%TD*%
%TO.C,SW40*%
X147223750Y-123890000D03*
X160673750Y-121350000D03*
%TD*%
D10*
%TO.C,D6*%
X255239776Y-85666260D03*
X255239776Y-82366260D03*
%TD*%
D11*
%TO.C,SW63*%
X190086250Y-142940000D03*
X203536250Y-140400000D03*
%TD*%
%TO.C,SW100*%
X363917500Y-181040000D03*
X377367500Y-178500000D03*
%TD*%
%TO.C,SW6*%
X223423750Y-76265000D03*
X236873750Y-73725000D03*
%TD*%
D10*
%TO.C,D29*%
X369539776Y-114241260D03*
X369539776Y-110941260D03*
%TD*%
D11*
%TO.C,SW43*%
X204373750Y-123890000D03*
X217823750Y-121350000D03*
%TD*%
%TO.C,SW27*%
X290098750Y-104840000D03*
X303548750Y-102300000D03*
%TD*%
%TO.C,SW41*%
X166273750Y-123890000D03*
X179723750Y-121350000D03*
%TD*%
%TO.C,SW81*%
X218661250Y-161990000D03*
X232111250Y-159450000D03*
%TD*%
D10*
%TO.C,D37*%
X117127276Y-133291260D03*
X117127276Y-129991260D03*
%TD*%
%TO.C,D65*%
X260002276Y-152341260D03*
X260002276Y-149041260D03*
%TD*%
%TO.C,D76*%
X155227276Y-171391260D03*
X155227276Y-168091260D03*
%TD*%
D11*
%TO.C,SW28*%
X309148750Y-104840000D03*
X322598750Y-102300000D03*
%TD*%
%TO.C,SW69*%
X304386250Y-142940000D03*
X317836250Y-140400000D03*
%TD*%
D10*
%TO.C,D87*%
X421927276Y-171391260D03*
X421927276Y-168091260D03*
%TD*%
%TO.C,D86*%
X362396026Y-171391260D03*
X362396026Y-168091260D03*
%TD*%
D11*
%TO.C,SW37*%
X509173750Y-104840000D03*
X522623750Y-102300000D03*
%TD*%
D10*
%TO.C,D81*%
X250477276Y-171391260D03*
X250477276Y-168091260D03*
%TD*%
%TO.C,D58*%
X119508526Y-152341260D03*
X119508526Y-149041260D03*
%TD*%
%TO.C,D52*%
X421927276Y-133291260D03*
X421927276Y-129991260D03*
%TD*%
D11*
%TO.C,SW99*%
X340105000Y-181040000D03*
X353555000Y-178500000D03*
%TD*%
D10*
%TO.C,D22*%
X226664776Y-114241260D03*
X226664776Y-110941260D03*
%TD*%
%TO.C,D41*%
X198089776Y-133291260D03*
X198089776Y-129991260D03*
%TD*%
%TO.C,D63*%
X221902276Y-152341260D03*
X221902276Y-149041260D03*
%TD*%
D11*
%TO.C,SW95*%
X149605000Y-181040000D03*
X163055000Y-178500000D03*
%TD*%
D10*
%TO.C,D39*%
X159989776Y-133291260D03*
X159989776Y-129991260D03*
%TD*%
D11*
%TO.C,SW50*%
X337723750Y-123890000D03*
X351173750Y-121350000D03*
%TD*%
%TO.C,SW55*%
X452023750Y-123890000D03*
X465473750Y-121350000D03*
%TD*%
D10*
%TO.C,D31*%
X421927276Y-114241260D03*
X421927276Y-110941260D03*
%TD*%
%TO.C,D89*%
X483839776Y-171391260D03*
X483839776Y-168091260D03*
%TD*%
%TO.C,D11*%
X360014776Y-85666260D03*
X360014776Y-82366260D03*
%TD*%
%TO.C,D80*%
X231427276Y-171391260D03*
X231427276Y-168091260D03*
%TD*%
%TO.C,D13*%
X402877276Y-85666260D03*
X402877276Y-82366260D03*
%TD*%
D11*
%TO.C,SW92*%
X509173750Y-171515000D03*
X522623750Y-168975000D03*
%TD*%
D10*
%TO.C,D20*%
X188564776Y-114241260D03*
X188564776Y-110941260D03*
%TD*%
D11*
%TO.C,SW23*%
X213898750Y-104840000D03*
X227348750Y-102300000D03*
%TD*%
%TO.C,SW49*%
X318673750Y-123890000D03*
X332123750Y-121350000D03*
%TD*%
%TO.C,SW42*%
X185323750Y-123890000D03*
X198773750Y-121350000D03*
%TD*%
%TO.C,SW18*%
X118648750Y-104840000D03*
X132098750Y-102300000D03*
%TD*%
%TO.C,SW8*%
X261523750Y-76265000D03*
X274973750Y-73725000D03*
%TD*%
D10*
%TO.C,D55*%
X483839776Y-133291260D03*
X483839776Y-129991260D03*
%TD*%
%TO.C,D85*%
X326677276Y-171391260D03*
X326677276Y-168091260D03*
%TD*%
%TO.C,D93*%
X138558526Y-190441260D03*
X138558526Y-187141260D03*
%TD*%
%TO.C,D67*%
X298102276Y-152341260D03*
X298102276Y-149041260D03*
%TD*%
%TO.C,D38*%
X140939776Y-133291260D03*
X140939776Y-129991260D03*
%TD*%
%TO.C,D15*%
X440977276Y-85666260D03*
X440977276Y-82366260D03*
%TD*%
D11*
%TO.C,SW58*%
X509173750Y-133415000D03*
X522623750Y-130875000D03*
%TD*%
D10*
%TO.C,D90*%
X502889776Y-171391260D03*
X502889776Y-168091260D03*
%TD*%
D11*
%TO.C,SW24*%
X232948750Y-104840000D03*
X246398750Y-102300000D03*
%TD*%
D10*
%TO.C,D42*%
X217139776Y-133291260D03*
X217139776Y-129991260D03*
%TD*%
%TO.C,D1*%
X150464776Y-85666260D03*
X150464776Y-82366260D03*
%TD*%
%TO.C,D46*%
X293339776Y-133291260D03*
X293339776Y-129991260D03*
%TD*%
D11*
%TO.C,SW56*%
X471073750Y-123890000D03*
X484523750Y-121350000D03*
%TD*%
D10*
%TO.C,D59*%
X145702276Y-152341260D03*
X145702276Y-149041260D03*
%TD*%
%TO.C,D34*%
X483839776Y-114241260D03*
X483839776Y-110941260D03*
%TD*%
D11*
%TO.C,SW2*%
X99598750Y-76265000D03*
X113048750Y-73725000D03*
%TD*%
%TO.C,SW98*%
X316292500Y-181040000D03*
X329742500Y-178500000D03*
%TD*%
D10*
%TO.C,D2*%
X169514776Y-85666260D03*
X169514776Y-82366260D03*
%TD*%
D11*
%TO.C,SW85*%
X294861250Y-161990000D03*
X308311250Y-159450000D03*
%TD*%
%TO.C,SW97*%
X292480000Y-181040000D03*
X305930000Y-178500000D03*
%TD*%
%TO.C,SW103*%
X428211250Y-181040000D03*
X441661250Y-178500000D03*
%TD*%
%TO.C,SW90*%
X471073750Y-161990000D03*
X484523750Y-159450000D03*
%TD*%
%TO.C,SW77*%
X142461250Y-161990000D03*
X155911250Y-159450000D03*
%TD*%
%TO.C,SW52*%
X390111250Y-123890000D03*
X403561250Y-121350000D03*
%TD*%
D10*
%TO.C,D77*%
X174277276Y-171391260D03*
X174277276Y-168091260D03*
%TD*%
%TO.C,D100*%
X402877276Y-190441260D03*
X402877276Y-187141260D03*
%TD*%
D11*
%TO.C,SW39*%
X128173750Y-123890000D03*
X141623750Y-121350000D03*
%TD*%
%TO.C,SW20*%
X156748750Y-104840000D03*
X170198750Y-102300000D03*
%TD*%
D10*
%TO.C,D9*%
X321914776Y-85666260D03*
X321914776Y-82366260D03*
%TD*%
D11*
%TO.C,SW33*%
X428211250Y-104840000D03*
X441661250Y-102300000D03*
%TD*%
%TO.C,SW83*%
X256761250Y-161990000D03*
X270211250Y-159450000D03*
%TD*%
%TO.C,SW72*%
X452023750Y-142940000D03*
X465473750Y-140400000D03*
%TD*%
D10*
%TO.C,D4*%
X207614776Y-85666260D03*
X207614776Y-82366260D03*
%TD*%
D11*
%TO.C,SW78*%
X161511250Y-161990000D03*
X174961250Y-159450000D03*
%TD*%
D10*
%TO.C,D69*%
X336202276Y-152341260D03*
X336202276Y-149041260D03*
%TD*%
%TO.C,D53*%
X440977276Y-133291260D03*
X440977276Y-129991260D03*
%TD*%
%TO.C,D25*%
X283814776Y-114241260D03*
X283814776Y-110941260D03*
%TD*%
%TO.C,D17*%
X131414776Y-114241260D03*
X131414776Y-110941260D03*
%TD*%
D11*
%TO.C,SW61*%
X151986250Y-142940000D03*
X165436250Y-140400000D03*
%TD*%
%TO.C,SW16*%
X428211250Y-76265000D03*
X441661250Y-73725000D03*
%TD*%
D10*
%TO.C,D48*%
X331439776Y-133291260D03*
X331439776Y-129991260D03*
%TD*%
%TO.C,D0*%
X112191928Y-85666260D03*
X112191928Y-82366260D03*
%TD*%
%TO.C,D8*%
X293339776Y-85666260D03*
X293339776Y-82366260D03*
%TD*%
D11*
%TO.C,SW14*%
X390111250Y-76265000D03*
X403561250Y-73725000D03*
%TD*%
%TO.C,SW68*%
X285336250Y-142940000D03*
X298786250Y-140400000D03*
%TD*%
D10*
%TO.C,D16*%
X112364776Y-114241260D03*
X112364776Y-110941260D03*
%TD*%
D11*
%TO.C,SW64*%
X209136250Y-142940000D03*
X222586250Y-140400000D03*
%TD*%
%TO.C,SW26*%
X271048750Y-104840000D03*
X284498750Y-102300000D03*
%TD*%
D10*
%TO.C,D23*%
X245714776Y-114241260D03*
X245714776Y-110941260D03*
%TD*%
%TO.C,D60*%
X164752276Y-152341260D03*
X164752276Y-149041260D03*
%TD*%
%TO.C,D91*%
X521939776Y-180916260D03*
X521939776Y-177616260D03*
%TD*%
%TO.C,D28*%
X340964776Y-114241260D03*
X340964776Y-110941260D03*
%TD*%
%TO.C,D3*%
X188564776Y-85666260D03*
X188564776Y-82366260D03*
%TD*%
D11*
%TO.C,SW89*%
X452023750Y-161990000D03*
X465473750Y-159450000D03*
%TD*%
D10*
%TO.C,D82*%
X269527276Y-171391260D03*
X269527276Y-168091260D03*
%TD*%
%TO.C,D18*%
X150464776Y-114241260D03*
X150464776Y-110941260D03*
%TD*%
D11*
%TO.C,SW44*%
X223423750Y-123890000D03*
X236873750Y-121350000D03*
%TD*%
D10*
%TO.C,D35*%
X502889776Y-114241260D03*
X502889776Y-110941260D03*
%TD*%
D11*
%TO.C,SW3*%
X156748750Y-76265000D03*
X170198750Y-73725000D03*
%TD*%
D10*
%TO.C,D56*%
X502889776Y-133291260D03*
X502889776Y-129991260D03*
%TD*%
D11*
%TO.C,SW35*%
X471073750Y-104840000D03*
X484523750Y-102300000D03*
%TD*%
%TO.C,SW21*%
X175798750Y-104840000D03*
X189248750Y-102300000D03*
%TD*%
%TO.C,SW12*%
X347248750Y-76265000D03*
X360698750Y-73725000D03*
%TD*%
%TO.C,SW9*%
X280573750Y-76265000D03*
X294023750Y-73725000D03*
%TD*%
%TO.C,SW45*%
X242473750Y-123890000D03*
X255923750Y-121350000D03*
%TD*%
D10*
%TO.C,D45*%
X274289776Y-133291260D03*
X274289776Y-129991260D03*
%TD*%
%TO.C,D10*%
X340964776Y-85666260D03*
X340964776Y-82366260D03*
%TD*%
%TO.C,D98*%
X352871026Y-190441260D03*
X352871026Y-187141260D03*
%TD*%
D11*
%TO.C,SW2*%
X137698750Y-76265000D03*
X151148750Y-73725000D03*
%TD*%
D10*
%TO.C,D68*%
X317152276Y-152341260D03*
X317152276Y-149041260D03*
%TD*%
%TO.C,D102*%
X440977276Y-190441260D03*
X440977276Y-187141260D03*
%TD*%
D11*
%TO.C,SW67*%
X266286250Y-142940000D03*
X279736250Y-140400000D03*
%TD*%
%TO.C,SW93*%
X101980000Y-181040000D03*
X115430000Y-178500000D03*
%TD*%
D10*
%TO.C,D72*%
X483839776Y-152341260D03*
X483839776Y-149041260D03*
%TD*%
%TO.C,D27*%
X321914776Y-114241260D03*
X321914776Y-110941260D03*
%TD*%
%TO.C,D24*%
X264764776Y-114241260D03*
X264764776Y-110941260D03*
%TD*%
%TO.C,D104*%
X502889776Y-190441260D03*
X502889776Y-187141260D03*
%TD*%
%TO.C,D78*%
X193327276Y-171391260D03*
X193327276Y-168091260D03*
%TD*%
%TO.C,D95*%
X233808526Y-190441260D03*
X233808526Y-187141260D03*
%TD*%
D11*
%TO.C,SW86*%
X313911250Y-161990000D03*
X327361250Y-159450000D03*
%TD*%
%TO.C,SW70*%
X323436250Y-142940000D03*
X336886250Y-140400000D03*
%TD*%
D10*
%TO.C,D51*%
X402877276Y-133291260D03*
X402877276Y-129991260D03*
%TD*%
%TO.C,D64*%
X240952276Y-152341260D03*
X240952276Y-149041260D03*
%TD*%
D11*
%TO.C,SW62*%
X171036250Y-142940000D03*
X184486250Y-140400000D03*
%TD*%
%TO.C,SW25*%
X251998750Y-104840000D03*
X265448750Y-102300000D03*
%TD*%
%TO.C,SW71*%
X354392500Y-142940000D03*
X367842500Y-140400000D03*
%TD*%
%TO.C,SW17*%
X99598750Y-104840000D03*
X113048750Y-102300000D03*
%TD*%
D10*
%TO.C,D103*%
X474314776Y-190441260D03*
X474314776Y-187141260D03*
%TD*%
D11*
%TO.C,SW87*%
X349630000Y-161990000D03*
X363080000Y-159450000D03*
%TD*%
D10*
%TO.C,D88*%
X464789776Y-171391260D03*
X464789776Y-168091260D03*
%TD*%
%TO.C,D61*%
X183802276Y-152341260D03*
X183802276Y-149041260D03*
%TD*%
D11*
%TO.C,SW104*%
X461548750Y-181040000D03*
X474998750Y-178500000D03*
%TD*%
D10*
%TO.C,D99*%
X376683526Y-190441260D03*
X376683526Y-187141260D03*
%TD*%
D11*
%TO.C,SW66*%
X247236250Y-142940000D03*
X260686250Y-140400000D03*
%TD*%
%TO.C,SW80*%
X199611250Y-161990000D03*
X213061250Y-159450000D03*
%TD*%
D10*
%TO.C,D40*%
X179039776Y-133291260D03*
X179039776Y-129991260D03*
%TD*%
%TO.C,D83*%
X288577276Y-171391260D03*
X288577276Y-168091260D03*
%TD*%
%TO.C,D47*%
X312389776Y-133291260D03*
X312389776Y-129991260D03*
%TD*%
%TO.C,D101*%
X421927276Y-190441260D03*
X421927276Y-187141260D03*
%TD*%
%TO.C,D62*%
X202852276Y-152341260D03*
X202852276Y-149041260D03*
%TD*%
D11*
%TO.C,SW22*%
X194848750Y-104840000D03*
X208298750Y-102300000D03*
%TD*%
%TO.C,SW88*%
X409161250Y-161990000D03*
X422611250Y-159450000D03*
%TD*%
D10*
%TO.C,D50*%
X374302276Y-133291260D03*
X374302276Y-129991260D03*
%TD*%
D11*
%TO.C,SW48*%
X299623750Y-123890000D03*
X313073750Y-121350000D03*
%TD*%
D10*
%TO.C,D66*%
X279052276Y-152341260D03*
X279052276Y-149041260D03*
%TD*%
%TO.C,D30*%
X402877276Y-114241260D03*
X402877276Y-110941260D03*
%TD*%
D11*
%TO.C,SW105*%
X490123750Y-181040000D03*
X503573750Y-178500000D03*
%TD*%
%TO.C,SW94*%
X125792500Y-181040000D03*
X139242500Y-178500000D03*
%TD*%
%TO.C,SW7*%
X242473750Y-76265000D03*
X255923750Y-73725000D03*
%TD*%
%TO.C,SW91*%
X490123750Y-161990000D03*
X503573750Y-159450000D03*
%TD*%
%TO.C,SW10*%
X309148750Y-76265000D03*
X322598750Y-73725000D03*
%TD*%
%TO.C,SW96*%
X221042500Y-181040000D03*
X234492500Y-178500000D03*
%TD*%
%TO.C,SW54*%
X428211250Y-123890000D03*
X441661250Y-121350000D03*
%TD*%
%TO.C,SW38*%
X104361250Y-123890000D03*
X117811250Y-121350000D03*
%TD*%
D10*
%TO.C,D73*%
X502889776Y-152341260D03*
X502889776Y-149041260D03*
%TD*%
D11*
%TO.C,SW32*%
X409161250Y-104840000D03*
X422611250Y-102300000D03*
%TD*%
%TO.C,SW76*%
X111505000Y-161990000D03*
X124955000Y-159450000D03*
%TD*%
D10*
%TO.C,D5*%
X236189776Y-85666260D03*
X236189776Y-82366260D03*
%TD*%
%TO.C,D84*%
X307627276Y-171391260D03*
X307627276Y-168091260D03*
%TD*%
M02*
