%TF.GenerationSoftware,KiCad,Pcbnew,10.0.4*%
%TF.CreationDate,2026-09-14T17:50:23-07:00*%
%TF.ProjectId,keeboard,6b656562-6f61-4726-942e-6b696361645f,rev?*%
%TF.SameCoordinates,Original*%
%TF.FileFunction,Profile,NP*%
%FSLAX46Y46*%
G04 Gerber Fmt 4.6, Leading zero omitted, Abs format (unit mm)*
G04 Created by KiCad (PCBNEW 10.0.4) date 2026-09-14 17:50:23*
%MOMM*%
%LPD*%
G01*
G04 APERTURE LIST*
%TA.AperFunction,Profile*%
%ADD10C,0.050000*%
%TD*%
%ADD11C,0.150000*%
G04 APERTURE END LIST*
D10*
X54000000Y-59000000D02*
X533000000Y-59000000D01*
X533000000Y-200500000D01*
X54000000Y-200500000D01*
X54000000Y-59000000D01*
D11*
X484304819Y-197333332D02*
X484304819Y-196666666D01*
X484304819Y-196666666D02*
X485304819Y-197095237D01*
D10*
X486000000Y-193500000D02*
X486000000Y-193500000D01*
X485413580Y-200500000D02*
X486000000Y-200500000D01*
X486000000Y-193500000D02*
X486000000Y-200500000D01*
X486000000Y-193500000D02*
X486586421Y-194626504D01*
X486000000Y-193500000D02*
X485413579Y-194626504D01*
X486000000Y-200500000D02*
X485413579Y-199373496D01*
X486000000Y-200500000D02*
X486586421Y-199373496D01*
D11*
X440804819Y-66333332D02*
X440804819Y-65666666D01*
X440804819Y-65666666D02*
X441804819Y-66095237D01*
D10*
X442500000Y-69500000D02*
X442500000Y-69500000D01*
X441913580Y-62500000D02*
X443000000Y-62500000D01*
X442500000Y-69500000D02*
X442500000Y-62500000D01*
X442500000Y-69500000D02*
X441913579Y-68373496D01*
X442500000Y-69500000D02*
X443086421Y-68373496D01*
X442500000Y-62500000D02*
X443086421Y-63626504D01*
X442500000Y-62500000D02*
X441913579Y-63626504D01*
D11*
X58666667Y-72304819D02*
X59333333Y-72304819D01*
X59333333Y-72304819D02*
X58904762Y-73304819D01*
D10*
X62500000Y-74000000D02*
X62500000Y-74000000D01*
X55500000Y-74000000D02*
X55500000Y-74000000D01*
X62500000Y-74000000D02*
X55500000Y-74000000D01*
X62500000Y-74000000D02*
X61373496Y-74586421D01*
X62500000Y-74000000D02*
X61373496Y-73413579D01*
X55500000Y-74000000D02*
X56626504Y-73413579D01*
X55500000Y-74000000D02*
X56626504Y-74586421D01*
D11*
X529166667Y-108804819D02*
X529833333Y-108804819D01*
X529833333Y-108804819D02*
X529404762Y-109804819D01*
D10*
X526000000Y-110500000D02*
X526000000Y-110500000D01*
X533000000Y-109913580D02*
X533000000Y-110500000D01*
X526000000Y-110500000D02*
X533000000Y-110500000D01*
X526000000Y-110500000D02*
X527126504Y-109913579D01*
X526000000Y-110500000D02*
X527126504Y-111086421D01*
X533000000Y-110500000D02*
X531873496Y-111086421D01*
X533000000Y-110500000D02*
X531873496Y-109913579D01*
M02*
