M48
; DRILL file KiCad 10.0.4 date 2026-09-14T17:50:05
; FORMAT={-:-/ absolute / metric / decimal}
; #@! TF.CreationDate,2026-09-14T17:50:05-07:00
; #@! TF.GenerationSoftware,Kicad,Pcbnew,10.0.4
; #@! TF.FileFunction,NonPlated,1,2,NPTH
FMAT,2
METRIC
; #@! TA.AperFunction,NonPlated,NPTH,ComponentDrill
T1C1.750
; #@! TA.AperFunction,NonPlated,NPTH,ComponentDrill
T2C3.048
; #@! TA.AperFunction,NonPlated,NPTH,ComponentDrill
T3C3.988
%
G90
G05
T1
X101.879Y-78.805
X101.879Y-107.38
X104.26Y-183.58
X106.641Y-126.43
X109.022Y-145.48
X112.039Y-78.805
X112.039Y-107.38
X113.785Y-164.53
X114.42Y-183.58
X116.801Y-126.43
X119.182Y-145.48
X120.929Y-107.38
X123.945Y-164.53
X128.072Y-183.58
X130.454Y-126.43
X131.089Y-107.38
X135.216Y-145.48
X138.232Y-183.58
X139.979Y-78.805
X139.979Y-107.38
X140.614Y-126.43
X144.741Y-164.53
X145.376Y-145.48
X149.504Y-126.43
X150.139Y-78.805
X150.139Y-107.38
X151.885Y-183.58
X154.266Y-145.48
X154.901Y-164.53
X159.029Y-78.805
X159.029Y-107.38
X159.664Y-126.43
X162.045Y-183.58
X163.791Y-164.53
X164.426Y-145.48
X168.554Y-126.43
X169.189Y-78.805
X169.189Y-107.38
X173.316Y-145.48
X173.951Y-164.53
X178.079Y-78.805
X178.079Y-107.38
X178.714Y-126.43
X182.841Y-164.53
X183.476Y-145.48
X187.604Y-126.43
X188.239Y-78.805
X188.239Y-107.38
X192.366Y-145.48
X193.001Y-164.53
X197.129Y-78.805
X197.129Y-107.38
X197.764Y-126.43
X201.891Y-164.53
X202.526Y-145.48
X206.654Y-126.43
X207.289Y-78.805
X207.289Y-107.38
X211.416Y-145.48
X212.051Y-164.53
X216.179Y-107.38
X216.814Y-126.43
X220.941Y-164.53
X221.576Y-145.48
X223.322Y-183.58
X225.704Y-78.805
X225.704Y-126.43
X226.339Y-107.38
X230.466Y-145.48
X231.101Y-164.53
X233.482Y-183.58
X235.229Y-107.38
X235.864Y-78.805
X235.864Y-126.43
X239.991Y-164.53
X240.626Y-145.48
X244.754Y-78.805
X244.754Y-126.43
X245.389Y-107.38
X249.516Y-145.48
X250.151Y-164.53
X254.279Y-107.38
X254.914Y-78.805
X254.914Y-126.43
X259.041Y-164.53
X259.676Y-145.48
X263.804Y-78.805
X263.804Y-126.43
X264.439Y-107.38
X268.566Y-145.48
X269.201Y-164.53
X273.329Y-107.38
X273.964Y-78.805
X273.964Y-126.43
X278.091Y-164.53
X278.726Y-145.48
X282.854Y-78.805
X282.854Y-126.43
X283.489Y-107.38
X287.616Y-145.48
X288.251Y-164.53
X292.379Y-107.38
X293.014Y-78.805
X293.014Y-126.43
X294.76Y-183.58
X297.141Y-164.53
X297.776Y-145.48
X301.904Y-126.43
X302.539Y-107.38
X304.92Y-183.58
X306.666Y-145.48
X307.301Y-164.53
X311.429Y-78.805
X311.429Y-107.38
X312.064Y-126.43
X316.191Y-164.53
X316.826Y-145.48
X318.572Y-183.58
X320.954Y-126.43
X321.589Y-78.805
X321.589Y-107.38
X325.716Y-145.48
X326.351Y-164.53
X328.732Y-183.58
X330.479Y-78.805
X330.479Y-107.38
X331.114Y-126.43
X335.876Y-145.48
X340.004Y-126.43
X340.639Y-78.805
X340.639Y-107.38
X342.385Y-183.58
X349.529Y-78.805
X350.164Y-126.43
X351.91Y-164.53
X352.545Y-183.58
X356.672Y-145.48
X359.054Y-107.38
X359.689Y-78.805
X362.07Y-164.53
X363.816Y-126.43
X366.197Y-183.58
X366.832Y-145.48
X368.579Y-78.805
X369.214Y-107.38
X373.976Y-126.43
X376.357Y-183.58
X378.739Y-78.805
X392.391Y-78.805
X392.391Y-107.38
X392.391Y-126.43
X392.391Y-183.58
X402.551Y-78.805
X402.551Y-107.38
X402.551Y-126.43
X402.551Y-183.58
X411.441Y-78.805
X411.441Y-107.38
X411.441Y-126.43
X411.441Y-164.53
X411.441Y-183.58
X421.601Y-78.805
X421.601Y-107.38
X421.601Y-126.43
X421.601Y-164.53
X421.601Y-183.58
X430.491Y-78.805
X430.491Y-107.38
X430.491Y-126.43
X430.491Y-183.58
X440.651Y-78.805
X440.651Y-107.38
X440.651Y-126.43
X440.651Y-183.58
X454.304Y-107.38
X454.304Y-126.43
X454.304Y-145.48
X454.304Y-164.53
X463.829Y-183.58
X464.464Y-107.38
X464.464Y-126.43
X464.464Y-145.48
X464.464Y-164.53
X473.354Y-107.38
X473.354Y-126.43
X473.354Y-145.48
X473.354Y-164.53
X473.989Y-183.58
X483.514Y-107.38
X483.514Y-126.43
X483.514Y-145.48
X483.514Y-164.53
X492.404Y-107.38
X492.404Y-126.43
X492.404Y-145.48
X492.404Y-164.53
X492.404Y-183.58
X502.564Y-107.38
X502.564Y-126.43
X502.564Y-145.48
X502.564Y-164.53
X502.564Y-183.58
X511.454Y-107.38
X511.454Y-135.955
X511.454Y-174.055
X521.614Y-107.38
X521.614Y-135.955
X521.614Y-174.055
T2
X106.959Y-157.545
X130.771Y-157.545
X178.396Y-176.595
X278.409Y-176.595
X345.084Y-157.545
X349.846Y-138.495
X352.227Y-100.395
X368.896Y-157.545
X373.659Y-138.495
X376.04Y-100.395
X457.002Y-176.595
X480.815Y-176.595
X509.549Y-124.049
X509.549Y-147.861
X509.549Y-162.149
X509.549Y-185.961
T3
X106.959Y-78.805
X106.959Y-107.38
X106.959Y-172.785
X109.34Y-183.58
X111.721Y-126.43
X114.102Y-145.48
X118.865Y-164.53
X126.009Y-107.38
X130.771Y-172.785
X133.153Y-183.58
X135.534Y-126.43
X140.296Y-145.48
X145.059Y-78.805
X145.059Y-107.38
X149.821Y-164.53
X154.584Y-126.43
X156.965Y-183.58
X159.346Y-145.48
X164.109Y-78.805
X164.109Y-107.38
X168.871Y-164.53
X173.634Y-126.43
X178.396Y-145.48
X178.396Y-191.835
X183.159Y-78.805
X183.159Y-107.38
X187.921Y-164.53
X192.684Y-126.43
X197.446Y-145.48
X202.209Y-78.805
X202.209Y-107.38
X206.971Y-164.53
X211.734Y-126.43
X216.496Y-145.48
X221.259Y-107.38
X226.021Y-164.53
X228.403Y-183.58
X230.784Y-78.805
X230.784Y-126.43
X235.546Y-145.48
X240.309Y-107.38
X245.071Y-164.53
X249.834Y-78.805
X249.834Y-126.43
X254.596Y-145.48
X259.359Y-107.38
X264.121Y-164.53
X268.884Y-78.805
X268.884Y-126.43
X273.646Y-145.48
X278.409Y-107.38
X278.409Y-191.835
X283.171Y-164.53
X287.934Y-78.805
X287.934Y-126.43
X292.696Y-145.48
X297.459Y-107.38
X299.84Y-183.58
X302.221Y-164.53
X306.984Y-126.43
X311.746Y-145.48
X316.509Y-78.805
X316.509Y-107.38
X321.271Y-164.53
X323.652Y-183.58
X326.034Y-126.43
X330.796Y-145.48
X335.559Y-78.805
X335.559Y-107.38
X345.084Y-126.43
X345.084Y-172.785
X347.465Y-183.58
X349.846Y-153.735
X352.227Y-115.635
X354.609Y-78.805
X356.99Y-164.53
X361.752Y-145.48
X364.134Y-107.38
X368.896Y-126.43
X368.896Y-172.785
X371.277Y-183.58
X373.659Y-78.805
X373.659Y-153.735
X376.04Y-115.635
X397.471Y-78.805
X397.471Y-107.38
X397.471Y-126.43
X397.471Y-183.58
X416.521Y-78.805
X416.521Y-107.38
X416.521Y-126.43
X416.521Y-164.53
X416.521Y-183.58
X435.571Y-78.805
X435.571Y-107.38
X435.571Y-126.43
X435.571Y-183.58
X457.002Y-191.835
X459.384Y-107.38
X459.384Y-126.43
X459.384Y-145.48
X459.384Y-164.53
X468.909Y-183.58
X478.434Y-107.38
X478.434Y-126.43
X478.434Y-145.48
X478.434Y-164.53
X480.815Y-191.835
X497.484Y-107.38
X497.484Y-126.43
X497.484Y-145.48
X497.484Y-164.53
X497.484Y-183.58
X516.534Y-107.38
X516.534Y-135.955
X516.534Y-174.055
X524.789Y-124.049
X524.789Y-147.861
X524.789Y-162.149
X524.789Y-185.961
M30
