M48
; DRILL file KiCad 10.0.4 date 2026-09-14T17:50:05
; FORMAT={-:-/ absolute / metric / decimal}
; #@! TF.CreationDate,2026-09-14T17:50:05-07:00
; #@! TF.GenerationSoftware,Kicad,Pcbnew,10.0.4
; #@! TF.FileFunction,Plated,1,2,PTH
FMAT,2
METRIC
; #@! TA.AperFunction,Plated,PTH,ComponentDrill
T1C0.800
; #@! TA.AperFunction,Plated,PTH,ComponentDrill
T2C1.000
; #@! TA.AperFunction,Plated,PTH,ComponentDrill
T3C1.500
; #@! TA.AperFunction,Plated,PTH,ComponentDrill
T4C3.000
%
G90
G05
T1
X64.14Y-72.16
X64.14Y-74.7
X64.14Y-77.24
X64.14Y-79.78
X64.14Y-82.32
X64.14Y-84.86
X64.14Y-87.4
X64.14Y-89.94
X64.14Y-92.48
X64.14Y-95.02
X64.14Y-97.56
X64.14Y-100.1
X64.14Y-102.64
X64.14Y-105.18
X64.14Y-107.72
X64.14Y-110.26
X64.14Y-112.8
X64.14Y-115.34
X64.14Y-117.88
X64.14Y-120.42
X64.14Y-122.96
X64.14Y-125.5
X87.0Y-79.78
X87.0Y-82.32
X87.0Y-84.86
X87.0Y-87.4
X87.0Y-89.94
X87.0Y-92.48
X87.0Y-95.02
X87.0Y-97.56
X87.0Y-100.1
X87.0Y-102.64
X87.0Y-105.18
X87.0Y-107.72
X87.0Y-110.26
X87.0Y-112.8
X87.0Y-115.34
X87.0Y-117.88
X87.0Y-120.42
X87.0Y-122.96
X87.0Y-125.5
X87.004Y-72.163
X87.004Y-74.703
X87.004Y-77.243
T2
X490.0Y-76.0
X490.0Y-78.5
X490.0Y-81.0
X504.5Y-76.0
X504.5Y-81.0
T4
X103.149Y-76.265
X103.149Y-104.84
X105.53Y-181.04
X107.911Y-123.89
X109.499Y-73.725
X109.499Y-102.3
X110.292Y-142.94
X111.88Y-178.5
X114.261Y-121.35
X115.055Y-161.99
X116.642Y-140.4
X121.405Y-159.45
X122.199Y-104.84
X128.549Y-102.3
X129.343Y-181.04
X131.724Y-123.89
X135.692Y-178.5
X136.486Y-142.94
X138.074Y-121.35
X141.249Y-76.265
X141.249Y-104.84
X142.836Y-140.4
X146.011Y-161.99
X147.599Y-73.725
X147.599Y-102.3
X150.774Y-123.89
X152.361Y-159.45
X153.155Y-181.04
X155.536Y-142.94
X157.124Y-121.35
X159.505Y-178.5
X160.299Y-76.265
X160.299Y-104.84
X161.886Y-140.4
X165.061Y-161.99
X166.649Y-73.725
X166.649Y-102.3
X169.824Y-123.89
X171.411Y-159.45
X174.586Y-142.94
X176.174Y-121.35
X179.349Y-76.265
X179.349Y-104.84
X180.936Y-140.4
X184.111Y-161.99
X185.699Y-73.725
X185.699Y-102.3
X188.874Y-123.89
X190.461Y-159.45
X193.636Y-142.94
X195.224Y-121.35
X198.399Y-76.265
X198.399Y-104.84
X199.986Y-140.4
X203.161Y-161.99
X204.749Y-73.725
X204.749Y-102.3
X207.924Y-123.89
X209.511Y-159.45
X212.686Y-142.94
X214.274Y-121.35
X217.449Y-104.84
X219.036Y-140.4
X222.211Y-161.99
X223.799Y-102.3
X224.593Y-181.04
X226.974Y-76.265
X226.974Y-123.89
X228.561Y-159.45
X230.942Y-178.5
X231.736Y-142.94
X233.324Y-73.725
X233.324Y-121.35
X236.499Y-104.84
X238.086Y-140.4
X241.261Y-161.99
X242.849Y-102.3
X246.024Y-76.265
X246.024Y-123.89
X247.611Y-159.45
X250.786Y-142.94
X252.374Y-73.725
X252.374Y-121.35
X255.549Y-104.84
X257.136Y-140.4
X260.311Y-161.99
X261.899Y-102.3
X265.074Y-76.265
X265.074Y-123.89
X266.661Y-159.45
X269.836Y-142.94
X271.424Y-73.725
X271.424Y-121.35
X274.599Y-104.84
X276.186Y-140.4
X279.361Y-161.99
X280.949Y-102.3
X284.124Y-76.265
X284.124Y-123.89
X285.711Y-159.45
X288.886Y-142.94
X290.474Y-73.725
X290.474Y-121.35
X293.649Y-104.84
X295.236Y-140.4
X296.03Y-181.04
X298.411Y-161.99
X299.999Y-102.3
X302.38Y-178.5
X303.174Y-123.89
X304.761Y-159.45
X307.936Y-142.94
X309.524Y-121.35
X312.699Y-76.265
X312.699Y-104.84
X314.286Y-140.4
X317.461Y-161.99
X319.049Y-73.725
X319.049Y-102.3
X319.842Y-181.04
X322.224Y-123.89
X323.811Y-159.45
X326.192Y-178.5
X326.986Y-142.94
X328.574Y-121.35
X331.749Y-76.265
X331.749Y-104.84
X333.336Y-140.4
X338.099Y-73.725
X338.099Y-102.3
X341.274Y-123.89
X343.655Y-181.04
X347.624Y-121.35
X350.005Y-178.5
X350.799Y-76.265
X353.18Y-161.99
X357.149Y-73.725
X357.942Y-142.94
X359.53Y-159.45
X360.324Y-104.84
X364.292Y-140.4
X365.086Y-123.89
X366.674Y-102.3
X367.467Y-181.04
X369.849Y-76.265
X371.436Y-121.35
X373.817Y-178.5
X376.199Y-73.725
X393.661Y-76.265
X393.661Y-104.84
X393.661Y-123.89
X393.661Y-181.04
X400.011Y-73.725
X400.011Y-102.3
X400.011Y-121.35
X400.011Y-178.5
X412.711Y-76.265
X412.711Y-104.84
X412.711Y-123.89
X412.711Y-161.99
X412.711Y-181.04
X419.061Y-73.725
X419.061Y-102.3
X419.061Y-121.35
X419.061Y-159.45
X419.061Y-178.5
X431.761Y-76.265
X431.761Y-104.84
X431.761Y-123.89
X431.761Y-181.04
X438.111Y-73.725
X438.111Y-102.3
X438.111Y-121.35
X438.111Y-178.5
X455.574Y-104.84
X455.574Y-123.89
X455.574Y-142.94
X455.574Y-161.99
X461.924Y-102.3
X461.924Y-121.35
X461.924Y-140.4
X461.924Y-159.45
X465.099Y-181.04
X471.449Y-178.5
X474.624Y-104.84
X474.624Y-123.89
X474.624Y-142.94
X474.624Y-161.99
X480.974Y-102.3
X480.974Y-121.35
X480.974Y-140.4
X480.974Y-159.45
X493.674Y-104.84
X493.674Y-123.89
X493.674Y-142.94
X493.674Y-161.99
X493.674Y-181.04
X500.024Y-102.3
X500.024Y-121.35
X500.024Y-140.4
X500.024Y-159.45
X500.024Y-178.5
X512.724Y-104.84
X512.724Y-133.415
X512.724Y-171.515
X519.074Y-102.3
X519.074Y-130.875
X519.074Y-168.975
T3
G00X496.85Y-72.9
M15
G01X498.15Y-72.9
M16
G05
G00X496.85Y-84.1
M15
G01X498.15Y-84.1
M16
G05
M30
