%TF.GenerationSoftware,KiCad,Pcbnew,10.0.4*%
%TF.CreationDate,2026-09-14T17:50:23-07:00*%
%TF.ProjectId,keeboard,6b656562-6f61-4726-942e-6b696361645f,rev?*%
%TF.SameCoordinates,Original*%
%TF.FileFunction,Legend,Top*%
%TF.FilePolarity,Positive*%
%FSLAX46Y46*%
G04 Gerber Fmt 4.6, Leading zero omitted, Abs format (unit mm)*
G04 Created by KiCad (PCBNEW 10.0.4) date 2026-09-14 17:50:23*
%MOMM*%
%LPD*%
G01*
G04 APERTURE LIST*
%ADD10C,0.150000*%
%ADD11C,0.120000*%
G04 APERTURE END LIST*
D10*
X491466667Y-71707200D02*
X491609524Y-71754819D01*
X491609524Y-71754819D02*
X491847619Y-71754819D01*
X491847619Y-71754819D02*
X491942857Y-71707200D01*
X491942857Y-71707200D02*
X491990476Y-71659580D01*
X491990476Y-71659580D02*
X492038095Y-71564342D01*
X492038095Y-71564342D02*
X492038095Y-71469104D01*
X492038095Y-71469104D02*
X491990476Y-71373866D01*
X491990476Y-71373866D02*
X491942857Y-71326247D01*
X491942857Y-71326247D02*
X491847619Y-71278628D01*
X491847619Y-71278628D02*
X491657143Y-71231009D01*
X491657143Y-71231009D02*
X491561905Y-71183390D01*
X491561905Y-71183390D02*
X491514286Y-71135771D01*
X491514286Y-71135771D02*
X491466667Y-71040533D01*
X491466667Y-71040533D02*
X491466667Y-70945295D01*
X491466667Y-70945295D02*
X491514286Y-70850057D01*
X491514286Y-70850057D02*
X491561905Y-70802438D01*
X491561905Y-70802438D02*
X491657143Y-70754819D01*
X491657143Y-70754819D02*
X491895238Y-70754819D01*
X491895238Y-70754819D02*
X492038095Y-70802438D01*
X492371429Y-70754819D02*
X492609524Y-71754819D01*
X492609524Y-71754819D02*
X492800000Y-71040533D01*
X492800000Y-71040533D02*
X492990476Y-71754819D01*
X492990476Y-71754819D02*
X493228572Y-70754819D01*
X494133333Y-71754819D02*
X493561905Y-71754819D01*
X493847619Y-71754819D02*
X493847619Y-70754819D01*
X493847619Y-70754819D02*
X493752381Y-70897676D01*
X493752381Y-70897676D02*
X493657143Y-70992914D01*
X493657143Y-70992914D02*
X493561905Y-71040533D01*
X73538095Y-127054819D02*
X73538095Y-127864342D01*
X73538095Y-127864342D02*
X73585714Y-127959580D01*
X73585714Y-127959580D02*
X73633333Y-128007200D01*
X73633333Y-128007200D02*
X73728571Y-128054819D01*
X73728571Y-128054819D02*
X73919047Y-128054819D01*
X73919047Y-128054819D02*
X74014285Y-128007200D01*
X74014285Y-128007200D02*
X74061904Y-127959580D01*
X74061904Y-127959580D02*
X74109523Y-127864342D01*
X74109523Y-127864342D02*
X74109523Y-127054819D01*
X75109523Y-128054819D02*
X74538095Y-128054819D01*
X74823809Y-128054819D02*
X74823809Y-127054819D01*
X74823809Y-127054819D02*
X74728571Y-127197676D01*
X74728571Y-127197676D02*
X74633333Y-127292914D01*
X74633333Y-127292914D02*
X74538095Y-127340533D01*
X75504689Y-103205386D02*
X75504689Y-102872053D01*
X76028499Y-102729196D02*
X76028499Y-103205386D01*
X76028499Y-103205386D02*
X75028499Y-103205386D01*
X75028499Y-103205386D02*
X75028499Y-102729196D01*
X75980880Y-102348243D02*
X76028499Y-102205386D01*
X76028499Y-102205386D02*
X76028499Y-101967291D01*
X76028499Y-101967291D02*
X75980880Y-101872053D01*
X75980880Y-101872053D02*
X75933260Y-101824434D01*
X75933260Y-101824434D02*
X75838022Y-101776815D01*
X75838022Y-101776815D02*
X75742784Y-101776815D01*
X75742784Y-101776815D02*
X75647546Y-101824434D01*
X75647546Y-101824434D02*
X75599927Y-101872053D01*
X75599927Y-101872053D02*
X75552308Y-101967291D01*
X75552308Y-101967291D02*
X75504689Y-102157767D01*
X75504689Y-102157767D02*
X75457070Y-102253005D01*
X75457070Y-102253005D02*
X75409451Y-102300624D01*
X75409451Y-102300624D02*
X75314213Y-102348243D01*
X75314213Y-102348243D02*
X75218975Y-102348243D01*
X75218975Y-102348243D02*
X75123737Y-102300624D01*
X75123737Y-102300624D02*
X75076118Y-102253005D01*
X75076118Y-102253005D02*
X75028499Y-102157767D01*
X75028499Y-102157767D02*
X75028499Y-101919672D01*
X75028499Y-101919672D02*
X75076118Y-101776815D01*
X76028499Y-101348243D02*
X75028499Y-101348243D01*
X75028499Y-101348243D02*
X75028499Y-100967291D01*
X75028499Y-100967291D02*
X75076118Y-100872053D01*
X75076118Y-100872053D02*
X75123737Y-100824434D01*
X75123737Y-100824434D02*
X75218975Y-100776815D01*
X75218975Y-100776815D02*
X75361832Y-100776815D01*
X75361832Y-100776815D02*
X75457070Y-100824434D01*
X75457070Y-100824434D02*
X75504689Y-100872053D01*
X75504689Y-100872053D02*
X75552308Y-100967291D01*
X75552308Y-100967291D02*
X75552308Y-101348243D01*
X75028499Y-100443481D02*
X75028499Y-99824434D01*
X75028499Y-99824434D02*
X75409451Y-100157767D01*
X75409451Y-100157767D02*
X75409451Y-100014910D01*
X75409451Y-100014910D02*
X75457070Y-99919672D01*
X75457070Y-99919672D02*
X75504689Y-99872053D01*
X75504689Y-99872053D02*
X75599927Y-99824434D01*
X75599927Y-99824434D02*
X75838022Y-99824434D01*
X75838022Y-99824434D02*
X75933260Y-99872053D01*
X75933260Y-99872053D02*
X75980880Y-99919672D01*
X75980880Y-99919672D02*
X76028499Y-100014910D01*
X76028499Y-100014910D02*
X76028499Y-100300624D01*
X76028499Y-100300624D02*
X75980880Y-100395862D01*
X75980880Y-100395862D02*
X75933260Y-100443481D01*
X75123737Y-99443481D02*
X75076118Y-99395862D01*
X75076118Y-99395862D02*
X75028499Y-99300624D01*
X75028499Y-99300624D02*
X75028499Y-99062529D01*
X75028499Y-99062529D02*
X75076118Y-98967291D01*
X75076118Y-98967291D02*
X75123737Y-98919672D01*
X75123737Y-98919672D02*
X75218975Y-98872053D01*
X75218975Y-98872053D02*
X75314213Y-98872053D01*
X75314213Y-98872053D02*
X75457070Y-98919672D01*
X75457070Y-98919672D02*
X76028499Y-99491100D01*
X76028499Y-99491100D02*
X76028499Y-98872053D01*
X75647546Y-98443481D02*
X75647546Y-97681577D01*
X75980880Y-97253005D02*
X76028499Y-97110148D01*
X76028499Y-97110148D02*
X76028499Y-96872053D01*
X76028499Y-96872053D02*
X75980880Y-96776815D01*
X75980880Y-96776815D02*
X75933260Y-96729196D01*
X75933260Y-96729196D02*
X75838022Y-96681577D01*
X75838022Y-96681577D02*
X75742784Y-96681577D01*
X75742784Y-96681577D02*
X75647546Y-96729196D01*
X75647546Y-96729196D02*
X75599927Y-96776815D01*
X75599927Y-96776815D02*
X75552308Y-96872053D01*
X75552308Y-96872053D02*
X75504689Y-97062529D01*
X75504689Y-97062529D02*
X75457070Y-97157767D01*
X75457070Y-97157767D02*
X75409451Y-97205386D01*
X75409451Y-97205386D02*
X75314213Y-97253005D01*
X75314213Y-97253005D02*
X75218975Y-97253005D01*
X75218975Y-97253005D02*
X75123737Y-97205386D01*
X75123737Y-97205386D02*
X75076118Y-97157767D01*
X75076118Y-97157767D02*
X75028499Y-97062529D01*
X75028499Y-97062529D02*
X75028499Y-96824434D01*
X75028499Y-96824434D02*
X75076118Y-96681577D01*
X75028499Y-96348243D02*
X75028499Y-95729196D01*
X75028499Y-95729196D02*
X75409451Y-96062529D01*
X75409451Y-96062529D02*
X75409451Y-95919672D01*
X75409451Y-95919672D02*
X75457070Y-95824434D01*
X75457070Y-95824434D02*
X75504689Y-95776815D01*
X75504689Y-95776815D02*
X75599927Y-95729196D01*
X75599927Y-95729196D02*
X75838022Y-95729196D01*
X75838022Y-95729196D02*
X75933260Y-95776815D01*
X75933260Y-95776815D02*
X75980880Y-95824434D01*
X75980880Y-95824434D02*
X76028499Y-95919672D01*
X76028499Y-95919672D02*
X76028499Y-96205386D01*
X76028499Y-96205386D02*
X75980880Y-96300624D01*
X75980880Y-96300624D02*
X75933260Y-96348243D01*
X75647546Y-95300624D02*
X75647546Y-94538720D01*
X76028499Y-94062529D02*
X75028499Y-94062529D01*
X75028499Y-94062529D02*
X75028499Y-93824434D01*
X75028499Y-93824434D02*
X75076118Y-93681577D01*
X75076118Y-93681577D02*
X75171356Y-93586339D01*
X75171356Y-93586339D02*
X75266594Y-93538720D01*
X75266594Y-93538720D02*
X75457070Y-93491101D01*
X75457070Y-93491101D02*
X75599927Y-93491101D01*
X75599927Y-93491101D02*
X75790403Y-93538720D01*
X75790403Y-93538720D02*
X75885641Y-93586339D01*
X75885641Y-93586339D02*
X75980880Y-93681577D01*
X75980880Y-93681577D02*
X76028499Y-93824434D01*
X76028499Y-93824434D02*
X76028499Y-94062529D01*
X75980880Y-92681577D02*
X76028499Y-92776815D01*
X76028499Y-92776815D02*
X76028499Y-92967291D01*
X76028499Y-92967291D02*
X75980880Y-93062529D01*
X75980880Y-93062529D02*
X75885641Y-93110148D01*
X75885641Y-93110148D02*
X75504689Y-93110148D01*
X75504689Y-93110148D02*
X75409451Y-93062529D01*
X75409451Y-93062529D02*
X75361832Y-92967291D01*
X75361832Y-92967291D02*
X75361832Y-92776815D01*
X75361832Y-92776815D02*
X75409451Y-92681577D01*
X75409451Y-92681577D02*
X75504689Y-92633958D01*
X75504689Y-92633958D02*
X75599927Y-92633958D01*
X75599927Y-92633958D02*
X75695165Y-93110148D01*
X75361832Y-92300624D02*
X76028499Y-92062529D01*
X76028499Y-92062529D02*
X75361832Y-91824434D01*
X76028499Y-91443481D02*
X75028499Y-91443481D01*
X76028499Y-90872053D02*
X75457070Y-91300624D01*
X75028499Y-90872053D02*
X75599927Y-91443481D01*
X76028499Y-90443481D02*
X75361832Y-90443481D01*
X75028499Y-90443481D02*
X75076118Y-90491100D01*
X75076118Y-90491100D02*
X75123737Y-90443481D01*
X75123737Y-90443481D02*
X75076118Y-90395862D01*
X75076118Y-90395862D02*
X75028499Y-90443481D01*
X75028499Y-90443481D02*
X75123737Y-90443481D01*
X75361832Y-90110148D02*
X75361832Y-89729196D01*
X75028499Y-89967291D02*
X75885641Y-89967291D01*
X75885641Y-89967291D02*
X75980880Y-89919672D01*
X75980880Y-89919672D02*
X76028499Y-89824434D01*
X76028499Y-89824434D02*
X76028499Y-89729196D01*
X75933260Y-88824434D02*
X75980880Y-88872053D01*
X75980880Y-88872053D02*
X76028499Y-89014910D01*
X76028499Y-89014910D02*
X76028499Y-89110148D01*
X76028499Y-89110148D02*
X75980880Y-89253005D01*
X75980880Y-89253005D02*
X75885641Y-89348243D01*
X75885641Y-89348243D02*
X75790403Y-89395862D01*
X75790403Y-89395862D02*
X75599927Y-89443481D01*
X75599927Y-89443481D02*
X75457070Y-89443481D01*
X75457070Y-89443481D02*
X75266594Y-89395862D01*
X75266594Y-89395862D02*
X75171356Y-89348243D01*
X75171356Y-89348243D02*
X75076118Y-89253005D01*
X75076118Y-89253005D02*
X75028499Y-89110148D01*
X75028499Y-89110148D02*
X75028499Y-89014910D01*
X75028499Y-89014910D02*
X75076118Y-88872053D01*
X75076118Y-88872053D02*
X75123737Y-88824434D01*
X67794398Y-72657561D02*
X67889636Y-72705180D01*
X67889636Y-72705180D02*
X68032493Y-72705180D01*
X68032493Y-72705180D02*
X68175350Y-72657561D01*
X68175350Y-72657561D02*
X68270588Y-72562323D01*
X68270588Y-72562323D02*
X68318207Y-72467085D01*
X68318207Y-72467085D02*
X68365826Y-72276609D01*
X68365826Y-72276609D02*
X68365826Y-72133752D01*
X68365826Y-72133752D02*
X68318207Y-71943276D01*
X68318207Y-71943276D02*
X68270588Y-71848038D01*
X68270588Y-71848038D02*
X68175350Y-71752800D01*
X68175350Y-71752800D02*
X68032493Y-71705180D01*
X68032493Y-71705180D02*
X67937255Y-71705180D01*
X67937255Y-71705180D02*
X67794398Y-71752800D01*
X67794398Y-71752800D02*
X67746779Y-71800419D01*
X67746779Y-71800419D02*
X67746779Y-72133752D01*
X67746779Y-72133752D02*
X67937255Y-72133752D01*
X67318207Y-71705180D02*
X67318207Y-72705180D01*
X67318207Y-72705180D02*
X66746779Y-71705180D01*
X66746779Y-71705180D02*
X66746779Y-72705180D01*
X66270588Y-71705180D02*
X66270588Y-72705180D01*
X66270588Y-72705180D02*
X66032493Y-72705180D01*
X66032493Y-72705180D02*
X65889636Y-72657561D01*
X65889636Y-72657561D02*
X65794398Y-72562323D01*
X65794398Y-72562323D02*
X65746779Y-72467085D01*
X65746779Y-72467085D02*
X65699160Y-72276609D01*
X65699160Y-72276609D02*
X65699160Y-72133752D01*
X65699160Y-72133752D02*
X65746779Y-71943276D01*
X65746779Y-71943276D02*
X65794398Y-71848038D01*
X65794398Y-71848038D02*
X65889636Y-71752800D01*
X65889636Y-71752800D02*
X66032493Y-71705180D01*
X66032493Y-71705180D02*
X66270588Y-71705180D01*
X67794398Y-75197561D02*
X67889636Y-75245180D01*
X67889636Y-75245180D02*
X68032493Y-75245180D01*
X68032493Y-75245180D02*
X68175350Y-75197561D01*
X68175350Y-75197561D02*
X68270588Y-75102323D01*
X68270588Y-75102323D02*
X68318207Y-75007085D01*
X68318207Y-75007085D02*
X68365826Y-74816609D01*
X68365826Y-74816609D02*
X68365826Y-74673752D01*
X68365826Y-74673752D02*
X68318207Y-74483276D01*
X68318207Y-74483276D02*
X68270588Y-74388038D01*
X68270588Y-74388038D02*
X68175350Y-74292800D01*
X68175350Y-74292800D02*
X68032493Y-74245180D01*
X68032493Y-74245180D02*
X67937255Y-74245180D01*
X67937255Y-74245180D02*
X67794398Y-74292800D01*
X67794398Y-74292800D02*
X67746779Y-74340419D01*
X67746779Y-74340419D02*
X67746779Y-74673752D01*
X67746779Y-74673752D02*
X67937255Y-74673752D01*
X67318207Y-74245180D02*
X67318207Y-75245180D01*
X67318207Y-75245180D02*
X66746779Y-74245180D01*
X66746779Y-74245180D02*
X66746779Y-75245180D01*
X66270588Y-74245180D02*
X66270588Y-75245180D01*
X66270588Y-75245180D02*
X66032493Y-75245180D01*
X66032493Y-75245180D02*
X65889636Y-75197561D01*
X65889636Y-75197561D02*
X65794398Y-75102323D01*
X65794398Y-75102323D02*
X65746779Y-75007085D01*
X65746779Y-75007085D02*
X65699160Y-74816609D01*
X65699160Y-74816609D02*
X65699160Y-74673752D01*
X65699160Y-74673752D02*
X65746779Y-74483276D01*
X65746779Y-74483276D02*
X65794398Y-74388038D01*
X65794398Y-74388038D02*
X65889636Y-74292800D01*
X65889636Y-74292800D02*
X66032493Y-74245180D01*
X66032493Y-74245180D02*
X66270588Y-74245180D01*
X70175350Y-77737561D02*
X70270588Y-77785180D01*
X70270588Y-77785180D02*
X70413445Y-77785180D01*
X70413445Y-77785180D02*
X70556302Y-77737561D01*
X70556302Y-77737561D02*
X70651540Y-77642323D01*
X70651540Y-77642323D02*
X70699159Y-77547085D01*
X70699159Y-77547085D02*
X70746778Y-77356609D01*
X70746778Y-77356609D02*
X70746778Y-77213752D01*
X70746778Y-77213752D02*
X70699159Y-77023276D01*
X70699159Y-77023276D02*
X70651540Y-76928038D01*
X70651540Y-76928038D02*
X70556302Y-76832800D01*
X70556302Y-76832800D02*
X70413445Y-76785180D01*
X70413445Y-76785180D02*
X70318207Y-76785180D01*
X70318207Y-76785180D02*
X70175350Y-76832800D01*
X70175350Y-76832800D02*
X70127731Y-76880419D01*
X70127731Y-76880419D02*
X70127731Y-77213752D01*
X70127731Y-77213752D02*
X70318207Y-77213752D01*
X69699159Y-76785180D02*
X69699159Y-77785180D01*
X69699159Y-77785180D02*
X69318207Y-77785180D01*
X69318207Y-77785180D02*
X69222969Y-77737561D01*
X69222969Y-77737561D02*
X69175350Y-77689942D01*
X69175350Y-77689942D02*
X69127731Y-77594704D01*
X69127731Y-77594704D02*
X69127731Y-77451847D01*
X69127731Y-77451847D02*
X69175350Y-77356609D01*
X69175350Y-77356609D02*
X69222969Y-77308990D01*
X69222969Y-77308990D02*
X69318207Y-77261371D01*
X69318207Y-77261371D02*
X69699159Y-77261371D01*
X68699159Y-76785180D02*
X68699159Y-77785180D01*
X68032493Y-77785180D02*
X67842017Y-77785180D01*
X67842017Y-77785180D02*
X67746779Y-77737561D01*
X67746779Y-77737561D02*
X67651541Y-77642323D01*
X67651541Y-77642323D02*
X67603922Y-77451847D01*
X67603922Y-77451847D02*
X67603922Y-77118514D01*
X67603922Y-77118514D02*
X67651541Y-76928038D01*
X67651541Y-76928038D02*
X67746779Y-76832800D01*
X67746779Y-76832800D02*
X67842017Y-76785180D01*
X67842017Y-76785180D02*
X68032493Y-76785180D01*
X68032493Y-76785180D02*
X68127731Y-76832800D01*
X68127731Y-76832800D02*
X68222969Y-76928038D01*
X68222969Y-76928038D02*
X68270588Y-77118514D01*
X68270588Y-77118514D02*
X68270588Y-77451847D01*
X68270588Y-77451847D02*
X68222969Y-77642323D01*
X68222969Y-77642323D02*
X68127731Y-77737561D01*
X68127731Y-77737561D02*
X68032493Y-77785180D01*
X66651541Y-76785180D02*
X67222969Y-76785180D01*
X66937255Y-76785180D02*
X66937255Y-77785180D01*
X66937255Y-77785180D02*
X67032493Y-77642323D01*
X67032493Y-77642323D02*
X67127731Y-77547085D01*
X67127731Y-77547085D02*
X67222969Y-77499466D01*
X66175350Y-76785180D02*
X65984874Y-76785180D01*
X65984874Y-76785180D02*
X65889636Y-76832800D01*
X65889636Y-76832800D02*
X65842017Y-76880419D01*
X65842017Y-76880419D02*
X65746779Y-77023276D01*
X65746779Y-77023276D02*
X65699160Y-77213752D01*
X65699160Y-77213752D02*
X65699160Y-77594704D01*
X65699160Y-77594704D02*
X65746779Y-77689942D01*
X65746779Y-77689942D02*
X65794398Y-77737561D01*
X65794398Y-77737561D02*
X65889636Y-77785180D01*
X65889636Y-77785180D02*
X66080112Y-77785180D01*
X66080112Y-77785180D02*
X66175350Y-77737561D01*
X66175350Y-77737561D02*
X66222969Y-77689942D01*
X66222969Y-77689942D02*
X66270588Y-77594704D01*
X66270588Y-77594704D02*
X66270588Y-77356609D01*
X66270588Y-77356609D02*
X66222969Y-77261371D01*
X66222969Y-77261371D02*
X66175350Y-77213752D01*
X66175350Y-77213752D02*
X66080112Y-77166133D01*
X66080112Y-77166133D02*
X65889636Y-77166133D01*
X65889636Y-77166133D02*
X65794398Y-77213752D01*
X65794398Y-77213752D02*
X65746779Y-77261371D01*
X65746779Y-77261371D02*
X65699160Y-77356609D01*
X70175350Y-80277561D02*
X70270588Y-80325180D01*
X70270588Y-80325180D02*
X70413445Y-80325180D01*
X70413445Y-80325180D02*
X70556302Y-80277561D01*
X70556302Y-80277561D02*
X70651540Y-80182323D01*
X70651540Y-80182323D02*
X70699159Y-80087085D01*
X70699159Y-80087085D02*
X70746778Y-79896609D01*
X70746778Y-79896609D02*
X70746778Y-79753752D01*
X70746778Y-79753752D02*
X70699159Y-79563276D01*
X70699159Y-79563276D02*
X70651540Y-79468038D01*
X70651540Y-79468038D02*
X70556302Y-79372800D01*
X70556302Y-79372800D02*
X70413445Y-79325180D01*
X70413445Y-79325180D02*
X70318207Y-79325180D01*
X70318207Y-79325180D02*
X70175350Y-79372800D01*
X70175350Y-79372800D02*
X70127731Y-79420419D01*
X70127731Y-79420419D02*
X70127731Y-79753752D01*
X70127731Y-79753752D02*
X70318207Y-79753752D01*
X69699159Y-79325180D02*
X69699159Y-80325180D01*
X69699159Y-80325180D02*
X69318207Y-80325180D01*
X69318207Y-80325180D02*
X69222969Y-80277561D01*
X69222969Y-80277561D02*
X69175350Y-80229942D01*
X69175350Y-80229942D02*
X69127731Y-80134704D01*
X69127731Y-80134704D02*
X69127731Y-79991847D01*
X69127731Y-79991847D02*
X69175350Y-79896609D01*
X69175350Y-79896609D02*
X69222969Y-79848990D01*
X69222969Y-79848990D02*
X69318207Y-79801371D01*
X69318207Y-79801371D02*
X69699159Y-79801371D01*
X68699159Y-79325180D02*
X68699159Y-80325180D01*
X68032493Y-80325180D02*
X67842017Y-80325180D01*
X67842017Y-80325180D02*
X67746779Y-80277561D01*
X67746779Y-80277561D02*
X67651541Y-80182323D01*
X67651541Y-80182323D02*
X67603922Y-79991847D01*
X67603922Y-79991847D02*
X67603922Y-79658514D01*
X67603922Y-79658514D02*
X67651541Y-79468038D01*
X67651541Y-79468038D02*
X67746779Y-79372800D01*
X67746779Y-79372800D02*
X67842017Y-79325180D01*
X67842017Y-79325180D02*
X68032493Y-79325180D01*
X68032493Y-79325180D02*
X68127731Y-79372800D01*
X68127731Y-79372800D02*
X68222969Y-79468038D01*
X68222969Y-79468038D02*
X68270588Y-79658514D01*
X68270588Y-79658514D02*
X68270588Y-79991847D01*
X68270588Y-79991847D02*
X68222969Y-80182323D01*
X68222969Y-80182323D02*
X68127731Y-80277561D01*
X68127731Y-80277561D02*
X68032493Y-80325180D01*
X67222969Y-80229942D02*
X67175350Y-80277561D01*
X67175350Y-80277561D02*
X67080112Y-80325180D01*
X67080112Y-80325180D02*
X66842017Y-80325180D01*
X66842017Y-80325180D02*
X66746779Y-80277561D01*
X66746779Y-80277561D02*
X66699160Y-80229942D01*
X66699160Y-80229942D02*
X66651541Y-80134704D01*
X66651541Y-80134704D02*
X66651541Y-80039466D01*
X66651541Y-80039466D02*
X66699160Y-79896609D01*
X66699160Y-79896609D02*
X67270588Y-79325180D01*
X67270588Y-79325180D02*
X66651541Y-79325180D01*
X66032493Y-80325180D02*
X65937255Y-80325180D01*
X65937255Y-80325180D02*
X65842017Y-80277561D01*
X65842017Y-80277561D02*
X65794398Y-80229942D01*
X65794398Y-80229942D02*
X65746779Y-80134704D01*
X65746779Y-80134704D02*
X65699160Y-79944228D01*
X65699160Y-79944228D02*
X65699160Y-79706133D01*
X65699160Y-79706133D02*
X65746779Y-79515657D01*
X65746779Y-79515657D02*
X65794398Y-79420419D01*
X65794398Y-79420419D02*
X65842017Y-79372800D01*
X65842017Y-79372800D02*
X65937255Y-79325180D01*
X65937255Y-79325180D02*
X66032493Y-79325180D01*
X66032493Y-79325180D02*
X66127731Y-79372800D01*
X66127731Y-79372800D02*
X66175350Y-79420419D01*
X66175350Y-79420419D02*
X66222969Y-79515657D01*
X66222969Y-79515657D02*
X66270588Y-79706133D01*
X66270588Y-79706133D02*
X66270588Y-79944228D01*
X66270588Y-79944228D02*
X66222969Y-80134704D01*
X66222969Y-80134704D02*
X66175350Y-80229942D01*
X66175350Y-80229942D02*
X66127731Y-80277561D01*
X66127731Y-80277561D02*
X66032493Y-80325180D01*
X70175350Y-82817561D02*
X70270588Y-82865180D01*
X70270588Y-82865180D02*
X70413445Y-82865180D01*
X70413445Y-82865180D02*
X70556302Y-82817561D01*
X70556302Y-82817561D02*
X70651540Y-82722323D01*
X70651540Y-82722323D02*
X70699159Y-82627085D01*
X70699159Y-82627085D02*
X70746778Y-82436609D01*
X70746778Y-82436609D02*
X70746778Y-82293752D01*
X70746778Y-82293752D02*
X70699159Y-82103276D01*
X70699159Y-82103276D02*
X70651540Y-82008038D01*
X70651540Y-82008038D02*
X70556302Y-81912800D01*
X70556302Y-81912800D02*
X70413445Y-81865180D01*
X70413445Y-81865180D02*
X70318207Y-81865180D01*
X70318207Y-81865180D02*
X70175350Y-81912800D01*
X70175350Y-81912800D02*
X70127731Y-81960419D01*
X70127731Y-81960419D02*
X70127731Y-82293752D01*
X70127731Y-82293752D02*
X70318207Y-82293752D01*
X69699159Y-81865180D02*
X69699159Y-82865180D01*
X69699159Y-82865180D02*
X69318207Y-82865180D01*
X69318207Y-82865180D02*
X69222969Y-82817561D01*
X69222969Y-82817561D02*
X69175350Y-82769942D01*
X69175350Y-82769942D02*
X69127731Y-82674704D01*
X69127731Y-82674704D02*
X69127731Y-82531847D01*
X69127731Y-82531847D02*
X69175350Y-82436609D01*
X69175350Y-82436609D02*
X69222969Y-82388990D01*
X69222969Y-82388990D02*
X69318207Y-82341371D01*
X69318207Y-82341371D02*
X69699159Y-82341371D01*
X68699159Y-81865180D02*
X68699159Y-82865180D01*
X68032493Y-82865180D02*
X67842017Y-82865180D01*
X67842017Y-82865180D02*
X67746779Y-82817561D01*
X67746779Y-82817561D02*
X67651541Y-82722323D01*
X67651541Y-82722323D02*
X67603922Y-82531847D01*
X67603922Y-82531847D02*
X67603922Y-82198514D01*
X67603922Y-82198514D02*
X67651541Y-82008038D01*
X67651541Y-82008038D02*
X67746779Y-81912800D01*
X67746779Y-81912800D02*
X67842017Y-81865180D01*
X67842017Y-81865180D02*
X68032493Y-81865180D01*
X68032493Y-81865180D02*
X68127731Y-81912800D01*
X68127731Y-81912800D02*
X68222969Y-82008038D01*
X68222969Y-82008038D02*
X68270588Y-82198514D01*
X68270588Y-82198514D02*
X68270588Y-82531847D01*
X68270588Y-82531847D02*
X68222969Y-82722323D01*
X68222969Y-82722323D02*
X68127731Y-82817561D01*
X68127731Y-82817561D02*
X68032493Y-82865180D01*
X67222969Y-82769942D02*
X67175350Y-82817561D01*
X67175350Y-82817561D02*
X67080112Y-82865180D01*
X67080112Y-82865180D02*
X66842017Y-82865180D01*
X66842017Y-82865180D02*
X66746779Y-82817561D01*
X66746779Y-82817561D02*
X66699160Y-82769942D01*
X66699160Y-82769942D02*
X66651541Y-82674704D01*
X66651541Y-82674704D02*
X66651541Y-82579466D01*
X66651541Y-82579466D02*
X66699160Y-82436609D01*
X66699160Y-82436609D02*
X67270588Y-81865180D01*
X67270588Y-81865180D02*
X66651541Y-81865180D01*
X65699160Y-81865180D02*
X66270588Y-81865180D01*
X65984874Y-81865180D02*
X65984874Y-82865180D01*
X65984874Y-82865180D02*
X66080112Y-82722323D01*
X66080112Y-82722323D02*
X66175350Y-82627085D01*
X66175350Y-82627085D02*
X66270588Y-82579466D01*
X70175350Y-85357561D02*
X70270588Y-85405180D01*
X70270588Y-85405180D02*
X70413445Y-85405180D01*
X70413445Y-85405180D02*
X70556302Y-85357561D01*
X70556302Y-85357561D02*
X70651540Y-85262323D01*
X70651540Y-85262323D02*
X70699159Y-85167085D01*
X70699159Y-85167085D02*
X70746778Y-84976609D01*
X70746778Y-84976609D02*
X70746778Y-84833752D01*
X70746778Y-84833752D02*
X70699159Y-84643276D01*
X70699159Y-84643276D02*
X70651540Y-84548038D01*
X70651540Y-84548038D02*
X70556302Y-84452800D01*
X70556302Y-84452800D02*
X70413445Y-84405180D01*
X70413445Y-84405180D02*
X70318207Y-84405180D01*
X70318207Y-84405180D02*
X70175350Y-84452800D01*
X70175350Y-84452800D02*
X70127731Y-84500419D01*
X70127731Y-84500419D02*
X70127731Y-84833752D01*
X70127731Y-84833752D02*
X70318207Y-84833752D01*
X69699159Y-84405180D02*
X69699159Y-85405180D01*
X69699159Y-85405180D02*
X69318207Y-85405180D01*
X69318207Y-85405180D02*
X69222969Y-85357561D01*
X69222969Y-85357561D02*
X69175350Y-85309942D01*
X69175350Y-85309942D02*
X69127731Y-85214704D01*
X69127731Y-85214704D02*
X69127731Y-85071847D01*
X69127731Y-85071847D02*
X69175350Y-84976609D01*
X69175350Y-84976609D02*
X69222969Y-84928990D01*
X69222969Y-84928990D02*
X69318207Y-84881371D01*
X69318207Y-84881371D02*
X69699159Y-84881371D01*
X68699159Y-84405180D02*
X68699159Y-85405180D01*
X68032493Y-85405180D02*
X67842017Y-85405180D01*
X67842017Y-85405180D02*
X67746779Y-85357561D01*
X67746779Y-85357561D02*
X67651541Y-85262323D01*
X67651541Y-85262323D02*
X67603922Y-85071847D01*
X67603922Y-85071847D02*
X67603922Y-84738514D01*
X67603922Y-84738514D02*
X67651541Y-84548038D01*
X67651541Y-84548038D02*
X67746779Y-84452800D01*
X67746779Y-84452800D02*
X67842017Y-84405180D01*
X67842017Y-84405180D02*
X68032493Y-84405180D01*
X68032493Y-84405180D02*
X68127731Y-84452800D01*
X68127731Y-84452800D02*
X68222969Y-84548038D01*
X68222969Y-84548038D02*
X68270588Y-84738514D01*
X68270588Y-84738514D02*
X68270588Y-85071847D01*
X68270588Y-85071847D02*
X68222969Y-85262323D01*
X68222969Y-85262323D02*
X68127731Y-85357561D01*
X68127731Y-85357561D02*
X68032493Y-85405180D01*
X66746779Y-85071847D02*
X66746779Y-84405180D01*
X66984874Y-85452800D02*
X67222969Y-84738514D01*
X67222969Y-84738514D02*
X66603922Y-84738514D01*
X66318207Y-85405180D02*
X65651541Y-85405180D01*
X65651541Y-85405180D02*
X66080112Y-84405180D01*
X70175350Y-87897561D02*
X70270588Y-87945180D01*
X70270588Y-87945180D02*
X70413445Y-87945180D01*
X70413445Y-87945180D02*
X70556302Y-87897561D01*
X70556302Y-87897561D02*
X70651540Y-87802323D01*
X70651540Y-87802323D02*
X70699159Y-87707085D01*
X70699159Y-87707085D02*
X70746778Y-87516609D01*
X70746778Y-87516609D02*
X70746778Y-87373752D01*
X70746778Y-87373752D02*
X70699159Y-87183276D01*
X70699159Y-87183276D02*
X70651540Y-87088038D01*
X70651540Y-87088038D02*
X70556302Y-86992800D01*
X70556302Y-86992800D02*
X70413445Y-86945180D01*
X70413445Y-86945180D02*
X70318207Y-86945180D01*
X70318207Y-86945180D02*
X70175350Y-86992800D01*
X70175350Y-86992800D02*
X70127731Y-87040419D01*
X70127731Y-87040419D02*
X70127731Y-87373752D01*
X70127731Y-87373752D02*
X70318207Y-87373752D01*
X69699159Y-86945180D02*
X69699159Y-87945180D01*
X69699159Y-87945180D02*
X69318207Y-87945180D01*
X69318207Y-87945180D02*
X69222969Y-87897561D01*
X69222969Y-87897561D02*
X69175350Y-87849942D01*
X69175350Y-87849942D02*
X69127731Y-87754704D01*
X69127731Y-87754704D02*
X69127731Y-87611847D01*
X69127731Y-87611847D02*
X69175350Y-87516609D01*
X69175350Y-87516609D02*
X69222969Y-87468990D01*
X69222969Y-87468990D02*
X69318207Y-87421371D01*
X69318207Y-87421371D02*
X69699159Y-87421371D01*
X68699159Y-86945180D02*
X68699159Y-87945180D01*
X68032493Y-87945180D02*
X67842017Y-87945180D01*
X67842017Y-87945180D02*
X67746779Y-87897561D01*
X67746779Y-87897561D02*
X67651541Y-87802323D01*
X67651541Y-87802323D02*
X67603922Y-87611847D01*
X67603922Y-87611847D02*
X67603922Y-87278514D01*
X67603922Y-87278514D02*
X67651541Y-87088038D01*
X67651541Y-87088038D02*
X67746779Y-86992800D01*
X67746779Y-86992800D02*
X67842017Y-86945180D01*
X67842017Y-86945180D02*
X68032493Y-86945180D01*
X68032493Y-86945180D02*
X68127731Y-86992800D01*
X68127731Y-86992800D02*
X68222969Y-87088038D01*
X68222969Y-87088038D02*
X68270588Y-87278514D01*
X68270588Y-87278514D02*
X68270588Y-87611847D01*
X68270588Y-87611847D02*
X68222969Y-87802323D01*
X68222969Y-87802323D02*
X68127731Y-87897561D01*
X68127731Y-87897561D02*
X68032493Y-87945180D01*
X66746779Y-87611847D02*
X66746779Y-86945180D01*
X66984874Y-87992800D02*
X67222969Y-87278514D01*
X67222969Y-87278514D02*
X66603922Y-87278514D01*
X66080112Y-87516609D02*
X66175350Y-87564228D01*
X66175350Y-87564228D02*
X66222969Y-87611847D01*
X66222969Y-87611847D02*
X66270588Y-87707085D01*
X66270588Y-87707085D02*
X66270588Y-87754704D01*
X66270588Y-87754704D02*
X66222969Y-87849942D01*
X66222969Y-87849942D02*
X66175350Y-87897561D01*
X66175350Y-87897561D02*
X66080112Y-87945180D01*
X66080112Y-87945180D02*
X65889636Y-87945180D01*
X65889636Y-87945180D02*
X65794398Y-87897561D01*
X65794398Y-87897561D02*
X65746779Y-87849942D01*
X65746779Y-87849942D02*
X65699160Y-87754704D01*
X65699160Y-87754704D02*
X65699160Y-87707085D01*
X65699160Y-87707085D02*
X65746779Y-87611847D01*
X65746779Y-87611847D02*
X65794398Y-87564228D01*
X65794398Y-87564228D02*
X65889636Y-87516609D01*
X65889636Y-87516609D02*
X66080112Y-87516609D01*
X66080112Y-87516609D02*
X66175350Y-87468990D01*
X66175350Y-87468990D02*
X66222969Y-87421371D01*
X66222969Y-87421371D02*
X66270588Y-87326133D01*
X66270588Y-87326133D02*
X66270588Y-87135657D01*
X66270588Y-87135657D02*
X66222969Y-87040419D01*
X66222969Y-87040419D02*
X66175350Y-86992800D01*
X66175350Y-86992800D02*
X66080112Y-86945180D01*
X66080112Y-86945180D02*
X65889636Y-86945180D01*
X65889636Y-86945180D02*
X65794398Y-86992800D01*
X65794398Y-86992800D02*
X65746779Y-87040419D01*
X65746779Y-87040419D02*
X65699160Y-87135657D01*
X65699160Y-87135657D02*
X65699160Y-87326133D01*
X65699160Y-87326133D02*
X65746779Y-87421371D01*
X65746779Y-87421371D02*
X65794398Y-87468990D01*
X65794398Y-87468990D02*
X65889636Y-87516609D01*
X70175350Y-90437561D02*
X70270588Y-90485180D01*
X70270588Y-90485180D02*
X70413445Y-90485180D01*
X70413445Y-90485180D02*
X70556302Y-90437561D01*
X70556302Y-90437561D02*
X70651540Y-90342323D01*
X70651540Y-90342323D02*
X70699159Y-90247085D01*
X70699159Y-90247085D02*
X70746778Y-90056609D01*
X70746778Y-90056609D02*
X70746778Y-89913752D01*
X70746778Y-89913752D02*
X70699159Y-89723276D01*
X70699159Y-89723276D02*
X70651540Y-89628038D01*
X70651540Y-89628038D02*
X70556302Y-89532800D01*
X70556302Y-89532800D02*
X70413445Y-89485180D01*
X70413445Y-89485180D02*
X70318207Y-89485180D01*
X70318207Y-89485180D02*
X70175350Y-89532800D01*
X70175350Y-89532800D02*
X70127731Y-89580419D01*
X70127731Y-89580419D02*
X70127731Y-89913752D01*
X70127731Y-89913752D02*
X70318207Y-89913752D01*
X69699159Y-89485180D02*
X69699159Y-90485180D01*
X69699159Y-90485180D02*
X69318207Y-90485180D01*
X69318207Y-90485180D02*
X69222969Y-90437561D01*
X69222969Y-90437561D02*
X69175350Y-90389942D01*
X69175350Y-90389942D02*
X69127731Y-90294704D01*
X69127731Y-90294704D02*
X69127731Y-90151847D01*
X69127731Y-90151847D02*
X69175350Y-90056609D01*
X69175350Y-90056609D02*
X69222969Y-90008990D01*
X69222969Y-90008990D02*
X69318207Y-89961371D01*
X69318207Y-89961371D02*
X69699159Y-89961371D01*
X68699159Y-89485180D02*
X68699159Y-90485180D01*
X68032493Y-90485180D02*
X67842017Y-90485180D01*
X67842017Y-90485180D02*
X67746779Y-90437561D01*
X67746779Y-90437561D02*
X67651541Y-90342323D01*
X67651541Y-90342323D02*
X67603922Y-90151847D01*
X67603922Y-90151847D02*
X67603922Y-89818514D01*
X67603922Y-89818514D02*
X67651541Y-89628038D01*
X67651541Y-89628038D02*
X67746779Y-89532800D01*
X67746779Y-89532800D02*
X67842017Y-89485180D01*
X67842017Y-89485180D02*
X68032493Y-89485180D01*
X68032493Y-89485180D02*
X68127731Y-89532800D01*
X68127731Y-89532800D02*
X68222969Y-89628038D01*
X68222969Y-89628038D02*
X68270588Y-89818514D01*
X68270588Y-89818514D02*
X68270588Y-90151847D01*
X68270588Y-90151847D02*
X68222969Y-90342323D01*
X68222969Y-90342323D02*
X68127731Y-90437561D01*
X68127731Y-90437561D02*
X68032493Y-90485180D01*
X66746779Y-90151847D02*
X66746779Y-89485180D01*
X66984874Y-90532800D02*
X67222969Y-89818514D01*
X67222969Y-89818514D02*
X66603922Y-89818514D01*
X65746779Y-90485180D02*
X66222969Y-90485180D01*
X66222969Y-90485180D02*
X66270588Y-90008990D01*
X66270588Y-90008990D02*
X66222969Y-90056609D01*
X66222969Y-90056609D02*
X66127731Y-90104228D01*
X66127731Y-90104228D02*
X65889636Y-90104228D01*
X65889636Y-90104228D02*
X65794398Y-90056609D01*
X65794398Y-90056609D02*
X65746779Y-90008990D01*
X65746779Y-90008990D02*
X65699160Y-89913752D01*
X65699160Y-89913752D02*
X65699160Y-89675657D01*
X65699160Y-89675657D02*
X65746779Y-89580419D01*
X65746779Y-89580419D02*
X65794398Y-89532800D01*
X65794398Y-89532800D02*
X65889636Y-89485180D01*
X65889636Y-89485180D02*
X66127731Y-89485180D01*
X66127731Y-89485180D02*
X66222969Y-89532800D01*
X66222969Y-89532800D02*
X66270588Y-89580419D01*
X69222969Y-92977561D02*
X69318207Y-93025180D01*
X69318207Y-93025180D02*
X69461064Y-93025180D01*
X69461064Y-93025180D02*
X69603921Y-92977561D01*
X69603921Y-92977561D02*
X69699159Y-92882323D01*
X69699159Y-92882323D02*
X69746778Y-92787085D01*
X69746778Y-92787085D02*
X69794397Y-92596609D01*
X69794397Y-92596609D02*
X69794397Y-92453752D01*
X69794397Y-92453752D02*
X69746778Y-92263276D01*
X69746778Y-92263276D02*
X69699159Y-92168038D01*
X69699159Y-92168038D02*
X69603921Y-92072800D01*
X69603921Y-92072800D02*
X69461064Y-92025180D01*
X69461064Y-92025180D02*
X69365826Y-92025180D01*
X69365826Y-92025180D02*
X69222969Y-92072800D01*
X69222969Y-92072800D02*
X69175350Y-92120419D01*
X69175350Y-92120419D02*
X69175350Y-92453752D01*
X69175350Y-92453752D02*
X69365826Y-92453752D01*
X68746778Y-92025180D02*
X68746778Y-93025180D01*
X68746778Y-93025180D02*
X68365826Y-93025180D01*
X68365826Y-93025180D02*
X68270588Y-92977561D01*
X68270588Y-92977561D02*
X68222969Y-92929942D01*
X68222969Y-92929942D02*
X68175350Y-92834704D01*
X68175350Y-92834704D02*
X68175350Y-92691847D01*
X68175350Y-92691847D02*
X68222969Y-92596609D01*
X68222969Y-92596609D02*
X68270588Y-92548990D01*
X68270588Y-92548990D02*
X68365826Y-92501371D01*
X68365826Y-92501371D02*
X68746778Y-92501371D01*
X67746778Y-92025180D02*
X67746778Y-93025180D01*
X67080112Y-93025180D02*
X66889636Y-93025180D01*
X66889636Y-93025180D02*
X66794398Y-92977561D01*
X66794398Y-92977561D02*
X66699160Y-92882323D01*
X66699160Y-92882323D02*
X66651541Y-92691847D01*
X66651541Y-92691847D02*
X66651541Y-92358514D01*
X66651541Y-92358514D02*
X66699160Y-92168038D01*
X66699160Y-92168038D02*
X66794398Y-92072800D01*
X66794398Y-92072800D02*
X66889636Y-92025180D01*
X66889636Y-92025180D02*
X67080112Y-92025180D01*
X67080112Y-92025180D02*
X67175350Y-92072800D01*
X67175350Y-92072800D02*
X67270588Y-92168038D01*
X67270588Y-92168038D02*
X67318207Y-92358514D01*
X67318207Y-92358514D02*
X67318207Y-92691847D01*
X67318207Y-92691847D02*
X67270588Y-92882323D01*
X67270588Y-92882323D02*
X67175350Y-92977561D01*
X67175350Y-92977561D02*
X67080112Y-93025180D01*
X66032493Y-93025180D02*
X65937255Y-93025180D01*
X65937255Y-93025180D02*
X65842017Y-92977561D01*
X65842017Y-92977561D02*
X65794398Y-92929942D01*
X65794398Y-92929942D02*
X65746779Y-92834704D01*
X65746779Y-92834704D02*
X65699160Y-92644228D01*
X65699160Y-92644228D02*
X65699160Y-92406133D01*
X65699160Y-92406133D02*
X65746779Y-92215657D01*
X65746779Y-92215657D02*
X65794398Y-92120419D01*
X65794398Y-92120419D02*
X65842017Y-92072800D01*
X65842017Y-92072800D02*
X65937255Y-92025180D01*
X65937255Y-92025180D02*
X66032493Y-92025180D01*
X66032493Y-92025180D02*
X66127731Y-92072800D01*
X66127731Y-92072800D02*
X66175350Y-92120419D01*
X66175350Y-92120419D02*
X66222969Y-92215657D01*
X66222969Y-92215657D02*
X66270588Y-92406133D01*
X66270588Y-92406133D02*
X66270588Y-92644228D01*
X66270588Y-92644228D02*
X66222969Y-92834704D01*
X66222969Y-92834704D02*
X66175350Y-92929942D01*
X66175350Y-92929942D02*
X66127731Y-92977561D01*
X66127731Y-92977561D02*
X66032493Y-93025180D01*
X70175350Y-95517561D02*
X70270588Y-95565180D01*
X70270588Y-95565180D02*
X70413445Y-95565180D01*
X70413445Y-95565180D02*
X70556302Y-95517561D01*
X70556302Y-95517561D02*
X70651540Y-95422323D01*
X70651540Y-95422323D02*
X70699159Y-95327085D01*
X70699159Y-95327085D02*
X70746778Y-95136609D01*
X70746778Y-95136609D02*
X70746778Y-94993752D01*
X70746778Y-94993752D02*
X70699159Y-94803276D01*
X70699159Y-94803276D02*
X70651540Y-94708038D01*
X70651540Y-94708038D02*
X70556302Y-94612800D01*
X70556302Y-94612800D02*
X70413445Y-94565180D01*
X70413445Y-94565180D02*
X70318207Y-94565180D01*
X70318207Y-94565180D02*
X70175350Y-94612800D01*
X70175350Y-94612800D02*
X70127731Y-94660419D01*
X70127731Y-94660419D02*
X70127731Y-94993752D01*
X70127731Y-94993752D02*
X70318207Y-94993752D01*
X69699159Y-94565180D02*
X69699159Y-95565180D01*
X69699159Y-95565180D02*
X69318207Y-95565180D01*
X69318207Y-95565180D02*
X69222969Y-95517561D01*
X69222969Y-95517561D02*
X69175350Y-95469942D01*
X69175350Y-95469942D02*
X69127731Y-95374704D01*
X69127731Y-95374704D02*
X69127731Y-95231847D01*
X69127731Y-95231847D02*
X69175350Y-95136609D01*
X69175350Y-95136609D02*
X69222969Y-95088990D01*
X69222969Y-95088990D02*
X69318207Y-95041371D01*
X69318207Y-95041371D02*
X69699159Y-95041371D01*
X68699159Y-94565180D02*
X68699159Y-95565180D01*
X68032493Y-95565180D02*
X67842017Y-95565180D01*
X67842017Y-95565180D02*
X67746779Y-95517561D01*
X67746779Y-95517561D02*
X67651541Y-95422323D01*
X67651541Y-95422323D02*
X67603922Y-95231847D01*
X67603922Y-95231847D02*
X67603922Y-94898514D01*
X67603922Y-94898514D02*
X67651541Y-94708038D01*
X67651541Y-94708038D02*
X67746779Y-94612800D01*
X67746779Y-94612800D02*
X67842017Y-94565180D01*
X67842017Y-94565180D02*
X68032493Y-94565180D01*
X68032493Y-94565180D02*
X68127731Y-94612800D01*
X68127731Y-94612800D02*
X68222969Y-94708038D01*
X68222969Y-94708038D02*
X68270588Y-94898514D01*
X68270588Y-94898514D02*
X68270588Y-95231847D01*
X68270588Y-95231847D02*
X68222969Y-95422323D01*
X68222969Y-95422323D02*
X68127731Y-95517561D01*
X68127731Y-95517561D02*
X68032493Y-95565180D01*
X67270588Y-95565180D02*
X66651541Y-95565180D01*
X66651541Y-95565180D02*
X66984874Y-95184228D01*
X66984874Y-95184228D02*
X66842017Y-95184228D01*
X66842017Y-95184228D02*
X66746779Y-95136609D01*
X66746779Y-95136609D02*
X66699160Y-95088990D01*
X66699160Y-95088990D02*
X66651541Y-94993752D01*
X66651541Y-94993752D02*
X66651541Y-94755657D01*
X66651541Y-94755657D02*
X66699160Y-94660419D01*
X66699160Y-94660419D02*
X66746779Y-94612800D01*
X66746779Y-94612800D02*
X66842017Y-94565180D01*
X66842017Y-94565180D02*
X67127731Y-94565180D01*
X67127731Y-94565180D02*
X67222969Y-94612800D01*
X67222969Y-94612800D02*
X67270588Y-94660419D01*
X65746779Y-95565180D02*
X66222969Y-95565180D01*
X66222969Y-95565180D02*
X66270588Y-95088990D01*
X66270588Y-95088990D02*
X66222969Y-95136609D01*
X66222969Y-95136609D02*
X66127731Y-95184228D01*
X66127731Y-95184228D02*
X65889636Y-95184228D01*
X65889636Y-95184228D02*
X65794398Y-95136609D01*
X65794398Y-95136609D02*
X65746779Y-95088990D01*
X65746779Y-95088990D02*
X65699160Y-94993752D01*
X65699160Y-94993752D02*
X65699160Y-94755657D01*
X65699160Y-94755657D02*
X65746779Y-94660419D01*
X65746779Y-94660419D02*
X65794398Y-94612800D01*
X65794398Y-94612800D02*
X65889636Y-94565180D01*
X65889636Y-94565180D02*
X66127731Y-94565180D01*
X66127731Y-94565180D02*
X66222969Y-94612800D01*
X66222969Y-94612800D02*
X66270588Y-94660419D01*
X70175350Y-98057561D02*
X70270588Y-98105180D01*
X70270588Y-98105180D02*
X70413445Y-98105180D01*
X70413445Y-98105180D02*
X70556302Y-98057561D01*
X70556302Y-98057561D02*
X70651540Y-97962323D01*
X70651540Y-97962323D02*
X70699159Y-97867085D01*
X70699159Y-97867085D02*
X70746778Y-97676609D01*
X70746778Y-97676609D02*
X70746778Y-97533752D01*
X70746778Y-97533752D02*
X70699159Y-97343276D01*
X70699159Y-97343276D02*
X70651540Y-97248038D01*
X70651540Y-97248038D02*
X70556302Y-97152800D01*
X70556302Y-97152800D02*
X70413445Y-97105180D01*
X70413445Y-97105180D02*
X70318207Y-97105180D01*
X70318207Y-97105180D02*
X70175350Y-97152800D01*
X70175350Y-97152800D02*
X70127731Y-97200419D01*
X70127731Y-97200419D02*
X70127731Y-97533752D01*
X70127731Y-97533752D02*
X70318207Y-97533752D01*
X69699159Y-97105180D02*
X69699159Y-98105180D01*
X69699159Y-98105180D02*
X69318207Y-98105180D01*
X69318207Y-98105180D02*
X69222969Y-98057561D01*
X69222969Y-98057561D02*
X69175350Y-98009942D01*
X69175350Y-98009942D02*
X69127731Y-97914704D01*
X69127731Y-97914704D02*
X69127731Y-97771847D01*
X69127731Y-97771847D02*
X69175350Y-97676609D01*
X69175350Y-97676609D02*
X69222969Y-97628990D01*
X69222969Y-97628990D02*
X69318207Y-97581371D01*
X69318207Y-97581371D02*
X69699159Y-97581371D01*
X68699159Y-97105180D02*
X68699159Y-98105180D01*
X68032493Y-98105180D02*
X67842017Y-98105180D01*
X67842017Y-98105180D02*
X67746779Y-98057561D01*
X67746779Y-98057561D02*
X67651541Y-97962323D01*
X67651541Y-97962323D02*
X67603922Y-97771847D01*
X67603922Y-97771847D02*
X67603922Y-97438514D01*
X67603922Y-97438514D02*
X67651541Y-97248038D01*
X67651541Y-97248038D02*
X67746779Y-97152800D01*
X67746779Y-97152800D02*
X67842017Y-97105180D01*
X67842017Y-97105180D02*
X68032493Y-97105180D01*
X68032493Y-97105180D02*
X68127731Y-97152800D01*
X68127731Y-97152800D02*
X68222969Y-97248038D01*
X68222969Y-97248038D02*
X68270588Y-97438514D01*
X68270588Y-97438514D02*
X68270588Y-97771847D01*
X68270588Y-97771847D02*
X68222969Y-97962323D01*
X68222969Y-97962323D02*
X68127731Y-98057561D01*
X68127731Y-98057561D02*
X68032493Y-98105180D01*
X67270588Y-98105180D02*
X66651541Y-98105180D01*
X66651541Y-98105180D02*
X66984874Y-97724228D01*
X66984874Y-97724228D02*
X66842017Y-97724228D01*
X66842017Y-97724228D02*
X66746779Y-97676609D01*
X66746779Y-97676609D02*
X66699160Y-97628990D01*
X66699160Y-97628990D02*
X66651541Y-97533752D01*
X66651541Y-97533752D02*
X66651541Y-97295657D01*
X66651541Y-97295657D02*
X66699160Y-97200419D01*
X66699160Y-97200419D02*
X66746779Y-97152800D01*
X66746779Y-97152800D02*
X66842017Y-97105180D01*
X66842017Y-97105180D02*
X67127731Y-97105180D01*
X67127731Y-97105180D02*
X67222969Y-97152800D01*
X67222969Y-97152800D02*
X67270588Y-97200419D01*
X65794398Y-98105180D02*
X65984874Y-98105180D01*
X65984874Y-98105180D02*
X66080112Y-98057561D01*
X66080112Y-98057561D02*
X66127731Y-98009942D01*
X66127731Y-98009942D02*
X66222969Y-97867085D01*
X66222969Y-97867085D02*
X66270588Y-97676609D01*
X66270588Y-97676609D02*
X66270588Y-97295657D01*
X66270588Y-97295657D02*
X66222969Y-97200419D01*
X66222969Y-97200419D02*
X66175350Y-97152800D01*
X66175350Y-97152800D02*
X66080112Y-97105180D01*
X66080112Y-97105180D02*
X65889636Y-97105180D01*
X65889636Y-97105180D02*
X65794398Y-97152800D01*
X65794398Y-97152800D02*
X65746779Y-97200419D01*
X65746779Y-97200419D02*
X65699160Y-97295657D01*
X65699160Y-97295657D02*
X65699160Y-97533752D01*
X65699160Y-97533752D02*
X65746779Y-97628990D01*
X65746779Y-97628990D02*
X65794398Y-97676609D01*
X65794398Y-97676609D02*
X65889636Y-97724228D01*
X65889636Y-97724228D02*
X66080112Y-97724228D01*
X66080112Y-97724228D02*
X66175350Y-97676609D01*
X66175350Y-97676609D02*
X66222969Y-97628990D01*
X66222969Y-97628990D02*
X66270588Y-97533752D01*
X70175350Y-100597561D02*
X70270588Y-100645180D01*
X70270588Y-100645180D02*
X70413445Y-100645180D01*
X70413445Y-100645180D02*
X70556302Y-100597561D01*
X70556302Y-100597561D02*
X70651540Y-100502323D01*
X70651540Y-100502323D02*
X70699159Y-100407085D01*
X70699159Y-100407085D02*
X70746778Y-100216609D01*
X70746778Y-100216609D02*
X70746778Y-100073752D01*
X70746778Y-100073752D02*
X70699159Y-99883276D01*
X70699159Y-99883276D02*
X70651540Y-99788038D01*
X70651540Y-99788038D02*
X70556302Y-99692800D01*
X70556302Y-99692800D02*
X70413445Y-99645180D01*
X70413445Y-99645180D02*
X70318207Y-99645180D01*
X70318207Y-99645180D02*
X70175350Y-99692800D01*
X70175350Y-99692800D02*
X70127731Y-99740419D01*
X70127731Y-99740419D02*
X70127731Y-100073752D01*
X70127731Y-100073752D02*
X70318207Y-100073752D01*
X69699159Y-99645180D02*
X69699159Y-100645180D01*
X69699159Y-100645180D02*
X69318207Y-100645180D01*
X69318207Y-100645180D02*
X69222969Y-100597561D01*
X69222969Y-100597561D02*
X69175350Y-100549942D01*
X69175350Y-100549942D02*
X69127731Y-100454704D01*
X69127731Y-100454704D02*
X69127731Y-100311847D01*
X69127731Y-100311847D02*
X69175350Y-100216609D01*
X69175350Y-100216609D02*
X69222969Y-100168990D01*
X69222969Y-100168990D02*
X69318207Y-100121371D01*
X69318207Y-100121371D02*
X69699159Y-100121371D01*
X68699159Y-99645180D02*
X68699159Y-100645180D01*
X68032493Y-100645180D02*
X67842017Y-100645180D01*
X67842017Y-100645180D02*
X67746779Y-100597561D01*
X67746779Y-100597561D02*
X67651541Y-100502323D01*
X67651541Y-100502323D02*
X67603922Y-100311847D01*
X67603922Y-100311847D02*
X67603922Y-99978514D01*
X67603922Y-99978514D02*
X67651541Y-99788038D01*
X67651541Y-99788038D02*
X67746779Y-99692800D01*
X67746779Y-99692800D02*
X67842017Y-99645180D01*
X67842017Y-99645180D02*
X68032493Y-99645180D01*
X68032493Y-99645180D02*
X68127731Y-99692800D01*
X68127731Y-99692800D02*
X68222969Y-99788038D01*
X68222969Y-99788038D02*
X68270588Y-99978514D01*
X68270588Y-99978514D02*
X68270588Y-100311847D01*
X68270588Y-100311847D02*
X68222969Y-100502323D01*
X68222969Y-100502323D02*
X68127731Y-100597561D01*
X68127731Y-100597561D02*
X68032493Y-100645180D01*
X67270588Y-100645180D02*
X66651541Y-100645180D01*
X66651541Y-100645180D02*
X66984874Y-100264228D01*
X66984874Y-100264228D02*
X66842017Y-100264228D01*
X66842017Y-100264228D02*
X66746779Y-100216609D01*
X66746779Y-100216609D02*
X66699160Y-100168990D01*
X66699160Y-100168990D02*
X66651541Y-100073752D01*
X66651541Y-100073752D02*
X66651541Y-99835657D01*
X66651541Y-99835657D02*
X66699160Y-99740419D01*
X66699160Y-99740419D02*
X66746779Y-99692800D01*
X66746779Y-99692800D02*
X66842017Y-99645180D01*
X66842017Y-99645180D02*
X67127731Y-99645180D01*
X67127731Y-99645180D02*
X67222969Y-99692800D01*
X67222969Y-99692800D02*
X67270588Y-99740419D01*
X66318207Y-100645180D02*
X65651541Y-100645180D01*
X65651541Y-100645180D02*
X66080112Y-99645180D01*
X70175350Y-103137561D02*
X70270588Y-103185180D01*
X70270588Y-103185180D02*
X70413445Y-103185180D01*
X70413445Y-103185180D02*
X70556302Y-103137561D01*
X70556302Y-103137561D02*
X70651540Y-103042323D01*
X70651540Y-103042323D02*
X70699159Y-102947085D01*
X70699159Y-102947085D02*
X70746778Y-102756609D01*
X70746778Y-102756609D02*
X70746778Y-102613752D01*
X70746778Y-102613752D02*
X70699159Y-102423276D01*
X70699159Y-102423276D02*
X70651540Y-102328038D01*
X70651540Y-102328038D02*
X70556302Y-102232800D01*
X70556302Y-102232800D02*
X70413445Y-102185180D01*
X70413445Y-102185180D02*
X70318207Y-102185180D01*
X70318207Y-102185180D02*
X70175350Y-102232800D01*
X70175350Y-102232800D02*
X70127731Y-102280419D01*
X70127731Y-102280419D02*
X70127731Y-102613752D01*
X70127731Y-102613752D02*
X70318207Y-102613752D01*
X69699159Y-102185180D02*
X69699159Y-103185180D01*
X69699159Y-103185180D02*
X69318207Y-103185180D01*
X69318207Y-103185180D02*
X69222969Y-103137561D01*
X69222969Y-103137561D02*
X69175350Y-103089942D01*
X69175350Y-103089942D02*
X69127731Y-102994704D01*
X69127731Y-102994704D02*
X69127731Y-102851847D01*
X69127731Y-102851847D02*
X69175350Y-102756609D01*
X69175350Y-102756609D02*
X69222969Y-102708990D01*
X69222969Y-102708990D02*
X69318207Y-102661371D01*
X69318207Y-102661371D02*
X69699159Y-102661371D01*
X68699159Y-102185180D02*
X68699159Y-103185180D01*
X68032493Y-103185180D02*
X67842017Y-103185180D01*
X67842017Y-103185180D02*
X67746779Y-103137561D01*
X67746779Y-103137561D02*
X67651541Y-103042323D01*
X67651541Y-103042323D02*
X67603922Y-102851847D01*
X67603922Y-102851847D02*
X67603922Y-102518514D01*
X67603922Y-102518514D02*
X67651541Y-102328038D01*
X67651541Y-102328038D02*
X67746779Y-102232800D01*
X67746779Y-102232800D02*
X67842017Y-102185180D01*
X67842017Y-102185180D02*
X68032493Y-102185180D01*
X68032493Y-102185180D02*
X68127731Y-102232800D01*
X68127731Y-102232800D02*
X68222969Y-102328038D01*
X68222969Y-102328038D02*
X68270588Y-102518514D01*
X68270588Y-102518514D02*
X68270588Y-102851847D01*
X68270588Y-102851847D02*
X68222969Y-103042323D01*
X68222969Y-103042323D02*
X68127731Y-103137561D01*
X68127731Y-103137561D02*
X68032493Y-103185180D01*
X67270588Y-103185180D02*
X66651541Y-103185180D01*
X66651541Y-103185180D02*
X66984874Y-102804228D01*
X66984874Y-102804228D02*
X66842017Y-102804228D01*
X66842017Y-102804228D02*
X66746779Y-102756609D01*
X66746779Y-102756609D02*
X66699160Y-102708990D01*
X66699160Y-102708990D02*
X66651541Y-102613752D01*
X66651541Y-102613752D02*
X66651541Y-102375657D01*
X66651541Y-102375657D02*
X66699160Y-102280419D01*
X66699160Y-102280419D02*
X66746779Y-102232800D01*
X66746779Y-102232800D02*
X66842017Y-102185180D01*
X66842017Y-102185180D02*
X67127731Y-102185180D01*
X67127731Y-102185180D02*
X67222969Y-102232800D01*
X67222969Y-102232800D02*
X67270588Y-102280419D01*
X66080112Y-102756609D02*
X66175350Y-102804228D01*
X66175350Y-102804228D02*
X66222969Y-102851847D01*
X66222969Y-102851847D02*
X66270588Y-102947085D01*
X66270588Y-102947085D02*
X66270588Y-102994704D01*
X66270588Y-102994704D02*
X66222969Y-103089942D01*
X66222969Y-103089942D02*
X66175350Y-103137561D01*
X66175350Y-103137561D02*
X66080112Y-103185180D01*
X66080112Y-103185180D02*
X65889636Y-103185180D01*
X65889636Y-103185180D02*
X65794398Y-103137561D01*
X65794398Y-103137561D02*
X65746779Y-103089942D01*
X65746779Y-103089942D02*
X65699160Y-102994704D01*
X65699160Y-102994704D02*
X65699160Y-102947085D01*
X65699160Y-102947085D02*
X65746779Y-102851847D01*
X65746779Y-102851847D02*
X65794398Y-102804228D01*
X65794398Y-102804228D02*
X65889636Y-102756609D01*
X65889636Y-102756609D02*
X66080112Y-102756609D01*
X66080112Y-102756609D02*
X66175350Y-102708990D01*
X66175350Y-102708990D02*
X66222969Y-102661371D01*
X66222969Y-102661371D02*
X66270588Y-102566133D01*
X66270588Y-102566133D02*
X66270588Y-102375657D01*
X66270588Y-102375657D02*
X66222969Y-102280419D01*
X66222969Y-102280419D02*
X66175350Y-102232800D01*
X66175350Y-102232800D02*
X66080112Y-102185180D01*
X66080112Y-102185180D02*
X65889636Y-102185180D01*
X65889636Y-102185180D02*
X65794398Y-102232800D01*
X65794398Y-102232800D02*
X65746779Y-102280419D01*
X65746779Y-102280419D02*
X65699160Y-102375657D01*
X65699160Y-102375657D02*
X65699160Y-102566133D01*
X65699160Y-102566133D02*
X65746779Y-102661371D01*
X65746779Y-102661371D02*
X65794398Y-102708990D01*
X65794398Y-102708990D02*
X65889636Y-102756609D01*
X75127731Y-105677561D02*
X75222969Y-105725180D01*
X75222969Y-105725180D02*
X75365826Y-105725180D01*
X75365826Y-105725180D02*
X75508683Y-105677561D01*
X75508683Y-105677561D02*
X75603921Y-105582323D01*
X75603921Y-105582323D02*
X75651540Y-105487085D01*
X75651540Y-105487085D02*
X75699159Y-105296609D01*
X75699159Y-105296609D02*
X75699159Y-105153752D01*
X75699159Y-105153752D02*
X75651540Y-104963276D01*
X75651540Y-104963276D02*
X75603921Y-104868038D01*
X75603921Y-104868038D02*
X75508683Y-104772800D01*
X75508683Y-104772800D02*
X75365826Y-104725180D01*
X75365826Y-104725180D02*
X75270588Y-104725180D01*
X75270588Y-104725180D02*
X75127731Y-104772800D01*
X75127731Y-104772800D02*
X75080112Y-104820419D01*
X75080112Y-104820419D02*
X75080112Y-105153752D01*
X75080112Y-105153752D02*
X75270588Y-105153752D01*
X74651540Y-104725180D02*
X74651540Y-105725180D01*
X74651540Y-105725180D02*
X74270588Y-105725180D01*
X74270588Y-105725180D02*
X74175350Y-105677561D01*
X74175350Y-105677561D02*
X74127731Y-105629942D01*
X74127731Y-105629942D02*
X74080112Y-105534704D01*
X74080112Y-105534704D02*
X74080112Y-105391847D01*
X74080112Y-105391847D02*
X74127731Y-105296609D01*
X74127731Y-105296609D02*
X74175350Y-105248990D01*
X74175350Y-105248990D02*
X74270588Y-105201371D01*
X74270588Y-105201371D02*
X74651540Y-105201371D01*
X73651540Y-104725180D02*
X73651540Y-105725180D01*
X72984874Y-105725180D02*
X72794398Y-105725180D01*
X72794398Y-105725180D02*
X72699160Y-105677561D01*
X72699160Y-105677561D02*
X72603922Y-105582323D01*
X72603922Y-105582323D02*
X72556303Y-105391847D01*
X72556303Y-105391847D02*
X72556303Y-105058514D01*
X72556303Y-105058514D02*
X72603922Y-104868038D01*
X72603922Y-104868038D02*
X72699160Y-104772800D01*
X72699160Y-104772800D02*
X72794398Y-104725180D01*
X72794398Y-104725180D02*
X72984874Y-104725180D01*
X72984874Y-104725180D02*
X73080112Y-104772800D01*
X73080112Y-104772800D02*
X73175350Y-104868038D01*
X73175350Y-104868038D02*
X73222969Y-105058514D01*
X73222969Y-105058514D02*
X73222969Y-105391847D01*
X73222969Y-105391847D02*
X73175350Y-105582323D01*
X73175350Y-105582323D02*
X73080112Y-105677561D01*
X73080112Y-105677561D02*
X72984874Y-105725180D01*
X72222969Y-105725180D02*
X71603922Y-105725180D01*
X71603922Y-105725180D02*
X71937255Y-105344228D01*
X71937255Y-105344228D02*
X71794398Y-105344228D01*
X71794398Y-105344228D02*
X71699160Y-105296609D01*
X71699160Y-105296609D02*
X71651541Y-105248990D01*
X71651541Y-105248990D02*
X71603922Y-105153752D01*
X71603922Y-105153752D02*
X71603922Y-104915657D01*
X71603922Y-104915657D02*
X71651541Y-104820419D01*
X71651541Y-104820419D02*
X71699160Y-104772800D01*
X71699160Y-104772800D02*
X71794398Y-104725180D01*
X71794398Y-104725180D02*
X72080112Y-104725180D01*
X72080112Y-104725180D02*
X72175350Y-104772800D01*
X72175350Y-104772800D02*
X72222969Y-104820419D01*
X71127731Y-104725180D02*
X70937255Y-104725180D01*
X70937255Y-104725180D02*
X70842017Y-104772800D01*
X70842017Y-104772800D02*
X70794398Y-104820419D01*
X70794398Y-104820419D02*
X70699160Y-104963276D01*
X70699160Y-104963276D02*
X70651541Y-105153752D01*
X70651541Y-105153752D02*
X70651541Y-105534704D01*
X70651541Y-105534704D02*
X70699160Y-105629942D01*
X70699160Y-105629942D02*
X70746779Y-105677561D01*
X70746779Y-105677561D02*
X70842017Y-105725180D01*
X70842017Y-105725180D02*
X71032493Y-105725180D01*
X71032493Y-105725180D02*
X71127731Y-105677561D01*
X71127731Y-105677561D02*
X71175350Y-105629942D01*
X71175350Y-105629942D02*
X71222969Y-105534704D01*
X71222969Y-105534704D02*
X71222969Y-105296609D01*
X71222969Y-105296609D02*
X71175350Y-105201371D01*
X71175350Y-105201371D02*
X71127731Y-105153752D01*
X71127731Y-105153752D02*
X71032493Y-105106133D01*
X71032493Y-105106133D02*
X70842017Y-105106133D01*
X70842017Y-105106133D02*
X70746779Y-105153752D01*
X70746779Y-105153752D02*
X70699160Y-105201371D01*
X70699160Y-105201371D02*
X70651541Y-105296609D01*
X69508684Y-105772800D02*
X70365826Y-104487085D01*
X69175350Y-104725180D02*
X69175350Y-105725180D01*
X69175350Y-105725180D02*
X68842017Y-105010895D01*
X68842017Y-105010895D02*
X68508684Y-105725180D01*
X68508684Y-105725180D02*
X68508684Y-104725180D01*
X68175350Y-105725180D02*
X67603922Y-105725180D01*
X67889636Y-104725180D02*
X67889636Y-105725180D01*
X66699160Y-104820419D02*
X66746779Y-104772800D01*
X66746779Y-104772800D02*
X66889636Y-104725180D01*
X66889636Y-104725180D02*
X66984874Y-104725180D01*
X66984874Y-104725180D02*
X67127731Y-104772800D01*
X67127731Y-104772800D02*
X67222969Y-104868038D01*
X67222969Y-104868038D02*
X67270588Y-104963276D01*
X67270588Y-104963276D02*
X67318207Y-105153752D01*
X67318207Y-105153752D02*
X67318207Y-105296609D01*
X67318207Y-105296609D02*
X67270588Y-105487085D01*
X67270588Y-105487085D02*
X67222969Y-105582323D01*
X67222969Y-105582323D02*
X67127731Y-105677561D01*
X67127731Y-105677561D02*
X66984874Y-105725180D01*
X66984874Y-105725180D02*
X66889636Y-105725180D01*
X66889636Y-105725180D02*
X66746779Y-105677561D01*
X66746779Y-105677561D02*
X66699160Y-105629942D01*
X66270588Y-104725180D02*
X66270588Y-105725180D01*
X65699160Y-104725180D02*
X66127731Y-105296609D01*
X65699160Y-105725180D02*
X66270588Y-105153752D01*
X75175350Y-108217561D02*
X75270588Y-108265180D01*
X75270588Y-108265180D02*
X75413445Y-108265180D01*
X75413445Y-108265180D02*
X75556302Y-108217561D01*
X75556302Y-108217561D02*
X75651540Y-108122323D01*
X75651540Y-108122323D02*
X75699159Y-108027085D01*
X75699159Y-108027085D02*
X75746778Y-107836609D01*
X75746778Y-107836609D02*
X75746778Y-107693752D01*
X75746778Y-107693752D02*
X75699159Y-107503276D01*
X75699159Y-107503276D02*
X75651540Y-107408038D01*
X75651540Y-107408038D02*
X75556302Y-107312800D01*
X75556302Y-107312800D02*
X75413445Y-107265180D01*
X75413445Y-107265180D02*
X75318207Y-107265180D01*
X75318207Y-107265180D02*
X75175350Y-107312800D01*
X75175350Y-107312800D02*
X75127731Y-107360419D01*
X75127731Y-107360419D02*
X75127731Y-107693752D01*
X75127731Y-107693752D02*
X75318207Y-107693752D01*
X74699159Y-107265180D02*
X74699159Y-108265180D01*
X74699159Y-108265180D02*
X74318207Y-108265180D01*
X74318207Y-108265180D02*
X74222969Y-108217561D01*
X74222969Y-108217561D02*
X74175350Y-108169942D01*
X74175350Y-108169942D02*
X74127731Y-108074704D01*
X74127731Y-108074704D02*
X74127731Y-107931847D01*
X74127731Y-107931847D02*
X74175350Y-107836609D01*
X74175350Y-107836609D02*
X74222969Y-107788990D01*
X74222969Y-107788990D02*
X74318207Y-107741371D01*
X74318207Y-107741371D02*
X74699159Y-107741371D01*
X73699159Y-107265180D02*
X73699159Y-108265180D01*
X73032493Y-108265180D02*
X72842017Y-108265180D01*
X72842017Y-108265180D02*
X72746779Y-108217561D01*
X72746779Y-108217561D02*
X72651541Y-108122323D01*
X72651541Y-108122323D02*
X72603922Y-107931847D01*
X72603922Y-107931847D02*
X72603922Y-107598514D01*
X72603922Y-107598514D02*
X72651541Y-107408038D01*
X72651541Y-107408038D02*
X72746779Y-107312800D01*
X72746779Y-107312800D02*
X72842017Y-107265180D01*
X72842017Y-107265180D02*
X73032493Y-107265180D01*
X73032493Y-107265180D02*
X73127731Y-107312800D01*
X73127731Y-107312800D02*
X73222969Y-107408038D01*
X73222969Y-107408038D02*
X73270588Y-107598514D01*
X73270588Y-107598514D02*
X73270588Y-107931847D01*
X73270588Y-107931847D02*
X73222969Y-108122323D01*
X73222969Y-108122323D02*
X73127731Y-108217561D01*
X73127731Y-108217561D02*
X73032493Y-108265180D01*
X71746779Y-107931847D02*
X71746779Y-107265180D01*
X71984874Y-108312800D02*
X72222969Y-107598514D01*
X72222969Y-107598514D02*
X71603922Y-107598514D01*
X71032493Y-108265180D02*
X70937255Y-108265180D01*
X70937255Y-108265180D02*
X70842017Y-108217561D01*
X70842017Y-108217561D02*
X70794398Y-108169942D01*
X70794398Y-108169942D02*
X70746779Y-108074704D01*
X70746779Y-108074704D02*
X70699160Y-107884228D01*
X70699160Y-107884228D02*
X70699160Y-107646133D01*
X70699160Y-107646133D02*
X70746779Y-107455657D01*
X70746779Y-107455657D02*
X70794398Y-107360419D01*
X70794398Y-107360419D02*
X70842017Y-107312800D01*
X70842017Y-107312800D02*
X70937255Y-107265180D01*
X70937255Y-107265180D02*
X71032493Y-107265180D01*
X71032493Y-107265180D02*
X71127731Y-107312800D01*
X71127731Y-107312800D02*
X71175350Y-107360419D01*
X71175350Y-107360419D02*
X71222969Y-107455657D01*
X71222969Y-107455657D02*
X71270588Y-107646133D01*
X71270588Y-107646133D02*
X71270588Y-107884228D01*
X71270588Y-107884228D02*
X71222969Y-108074704D01*
X71222969Y-108074704D02*
X71175350Y-108169942D01*
X71175350Y-108169942D02*
X71127731Y-108217561D01*
X71127731Y-108217561D02*
X71032493Y-108265180D01*
X69556303Y-108312800D02*
X70413445Y-107027085D01*
X69222969Y-107265180D02*
X69222969Y-108265180D01*
X69222969Y-108265180D02*
X68889636Y-107550895D01*
X68889636Y-107550895D02*
X68556303Y-108265180D01*
X68556303Y-108265180D02*
X68556303Y-107265180D01*
X68222969Y-108265180D02*
X67651541Y-108265180D01*
X67937255Y-107265180D02*
X67937255Y-108265180D01*
X67318207Y-107265180D02*
X67318207Y-108265180D01*
X67318207Y-108265180D02*
X67080112Y-108265180D01*
X67080112Y-108265180D02*
X66937255Y-108217561D01*
X66937255Y-108217561D02*
X66842017Y-108122323D01*
X66842017Y-108122323D02*
X66794398Y-108027085D01*
X66794398Y-108027085D02*
X66746779Y-107836609D01*
X66746779Y-107836609D02*
X66746779Y-107693752D01*
X66746779Y-107693752D02*
X66794398Y-107503276D01*
X66794398Y-107503276D02*
X66842017Y-107408038D01*
X66842017Y-107408038D02*
X66937255Y-107312800D01*
X66937255Y-107312800D02*
X67080112Y-107265180D01*
X67080112Y-107265180D02*
X67318207Y-107265180D01*
X66127731Y-108265180D02*
X65937255Y-108265180D01*
X65937255Y-108265180D02*
X65842017Y-108217561D01*
X65842017Y-108217561D02*
X65746779Y-108122323D01*
X65746779Y-108122323D02*
X65699160Y-107931847D01*
X65699160Y-107931847D02*
X65699160Y-107598514D01*
X65699160Y-107598514D02*
X65746779Y-107408038D01*
X65746779Y-107408038D02*
X65842017Y-107312800D01*
X65842017Y-107312800D02*
X65937255Y-107265180D01*
X65937255Y-107265180D02*
X66127731Y-107265180D01*
X66127731Y-107265180D02*
X66222969Y-107312800D01*
X66222969Y-107312800D02*
X66318207Y-107408038D01*
X66318207Y-107408038D02*
X66365826Y-107598514D01*
X66365826Y-107598514D02*
X66365826Y-107931847D01*
X66365826Y-107931847D02*
X66318207Y-108122323D01*
X66318207Y-108122323D02*
X66222969Y-108217561D01*
X66222969Y-108217561D02*
X66127731Y-108265180D01*
X74603921Y-110757561D02*
X74699159Y-110805180D01*
X74699159Y-110805180D02*
X74842016Y-110805180D01*
X74842016Y-110805180D02*
X74984873Y-110757561D01*
X74984873Y-110757561D02*
X75080111Y-110662323D01*
X75080111Y-110662323D02*
X75127730Y-110567085D01*
X75127730Y-110567085D02*
X75175349Y-110376609D01*
X75175349Y-110376609D02*
X75175349Y-110233752D01*
X75175349Y-110233752D02*
X75127730Y-110043276D01*
X75127730Y-110043276D02*
X75080111Y-109948038D01*
X75080111Y-109948038D02*
X74984873Y-109852800D01*
X74984873Y-109852800D02*
X74842016Y-109805180D01*
X74842016Y-109805180D02*
X74746778Y-109805180D01*
X74746778Y-109805180D02*
X74603921Y-109852800D01*
X74603921Y-109852800D02*
X74556302Y-109900419D01*
X74556302Y-109900419D02*
X74556302Y-110233752D01*
X74556302Y-110233752D02*
X74746778Y-110233752D01*
X74127730Y-109805180D02*
X74127730Y-110805180D01*
X74127730Y-110805180D02*
X73746778Y-110805180D01*
X73746778Y-110805180D02*
X73651540Y-110757561D01*
X73651540Y-110757561D02*
X73603921Y-110709942D01*
X73603921Y-110709942D02*
X73556302Y-110614704D01*
X73556302Y-110614704D02*
X73556302Y-110471847D01*
X73556302Y-110471847D02*
X73603921Y-110376609D01*
X73603921Y-110376609D02*
X73651540Y-110328990D01*
X73651540Y-110328990D02*
X73746778Y-110281371D01*
X73746778Y-110281371D02*
X74127730Y-110281371D01*
X73127730Y-109805180D02*
X73127730Y-110805180D01*
X72461064Y-110805180D02*
X72270588Y-110805180D01*
X72270588Y-110805180D02*
X72175350Y-110757561D01*
X72175350Y-110757561D02*
X72080112Y-110662323D01*
X72080112Y-110662323D02*
X72032493Y-110471847D01*
X72032493Y-110471847D02*
X72032493Y-110138514D01*
X72032493Y-110138514D02*
X72080112Y-109948038D01*
X72080112Y-109948038D02*
X72175350Y-109852800D01*
X72175350Y-109852800D02*
X72270588Y-109805180D01*
X72270588Y-109805180D02*
X72461064Y-109805180D01*
X72461064Y-109805180D02*
X72556302Y-109852800D01*
X72556302Y-109852800D02*
X72651540Y-109948038D01*
X72651540Y-109948038D02*
X72699159Y-110138514D01*
X72699159Y-110138514D02*
X72699159Y-110471847D01*
X72699159Y-110471847D02*
X72651540Y-110662323D01*
X72651540Y-110662323D02*
X72556302Y-110757561D01*
X72556302Y-110757561D02*
X72461064Y-110805180D01*
X71175350Y-110471847D02*
X71175350Y-109805180D01*
X71413445Y-110852800D02*
X71651540Y-110138514D01*
X71651540Y-110138514D02*
X71032493Y-110138514D01*
X70127731Y-109805180D02*
X70699159Y-109805180D01*
X70413445Y-109805180D02*
X70413445Y-110805180D01*
X70413445Y-110805180D02*
X70508683Y-110662323D01*
X70508683Y-110662323D02*
X70603921Y-110567085D01*
X70603921Y-110567085D02*
X70699159Y-110519466D01*
X68984874Y-110852800D02*
X69842016Y-109567085D01*
X68651540Y-109805180D02*
X68651540Y-110805180D01*
X68651540Y-110805180D02*
X68318207Y-110090895D01*
X68318207Y-110090895D02*
X67984874Y-110805180D01*
X67984874Y-110805180D02*
X67984874Y-109805180D01*
X67651540Y-110805180D02*
X67080112Y-110805180D01*
X67365826Y-109805180D02*
X67365826Y-110805180D01*
X66746778Y-109805180D02*
X66746778Y-110805180D01*
X66746778Y-110805180D02*
X66508683Y-110805180D01*
X66508683Y-110805180D02*
X66365826Y-110757561D01*
X66365826Y-110757561D02*
X66270588Y-110662323D01*
X66270588Y-110662323D02*
X66222969Y-110567085D01*
X66222969Y-110567085D02*
X66175350Y-110376609D01*
X66175350Y-110376609D02*
X66175350Y-110233752D01*
X66175350Y-110233752D02*
X66222969Y-110043276D01*
X66222969Y-110043276D02*
X66270588Y-109948038D01*
X66270588Y-109948038D02*
X66365826Y-109852800D01*
X66365826Y-109852800D02*
X66508683Y-109805180D01*
X66508683Y-109805180D02*
X66746778Y-109805180D01*
X65746778Y-109805180D02*
X65746778Y-110805180D01*
X75222969Y-113297561D02*
X75318207Y-113345180D01*
X75318207Y-113345180D02*
X75461064Y-113345180D01*
X75461064Y-113345180D02*
X75603921Y-113297561D01*
X75603921Y-113297561D02*
X75699159Y-113202323D01*
X75699159Y-113202323D02*
X75746778Y-113107085D01*
X75746778Y-113107085D02*
X75794397Y-112916609D01*
X75794397Y-112916609D02*
X75794397Y-112773752D01*
X75794397Y-112773752D02*
X75746778Y-112583276D01*
X75746778Y-112583276D02*
X75699159Y-112488038D01*
X75699159Y-112488038D02*
X75603921Y-112392800D01*
X75603921Y-112392800D02*
X75461064Y-112345180D01*
X75461064Y-112345180D02*
X75365826Y-112345180D01*
X75365826Y-112345180D02*
X75222969Y-112392800D01*
X75222969Y-112392800D02*
X75175350Y-112440419D01*
X75175350Y-112440419D02*
X75175350Y-112773752D01*
X75175350Y-112773752D02*
X75365826Y-112773752D01*
X74746778Y-112345180D02*
X74746778Y-113345180D01*
X74746778Y-113345180D02*
X74365826Y-113345180D01*
X74365826Y-113345180D02*
X74270588Y-113297561D01*
X74270588Y-113297561D02*
X74222969Y-113249942D01*
X74222969Y-113249942D02*
X74175350Y-113154704D01*
X74175350Y-113154704D02*
X74175350Y-113011847D01*
X74175350Y-113011847D02*
X74222969Y-112916609D01*
X74222969Y-112916609D02*
X74270588Y-112868990D01*
X74270588Y-112868990D02*
X74365826Y-112821371D01*
X74365826Y-112821371D02*
X74746778Y-112821371D01*
X73746778Y-112345180D02*
X73746778Y-113345180D01*
X73080112Y-113345180D02*
X72889636Y-113345180D01*
X72889636Y-113345180D02*
X72794398Y-113297561D01*
X72794398Y-113297561D02*
X72699160Y-113202323D01*
X72699160Y-113202323D02*
X72651541Y-113011847D01*
X72651541Y-113011847D02*
X72651541Y-112678514D01*
X72651541Y-112678514D02*
X72699160Y-112488038D01*
X72699160Y-112488038D02*
X72794398Y-112392800D01*
X72794398Y-112392800D02*
X72889636Y-112345180D01*
X72889636Y-112345180D02*
X73080112Y-112345180D01*
X73080112Y-112345180D02*
X73175350Y-112392800D01*
X73175350Y-112392800D02*
X73270588Y-112488038D01*
X73270588Y-112488038D02*
X73318207Y-112678514D01*
X73318207Y-112678514D02*
X73318207Y-113011847D01*
X73318207Y-113011847D02*
X73270588Y-113202323D01*
X73270588Y-113202323D02*
X73175350Y-113297561D01*
X73175350Y-113297561D02*
X73080112Y-113345180D01*
X71794398Y-113011847D02*
X71794398Y-112345180D01*
X72032493Y-113392800D02*
X72270588Y-112678514D01*
X72270588Y-112678514D02*
X71651541Y-112678514D01*
X71318207Y-113249942D02*
X71270588Y-113297561D01*
X71270588Y-113297561D02*
X71175350Y-113345180D01*
X71175350Y-113345180D02*
X70937255Y-113345180D01*
X70937255Y-113345180D02*
X70842017Y-113297561D01*
X70842017Y-113297561D02*
X70794398Y-113249942D01*
X70794398Y-113249942D02*
X70746779Y-113154704D01*
X70746779Y-113154704D02*
X70746779Y-113059466D01*
X70746779Y-113059466D02*
X70794398Y-112916609D01*
X70794398Y-112916609D02*
X71365826Y-112345180D01*
X71365826Y-112345180D02*
X70746779Y-112345180D01*
X69603922Y-113392800D02*
X70461064Y-112107085D01*
X69270588Y-112345180D02*
X69270588Y-113345180D01*
X69270588Y-113345180D02*
X68937255Y-112630895D01*
X68937255Y-112630895D02*
X68603922Y-113345180D01*
X68603922Y-113345180D02*
X68603922Y-112345180D01*
X68270588Y-113345180D02*
X67699160Y-113345180D01*
X67984874Y-112345180D02*
X67984874Y-113345180D01*
X67365826Y-112345180D02*
X67365826Y-113345180D01*
X67365826Y-113345180D02*
X67032493Y-112630895D01*
X67032493Y-112630895D02*
X66699160Y-113345180D01*
X66699160Y-113345180D02*
X66699160Y-112345180D01*
X66270588Y-112392800D02*
X66127731Y-112345180D01*
X66127731Y-112345180D02*
X65889636Y-112345180D01*
X65889636Y-112345180D02*
X65794398Y-112392800D01*
X65794398Y-112392800D02*
X65746779Y-112440419D01*
X65746779Y-112440419D02*
X65699160Y-112535657D01*
X65699160Y-112535657D02*
X65699160Y-112630895D01*
X65699160Y-112630895D02*
X65746779Y-112726133D01*
X65746779Y-112726133D02*
X65794398Y-112773752D01*
X65794398Y-112773752D02*
X65889636Y-112821371D01*
X65889636Y-112821371D02*
X66080112Y-112868990D01*
X66080112Y-112868990D02*
X66175350Y-112916609D01*
X66175350Y-112916609D02*
X66222969Y-112964228D01*
X66222969Y-112964228D02*
X66270588Y-113059466D01*
X66270588Y-113059466D02*
X66270588Y-113154704D01*
X66270588Y-113154704D02*
X66222969Y-113249942D01*
X66222969Y-113249942D02*
X66175350Y-113297561D01*
X66175350Y-113297561D02*
X66080112Y-113345180D01*
X66080112Y-113345180D02*
X65842017Y-113345180D01*
X65842017Y-113345180D02*
X65699160Y-113297561D01*
X69222969Y-115837561D02*
X69318207Y-115885180D01*
X69318207Y-115885180D02*
X69461064Y-115885180D01*
X69461064Y-115885180D02*
X69603921Y-115837561D01*
X69603921Y-115837561D02*
X69699159Y-115742323D01*
X69699159Y-115742323D02*
X69746778Y-115647085D01*
X69746778Y-115647085D02*
X69794397Y-115456609D01*
X69794397Y-115456609D02*
X69794397Y-115313752D01*
X69794397Y-115313752D02*
X69746778Y-115123276D01*
X69746778Y-115123276D02*
X69699159Y-115028038D01*
X69699159Y-115028038D02*
X69603921Y-114932800D01*
X69603921Y-114932800D02*
X69461064Y-114885180D01*
X69461064Y-114885180D02*
X69365826Y-114885180D01*
X69365826Y-114885180D02*
X69222969Y-114932800D01*
X69222969Y-114932800D02*
X69175350Y-114980419D01*
X69175350Y-114980419D02*
X69175350Y-115313752D01*
X69175350Y-115313752D02*
X69365826Y-115313752D01*
X68746778Y-114885180D02*
X68746778Y-115885180D01*
X68746778Y-115885180D02*
X68365826Y-115885180D01*
X68365826Y-115885180D02*
X68270588Y-115837561D01*
X68270588Y-115837561D02*
X68222969Y-115789942D01*
X68222969Y-115789942D02*
X68175350Y-115694704D01*
X68175350Y-115694704D02*
X68175350Y-115551847D01*
X68175350Y-115551847D02*
X68222969Y-115456609D01*
X68222969Y-115456609D02*
X68270588Y-115408990D01*
X68270588Y-115408990D02*
X68365826Y-115361371D01*
X68365826Y-115361371D02*
X68746778Y-115361371D01*
X67746778Y-114885180D02*
X67746778Y-115885180D01*
X67080112Y-115885180D02*
X66889636Y-115885180D01*
X66889636Y-115885180D02*
X66794398Y-115837561D01*
X66794398Y-115837561D02*
X66699160Y-115742323D01*
X66699160Y-115742323D02*
X66651541Y-115551847D01*
X66651541Y-115551847D02*
X66651541Y-115218514D01*
X66651541Y-115218514D02*
X66699160Y-115028038D01*
X66699160Y-115028038D02*
X66794398Y-114932800D01*
X66794398Y-114932800D02*
X66889636Y-114885180D01*
X66889636Y-114885180D02*
X67080112Y-114885180D01*
X67080112Y-114885180D02*
X67175350Y-114932800D01*
X67175350Y-114932800D02*
X67270588Y-115028038D01*
X67270588Y-115028038D02*
X67318207Y-115218514D01*
X67318207Y-115218514D02*
X67318207Y-115551847D01*
X67318207Y-115551847D02*
X67270588Y-115742323D01*
X67270588Y-115742323D02*
X67175350Y-115837561D01*
X67175350Y-115837561D02*
X67080112Y-115885180D01*
X66270588Y-115789942D02*
X66222969Y-115837561D01*
X66222969Y-115837561D02*
X66127731Y-115885180D01*
X66127731Y-115885180D02*
X65889636Y-115885180D01*
X65889636Y-115885180D02*
X65794398Y-115837561D01*
X65794398Y-115837561D02*
X65746779Y-115789942D01*
X65746779Y-115789942D02*
X65699160Y-115694704D01*
X65699160Y-115694704D02*
X65699160Y-115599466D01*
X65699160Y-115599466D02*
X65746779Y-115456609D01*
X65746779Y-115456609D02*
X66318207Y-114885180D01*
X66318207Y-114885180D02*
X65699160Y-114885180D01*
X69222969Y-118377561D02*
X69318207Y-118425180D01*
X69318207Y-118425180D02*
X69461064Y-118425180D01*
X69461064Y-118425180D02*
X69603921Y-118377561D01*
X69603921Y-118377561D02*
X69699159Y-118282323D01*
X69699159Y-118282323D02*
X69746778Y-118187085D01*
X69746778Y-118187085D02*
X69794397Y-117996609D01*
X69794397Y-117996609D02*
X69794397Y-117853752D01*
X69794397Y-117853752D02*
X69746778Y-117663276D01*
X69746778Y-117663276D02*
X69699159Y-117568038D01*
X69699159Y-117568038D02*
X69603921Y-117472800D01*
X69603921Y-117472800D02*
X69461064Y-117425180D01*
X69461064Y-117425180D02*
X69365826Y-117425180D01*
X69365826Y-117425180D02*
X69222969Y-117472800D01*
X69222969Y-117472800D02*
X69175350Y-117520419D01*
X69175350Y-117520419D02*
X69175350Y-117853752D01*
X69175350Y-117853752D02*
X69365826Y-117853752D01*
X68746778Y-117425180D02*
X68746778Y-118425180D01*
X68746778Y-118425180D02*
X68365826Y-118425180D01*
X68365826Y-118425180D02*
X68270588Y-118377561D01*
X68270588Y-118377561D02*
X68222969Y-118329942D01*
X68222969Y-118329942D02*
X68175350Y-118234704D01*
X68175350Y-118234704D02*
X68175350Y-118091847D01*
X68175350Y-118091847D02*
X68222969Y-117996609D01*
X68222969Y-117996609D02*
X68270588Y-117948990D01*
X68270588Y-117948990D02*
X68365826Y-117901371D01*
X68365826Y-117901371D02*
X68746778Y-117901371D01*
X67746778Y-117425180D02*
X67746778Y-118425180D01*
X67080112Y-118425180D02*
X66889636Y-118425180D01*
X66889636Y-118425180D02*
X66794398Y-118377561D01*
X66794398Y-118377561D02*
X66699160Y-118282323D01*
X66699160Y-118282323D02*
X66651541Y-118091847D01*
X66651541Y-118091847D02*
X66651541Y-117758514D01*
X66651541Y-117758514D02*
X66699160Y-117568038D01*
X66699160Y-117568038D02*
X66794398Y-117472800D01*
X66794398Y-117472800D02*
X66889636Y-117425180D01*
X66889636Y-117425180D02*
X67080112Y-117425180D01*
X67080112Y-117425180D02*
X67175350Y-117472800D01*
X67175350Y-117472800D02*
X67270588Y-117568038D01*
X67270588Y-117568038D02*
X67318207Y-117758514D01*
X67318207Y-117758514D02*
X67318207Y-118091847D01*
X67318207Y-118091847D02*
X67270588Y-118282323D01*
X67270588Y-118282323D02*
X67175350Y-118377561D01*
X67175350Y-118377561D02*
X67080112Y-118425180D01*
X65699160Y-117425180D02*
X66270588Y-117425180D01*
X65984874Y-117425180D02*
X65984874Y-118425180D01*
X65984874Y-118425180D02*
X66080112Y-118282323D01*
X66080112Y-118282323D02*
X66175350Y-118187085D01*
X66175350Y-118187085D02*
X66270588Y-118139466D01*
X76175350Y-120917561D02*
X76270588Y-120965180D01*
X76270588Y-120965180D02*
X76413445Y-120965180D01*
X76413445Y-120965180D02*
X76556302Y-120917561D01*
X76556302Y-120917561D02*
X76651540Y-120822323D01*
X76651540Y-120822323D02*
X76699159Y-120727085D01*
X76699159Y-120727085D02*
X76746778Y-120536609D01*
X76746778Y-120536609D02*
X76746778Y-120393752D01*
X76746778Y-120393752D02*
X76699159Y-120203276D01*
X76699159Y-120203276D02*
X76651540Y-120108038D01*
X76651540Y-120108038D02*
X76556302Y-120012800D01*
X76556302Y-120012800D02*
X76413445Y-119965180D01*
X76413445Y-119965180D02*
X76318207Y-119965180D01*
X76318207Y-119965180D02*
X76175350Y-120012800D01*
X76175350Y-120012800D02*
X76127731Y-120060419D01*
X76127731Y-120060419D02*
X76127731Y-120393752D01*
X76127731Y-120393752D02*
X76318207Y-120393752D01*
X75699159Y-119965180D02*
X75699159Y-120965180D01*
X75699159Y-120965180D02*
X75318207Y-120965180D01*
X75318207Y-120965180D02*
X75222969Y-120917561D01*
X75222969Y-120917561D02*
X75175350Y-120869942D01*
X75175350Y-120869942D02*
X75127731Y-120774704D01*
X75127731Y-120774704D02*
X75127731Y-120631847D01*
X75127731Y-120631847D02*
X75175350Y-120536609D01*
X75175350Y-120536609D02*
X75222969Y-120488990D01*
X75222969Y-120488990D02*
X75318207Y-120441371D01*
X75318207Y-120441371D02*
X75699159Y-120441371D01*
X74699159Y-119965180D02*
X74699159Y-120965180D01*
X74032493Y-120965180D02*
X73842017Y-120965180D01*
X73842017Y-120965180D02*
X73746779Y-120917561D01*
X73746779Y-120917561D02*
X73651541Y-120822323D01*
X73651541Y-120822323D02*
X73603922Y-120631847D01*
X73603922Y-120631847D02*
X73603922Y-120298514D01*
X73603922Y-120298514D02*
X73651541Y-120108038D01*
X73651541Y-120108038D02*
X73746779Y-120012800D01*
X73746779Y-120012800D02*
X73842017Y-119965180D01*
X73842017Y-119965180D02*
X74032493Y-119965180D01*
X74032493Y-119965180D02*
X74127731Y-120012800D01*
X74127731Y-120012800D02*
X74222969Y-120108038D01*
X74222969Y-120108038D02*
X74270588Y-120298514D01*
X74270588Y-120298514D02*
X74270588Y-120631847D01*
X74270588Y-120631847D02*
X74222969Y-120822323D01*
X74222969Y-120822323D02*
X74127731Y-120917561D01*
X74127731Y-120917561D02*
X74032493Y-120965180D01*
X72746779Y-120631847D02*
X72746779Y-119965180D01*
X72984874Y-121012800D02*
X73222969Y-120298514D01*
X73222969Y-120298514D02*
X72603922Y-120298514D01*
X71794398Y-120631847D02*
X71794398Y-119965180D01*
X72032493Y-121012800D02*
X72270588Y-120298514D01*
X72270588Y-120298514D02*
X71651541Y-120298514D01*
X70556303Y-121012800D02*
X71413445Y-119727085D01*
X70222969Y-120965180D02*
X70222969Y-120155657D01*
X70222969Y-120155657D02*
X70175350Y-120060419D01*
X70175350Y-120060419D02*
X70127731Y-120012800D01*
X70127731Y-120012800D02*
X70032493Y-119965180D01*
X70032493Y-119965180D02*
X69842017Y-119965180D01*
X69842017Y-119965180D02*
X69746779Y-120012800D01*
X69746779Y-120012800D02*
X69699160Y-120060419D01*
X69699160Y-120060419D02*
X69651541Y-120155657D01*
X69651541Y-120155657D02*
X69651541Y-120965180D01*
X68984874Y-120965180D02*
X68889636Y-120965180D01*
X68889636Y-120965180D02*
X68794398Y-120917561D01*
X68794398Y-120917561D02*
X68746779Y-120869942D01*
X68746779Y-120869942D02*
X68699160Y-120774704D01*
X68699160Y-120774704D02*
X68651541Y-120584228D01*
X68651541Y-120584228D02*
X68651541Y-120346133D01*
X68651541Y-120346133D02*
X68699160Y-120155657D01*
X68699160Y-120155657D02*
X68746779Y-120060419D01*
X68746779Y-120060419D02*
X68794398Y-120012800D01*
X68794398Y-120012800D02*
X68889636Y-119965180D01*
X68889636Y-119965180D02*
X68984874Y-119965180D01*
X68984874Y-119965180D02*
X69080112Y-120012800D01*
X69080112Y-120012800D02*
X69127731Y-120060419D01*
X69127731Y-120060419D02*
X69175350Y-120155657D01*
X69175350Y-120155657D02*
X69222969Y-120346133D01*
X69222969Y-120346133D02*
X69222969Y-120584228D01*
X69222969Y-120584228D02*
X69175350Y-120774704D01*
X69175350Y-120774704D02*
X69127731Y-120869942D01*
X69127731Y-120869942D02*
X69080112Y-120917561D01*
X69080112Y-120917561D02*
X68984874Y-120965180D01*
X67651541Y-119965180D02*
X67984874Y-120441371D01*
X68222969Y-119965180D02*
X68222969Y-120965180D01*
X68222969Y-120965180D02*
X67842017Y-120965180D01*
X67842017Y-120965180D02*
X67746779Y-120917561D01*
X67746779Y-120917561D02*
X67699160Y-120869942D01*
X67699160Y-120869942D02*
X67651541Y-120774704D01*
X67651541Y-120774704D02*
X67651541Y-120631847D01*
X67651541Y-120631847D02*
X67699160Y-120536609D01*
X67699160Y-120536609D02*
X67746779Y-120488990D01*
X67746779Y-120488990D02*
X67842017Y-120441371D01*
X67842017Y-120441371D02*
X68222969Y-120441371D01*
X67318207Y-120965180D02*
X66651541Y-119965180D01*
X66651541Y-120965180D02*
X67318207Y-119965180D01*
X66270588Y-119965180D02*
X66270588Y-120965180D01*
X66270588Y-120965180D02*
X66032493Y-120965180D01*
X66032493Y-120965180D02*
X65889636Y-120917561D01*
X65889636Y-120917561D02*
X65794398Y-120822323D01*
X65794398Y-120822323D02*
X65746779Y-120727085D01*
X65746779Y-120727085D02*
X65699160Y-120536609D01*
X65699160Y-120536609D02*
X65699160Y-120393752D01*
X65699160Y-120393752D02*
X65746779Y-120203276D01*
X65746779Y-120203276D02*
X65794398Y-120108038D01*
X65794398Y-120108038D02*
X65889636Y-120012800D01*
X65889636Y-120012800D02*
X66032493Y-119965180D01*
X66032493Y-119965180D02*
X66270588Y-119965180D01*
X75937255Y-123457561D02*
X76032493Y-123505180D01*
X76032493Y-123505180D02*
X76175350Y-123505180D01*
X76175350Y-123505180D02*
X76318207Y-123457561D01*
X76318207Y-123457561D02*
X76413445Y-123362323D01*
X76413445Y-123362323D02*
X76461064Y-123267085D01*
X76461064Y-123267085D02*
X76508683Y-123076609D01*
X76508683Y-123076609D02*
X76508683Y-122933752D01*
X76508683Y-122933752D02*
X76461064Y-122743276D01*
X76461064Y-122743276D02*
X76413445Y-122648038D01*
X76413445Y-122648038D02*
X76318207Y-122552800D01*
X76318207Y-122552800D02*
X76175350Y-122505180D01*
X76175350Y-122505180D02*
X76080112Y-122505180D01*
X76080112Y-122505180D02*
X75937255Y-122552800D01*
X75937255Y-122552800D02*
X75889636Y-122600419D01*
X75889636Y-122600419D02*
X75889636Y-122933752D01*
X75889636Y-122933752D02*
X76080112Y-122933752D01*
X75461064Y-122505180D02*
X75461064Y-123505180D01*
X75461064Y-123505180D02*
X75080112Y-123505180D01*
X75080112Y-123505180D02*
X74984874Y-123457561D01*
X74984874Y-123457561D02*
X74937255Y-123409942D01*
X74937255Y-123409942D02*
X74889636Y-123314704D01*
X74889636Y-123314704D02*
X74889636Y-123171847D01*
X74889636Y-123171847D02*
X74937255Y-123076609D01*
X74937255Y-123076609D02*
X74984874Y-123028990D01*
X74984874Y-123028990D02*
X75080112Y-122981371D01*
X75080112Y-122981371D02*
X75461064Y-122981371D01*
X74461064Y-122505180D02*
X74461064Y-123505180D01*
X73794398Y-123505180D02*
X73603922Y-123505180D01*
X73603922Y-123505180D02*
X73508684Y-123457561D01*
X73508684Y-123457561D02*
X73413446Y-123362323D01*
X73413446Y-123362323D02*
X73365827Y-123171847D01*
X73365827Y-123171847D02*
X73365827Y-122838514D01*
X73365827Y-122838514D02*
X73413446Y-122648038D01*
X73413446Y-122648038D02*
X73508684Y-122552800D01*
X73508684Y-122552800D02*
X73603922Y-122505180D01*
X73603922Y-122505180D02*
X73794398Y-122505180D01*
X73794398Y-122505180D02*
X73889636Y-122552800D01*
X73889636Y-122552800D02*
X73984874Y-122648038D01*
X73984874Y-122648038D02*
X74032493Y-122838514D01*
X74032493Y-122838514D02*
X74032493Y-123171847D01*
X74032493Y-123171847D02*
X73984874Y-123362323D01*
X73984874Y-123362323D02*
X73889636Y-123457561D01*
X73889636Y-123457561D02*
X73794398Y-123505180D01*
X72508684Y-123171847D02*
X72508684Y-122505180D01*
X72746779Y-123552800D02*
X72984874Y-122838514D01*
X72984874Y-122838514D02*
X72365827Y-122838514D01*
X72080112Y-123505180D02*
X71461065Y-123505180D01*
X71461065Y-123505180D02*
X71794398Y-123124228D01*
X71794398Y-123124228D02*
X71651541Y-123124228D01*
X71651541Y-123124228D02*
X71556303Y-123076609D01*
X71556303Y-123076609D02*
X71508684Y-123028990D01*
X71508684Y-123028990D02*
X71461065Y-122933752D01*
X71461065Y-122933752D02*
X71461065Y-122695657D01*
X71461065Y-122695657D02*
X71508684Y-122600419D01*
X71508684Y-122600419D02*
X71556303Y-122552800D01*
X71556303Y-122552800D02*
X71651541Y-122505180D01*
X71651541Y-122505180D02*
X71937255Y-122505180D01*
X71937255Y-122505180D02*
X72032493Y-122552800D01*
X72032493Y-122552800D02*
X72080112Y-122600419D01*
X70318208Y-123552800D02*
X71175350Y-122267085D01*
X69984874Y-123505180D02*
X69984874Y-122695657D01*
X69984874Y-122695657D02*
X69937255Y-122600419D01*
X69937255Y-122600419D02*
X69889636Y-122552800D01*
X69889636Y-122552800D02*
X69794398Y-122505180D01*
X69794398Y-122505180D02*
X69603922Y-122505180D01*
X69603922Y-122505180D02*
X69508684Y-122552800D01*
X69508684Y-122552800D02*
X69461065Y-122600419D01*
X69461065Y-122600419D02*
X69413446Y-122695657D01*
X69413446Y-122695657D02*
X69413446Y-123505180D01*
X68746779Y-123505180D02*
X68651541Y-123505180D01*
X68651541Y-123505180D02*
X68556303Y-123457561D01*
X68556303Y-123457561D02*
X68508684Y-123409942D01*
X68508684Y-123409942D02*
X68461065Y-123314704D01*
X68461065Y-123314704D02*
X68413446Y-123124228D01*
X68413446Y-123124228D02*
X68413446Y-122886133D01*
X68413446Y-122886133D02*
X68461065Y-122695657D01*
X68461065Y-122695657D02*
X68508684Y-122600419D01*
X68508684Y-122600419D02*
X68556303Y-122552800D01*
X68556303Y-122552800D02*
X68651541Y-122505180D01*
X68651541Y-122505180D02*
X68746779Y-122505180D01*
X68746779Y-122505180D02*
X68842017Y-122552800D01*
X68842017Y-122552800D02*
X68889636Y-122600419D01*
X68889636Y-122600419D02*
X68937255Y-122695657D01*
X68937255Y-122695657D02*
X68984874Y-122886133D01*
X68984874Y-122886133D02*
X68984874Y-123124228D01*
X68984874Y-123124228D02*
X68937255Y-123314704D01*
X68937255Y-123314704D02*
X68889636Y-123409942D01*
X68889636Y-123409942D02*
X68842017Y-123457561D01*
X68842017Y-123457561D02*
X68746779Y-123505180D01*
X68127731Y-123505180D02*
X67556303Y-123505180D01*
X67842017Y-122505180D02*
X67842017Y-123505180D01*
X67318207Y-123505180D02*
X66651541Y-122505180D01*
X66651541Y-123505180D02*
X67318207Y-122505180D01*
X66270588Y-122505180D02*
X66270588Y-123505180D01*
X66270588Y-123505180D02*
X66032493Y-123505180D01*
X66032493Y-123505180D02*
X65889636Y-123457561D01*
X65889636Y-123457561D02*
X65794398Y-123362323D01*
X65794398Y-123362323D02*
X65746779Y-123267085D01*
X65746779Y-123267085D02*
X65699160Y-123076609D01*
X65699160Y-123076609D02*
X65699160Y-122933752D01*
X65699160Y-122933752D02*
X65746779Y-122743276D01*
X65746779Y-122743276D02*
X65794398Y-122648038D01*
X65794398Y-122648038D02*
X65889636Y-122552800D01*
X65889636Y-122552800D02*
X66032493Y-122505180D01*
X66032493Y-122505180D02*
X66270588Y-122505180D01*
X67794398Y-125997561D02*
X67889636Y-126045180D01*
X67889636Y-126045180D02*
X68032493Y-126045180D01*
X68032493Y-126045180D02*
X68175350Y-125997561D01*
X68175350Y-125997561D02*
X68270588Y-125902323D01*
X68270588Y-125902323D02*
X68318207Y-125807085D01*
X68318207Y-125807085D02*
X68365826Y-125616609D01*
X68365826Y-125616609D02*
X68365826Y-125473752D01*
X68365826Y-125473752D02*
X68318207Y-125283276D01*
X68318207Y-125283276D02*
X68270588Y-125188038D01*
X68270588Y-125188038D02*
X68175350Y-125092800D01*
X68175350Y-125092800D02*
X68032493Y-125045180D01*
X68032493Y-125045180D02*
X67937255Y-125045180D01*
X67937255Y-125045180D02*
X67794398Y-125092800D01*
X67794398Y-125092800D02*
X67746779Y-125140419D01*
X67746779Y-125140419D02*
X67746779Y-125473752D01*
X67746779Y-125473752D02*
X67937255Y-125473752D01*
X67318207Y-125045180D02*
X67318207Y-126045180D01*
X67318207Y-126045180D02*
X66746779Y-125045180D01*
X66746779Y-125045180D02*
X66746779Y-126045180D01*
X66270588Y-125045180D02*
X66270588Y-126045180D01*
X66270588Y-126045180D02*
X66032493Y-126045180D01*
X66032493Y-126045180D02*
X65889636Y-125997561D01*
X65889636Y-125997561D02*
X65794398Y-125902323D01*
X65794398Y-125902323D02*
X65746779Y-125807085D01*
X65746779Y-125807085D02*
X65699160Y-125616609D01*
X65699160Y-125616609D02*
X65699160Y-125473752D01*
X65699160Y-125473752D02*
X65746779Y-125283276D01*
X65746779Y-125283276D02*
X65794398Y-125188038D01*
X65794398Y-125188038D02*
X65889636Y-125092800D01*
X65889636Y-125092800D02*
X66032493Y-125045180D01*
X66032493Y-125045180D02*
X66270588Y-125045180D01*
X85498078Y-120491710D02*
X85164745Y-120491710D01*
X85021888Y-119967900D02*
X85498078Y-119967900D01*
X85498078Y-119967900D02*
X85498078Y-120967900D01*
X85498078Y-120967900D02*
X85021888Y-120967900D01*
X84593316Y-119967900D02*
X84593316Y-120967900D01*
X84593316Y-120967900D02*
X84021888Y-119967900D01*
X84021888Y-119967900D02*
X84021888Y-120967900D01*
X82831412Y-121015520D02*
X83688554Y-119729805D01*
X81926650Y-119967900D02*
X82259983Y-120444091D01*
X82498078Y-119967900D02*
X82498078Y-120967900D01*
X82498078Y-120967900D02*
X82117126Y-120967900D01*
X82117126Y-120967900D02*
X82021888Y-120920281D01*
X82021888Y-120920281D02*
X81974269Y-120872662D01*
X81974269Y-120872662D02*
X81926650Y-120777424D01*
X81926650Y-120777424D02*
X81926650Y-120634567D01*
X81926650Y-120634567D02*
X81974269Y-120539329D01*
X81974269Y-120539329D02*
X82021888Y-120491710D01*
X82021888Y-120491710D02*
X82117126Y-120444091D01*
X82117126Y-120444091D02*
X82498078Y-120444091D01*
X81498078Y-120491710D02*
X81164745Y-120491710D01*
X81021888Y-119967900D02*
X81498078Y-119967900D01*
X81498078Y-119967900D02*
X81498078Y-120967900D01*
X81498078Y-120967900D02*
X81021888Y-120967900D01*
X80640935Y-120015520D02*
X80498078Y-119967900D01*
X80498078Y-119967900D02*
X80259983Y-119967900D01*
X80259983Y-119967900D02*
X80164745Y-120015520D01*
X80164745Y-120015520D02*
X80117126Y-120063139D01*
X80117126Y-120063139D02*
X80069507Y-120158377D01*
X80069507Y-120158377D02*
X80069507Y-120253615D01*
X80069507Y-120253615D02*
X80117126Y-120348853D01*
X80117126Y-120348853D02*
X80164745Y-120396472D01*
X80164745Y-120396472D02*
X80259983Y-120444091D01*
X80259983Y-120444091D02*
X80450459Y-120491710D01*
X80450459Y-120491710D02*
X80545697Y-120539329D01*
X80545697Y-120539329D02*
X80593316Y-120586948D01*
X80593316Y-120586948D02*
X80640935Y-120682186D01*
X80640935Y-120682186D02*
X80640935Y-120777424D01*
X80640935Y-120777424D02*
X80593316Y-120872662D01*
X80593316Y-120872662D02*
X80545697Y-120920281D01*
X80545697Y-120920281D02*
X80450459Y-120967900D01*
X80450459Y-120967900D02*
X80212364Y-120967900D01*
X80212364Y-120967900D02*
X80069507Y-120920281D01*
X79640935Y-120491710D02*
X79307602Y-120491710D01*
X79164745Y-119967900D02*
X79640935Y-119967900D01*
X79640935Y-119967900D02*
X79640935Y-120967900D01*
X79640935Y-120967900D02*
X79164745Y-120967900D01*
X78879030Y-120967900D02*
X78307602Y-120967900D01*
X78593316Y-119967900D02*
X78593316Y-120967900D01*
X84619091Y-72660281D02*
X84714329Y-72707900D01*
X84714329Y-72707900D02*
X84857186Y-72707900D01*
X84857186Y-72707900D02*
X85000043Y-72660281D01*
X85000043Y-72660281D02*
X85095281Y-72565043D01*
X85095281Y-72565043D02*
X85142900Y-72469805D01*
X85142900Y-72469805D02*
X85190519Y-72279329D01*
X85190519Y-72279329D02*
X85190519Y-72136472D01*
X85190519Y-72136472D02*
X85142900Y-71945996D01*
X85142900Y-71945996D02*
X85095281Y-71850758D01*
X85095281Y-71850758D02*
X85000043Y-71755520D01*
X85000043Y-71755520D02*
X84857186Y-71707900D01*
X84857186Y-71707900D02*
X84761948Y-71707900D01*
X84761948Y-71707900D02*
X84619091Y-71755520D01*
X84619091Y-71755520D02*
X84571472Y-71803139D01*
X84571472Y-71803139D02*
X84571472Y-72136472D01*
X84571472Y-72136472D02*
X84761948Y-72136472D01*
X84142900Y-71707900D02*
X84142900Y-72707900D01*
X84142900Y-72707900D02*
X83571472Y-71707900D01*
X83571472Y-71707900D02*
X83571472Y-72707900D01*
X83095281Y-71707900D02*
X83095281Y-72707900D01*
X83095281Y-72707900D02*
X82857186Y-72707900D01*
X82857186Y-72707900D02*
X82714329Y-72660281D01*
X82714329Y-72660281D02*
X82619091Y-72565043D01*
X82619091Y-72565043D02*
X82571472Y-72469805D01*
X82571472Y-72469805D02*
X82523853Y-72279329D01*
X82523853Y-72279329D02*
X82523853Y-72136472D01*
X82523853Y-72136472D02*
X82571472Y-71945996D01*
X82571472Y-71945996D02*
X82619091Y-71850758D01*
X82619091Y-71850758D02*
X82714329Y-71755520D01*
X82714329Y-71755520D02*
X82857186Y-71707900D01*
X82857186Y-71707900D02*
X83095281Y-71707900D01*
X84666710Y-75247900D02*
X85142900Y-75247900D01*
X85142900Y-75247900D02*
X85190519Y-74771710D01*
X85190519Y-74771710D02*
X85142900Y-74819329D01*
X85142900Y-74819329D02*
X85047662Y-74866948D01*
X85047662Y-74866948D02*
X84809567Y-74866948D01*
X84809567Y-74866948D02*
X84714329Y-74819329D01*
X84714329Y-74819329D02*
X84666710Y-74771710D01*
X84666710Y-74771710D02*
X84619091Y-74676472D01*
X84619091Y-74676472D02*
X84619091Y-74438377D01*
X84619091Y-74438377D02*
X84666710Y-74343139D01*
X84666710Y-74343139D02*
X84714329Y-74295520D01*
X84714329Y-74295520D02*
X84809567Y-74247900D01*
X84809567Y-74247900D02*
X85047662Y-74247900D01*
X85047662Y-74247900D02*
X85142900Y-74295520D01*
X85142900Y-74295520D02*
X85190519Y-74343139D01*
X84333376Y-75247900D02*
X84000043Y-74247900D01*
X84000043Y-74247900D02*
X83666710Y-75247900D01*
X84869411Y-77737561D02*
X84964649Y-77785180D01*
X84964649Y-77785180D02*
X85107506Y-77785180D01*
X85107506Y-77785180D02*
X85250363Y-77737561D01*
X85250363Y-77737561D02*
X85345601Y-77642323D01*
X85345601Y-77642323D02*
X85393220Y-77547085D01*
X85393220Y-77547085D02*
X85440839Y-77356609D01*
X85440839Y-77356609D02*
X85440839Y-77213752D01*
X85440839Y-77213752D02*
X85393220Y-77023276D01*
X85393220Y-77023276D02*
X85345601Y-76928038D01*
X85345601Y-76928038D02*
X85250363Y-76832800D01*
X85250363Y-76832800D02*
X85107506Y-76785180D01*
X85107506Y-76785180D02*
X85012268Y-76785180D01*
X85012268Y-76785180D02*
X84869411Y-76832800D01*
X84869411Y-76832800D02*
X84821792Y-76880419D01*
X84821792Y-76880419D02*
X84821792Y-77213752D01*
X84821792Y-77213752D02*
X85012268Y-77213752D01*
X84393220Y-76785180D02*
X84393220Y-77785180D01*
X84393220Y-77785180D02*
X84012268Y-77785180D01*
X84012268Y-77785180D02*
X83917030Y-77737561D01*
X83917030Y-77737561D02*
X83869411Y-77689942D01*
X83869411Y-77689942D02*
X83821792Y-77594704D01*
X83821792Y-77594704D02*
X83821792Y-77451847D01*
X83821792Y-77451847D02*
X83869411Y-77356609D01*
X83869411Y-77356609D02*
X83917030Y-77308990D01*
X83917030Y-77308990D02*
X84012268Y-77261371D01*
X84012268Y-77261371D02*
X84393220Y-77261371D01*
X83393220Y-76785180D02*
X83393220Y-77785180D01*
X82726554Y-77785180D02*
X82536078Y-77785180D01*
X82536078Y-77785180D02*
X82440840Y-77737561D01*
X82440840Y-77737561D02*
X82345602Y-77642323D01*
X82345602Y-77642323D02*
X82297983Y-77451847D01*
X82297983Y-77451847D02*
X82297983Y-77118514D01*
X82297983Y-77118514D02*
X82345602Y-76928038D01*
X82345602Y-76928038D02*
X82440840Y-76832800D01*
X82440840Y-76832800D02*
X82536078Y-76785180D01*
X82536078Y-76785180D02*
X82726554Y-76785180D01*
X82726554Y-76785180D02*
X82821792Y-76832800D01*
X82821792Y-76832800D02*
X82917030Y-76928038D01*
X82917030Y-76928038D02*
X82964649Y-77118514D01*
X82964649Y-77118514D02*
X82964649Y-77451847D01*
X82964649Y-77451847D02*
X82917030Y-77642323D01*
X82917030Y-77642323D02*
X82821792Y-77737561D01*
X82821792Y-77737561D02*
X82726554Y-77785180D01*
X81345602Y-76785180D02*
X81917030Y-76785180D01*
X81631316Y-76785180D02*
X81631316Y-77785180D01*
X81631316Y-77785180D02*
X81726554Y-77642323D01*
X81726554Y-77642323D02*
X81821792Y-77547085D01*
X81821792Y-77547085D02*
X81917030Y-77499466D01*
X80488459Y-77451847D02*
X80488459Y-76785180D01*
X80726554Y-77832800D02*
X80964649Y-77118514D01*
X80964649Y-77118514D02*
X80345602Y-77118514D01*
X84869411Y-80277561D02*
X84964649Y-80325180D01*
X84964649Y-80325180D02*
X85107506Y-80325180D01*
X85107506Y-80325180D02*
X85250363Y-80277561D01*
X85250363Y-80277561D02*
X85345601Y-80182323D01*
X85345601Y-80182323D02*
X85393220Y-80087085D01*
X85393220Y-80087085D02*
X85440839Y-79896609D01*
X85440839Y-79896609D02*
X85440839Y-79753752D01*
X85440839Y-79753752D02*
X85393220Y-79563276D01*
X85393220Y-79563276D02*
X85345601Y-79468038D01*
X85345601Y-79468038D02*
X85250363Y-79372800D01*
X85250363Y-79372800D02*
X85107506Y-79325180D01*
X85107506Y-79325180D02*
X85012268Y-79325180D01*
X85012268Y-79325180D02*
X84869411Y-79372800D01*
X84869411Y-79372800D02*
X84821792Y-79420419D01*
X84821792Y-79420419D02*
X84821792Y-79753752D01*
X84821792Y-79753752D02*
X85012268Y-79753752D01*
X84393220Y-79325180D02*
X84393220Y-80325180D01*
X84393220Y-80325180D02*
X84012268Y-80325180D01*
X84012268Y-80325180D02*
X83917030Y-80277561D01*
X83917030Y-80277561D02*
X83869411Y-80229942D01*
X83869411Y-80229942D02*
X83821792Y-80134704D01*
X83821792Y-80134704D02*
X83821792Y-79991847D01*
X83821792Y-79991847D02*
X83869411Y-79896609D01*
X83869411Y-79896609D02*
X83917030Y-79848990D01*
X83917030Y-79848990D02*
X84012268Y-79801371D01*
X84012268Y-79801371D02*
X84393220Y-79801371D01*
X83393220Y-79325180D02*
X83393220Y-80325180D01*
X82726554Y-80325180D02*
X82536078Y-80325180D01*
X82536078Y-80325180D02*
X82440840Y-80277561D01*
X82440840Y-80277561D02*
X82345602Y-80182323D01*
X82345602Y-80182323D02*
X82297983Y-79991847D01*
X82297983Y-79991847D02*
X82297983Y-79658514D01*
X82297983Y-79658514D02*
X82345602Y-79468038D01*
X82345602Y-79468038D02*
X82440840Y-79372800D01*
X82440840Y-79372800D02*
X82536078Y-79325180D01*
X82536078Y-79325180D02*
X82726554Y-79325180D01*
X82726554Y-79325180D02*
X82821792Y-79372800D01*
X82821792Y-79372800D02*
X82917030Y-79468038D01*
X82917030Y-79468038D02*
X82964649Y-79658514D01*
X82964649Y-79658514D02*
X82964649Y-79991847D01*
X82964649Y-79991847D02*
X82917030Y-80182323D01*
X82917030Y-80182323D02*
X82821792Y-80277561D01*
X82821792Y-80277561D02*
X82726554Y-80325180D01*
X81345602Y-79325180D02*
X81917030Y-79325180D01*
X81631316Y-79325180D02*
X81631316Y-80325180D01*
X81631316Y-80325180D02*
X81726554Y-80182323D01*
X81726554Y-80182323D02*
X81821792Y-80087085D01*
X81821792Y-80087085D02*
X81917030Y-80039466D01*
X81012268Y-80325180D02*
X80393221Y-80325180D01*
X80393221Y-80325180D02*
X80726554Y-79944228D01*
X80726554Y-79944228D02*
X80583697Y-79944228D01*
X80583697Y-79944228D02*
X80488459Y-79896609D01*
X80488459Y-79896609D02*
X80440840Y-79848990D01*
X80440840Y-79848990D02*
X80393221Y-79753752D01*
X80393221Y-79753752D02*
X80393221Y-79515657D01*
X80393221Y-79515657D02*
X80440840Y-79420419D01*
X80440840Y-79420419D02*
X80488459Y-79372800D01*
X80488459Y-79372800D02*
X80583697Y-79325180D01*
X80583697Y-79325180D02*
X80869411Y-79325180D01*
X80869411Y-79325180D02*
X80964649Y-79372800D01*
X80964649Y-79372800D02*
X81012268Y-79420419D01*
X84869411Y-82817561D02*
X84964649Y-82865180D01*
X84964649Y-82865180D02*
X85107506Y-82865180D01*
X85107506Y-82865180D02*
X85250363Y-82817561D01*
X85250363Y-82817561D02*
X85345601Y-82722323D01*
X85345601Y-82722323D02*
X85393220Y-82627085D01*
X85393220Y-82627085D02*
X85440839Y-82436609D01*
X85440839Y-82436609D02*
X85440839Y-82293752D01*
X85440839Y-82293752D02*
X85393220Y-82103276D01*
X85393220Y-82103276D02*
X85345601Y-82008038D01*
X85345601Y-82008038D02*
X85250363Y-81912800D01*
X85250363Y-81912800D02*
X85107506Y-81865180D01*
X85107506Y-81865180D02*
X85012268Y-81865180D01*
X85012268Y-81865180D02*
X84869411Y-81912800D01*
X84869411Y-81912800D02*
X84821792Y-81960419D01*
X84821792Y-81960419D02*
X84821792Y-82293752D01*
X84821792Y-82293752D02*
X85012268Y-82293752D01*
X84393220Y-81865180D02*
X84393220Y-82865180D01*
X84393220Y-82865180D02*
X84012268Y-82865180D01*
X84012268Y-82865180D02*
X83917030Y-82817561D01*
X83917030Y-82817561D02*
X83869411Y-82769942D01*
X83869411Y-82769942D02*
X83821792Y-82674704D01*
X83821792Y-82674704D02*
X83821792Y-82531847D01*
X83821792Y-82531847D02*
X83869411Y-82436609D01*
X83869411Y-82436609D02*
X83917030Y-82388990D01*
X83917030Y-82388990D02*
X84012268Y-82341371D01*
X84012268Y-82341371D02*
X84393220Y-82341371D01*
X83393220Y-81865180D02*
X83393220Y-82865180D01*
X82726554Y-82865180D02*
X82536078Y-82865180D01*
X82536078Y-82865180D02*
X82440840Y-82817561D01*
X82440840Y-82817561D02*
X82345602Y-82722323D01*
X82345602Y-82722323D02*
X82297983Y-82531847D01*
X82297983Y-82531847D02*
X82297983Y-82198514D01*
X82297983Y-82198514D02*
X82345602Y-82008038D01*
X82345602Y-82008038D02*
X82440840Y-81912800D01*
X82440840Y-81912800D02*
X82536078Y-81865180D01*
X82536078Y-81865180D02*
X82726554Y-81865180D01*
X82726554Y-81865180D02*
X82821792Y-81912800D01*
X82821792Y-81912800D02*
X82917030Y-82008038D01*
X82917030Y-82008038D02*
X82964649Y-82198514D01*
X82964649Y-82198514D02*
X82964649Y-82531847D01*
X82964649Y-82531847D02*
X82917030Y-82722323D01*
X82917030Y-82722323D02*
X82821792Y-82817561D01*
X82821792Y-82817561D02*
X82726554Y-82865180D01*
X81345602Y-81865180D02*
X81917030Y-81865180D01*
X81631316Y-81865180D02*
X81631316Y-82865180D01*
X81631316Y-82865180D02*
X81726554Y-82722323D01*
X81726554Y-82722323D02*
X81821792Y-82627085D01*
X81821792Y-82627085D02*
X81917030Y-82579466D01*
X80964649Y-82769942D02*
X80917030Y-82817561D01*
X80917030Y-82817561D02*
X80821792Y-82865180D01*
X80821792Y-82865180D02*
X80583697Y-82865180D01*
X80583697Y-82865180D02*
X80488459Y-82817561D01*
X80488459Y-82817561D02*
X80440840Y-82769942D01*
X80440840Y-82769942D02*
X80393221Y-82674704D01*
X80393221Y-82674704D02*
X80393221Y-82579466D01*
X80393221Y-82579466D02*
X80440840Y-82436609D01*
X80440840Y-82436609D02*
X81012268Y-81865180D01*
X81012268Y-81865180D02*
X80393221Y-81865180D01*
X84869411Y-85357561D02*
X84964649Y-85405180D01*
X84964649Y-85405180D02*
X85107506Y-85405180D01*
X85107506Y-85405180D02*
X85250363Y-85357561D01*
X85250363Y-85357561D02*
X85345601Y-85262323D01*
X85345601Y-85262323D02*
X85393220Y-85167085D01*
X85393220Y-85167085D02*
X85440839Y-84976609D01*
X85440839Y-84976609D02*
X85440839Y-84833752D01*
X85440839Y-84833752D02*
X85393220Y-84643276D01*
X85393220Y-84643276D02*
X85345601Y-84548038D01*
X85345601Y-84548038D02*
X85250363Y-84452800D01*
X85250363Y-84452800D02*
X85107506Y-84405180D01*
X85107506Y-84405180D02*
X85012268Y-84405180D01*
X85012268Y-84405180D02*
X84869411Y-84452800D01*
X84869411Y-84452800D02*
X84821792Y-84500419D01*
X84821792Y-84500419D02*
X84821792Y-84833752D01*
X84821792Y-84833752D02*
X85012268Y-84833752D01*
X84393220Y-84405180D02*
X84393220Y-85405180D01*
X84393220Y-85405180D02*
X84012268Y-85405180D01*
X84012268Y-85405180D02*
X83917030Y-85357561D01*
X83917030Y-85357561D02*
X83869411Y-85309942D01*
X83869411Y-85309942D02*
X83821792Y-85214704D01*
X83821792Y-85214704D02*
X83821792Y-85071847D01*
X83821792Y-85071847D02*
X83869411Y-84976609D01*
X83869411Y-84976609D02*
X83917030Y-84928990D01*
X83917030Y-84928990D02*
X84012268Y-84881371D01*
X84012268Y-84881371D02*
X84393220Y-84881371D01*
X83393220Y-84405180D02*
X83393220Y-85405180D01*
X82726554Y-85405180D02*
X82536078Y-85405180D01*
X82536078Y-85405180D02*
X82440840Y-85357561D01*
X82440840Y-85357561D02*
X82345602Y-85262323D01*
X82345602Y-85262323D02*
X82297983Y-85071847D01*
X82297983Y-85071847D02*
X82297983Y-84738514D01*
X82297983Y-84738514D02*
X82345602Y-84548038D01*
X82345602Y-84548038D02*
X82440840Y-84452800D01*
X82440840Y-84452800D02*
X82536078Y-84405180D01*
X82536078Y-84405180D02*
X82726554Y-84405180D01*
X82726554Y-84405180D02*
X82821792Y-84452800D01*
X82821792Y-84452800D02*
X82917030Y-84548038D01*
X82917030Y-84548038D02*
X82964649Y-84738514D01*
X82964649Y-84738514D02*
X82964649Y-85071847D01*
X82964649Y-85071847D02*
X82917030Y-85262323D01*
X82917030Y-85262323D02*
X82821792Y-85357561D01*
X82821792Y-85357561D02*
X82726554Y-85405180D01*
X81345602Y-84405180D02*
X81917030Y-84405180D01*
X81631316Y-84405180D02*
X81631316Y-85405180D01*
X81631316Y-85405180D02*
X81726554Y-85262323D01*
X81726554Y-85262323D02*
X81821792Y-85167085D01*
X81821792Y-85167085D02*
X81917030Y-85119466D01*
X80393221Y-84405180D02*
X80964649Y-84405180D01*
X80678935Y-84405180D02*
X80678935Y-85405180D01*
X80678935Y-85405180D02*
X80774173Y-85262323D01*
X80774173Y-85262323D02*
X80869411Y-85167085D01*
X80869411Y-85167085D02*
X80964649Y-85119466D01*
X84869411Y-87897561D02*
X84964649Y-87945180D01*
X84964649Y-87945180D02*
X85107506Y-87945180D01*
X85107506Y-87945180D02*
X85250363Y-87897561D01*
X85250363Y-87897561D02*
X85345601Y-87802323D01*
X85345601Y-87802323D02*
X85393220Y-87707085D01*
X85393220Y-87707085D02*
X85440839Y-87516609D01*
X85440839Y-87516609D02*
X85440839Y-87373752D01*
X85440839Y-87373752D02*
X85393220Y-87183276D01*
X85393220Y-87183276D02*
X85345601Y-87088038D01*
X85345601Y-87088038D02*
X85250363Y-86992800D01*
X85250363Y-86992800D02*
X85107506Y-86945180D01*
X85107506Y-86945180D02*
X85012268Y-86945180D01*
X85012268Y-86945180D02*
X84869411Y-86992800D01*
X84869411Y-86992800D02*
X84821792Y-87040419D01*
X84821792Y-87040419D02*
X84821792Y-87373752D01*
X84821792Y-87373752D02*
X85012268Y-87373752D01*
X84393220Y-86945180D02*
X84393220Y-87945180D01*
X84393220Y-87945180D02*
X84012268Y-87945180D01*
X84012268Y-87945180D02*
X83917030Y-87897561D01*
X83917030Y-87897561D02*
X83869411Y-87849942D01*
X83869411Y-87849942D02*
X83821792Y-87754704D01*
X83821792Y-87754704D02*
X83821792Y-87611847D01*
X83821792Y-87611847D02*
X83869411Y-87516609D01*
X83869411Y-87516609D02*
X83917030Y-87468990D01*
X83917030Y-87468990D02*
X84012268Y-87421371D01*
X84012268Y-87421371D02*
X84393220Y-87421371D01*
X83393220Y-86945180D02*
X83393220Y-87945180D01*
X82726554Y-87945180D02*
X82536078Y-87945180D01*
X82536078Y-87945180D02*
X82440840Y-87897561D01*
X82440840Y-87897561D02*
X82345602Y-87802323D01*
X82345602Y-87802323D02*
X82297983Y-87611847D01*
X82297983Y-87611847D02*
X82297983Y-87278514D01*
X82297983Y-87278514D02*
X82345602Y-87088038D01*
X82345602Y-87088038D02*
X82440840Y-86992800D01*
X82440840Y-86992800D02*
X82536078Y-86945180D01*
X82536078Y-86945180D02*
X82726554Y-86945180D01*
X82726554Y-86945180D02*
X82821792Y-86992800D01*
X82821792Y-86992800D02*
X82917030Y-87088038D01*
X82917030Y-87088038D02*
X82964649Y-87278514D01*
X82964649Y-87278514D02*
X82964649Y-87611847D01*
X82964649Y-87611847D02*
X82917030Y-87802323D01*
X82917030Y-87802323D02*
X82821792Y-87897561D01*
X82821792Y-87897561D02*
X82726554Y-87945180D01*
X81345602Y-86945180D02*
X81917030Y-86945180D01*
X81631316Y-86945180D02*
X81631316Y-87945180D01*
X81631316Y-87945180D02*
X81726554Y-87802323D01*
X81726554Y-87802323D02*
X81821792Y-87707085D01*
X81821792Y-87707085D02*
X81917030Y-87659466D01*
X80726554Y-87945180D02*
X80631316Y-87945180D01*
X80631316Y-87945180D02*
X80536078Y-87897561D01*
X80536078Y-87897561D02*
X80488459Y-87849942D01*
X80488459Y-87849942D02*
X80440840Y-87754704D01*
X80440840Y-87754704D02*
X80393221Y-87564228D01*
X80393221Y-87564228D02*
X80393221Y-87326133D01*
X80393221Y-87326133D02*
X80440840Y-87135657D01*
X80440840Y-87135657D02*
X80488459Y-87040419D01*
X80488459Y-87040419D02*
X80536078Y-86992800D01*
X80536078Y-86992800D02*
X80631316Y-86945180D01*
X80631316Y-86945180D02*
X80726554Y-86945180D01*
X80726554Y-86945180D02*
X80821792Y-86992800D01*
X80821792Y-86992800D02*
X80869411Y-87040419D01*
X80869411Y-87040419D02*
X80917030Y-87135657D01*
X80917030Y-87135657D02*
X80964649Y-87326133D01*
X80964649Y-87326133D02*
X80964649Y-87564228D01*
X80964649Y-87564228D02*
X80917030Y-87754704D01*
X80917030Y-87754704D02*
X80869411Y-87849942D01*
X80869411Y-87849942D02*
X80821792Y-87897561D01*
X80821792Y-87897561D02*
X80726554Y-87945180D01*
X84869411Y-90437561D02*
X84964649Y-90485180D01*
X84964649Y-90485180D02*
X85107506Y-90485180D01*
X85107506Y-90485180D02*
X85250363Y-90437561D01*
X85250363Y-90437561D02*
X85345601Y-90342323D01*
X85345601Y-90342323D02*
X85393220Y-90247085D01*
X85393220Y-90247085D02*
X85440839Y-90056609D01*
X85440839Y-90056609D02*
X85440839Y-89913752D01*
X85440839Y-89913752D02*
X85393220Y-89723276D01*
X85393220Y-89723276D02*
X85345601Y-89628038D01*
X85345601Y-89628038D02*
X85250363Y-89532800D01*
X85250363Y-89532800D02*
X85107506Y-89485180D01*
X85107506Y-89485180D02*
X85012268Y-89485180D01*
X85012268Y-89485180D02*
X84869411Y-89532800D01*
X84869411Y-89532800D02*
X84821792Y-89580419D01*
X84821792Y-89580419D02*
X84821792Y-89913752D01*
X84821792Y-89913752D02*
X85012268Y-89913752D01*
X84393220Y-89485180D02*
X84393220Y-90485180D01*
X84393220Y-90485180D02*
X84012268Y-90485180D01*
X84012268Y-90485180D02*
X83917030Y-90437561D01*
X83917030Y-90437561D02*
X83869411Y-90389942D01*
X83869411Y-90389942D02*
X83821792Y-90294704D01*
X83821792Y-90294704D02*
X83821792Y-90151847D01*
X83821792Y-90151847D02*
X83869411Y-90056609D01*
X83869411Y-90056609D02*
X83917030Y-90008990D01*
X83917030Y-90008990D02*
X84012268Y-89961371D01*
X84012268Y-89961371D02*
X84393220Y-89961371D01*
X83393220Y-89485180D02*
X83393220Y-90485180D01*
X82726554Y-90485180D02*
X82536078Y-90485180D01*
X82536078Y-90485180D02*
X82440840Y-90437561D01*
X82440840Y-90437561D02*
X82345602Y-90342323D01*
X82345602Y-90342323D02*
X82297983Y-90151847D01*
X82297983Y-90151847D02*
X82297983Y-89818514D01*
X82297983Y-89818514D02*
X82345602Y-89628038D01*
X82345602Y-89628038D02*
X82440840Y-89532800D01*
X82440840Y-89532800D02*
X82536078Y-89485180D01*
X82536078Y-89485180D02*
X82726554Y-89485180D01*
X82726554Y-89485180D02*
X82821792Y-89532800D01*
X82821792Y-89532800D02*
X82917030Y-89628038D01*
X82917030Y-89628038D02*
X82964649Y-89818514D01*
X82964649Y-89818514D02*
X82964649Y-90151847D01*
X82964649Y-90151847D02*
X82917030Y-90342323D01*
X82917030Y-90342323D02*
X82821792Y-90437561D01*
X82821792Y-90437561D02*
X82726554Y-90485180D01*
X81821792Y-89485180D02*
X81631316Y-89485180D01*
X81631316Y-89485180D02*
X81536078Y-89532800D01*
X81536078Y-89532800D02*
X81488459Y-89580419D01*
X81488459Y-89580419D02*
X81393221Y-89723276D01*
X81393221Y-89723276D02*
X81345602Y-89913752D01*
X81345602Y-89913752D02*
X81345602Y-90294704D01*
X81345602Y-90294704D02*
X81393221Y-90389942D01*
X81393221Y-90389942D02*
X81440840Y-90437561D01*
X81440840Y-90437561D02*
X81536078Y-90485180D01*
X81536078Y-90485180D02*
X81726554Y-90485180D01*
X81726554Y-90485180D02*
X81821792Y-90437561D01*
X81821792Y-90437561D02*
X81869411Y-90389942D01*
X81869411Y-90389942D02*
X81917030Y-90294704D01*
X81917030Y-90294704D02*
X81917030Y-90056609D01*
X81917030Y-90056609D02*
X81869411Y-89961371D01*
X81869411Y-89961371D02*
X81821792Y-89913752D01*
X81821792Y-89913752D02*
X81726554Y-89866133D01*
X81726554Y-89866133D02*
X81536078Y-89866133D01*
X81536078Y-89866133D02*
X81440840Y-89913752D01*
X81440840Y-89913752D02*
X81393221Y-89961371D01*
X81393221Y-89961371D02*
X81345602Y-90056609D01*
X84869411Y-92977561D02*
X84964649Y-93025180D01*
X84964649Y-93025180D02*
X85107506Y-93025180D01*
X85107506Y-93025180D02*
X85250363Y-92977561D01*
X85250363Y-92977561D02*
X85345601Y-92882323D01*
X85345601Y-92882323D02*
X85393220Y-92787085D01*
X85393220Y-92787085D02*
X85440839Y-92596609D01*
X85440839Y-92596609D02*
X85440839Y-92453752D01*
X85440839Y-92453752D02*
X85393220Y-92263276D01*
X85393220Y-92263276D02*
X85345601Y-92168038D01*
X85345601Y-92168038D02*
X85250363Y-92072800D01*
X85250363Y-92072800D02*
X85107506Y-92025180D01*
X85107506Y-92025180D02*
X85012268Y-92025180D01*
X85012268Y-92025180D02*
X84869411Y-92072800D01*
X84869411Y-92072800D02*
X84821792Y-92120419D01*
X84821792Y-92120419D02*
X84821792Y-92453752D01*
X84821792Y-92453752D02*
X85012268Y-92453752D01*
X84393220Y-92025180D02*
X84393220Y-93025180D01*
X84393220Y-93025180D02*
X84012268Y-93025180D01*
X84012268Y-93025180D02*
X83917030Y-92977561D01*
X83917030Y-92977561D02*
X83869411Y-92929942D01*
X83869411Y-92929942D02*
X83821792Y-92834704D01*
X83821792Y-92834704D02*
X83821792Y-92691847D01*
X83821792Y-92691847D02*
X83869411Y-92596609D01*
X83869411Y-92596609D02*
X83917030Y-92548990D01*
X83917030Y-92548990D02*
X84012268Y-92501371D01*
X84012268Y-92501371D02*
X84393220Y-92501371D01*
X83393220Y-92025180D02*
X83393220Y-93025180D01*
X82726554Y-93025180D02*
X82536078Y-93025180D01*
X82536078Y-93025180D02*
X82440840Y-92977561D01*
X82440840Y-92977561D02*
X82345602Y-92882323D01*
X82345602Y-92882323D02*
X82297983Y-92691847D01*
X82297983Y-92691847D02*
X82297983Y-92358514D01*
X82297983Y-92358514D02*
X82345602Y-92168038D01*
X82345602Y-92168038D02*
X82440840Y-92072800D01*
X82440840Y-92072800D02*
X82536078Y-92025180D01*
X82536078Y-92025180D02*
X82726554Y-92025180D01*
X82726554Y-92025180D02*
X82821792Y-92072800D01*
X82821792Y-92072800D02*
X82917030Y-92168038D01*
X82917030Y-92168038D02*
X82964649Y-92358514D01*
X82964649Y-92358514D02*
X82964649Y-92691847D01*
X82964649Y-92691847D02*
X82917030Y-92882323D01*
X82917030Y-92882323D02*
X82821792Y-92977561D01*
X82821792Y-92977561D02*
X82726554Y-93025180D01*
X81440840Y-92691847D02*
X81440840Y-92025180D01*
X81678935Y-93072800D02*
X81917030Y-92358514D01*
X81917030Y-92358514D02*
X81297983Y-92358514D01*
X80488459Y-93025180D02*
X80678935Y-93025180D01*
X80678935Y-93025180D02*
X80774173Y-92977561D01*
X80774173Y-92977561D02*
X80821792Y-92929942D01*
X80821792Y-92929942D02*
X80917030Y-92787085D01*
X80917030Y-92787085D02*
X80964649Y-92596609D01*
X80964649Y-92596609D02*
X80964649Y-92215657D01*
X80964649Y-92215657D02*
X80917030Y-92120419D01*
X80917030Y-92120419D02*
X80869411Y-92072800D01*
X80869411Y-92072800D02*
X80774173Y-92025180D01*
X80774173Y-92025180D02*
X80583697Y-92025180D01*
X80583697Y-92025180D02*
X80488459Y-92072800D01*
X80488459Y-92072800D02*
X80440840Y-92120419D01*
X80440840Y-92120419D02*
X80393221Y-92215657D01*
X80393221Y-92215657D02*
X80393221Y-92453752D01*
X80393221Y-92453752D02*
X80440840Y-92548990D01*
X80440840Y-92548990D02*
X80488459Y-92596609D01*
X80488459Y-92596609D02*
X80583697Y-92644228D01*
X80583697Y-92644228D02*
X80774173Y-92644228D01*
X80774173Y-92644228D02*
X80869411Y-92596609D01*
X80869411Y-92596609D02*
X80917030Y-92548990D01*
X80917030Y-92548990D02*
X80964649Y-92453752D01*
X84869411Y-95517561D02*
X84964649Y-95565180D01*
X84964649Y-95565180D02*
X85107506Y-95565180D01*
X85107506Y-95565180D02*
X85250363Y-95517561D01*
X85250363Y-95517561D02*
X85345601Y-95422323D01*
X85345601Y-95422323D02*
X85393220Y-95327085D01*
X85393220Y-95327085D02*
X85440839Y-95136609D01*
X85440839Y-95136609D02*
X85440839Y-94993752D01*
X85440839Y-94993752D02*
X85393220Y-94803276D01*
X85393220Y-94803276D02*
X85345601Y-94708038D01*
X85345601Y-94708038D02*
X85250363Y-94612800D01*
X85250363Y-94612800D02*
X85107506Y-94565180D01*
X85107506Y-94565180D02*
X85012268Y-94565180D01*
X85012268Y-94565180D02*
X84869411Y-94612800D01*
X84869411Y-94612800D02*
X84821792Y-94660419D01*
X84821792Y-94660419D02*
X84821792Y-94993752D01*
X84821792Y-94993752D02*
X85012268Y-94993752D01*
X84393220Y-94565180D02*
X84393220Y-95565180D01*
X84393220Y-95565180D02*
X84012268Y-95565180D01*
X84012268Y-95565180D02*
X83917030Y-95517561D01*
X83917030Y-95517561D02*
X83869411Y-95469942D01*
X83869411Y-95469942D02*
X83821792Y-95374704D01*
X83821792Y-95374704D02*
X83821792Y-95231847D01*
X83821792Y-95231847D02*
X83869411Y-95136609D01*
X83869411Y-95136609D02*
X83917030Y-95088990D01*
X83917030Y-95088990D02*
X84012268Y-95041371D01*
X84012268Y-95041371D02*
X84393220Y-95041371D01*
X83393220Y-94565180D02*
X83393220Y-95565180D01*
X82726554Y-95565180D02*
X82536078Y-95565180D01*
X82536078Y-95565180D02*
X82440840Y-95517561D01*
X82440840Y-95517561D02*
X82345602Y-95422323D01*
X82345602Y-95422323D02*
X82297983Y-95231847D01*
X82297983Y-95231847D02*
X82297983Y-94898514D01*
X82297983Y-94898514D02*
X82345602Y-94708038D01*
X82345602Y-94708038D02*
X82440840Y-94612800D01*
X82440840Y-94612800D02*
X82536078Y-94565180D01*
X82536078Y-94565180D02*
X82726554Y-94565180D01*
X82726554Y-94565180D02*
X82821792Y-94612800D01*
X82821792Y-94612800D02*
X82917030Y-94708038D01*
X82917030Y-94708038D02*
X82964649Y-94898514D01*
X82964649Y-94898514D02*
X82964649Y-95231847D01*
X82964649Y-95231847D02*
X82917030Y-95422323D01*
X82917030Y-95422323D02*
X82821792Y-95517561D01*
X82821792Y-95517561D02*
X82726554Y-95565180D01*
X81964649Y-95565180D02*
X81345602Y-95565180D01*
X81345602Y-95565180D02*
X81678935Y-95184228D01*
X81678935Y-95184228D02*
X81536078Y-95184228D01*
X81536078Y-95184228D02*
X81440840Y-95136609D01*
X81440840Y-95136609D02*
X81393221Y-95088990D01*
X81393221Y-95088990D02*
X81345602Y-94993752D01*
X81345602Y-94993752D02*
X81345602Y-94755657D01*
X81345602Y-94755657D02*
X81393221Y-94660419D01*
X81393221Y-94660419D02*
X81440840Y-94612800D01*
X81440840Y-94612800D02*
X81536078Y-94565180D01*
X81536078Y-94565180D02*
X81821792Y-94565180D01*
X81821792Y-94565180D02*
X81917030Y-94612800D01*
X81917030Y-94612800D02*
X81964649Y-94660419D01*
X84869411Y-98057561D02*
X84964649Y-98105180D01*
X84964649Y-98105180D02*
X85107506Y-98105180D01*
X85107506Y-98105180D02*
X85250363Y-98057561D01*
X85250363Y-98057561D02*
X85345601Y-97962323D01*
X85345601Y-97962323D02*
X85393220Y-97867085D01*
X85393220Y-97867085D02*
X85440839Y-97676609D01*
X85440839Y-97676609D02*
X85440839Y-97533752D01*
X85440839Y-97533752D02*
X85393220Y-97343276D01*
X85393220Y-97343276D02*
X85345601Y-97248038D01*
X85345601Y-97248038D02*
X85250363Y-97152800D01*
X85250363Y-97152800D02*
X85107506Y-97105180D01*
X85107506Y-97105180D02*
X85012268Y-97105180D01*
X85012268Y-97105180D02*
X84869411Y-97152800D01*
X84869411Y-97152800D02*
X84821792Y-97200419D01*
X84821792Y-97200419D02*
X84821792Y-97533752D01*
X84821792Y-97533752D02*
X85012268Y-97533752D01*
X84393220Y-97105180D02*
X84393220Y-98105180D01*
X84393220Y-98105180D02*
X84012268Y-98105180D01*
X84012268Y-98105180D02*
X83917030Y-98057561D01*
X83917030Y-98057561D02*
X83869411Y-98009942D01*
X83869411Y-98009942D02*
X83821792Y-97914704D01*
X83821792Y-97914704D02*
X83821792Y-97771847D01*
X83821792Y-97771847D02*
X83869411Y-97676609D01*
X83869411Y-97676609D02*
X83917030Y-97628990D01*
X83917030Y-97628990D02*
X84012268Y-97581371D01*
X84012268Y-97581371D02*
X84393220Y-97581371D01*
X83393220Y-97105180D02*
X83393220Y-98105180D01*
X82726554Y-98105180D02*
X82536078Y-98105180D01*
X82536078Y-98105180D02*
X82440840Y-98057561D01*
X82440840Y-98057561D02*
X82345602Y-97962323D01*
X82345602Y-97962323D02*
X82297983Y-97771847D01*
X82297983Y-97771847D02*
X82297983Y-97438514D01*
X82297983Y-97438514D02*
X82345602Y-97248038D01*
X82345602Y-97248038D02*
X82440840Y-97152800D01*
X82440840Y-97152800D02*
X82536078Y-97105180D01*
X82536078Y-97105180D02*
X82726554Y-97105180D01*
X82726554Y-97105180D02*
X82821792Y-97152800D01*
X82821792Y-97152800D02*
X82917030Y-97248038D01*
X82917030Y-97248038D02*
X82964649Y-97438514D01*
X82964649Y-97438514D02*
X82964649Y-97771847D01*
X82964649Y-97771847D02*
X82917030Y-97962323D01*
X82917030Y-97962323D02*
X82821792Y-98057561D01*
X82821792Y-98057561D02*
X82726554Y-98105180D01*
X81726554Y-97676609D02*
X81821792Y-97724228D01*
X81821792Y-97724228D02*
X81869411Y-97771847D01*
X81869411Y-97771847D02*
X81917030Y-97867085D01*
X81917030Y-97867085D02*
X81917030Y-97914704D01*
X81917030Y-97914704D02*
X81869411Y-98009942D01*
X81869411Y-98009942D02*
X81821792Y-98057561D01*
X81821792Y-98057561D02*
X81726554Y-98105180D01*
X81726554Y-98105180D02*
X81536078Y-98105180D01*
X81536078Y-98105180D02*
X81440840Y-98057561D01*
X81440840Y-98057561D02*
X81393221Y-98009942D01*
X81393221Y-98009942D02*
X81345602Y-97914704D01*
X81345602Y-97914704D02*
X81345602Y-97867085D01*
X81345602Y-97867085D02*
X81393221Y-97771847D01*
X81393221Y-97771847D02*
X81440840Y-97724228D01*
X81440840Y-97724228D02*
X81536078Y-97676609D01*
X81536078Y-97676609D02*
X81726554Y-97676609D01*
X81726554Y-97676609D02*
X81821792Y-97628990D01*
X81821792Y-97628990D02*
X81869411Y-97581371D01*
X81869411Y-97581371D02*
X81917030Y-97486133D01*
X81917030Y-97486133D02*
X81917030Y-97295657D01*
X81917030Y-97295657D02*
X81869411Y-97200419D01*
X81869411Y-97200419D02*
X81821792Y-97152800D01*
X81821792Y-97152800D02*
X81726554Y-97105180D01*
X81726554Y-97105180D02*
X81536078Y-97105180D01*
X81536078Y-97105180D02*
X81440840Y-97152800D01*
X81440840Y-97152800D02*
X81393221Y-97200419D01*
X81393221Y-97200419D02*
X81345602Y-97295657D01*
X81345602Y-97295657D02*
X81345602Y-97486133D01*
X81345602Y-97486133D02*
X81393221Y-97581371D01*
X81393221Y-97581371D02*
X81440840Y-97628990D01*
X81440840Y-97628990D02*
X81536078Y-97676609D01*
X84869411Y-100597561D02*
X84964649Y-100645180D01*
X84964649Y-100645180D02*
X85107506Y-100645180D01*
X85107506Y-100645180D02*
X85250363Y-100597561D01*
X85250363Y-100597561D02*
X85345601Y-100502323D01*
X85345601Y-100502323D02*
X85393220Y-100407085D01*
X85393220Y-100407085D02*
X85440839Y-100216609D01*
X85440839Y-100216609D02*
X85440839Y-100073752D01*
X85440839Y-100073752D02*
X85393220Y-99883276D01*
X85393220Y-99883276D02*
X85345601Y-99788038D01*
X85345601Y-99788038D02*
X85250363Y-99692800D01*
X85250363Y-99692800D02*
X85107506Y-99645180D01*
X85107506Y-99645180D02*
X85012268Y-99645180D01*
X85012268Y-99645180D02*
X84869411Y-99692800D01*
X84869411Y-99692800D02*
X84821792Y-99740419D01*
X84821792Y-99740419D02*
X84821792Y-100073752D01*
X84821792Y-100073752D02*
X85012268Y-100073752D01*
X84393220Y-99645180D02*
X84393220Y-100645180D01*
X84393220Y-100645180D02*
X84012268Y-100645180D01*
X84012268Y-100645180D02*
X83917030Y-100597561D01*
X83917030Y-100597561D02*
X83869411Y-100549942D01*
X83869411Y-100549942D02*
X83821792Y-100454704D01*
X83821792Y-100454704D02*
X83821792Y-100311847D01*
X83821792Y-100311847D02*
X83869411Y-100216609D01*
X83869411Y-100216609D02*
X83917030Y-100168990D01*
X83917030Y-100168990D02*
X84012268Y-100121371D01*
X84012268Y-100121371D02*
X84393220Y-100121371D01*
X83393220Y-99645180D02*
X83393220Y-100645180D01*
X82726554Y-100645180D02*
X82536078Y-100645180D01*
X82536078Y-100645180D02*
X82440840Y-100597561D01*
X82440840Y-100597561D02*
X82345602Y-100502323D01*
X82345602Y-100502323D02*
X82297983Y-100311847D01*
X82297983Y-100311847D02*
X82297983Y-99978514D01*
X82297983Y-99978514D02*
X82345602Y-99788038D01*
X82345602Y-99788038D02*
X82440840Y-99692800D01*
X82440840Y-99692800D02*
X82536078Y-99645180D01*
X82536078Y-99645180D02*
X82726554Y-99645180D01*
X82726554Y-99645180D02*
X82821792Y-99692800D01*
X82821792Y-99692800D02*
X82917030Y-99788038D01*
X82917030Y-99788038D02*
X82964649Y-99978514D01*
X82964649Y-99978514D02*
X82964649Y-100311847D01*
X82964649Y-100311847D02*
X82917030Y-100502323D01*
X82917030Y-100502323D02*
X82821792Y-100597561D01*
X82821792Y-100597561D02*
X82726554Y-100645180D01*
X81345602Y-99645180D02*
X81917030Y-99645180D01*
X81631316Y-99645180D02*
X81631316Y-100645180D01*
X81631316Y-100645180D02*
X81726554Y-100502323D01*
X81726554Y-100502323D02*
X81821792Y-100407085D01*
X81821792Y-100407085D02*
X81917030Y-100359466D01*
X80774173Y-100216609D02*
X80869411Y-100264228D01*
X80869411Y-100264228D02*
X80917030Y-100311847D01*
X80917030Y-100311847D02*
X80964649Y-100407085D01*
X80964649Y-100407085D02*
X80964649Y-100454704D01*
X80964649Y-100454704D02*
X80917030Y-100549942D01*
X80917030Y-100549942D02*
X80869411Y-100597561D01*
X80869411Y-100597561D02*
X80774173Y-100645180D01*
X80774173Y-100645180D02*
X80583697Y-100645180D01*
X80583697Y-100645180D02*
X80488459Y-100597561D01*
X80488459Y-100597561D02*
X80440840Y-100549942D01*
X80440840Y-100549942D02*
X80393221Y-100454704D01*
X80393221Y-100454704D02*
X80393221Y-100407085D01*
X80393221Y-100407085D02*
X80440840Y-100311847D01*
X80440840Y-100311847D02*
X80488459Y-100264228D01*
X80488459Y-100264228D02*
X80583697Y-100216609D01*
X80583697Y-100216609D02*
X80774173Y-100216609D01*
X80774173Y-100216609D02*
X80869411Y-100168990D01*
X80869411Y-100168990D02*
X80917030Y-100121371D01*
X80917030Y-100121371D02*
X80964649Y-100026133D01*
X80964649Y-100026133D02*
X80964649Y-99835657D01*
X80964649Y-99835657D02*
X80917030Y-99740419D01*
X80917030Y-99740419D02*
X80869411Y-99692800D01*
X80869411Y-99692800D02*
X80774173Y-99645180D01*
X80774173Y-99645180D02*
X80583697Y-99645180D01*
X80583697Y-99645180D02*
X80488459Y-99692800D01*
X80488459Y-99692800D02*
X80440840Y-99740419D01*
X80440840Y-99740419D02*
X80393221Y-99835657D01*
X80393221Y-99835657D02*
X80393221Y-100026133D01*
X80393221Y-100026133D02*
X80440840Y-100121371D01*
X80440840Y-100121371D02*
X80488459Y-100168990D01*
X80488459Y-100168990D02*
X80583697Y-100216609D01*
X84869411Y-103137561D02*
X84964649Y-103185180D01*
X84964649Y-103185180D02*
X85107506Y-103185180D01*
X85107506Y-103185180D02*
X85250363Y-103137561D01*
X85250363Y-103137561D02*
X85345601Y-103042323D01*
X85345601Y-103042323D02*
X85393220Y-102947085D01*
X85393220Y-102947085D02*
X85440839Y-102756609D01*
X85440839Y-102756609D02*
X85440839Y-102613752D01*
X85440839Y-102613752D02*
X85393220Y-102423276D01*
X85393220Y-102423276D02*
X85345601Y-102328038D01*
X85345601Y-102328038D02*
X85250363Y-102232800D01*
X85250363Y-102232800D02*
X85107506Y-102185180D01*
X85107506Y-102185180D02*
X85012268Y-102185180D01*
X85012268Y-102185180D02*
X84869411Y-102232800D01*
X84869411Y-102232800D02*
X84821792Y-102280419D01*
X84821792Y-102280419D02*
X84821792Y-102613752D01*
X84821792Y-102613752D02*
X85012268Y-102613752D01*
X84393220Y-102185180D02*
X84393220Y-103185180D01*
X84393220Y-103185180D02*
X84012268Y-103185180D01*
X84012268Y-103185180D02*
X83917030Y-103137561D01*
X83917030Y-103137561D02*
X83869411Y-103089942D01*
X83869411Y-103089942D02*
X83821792Y-102994704D01*
X83821792Y-102994704D02*
X83821792Y-102851847D01*
X83821792Y-102851847D02*
X83869411Y-102756609D01*
X83869411Y-102756609D02*
X83917030Y-102708990D01*
X83917030Y-102708990D02*
X84012268Y-102661371D01*
X84012268Y-102661371D02*
X84393220Y-102661371D01*
X83393220Y-102185180D02*
X83393220Y-103185180D01*
X82726554Y-103185180D02*
X82536078Y-103185180D01*
X82536078Y-103185180D02*
X82440840Y-103137561D01*
X82440840Y-103137561D02*
X82345602Y-103042323D01*
X82345602Y-103042323D02*
X82297983Y-102851847D01*
X82297983Y-102851847D02*
X82297983Y-102518514D01*
X82297983Y-102518514D02*
X82345602Y-102328038D01*
X82345602Y-102328038D02*
X82440840Y-102232800D01*
X82440840Y-102232800D02*
X82536078Y-102185180D01*
X82536078Y-102185180D02*
X82726554Y-102185180D01*
X82726554Y-102185180D02*
X82821792Y-102232800D01*
X82821792Y-102232800D02*
X82917030Y-102328038D01*
X82917030Y-102328038D02*
X82964649Y-102518514D01*
X82964649Y-102518514D02*
X82964649Y-102851847D01*
X82964649Y-102851847D02*
X82917030Y-103042323D01*
X82917030Y-103042323D02*
X82821792Y-103137561D01*
X82821792Y-103137561D02*
X82726554Y-103185180D01*
X81345602Y-102185180D02*
X81917030Y-102185180D01*
X81631316Y-102185180D02*
X81631316Y-103185180D01*
X81631316Y-103185180D02*
X81726554Y-103042323D01*
X81726554Y-103042323D02*
X81821792Y-102947085D01*
X81821792Y-102947085D02*
X81917030Y-102899466D01*
X81012268Y-103185180D02*
X80345602Y-103185180D01*
X80345602Y-103185180D02*
X80774173Y-102185180D01*
X84869411Y-105677561D02*
X84964649Y-105725180D01*
X84964649Y-105725180D02*
X85107506Y-105725180D01*
X85107506Y-105725180D02*
X85250363Y-105677561D01*
X85250363Y-105677561D02*
X85345601Y-105582323D01*
X85345601Y-105582323D02*
X85393220Y-105487085D01*
X85393220Y-105487085D02*
X85440839Y-105296609D01*
X85440839Y-105296609D02*
X85440839Y-105153752D01*
X85440839Y-105153752D02*
X85393220Y-104963276D01*
X85393220Y-104963276D02*
X85345601Y-104868038D01*
X85345601Y-104868038D02*
X85250363Y-104772800D01*
X85250363Y-104772800D02*
X85107506Y-104725180D01*
X85107506Y-104725180D02*
X85012268Y-104725180D01*
X85012268Y-104725180D02*
X84869411Y-104772800D01*
X84869411Y-104772800D02*
X84821792Y-104820419D01*
X84821792Y-104820419D02*
X84821792Y-105153752D01*
X84821792Y-105153752D02*
X85012268Y-105153752D01*
X84393220Y-104725180D02*
X84393220Y-105725180D01*
X84393220Y-105725180D02*
X84012268Y-105725180D01*
X84012268Y-105725180D02*
X83917030Y-105677561D01*
X83917030Y-105677561D02*
X83869411Y-105629942D01*
X83869411Y-105629942D02*
X83821792Y-105534704D01*
X83821792Y-105534704D02*
X83821792Y-105391847D01*
X83821792Y-105391847D02*
X83869411Y-105296609D01*
X83869411Y-105296609D02*
X83917030Y-105248990D01*
X83917030Y-105248990D02*
X84012268Y-105201371D01*
X84012268Y-105201371D02*
X84393220Y-105201371D01*
X83393220Y-104725180D02*
X83393220Y-105725180D01*
X82726554Y-105725180D02*
X82536078Y-105725180D01*
X82536078Y-105725180D02*
X82440840Y-105677561D01*
X82440840Y-105677561D02*
X82345602Y-105582323D01*
X82345602Y-105582323D02*
X82297983Y-105391847D01*
X82297983Y-105391847D02*
X82297983Y-105058514D01*
X82297983Y-105058514D02*
X82345602Y-104868038D01*
X82345602Y-104868038D02*
X82440840Y-104772800D01*
X82440840Y-104772800D02*
X82536078Y-104725180D01*
X82536078Y-104725180D02*
X82726554Y-104725180D01*
X82726554Y-104725180D02*
X82821792Y-104772800D01*
X82821792Y-104772800D02*
X82917030Y-104868038D01*
X82917030Y-104868038D02*
X82964649Y-105058514D01*
X82964649Y-105058514D02*
X82964649Y-105391847D01*
X82964649Y-105391847D02*
X82917030Y-105582323D01*
X82917030Y-105582323D02*
X82821792Y-105677561D01*
X82821792Y-105677561D02*
X82726554Y-105725180D01*
X81345602Y-104725180D02*
X81917030Y-104725180D01*
X81631316Y-104725180D02*
X81631316Y-105725180D01*
X81631316Y-105725180D02*
X81726554Y-105582323D01*
X81726554Y-105582323D02*
X81821792Y-105487085D01*
X81821792Y-105487085D02*
X81917030Y-105439466D01*
X80488459Y-105725180D02*
X80678935Y-105725180D01*
X80678935Y-105725180D02*
X80774173Y-105677561D01*
X80774173Y-105677561D02*
X80821792Y-105629942D01*
X80821792Y-105629942D02*
X80917030Y-105487085D01*
X80917030Y-105487085D02*
X80964649Y-105296609D01*
X80964649Y-105296609D02*
X80964649Y-104915657D01*
X80964649Y-104915657D02*
X80917030Y-104820419D01*
X80917030Y-104820419D02*
X80869411Y-104772800D01*
X80869411Y-104772800D02*
X80774173Y-104725180D01*
X80774173Y-104725180D02*
X80583697Y-104725180D01*
X80583697Y-104725180D02*
X80488459Y-104772800D01*
X80488459Y-104772800D02*
X80440840Y-104820419D01*
X80440840Y-104820419D02*
X80393221Y-104915657D01*
X80393221Y-104915657D02*
X80393221Y-105153752D01*
X80393221Y-105153752D02*
X80440840Y-105248990D01*
X80440840Y-105248990D02*
X80488459Y-105296609D01*
X80488459Y-105296609D02*
X80583697Y-105344228D01*
X80583697Y-105344228D02*
X80774173Y-105344228D01*
X80774173Y-105344228D02*
X80869411Y-105296609D01*
X80869411Y-105296609D02*
X80917030Y-105248990D01*
X80917030Y-105248990D02*
X80964649Y-105153752D01*
X84869411Y-108217561D02*
X84964649Y-108265180D01*
X84964649Y-108265180D02*
X85107506Y-108265180D01*
X85107506Y-108265180D02*
X85250363Y-108217561D01*
X85250363Y-108217561D02*
X85345601Y-108122323D01*
X85345601Y-108122323D02*
X85393220Y-108027085D01*
X85393220Y-108027085D02*
X85440839Y-107836609D01*
X85440839Y-107836609D02*
X85440839Y-107693752D01*
X85440839Y-107693752D02*
X85393220Y-107503276D01*
X85393220Y-107503276D02*
X85345601Y-107408038D01*
X85345601Y-107408038D02*
X85250363Y-107312800D01*
X85250363Y-107312800D02*
X85107506Y-107265180D01*
X85107506Y-107265180D02*
X85012268Y-107265180D01*
X85012268Y-107265180D02*
X84869411Y-107312800D01*
X84869411Y-107312800D02*
X84821792Y-107360419D01*
X84821792Y-107360419D02*
X84821792Y-107693752D01*
X84821792Y-107693752D02*
X85012268Y-107693752D01*
X84393220Y-107265180D02*
X84393220Y-108265180D01*
X84393220Y-108265180D02*
X84012268Y-108265180D01*
X84012268Y-108265180D02*
X83917030Y-108217561D01*
X83917030Y-108217561D02*
X83869411Y-108169942D01*
X83869411Y-108169942D02*
X83821792Y-108074704D01*
X83821792Y-108074704D02*
X83821792Y-107931847D01*
X83821792Y-107931847D02*
X83869411Y-107836609D01*
X83869411Y-107836609D02*
X83917030Y-107788990D01*
X83917030Y-107788990D02*
X84012268Y-107741371D01*
X84012268Y-107741371D02*
X84393220Y-107741371D01*
X83393220Y-107265180D02*
X83393220Y-108265180D01*
X82726554Y-108265180D02*
X82536078Y-108265180D01*
X82536078Y-108265180D02*
X82440840Y-108217561D01*
X82440840Y-108217561D02*
X82345602Y-108122323D01*
X82345602Y-108122323D02*
X82297983Y-107931847D01*
X82297983Y-107931847D02*
X82297983Y-107598514D01*
X82297983Y-107598514D02*
X82345602Y-107408038D01*
X82345602Y-107408038D02*
X82440840Y-107312800D01*
X82440840Y-107312800D02*
X82536078Y-107265180D01*
X82536078Y-107265180D02*
X82726554Y-107265180D01*
X82726554Y-107265180D02*
X82821792Y-107312800D01*
X82821792Y-107312800D02*
X82917030Y-107408038D01*
X82917030Y-107408038D02*
X82964649Y-107598514D01*
X82964649Y-107598514D02*
X82964649Y-107931847D01*
X82964649Y-107931847D02*
X82917030Y-108122323D01*
X82917030Y-108122323D02*
X82821792Y-108217561D01*
X82821792Y-108217561D02*
X82726554Y-108265180D01*
X81345602Y-107265180D02*
X81917030Y-107265180D01*
X81631316Y-107265180D02*
X81631316Y-108265180D01*
X81631316Y-108265180D02*
X81726554Y-108122323D01*
X81726554Y-108122323D02*
X81821792Y-108027085D01*
X81821792Y-108027085D02*
X81917030Y-107979466D01*
X80440840Y-108265180D02*
X80917030Y-108265180D01*
X80917030Y-108265180D02*
X80964649Y-107788990D01*
X80964649Y-107788990D02*
X80917030Y-107836609D01*
X80917030Y-107836609D02*
X80821792Y-107884228D01*
X80821792Y-107884228D02*
X80583697Y-107884228D01*
X80583697Y-107884228D02*
X80488459Y-107836609D01*
X80488459Y-107836609D02*
X80440840Y-107788990D01*
X80440840Y-107788990D02*
X80393221Y-107693752D01*
X80393221Y-107693752D02*
X80393221Y-107455657D01*
X80393221Y-107455657D02*
X80440840Y-107360419D01*
X80440840Y-107360419D02*
X80488459Y-107312800D01*
X80488459Y-107312800D02*
X80583697Y-107265180D01*
X80583697Y-107265180D02*
X80821792Y-107265180D01*
X80821792Y-107265180D02*
X80917030Y-107312800D01*
X80917030Y-107312800D02*
X80964649Y-107360419D01*
X84869411Y-110757561D02*
X84964649Y-110805180D01*
X84964649Y-110805180D02*
X85107506Y-110805180D01*
X85107506Y-110805180D02*
X85250363Y-110757561D01*
X85250363Y-110757561D02*
X85345601Y-110662323D01*
X85345601Y-110662323D02*
X85393220Y-110567085D01*
X85393220Y-110567085D02*
X85440839Y-110376609D01*
X85440839Y-110376609D02*
X85440839Y-110233752D01*
X85440839Y-110233752D02*
X85393220Y-110043276D01*
X85393220Y-110043276D02*
X85345601Y-109948038D01*
X85345601Y-109948038D02*
X85250363Y-109852800D01*
X85250363Y-109852800D02*
X85107506Y-109805180D01*
X85107506Y-109805180D02*
X85012268Y-109805180D01*
X85012268Y-109805180D02*
X84869411Y-109852800D01*
X84869411Y-109852800D02*
X84821792Y-109900419D01*
X84821792Y-109900419D02*
X84821792Y-110233752D01*
X84821792Y-110233752D02*
X85012268Y-110233752D01*
X84393220Y-109805180D02*
X84393220Y-110805180D01*
X84393220Y-110805180D02*
X84012268Y-110805180D01*
X84012268Y-110805180D02*
X83917030Y-110757561D01*
X83917030Y-110757561D02*
X83869411Y-110709942D01*
X83869411Y-110709942D02*
X83821792Y-110614704D01*
X83821792Y-110614704D02*
X83821792Y-110471847D01*
X83821792Y-110471847D02*
X83869411Y-110376609D01*
X83869411Y-110376609D02*
X83917030Y-110328990D01*
X83917030Y-110328990D02*
X84012268Y-110281371D01*
X84012268Y-110281371D02*
X84393220Y-110281371D01*
X83393220Y-109805180D02*
X83393220Y-110805180D01*
X82726554Y-110805180D02*
X82536078Y-110805180D01*
X82536078Y-110805180D02*
X82440840Y-110757561D01*
X82440840Y-110757561D02*
X82345602Y-110662323D01*
X82345602Y-110662323D02*
X82297983Y-110471847D01*
X82297983Y-110471847D02*
X82297983Y-110138514D01*
X82297983Y-110138514D02*
X82345602Y-109948038D01*
X82345602Y-109948038D02*
X82440840Y-109852800D01*
X82440840Y-109852800D02*
X82536078Y-109805180D01*
X82536078Y-109805180D02*
X82726554Y-109805180D01*
X82726554Y-109805180D02*
X82821792Y-109852800D01*
X82821792Y-109852800D02*
X82917030Y-109948038D01*
X82917030Y-109948038D02*
X82964649Y-110138514D01*
X82964649Y-110138514D02*
X82964649Y-110471847D01*
X82964649Y-110471847D02*
X82917030Y-110662323D01*
X82917030Y-110662323D02*
X82821792Y-110757561D01*
X82821792Y-110757561D02*
X82726554Y-110805180D01*
X81964649Y-110805180D02*
X81297983Y-110805180D01*
X81297983Y-110805180D02*
X81726554Y-109805180D01*
X84869411Y-113297561D02*
X84964649Y-113345180D01*
X84964649Y-113345180D02*
X85107506Y-113345180D01*
X85107506Y-113345180D02*
X85250363Y-113297561D01*
X85250363Y-113297561D02*
X85345601Y-113202323D01*
X85345601Y-113202323D02*
X85393220Y-113107085D01*
X85393220Y-113107085D02*
X85440839Y-112916609D01*
X85440839Y-112916609D02*
X85440839Y-112773752D01*
X85440839Y-112773752D02*
X85393220Y-112583276D01*
X85393220Y-112583276D02*
X85345601Y-112488038D01*
X85345601Y-112488038D02*
X85250363Y-112392800D01*
X85250363Y-112392800D02*
X85107506Y-112345180D01*
X85107506Y-112345180D02*
X85012268Y-112345180D01*
X85012268Y-112345180D02*
X84869411Y-112392800D01*
X84869411Y-112392800D02*
X84821792Y-112440419D01*
X84821792Y-112440419D02*
X84821792Y-112773752D01*
X84821792Y-112773752D02*
X85012268Y-112773752D01*
X84393220Y-112345180D02*
X84393220Y-113345180D01*
X84393220Y-113345180D02*
X84012268Y-113345180D01*
X84012268Y-113345180D02*
X83917030Y-113297561D01*
X83917030Y-113297561D02*
X83869411Y-113249942D01*
X83869411Y-113249942D02*
X83821792Y-113154704D01*
X83821792Y-113154704D02*
X83821792Y-113011847D01*
X83821792Y-113011847D02*
X83869411Y-112916609D01*
X83869411Y-112916609D02*
X83917030Y-112868990D01*
X83917030Y-112868990D02*
X84012268Y-112821371D01*
X84012268Y-112821371D02*
X84393220Y-112821371D01*
X83393220Y-112345180D02*
X83393220Y-113345180D01*
X82726554Y-113345180D02*
X82536078Y-113345180D01*
X82536078Y-113345180D02*
X82440840Y-113297561D01*
X82440840Y-113297561D02*
X82345602Y-113202323D01*
X82345602Y-113202323D02*
X82297983Y-113011847D01*
X82297983Y-113011847D02*
X82297983Y-112678514D01*
X82297983Y-112678514D02*
X82345602Y-112488038D01*
X82345602Y-112488038D02*
X82440840Y-112392800D01*
X82440840Y-112392800D02*
X82536078Y-112345180D01*
X82536078Y-112345180D02*
X82726554Y-112345180D01*
X82726554Y-112345180D02*
X82821792Y-112392800D01*
X82821792Y-112392800D02*
X82917030Y-112488038D01*
X82917030Y-112488038D02*
X82964649Y-112678514D01*
X82964649Y-112678514D02*
X82964649Y-113011847D01*
X82964649Y-113011847D02*
X82917030Y-113202323D01*
X82917030Y-113202323D02*
X82821792Y-113297561D01*
X82821792Y-113297561D02*
X82726554Y-113345180D01*
X81440840Y-113345180D02*
X81631316Y-113345180D01*
X81631316Y-113345180D02*
X81726554Y-113297561D01*
X81726554Y-113297561D02*
X81774173Y-113249942D01*
X81774173Y-113249942D02*
X81869411Y-113107085D01*
X81869411Y-113107085D02*
X81917030Y-112916609D01*
X81917030Y-112916609D02*
X81917030Y-112535657D01*
X81917030Y-112535657D02*
X81869411Y-112440419D01*
X81869411Y-112440419D02*
X81821792Y-112392800D01*
X81821792Y-112392800D02*
X81726554Y-112345180D01*
X81726554Y-112345180D02*
X81536078Y-112345180D01*
X81536078Y-112345180D02*
X81440840Y-112392800D01*
X81440840Y-112392800D02*
X81393221Y-112440419D01*
X81393221Y-112440419D02*
X81345602Y-112535657D01*
X81345602Y-112535657D02*
X81345602Y-112773752D01*
X81345602Y-112773752D02*
X81393221Y-112868990D01*
X81393221Y-112868990D02*
X81440840Y-112916609D01*
X81440840Y-112916609D02*
X81536078Y-112964228D01*
X81536078Y-112964228D02*
X81726554Y-112964228D01*
X81726554Y-112964228D02*
X81821792Y-112916609D01*
X81821792Y-112916609D02*
X81869411Y-112868990D01*
X81869411Y-112868990D02*
X81917030Y-112773752D01*
X84869411Y-115837561D02*
X84964649Y-115885180D01*
X84964649Y-115885180D02*
X85107506Y-115885180D01*
X85107506Y-115885180D02*
X85250363Y-115837561D01*
X85250363Y-115837561D02*
X85345601Y-115742323D01*
X85345601Y-115742323D02*
X85393220Y-115647085D01*
X85393220Y-115647085D02*
X85440839Y-115456609D01*
X85440839Y-115456609D02*
X85440839Y-115313752D01*
X85440839Y-115313752D02*
X85393220Y-115123276D01*
X85393220Y-115123276D02*
X85345601Y-115028038D01*
X85345601Y-115028038D02*
X85250363Y-114932800D01*
X85250363Y-114932800D02*
X85107506Y-114885180D01*
X85107506Y-114885180D02*
X85012268Y-114885180D01*
X85012268Y-114885180D02*
X84869411Y-114932800D01*
X84869411Y-114932800D02*
X84821792Y-114980419D01*
X84821792Y-114980419D02*
X84821792Y-115313752D01*
X84821792Y-115313752D02*
X85012268Y-115313752D01*
X84393220Y-114885180D02*
X84393220Y-115885180D01*
X84393220Y-115885180D02*
X84012268Y-115885180D01*
X84012268Y-115885180D02*
X83917030Y-115837561D01*
X83917030Y-115837561D02*
X83869411Y-115789942D01*
X83869411Y-115789942D02*
X83821792Y-115694704D01*
X83821792Y-115694704D02*
X83821792Y-115551847D01*
X83821792Y-115551847D02*
X83869411Y-115456609D01*
X83869411Y-115456609D02*
X83917030Y-115408990D01*
X83917030Y-115408990D02*
X84012268Y-115361371D01*
X84012268Y-115361371D02*
X84393220Y-115361371D01*
X83393220Y-114885180D02*
X83393220Y-115885180D01*
X82726554Y-115885180D02*
X82536078Y-115885180D01*
X82536078Y-115885180D02*
X82440840Y-115837561D01*
X82440840Y-115837561D02*
X82345602Y-115742323D01*
X82345602Y-115742323D02*
X82297983Y-115551847D01*
X82297983Y-115551847D02*
X82297983Y-115218514D01*
X82297983Y-115218514D02*
X82345602Y-115028038D01*
X82345602Y-115028038D02*
X82440840Y-114932800D01*
X82440840Y-114932800D02*
X82536078Y-114885180D01*
X82536078Y-114885180D02*
X82726554Y-114885180D01*
X82726554Y-114885180D02*
X82821792Y-114932800D01*
X82821792Y-114932800D02*
X82917030Y-115028038D01*
X82917030Y-115028038D02*
X82964649Y-115218514D01*
X82964649Y-115218514D02*
X82964649Y-115551847D01*
X82964649Y-115551847D02*
X82917030Y-115742323D01*
X82917030Y-115742323D02*
X82821792Y-115837561D01*
X82821792Y-115837561D02*
X82726554Y-115885180D01*
X81393221Y-115885180D02*
X81869411Y-115885180D01*
X81869411Y-115885180D02*
X81917030Y-115408990D01*
X81917030Y-115408990D02*
X81869411Y-115456609D01*
X81869411Y-115456609D02*
X81774173Y-115504228D01*
X81774173Y-115504228D02*
X81536078Y-115504228D01*
X81536078Y-115504228D02*
X81440840Y-115456609D01*
X81440840Y-115456609D02*
X81393221Y-115408990D01*
X81393221Y-115408990D02*
X81345602Y-115313752D01*
X81345602Y-115313752D02*
X81345602Y-115075657D01*
X81345602Y-115075657D02*
X81393221Y-114980419D01*
X81393221Y-114980419D02*
X81440840Y-114932800D01*
X81440840Y-114932800D02*
X81536078Y-114885180D01*
X81536078Y-114885180D02*
X81774173Y-114885180D01*
X81774173Y-114885180D02*
X81869411Y-114932800D01*
X81869411Y-114932800D02*
X81917030Y-114980419D01*
X84869411Y-118377561D02*
X84964649Y-118425180D01*
X84964649Y-118425180D02*
X85107506Y-118425180D01*
X85107506Y-118425180D02*
X85250363Y-118377561D01*
X85250363Y-118377561D02*
X85345601Y-118282323D01*
X85345601Y-118282323D02*
X85393220Y-118187085D01*
X85393220Y-118187085D02*
X85440839Y-117996609D01*
X85440839Y-117996609D02*
X85440839Y-117853752D01*
X85440839Y-117853752D02*
X85393220Y-117663276D01*
X85393220Y-117663276D02*
X85345601Y-117568038D01*
X85345601Y-117568038D02*
X85250363Y-117472800D01*
X85250363Y-117472800D02*
X85107506Y-117425180D01*
X85107506Y-117425180D02*
X85012268Y-117425180D01*
X85012268Y-117425180D02*
X84869411Y-117472800D01*
X84869411Y-117472800D02*
X84821792Y-117520419D01*
X84821792Y-117520419D02*
X84821792Y-117853752D01*
X84821792Y-117853752D02*
X85012268Y-117853752D01*
X84393220Y-117425180D02*
X84393220Y-118425180D01*
X84393220Y-118425180D02*
X84012268Y-118425180D01*
X84012268Y-118425180D02*
X83917030Y-118377561D01*
X83917030Y-118377561D02*
X83869411Y-118329942D01*
X83869411Y-118329942D02*
X83821792Y-118234704D01*
X83821792Y-118234704D02*
X83821792Y-118091847D01*
X83821792Y-118091847D02*
X83869411Y-117996609D01*
X83869411Y-117996609D02*
X83917030Y-117948990D01*
X83917030Y-117948990D02*
X84012268Y-117901371D01*
X84012268Y-117901371D02*
X84393220Y-117901371D01*
X83393220Y-117425180D02*
X83393220Y-118425180D01*
X82726554Y-118425180D02*
X82536078Y-118425180D01*
X82536078Y-118425180D02*
X82440840Y-118377561D01*
X82440840Y-118377561D02*
X82345602Y-118282323D01*
X82345602Y-118282323D02*
X82297983Y-118091847D01*
X82297983Y-118091847D02*
X82297983Y-117758514D01*
X82297983Y-117758514D02*
X82345602Y-117568038D01*
X82345602Y-117568038D02*
X82440840Y-117472800D01*
X82440840Y-117472800D02*
X82536078Y-117425180D01*
X82536078Y-117425180D02*
X82726554Y-117425180D01*
X82726554Y-117425180D02*
X82821792Y-117472800D01*
X82821792Y-117472800D02*
X82917030Y-117568038D01*
X82917030Y-117568038D02*
X82964649Y-117758514D01*
X82964649Y-117758514D02*
X82964649Y-118091847D01*
X82964649Y-118091847D02*
X82917030Y-118282323D01*
X82917030Y-118282323D02*
X82821792Y-118377561D01*
X82821792Y-118377561D02*
X82726554Y-118425180D01*
X81440840Y-118091847D02*
X81440840Y-117425180D01*
X81678935Y-118472800D02*
X81917030Y-117758514D01*
X81917030Y-117758514D02*
X81297983Y-117758514D01*
X85488458Y-123505180D02*
X84869411Y-123505180D01*
X84869411Y-123505180D02*
X85202744Y-123124228D01*
X85202744Y-123124228D02*
X85059887Y-123124228D01*
X85059887Y-123124228D02*
X84964649Y-123076609D01*
X84964649Y-123076609D02*
X84917030Y-123028990D01*
X84917030Y-123028990D02*
X84869411Y-122933752D01*
X84869411Y-122933752D02*
X84869411Y-122695657D01*
X84869411Y-122695657D02*
X84917030Y-122600419D01*
X84917030Y-122600419D02*
X84964649Y-122552800D01*
X84964649Y-122552800D02*
X85059887Y-122505180D01*
X85059887Y-122505180D02*
X85345601Y-122505180D01*
X85345601Y-122505180D02*
X85440839Y-122552800D01*
X85440839Y-122552800D02*
X85488458Y-122600419D01*
X84583696Y-123505180D02*
X84250363Y-122505180D01*
X84250363Y-122505180D02*
X83917030Y-123505180D01*
X83678934Y-123505180D02*
X83059887Y-123505180D01*
X83059887Y-123505180D02*
X83393220Y-123124228D01*
X83393220Y-123124228D02*
X83250363Y-123124228D01*
X83250363Y-123124228D02*
X83155125Y-123076609D01*
X83155125Y-123076609D02*
X83107506Y-123028990D01*
X83107506Y-123028990D02*
X83059887Y-122933752D01*
X83059887Y-122933752D02*
X83059887Y-122695657D01*
X83059887Y-122695657D02*
X83107506Y-122600419D01*
X83107506Y-122600419D02*
X83155125Y-122552800D01*
X83155125Y-122552800D02*
X83250363Y-122505180D01*
X83250363Y-122505180D02*
X83536077Y-122505180D01*
X83536077Y-122505180D02*
X83631315Y-122552800D01*
X83631315Y-122552800D02*
X83678934Y-122600419D01*
X85488458Y-126045180D02*
X84869411Y-126045180D01*
X84869411Y-126045180D02*
X85202744Y-125664228D01*
X85202744Y-125664228D02*
X85059887Y-125664228D01*
X85059887Y-125664228D02*
X84964649Y-125616609D01*
X84964649Y-125616609D02*
X84917030Y-125568990D01*
X84917030Y-125568990D02*
X84869411Y-125473752D01*
X84869411Y-125473752D02*
X84869411Y-125235657D01*
X84869411Y-125235657D02*
X84917030Y-125140419D01*
X84917030Y-125140419D02*
X84964649Y-125092800D01*
X84964649Y-125092800D02*
X85059887Y-125045180D01*
X85059887Y-125045180D02*
X85345601Y-125045180D01*
X85345601Y-125045180D02*
X85440839Y-125092800D01*
X85440839Y-125092800D02*
X85488458Y-125140419D01*
X84583696Y-126045180D02*
X84250363Y-125045180D01*
X84250363Y-125045180D02*
X83917030Y-126045180D01*
X83678934Y-126045180D02*
X83059887Y-126045180D01*
X83059887Y-126045180D02*
X83393220Y-125664228D01*
X83393220Y-125664228D02*
X83250363Y-125664228D01*
X83250363Y-125664228D02*
X83155125Y-125616609D01*
X83155125Y-125616609D02*
X83107506Y-125568990D01*
X83107506Y-125568990D02*
X83059887Y-125473752D01*
X83059887Y-125473752D02*
X83059887Y-125235657D01*
X83059887Y-125235657D02*
X83107506Y-125140419D01*
X83107506Y-125140419D02*
X83155125Y-125092800D01*
X83155125Y-125092800D02*
X83250363Y-125045180D01*
X83250363Y-125045180D02*
X83536077Y-125045180D01*
X83536077Y-125045180D02*
X83631315Y-125092800D01*
X83631315Y-125092800D02*
X83678934Y-125140419D01*
%TO.C,SW1*%
D11*
X489700000Y-74400000D02*
X490300000Y-74400000D01*
X490000000Y-74700000D02*
X489700000Y-74400000D01*
X490300000Y-74400000D02*
X490000000Y-74700000D01*
X491400000Y-72600000D02*
X491400000Y-84400000D01*
X495500000Y-72600000D02*
X491400000Y-72600000D01*
X495500000Y-84400000D02*
X491400000Y-84400000D01*
X497000000Y-78500000D02*
X498000000Y-78500000D01*
X497500000Y-78000000D02*
X497500000Y-79000000D01*
X499500000Y-72600000D02*
X503600000Y-72600000D01*
X503600000Y-72600000D02*
X503600000Y-75000000D01*
X503600000Y-77200000D02*
X503600000Y-79800000D01*
X503600000Y-82000000D02*
X503600000Y-84400000D01*
X503600000Y-84400000D02*
X499500000Y-84400000D01*
X500500000Y-78500000D02*
G75*
G02*
X494500000Y-78500000I-3000000J0D01*
G01*
X494500000Y-78500000D02*
G75*
G02*
X500500000Y-78500000I3000000J0D01*
G01*
%TO.C,U1*%
X62640000Y-126600000D02*
X88499999Y-126600000D01*
X62640001Y-62702720D02*
X62640000Y-126600000D01*
X66556680Y-132513120D02*
X66556680Y-126620320D01*
X84539880Y-126620320D02*
X84539880Y-132513120D01*
X84539880Y-132513120D02*
X66556680Y-132513120D01*
X88499999Y-126600000D02*
X88500000Y-62702720D01*
X88500000Y-62702720D02*
X62640001Y-62702720D01*
%TD*%
M02*
