%TF.GenerationSoftware,KiCad,Pcbnew,10.0.4*%
%TF.CreationDate,2026-09-14T17:50:23-07:00*%
%TF.ProjectId,keeboard,6b656562-6f61-4726-942e-6b696361645f,rev?*%
%TF.SameCoordinates,Original*%
%TF.FileFunction,Copper,L2,Bot*%
%TF.FilePolarity,Positive*%
%FSLAX46Y46*%
G04 Gerber Fmt 4.6, Leading zero omitted, Abs format (unit mm)*
G04 Created by KiCad (PCBNEW 10.0.4) date 2026-09-14 17:50:23*
%MOMM*%
%LPD*%
G01*
G04 APERTURE LIST*
G04 Aperture macros list*
%AMRoundRect*
0 Rectangle with rounded corners*
0 $1 Rounding radius*
0 $2 $3 $4 $5 $6 $7 $8 $9 X,Y pos of 4 corners*
0 Add a 4 corners polygon primitive as box body*
4,1,4,$2,$3,$4,$5,$6,$7,$8,$9,$2,$3,0*
0 Add four circle primitives for the rounded corners*
1,1,$1+$1,$2,$3*
1,1,$1+$1,$4,$5*
1,1,$1+$1,$6,$7*
1,1,$1+$1,$8,$9*
0 Add four rect primitives between the rounded corners*
20,1,$1+$1,$2,$3,$4,$5,0*
20,1,$1+$1,$4,$5,$6,$7,0*
20,1,$1+$1,$6,$7,$8,$9,0*
20,1,$1+$1,$8,$9,$2,$3,0*%
G04 Aperture macros list end*
%TA.AperFunction,ComponentPad*%
%ADD10R,2.000000X2.000000*%
%TD*%
%TA.AperFunction,ComponentPad*%
%ADD11C,2.000000*%
%TD*%
%TA.AperFunction,ComponentPad*%
%ADD12R,3.200000X2.000000*%
%TD*%
%TA.AperFunction,ComponentPad*%
%ADD13R,2.000000X1.200000*%
%TD*%
%TA.AperFunction,ComponentPad*%
%ADD14O,2.000000X1.200000*%
%TD*%
%TA.AperFunction,SMDPad,CuDef*%
%ADD15RoundRect,0.225000X0.375000X-0.225000X0.375000X0.225000X-0.375000X0.225000X-0.375000X-0.225000X0*%
%TD*%
%TA.AperFunction,ComponentPad*%
%ADD16C,3.300000*%
%TD*%
%TA.AperFunction,SMDPad,CuDef*%
%ADD17R,1.650000X2.500000*%
%TD*%
%TA.AperFunction,SMDPad,CuDef*%
%ADD18RoundRect,0.250000X1.025000X1.000000X-1.025000X1.000000X-1.025000X-1.000000X1.025000X-1.000000X0*%
%TD*%
%TA.AperFunction,Conductor*%
%ADD19C,0.200000*%
%TD*%
G04 APERTURE END LIST*
D10*
%TO.P,SW1,A,A_A*%
%TO.N,Net-(U1-GPIO40{slash}MTDO)*%
X490000000Y-76000000D03*
D11*
%TO.P,SW1,B,B_B*%
%TO.N,Net-(U1-GPIO41{slash}MTDI)*%
X490000000Y-81000000D03*
%TO.P,SW1,C,C_C*%
%TO.N,GND*%
X490000000Y-78500000D03*
D12*
%TO.P,SW1,MP*%
%TO.N,N/C*%
X497500000Y-72900000D03*
X497500000Y-84100000D03*
D11*
%TO.P,SW1,S1,S1_S1*%
%TO.N,Net-(U1-GPIO42{slash}MTMS)*%
X504500000Y-81000000D03*
%TO.P,SW1,S2,S2_S2*%
%TO.N,GND*%
X504500000Y-76000000D03*
%TD*%
D13*
%TO.P,U1,1,3V3_1*%
%TO.N,/unconnected-(U1-3V3-Pad1)_1*%
X87000000Y-125500000D03*
D14*
%TO.P,U1,2,3V3_2*%
%TO.N,/unconnected-(U1-3V3-Pad1)_1_1*%
X87000000Y-122960000D03*
%TO.P,U1,3,CHIP_PU_3*%
%TO.N,unconnected-(U1-CHIP_PU-Pad3)*%
X87000000Y-120420000D03*
%TO.P,U1,4,GPIO4/ADC1_CH3_4*%
%TO.N,/ROW4*%
X87000000Y-117880000D03*
%TO.P,U1,5,GPIO5/ADC1_CH4_5*%
%TO.N,/ROW5*%
X87000000Y-115340000D03*
%TO.P,U1,6,GPIO6/ADC1_CH5_6*%
%TO.N,/COL0*%
X87000000Y-112800000D03*
%TO.P,U1,7,GPIO7/ADC1_CH6_7*%
%TO.N,/COL1*%
X87000000Y-110260000D03*
%TO.P,U1,8,GPIO15/ADC2_CH4/32K_P_8*%
%TO.N,unconnected-(U1-GPIO15{slash}ADC2_CH4{slash}32K_P-Pad8)*%
X87000000Y-107720000D03*
%TO.P,U1,9,GPIO16/ADC2_CH5/32K_N_9*%
%TO.N,unconnected-(U1-GPIO16{slash}ADC2_CH5{slash}32K_N-Pad9)*%
X87000000Y-105180000D03*
%TO.P,U1,10,GPIO17/ADC2_CH6_10*%
%TO.N,/COL9*%
X87000000Y-102640000D03*
%TO.P,U1,11,GPIO18/ADC2_CH7_11*%
%TO.N,/COL10*%
X87000000Y-100100000D03*
%TO.P,U1,12,GPIO8/ADC1_CH7_12*%
%TO.N,/COL2*%
X87000000Y-97560000D03*
%TO.P,U1,13,GPIO3/ADC1_CH2_13*%
%TO.N,/ROW3*%
X87000000Y-95020000D03*
%TO.P,U1,14,GPIO46_14*%
%TO.N,/COL17*%
X87000000Y-92480000D03*
%TO.P,U1,15,GPIO9/ADC1_CH8_15*%
%TO.N,/COL3*%
X87000000Y-89940000D03*
%TO.P,U1,16,GPIO10/ADC1_CH9_16*%
%TO.N,/COL4*%
X87000000Y-87400000D03*
%TO.P,U1,17,GPIO11/ADC2_CH0_17*%
%TO.N,/COL5*%
X87000000Y-84860000D03*
%TO.P,U1,18,GPIO12/ADC2_CH1_18*%
%TO.N,/COL6*%
X87000000Y-82320000D03*
%TO.P,U1,19,GPIO13/ADC2_CH2_19*%
%TO.N,/COL7*%
X87000000Y-79780000D03*
%TO.P,U1,20,GPIO14/ADC2_CH3_20*%
%TO.N,/COL8*%
X87003680Y-77242720D03*
%TO.P,U1,21,5V_21*%
%TO.N,unconnected-(U1-5V-Pad21)*%
X87003680Y-74702720D03*
%TO.P,U1,22,GND_22*%
%TO.N,GND*%
X87003680Y-72162720D03*
%TO.P,U1,23,GND_23*%
X64140000Y-72160000D03*
%TO.P,U1,24,GND_24*%
X64140000Y-74700000D03*
%TO.P,U1,25,GPIO19/USB_D-_25*%
%TO.N,unconnected-(U1-GPIO19{slash}USB_D--Pad25)*%
X64140000Y-77240000D03*
%TO.P,U1,26,GPIO20/USB_D+_26*%
%TO.N,unconnected-(U1-GPIO20{slash}USB_D+-Pad26)*%
X64140000Y-79780000D03*
%TO.P,U1,27,GPIO21_27*%
%TO.N,/COL11*%
X64140000Y-82320000D03*
%TO.P,U1,28,GPIO47_28*%
%TO.N,/COL18*%
X64140000Y-84860000D03*
%TO.P,U1,29,GPIO48_29*%
%TO.N,/COL19*%
X64140000Y-87400000D03*
%TO.P,U1,30,GPIO45_30*%
%TO.N,/COL16*%
X64140000Y-89940000D03*
%TO.P,U1,31,GPIO0_31*%
%TO.N,/ROW0*%
X64140000Y-92480000D03*
%TO.P,U1,32,GPIO35_32*%
%TO.N,/COL12*%
X64140000Y-95020000D03*
%TO.P,U1,33,GPIO36_33*%
%TO.N,/COL13*%
X64140000Y-97560000D03*
%TO.P,U1,34,GPIO37_34*%
%TO.N,/COL14*%
X64140000Y-100100000D03*
%TO.P,U1,35,GPIO38_35*%
%TO.N,/COL15*%
X64140000Y-102640000D03*
%TO.P,U1,36,GPIO39/MTCK_36*%
%TO.N,/COL20*%
X64140000Y-105180000D03*
%TO.P,U1,37,GPIO40/MTDO_37*%
%TO.N,Net-(U1-GPIO40{slash}MTDO)*%
X64140000Y-107720000D03*
%TO.P,U1,38,GPIO41/MTDI_38*%
%TO.N,Net-(U1-GPIO41{slash}MTDI)*%
X64140000Y-110260000D03*
%TO.P,U1,39,GPIO42/MTMS_39*%
%TO.N,Net-(U1-GPIO42{slash}MTMS)*%
X64140000Y-112800000D03*
%TO.P,U1,40,GPIO2/ADC1_CH1_40*%
%TO.N,/ROW2*%
X64140000Y-115340000D03*
%TO.P,U1,41,GPIO1/ADC1_CH0_41*%
%TO.N,/ROW1*%
X64140000Y-117880000D03*
%TO.P,U1,42,GPIO44/U0RXD_42*%
%TO.N,unconnected-(U1-GPIO44{slash}U0RXD-Pad42)*%
X64140000Y-120420000D03*
%TO.P,U1,43,GPIO43/U0TXD_43*%
%TO.N,unconnected-(U1-GPIO43{slash}U0TXD-Pad43)*%
X64140000Y-122960000D03*
%TO.P,U1,44,GND_44*%
%TO.N,GND*%
X64140000Y-125500000D03*
%TD*%
D15*
%TO.P,D7,1,K_1*%
%TO.N,N/C*%
X274289776Y-85666260D03*
%TO.P,D7,2,A_2*%
X274289776Y-82366260D03*
%TD*%
D16*
%TO.P,SW30,1,1_1*%
%TO.N,/COL12*%
X360323750Y-104840000D03*
D17*
X358498750Y-104840000D03*
D18*
X356773750Y-104840000D03*
%TO.P,SW30,2,2_2*%
%TO.N,Net-(D29-A)*%
X370223750Y-102300000D03*
D17*
X368473750Y-102300000D03*
D16*
X366673750Y-102300000D03*
%TD*%
%TO.P,SW57,1,1_1*%
%TO.N,/COL18*%
X493673750Y-123890000D03*
D17*
X491848750Y-123890000D03*
D18*
X490123750Y-123890000D03*
%TO.P,SW57,2,2_2*%
%TO.N,Net-(D56-A)*%
X503573750Y-121350000D03*
D17*
X501823750Y-121350000D03*
D16*
X500023750Y-121350000D03*
%TD*%
D15*
%TO.P,D33,1,K_1*%
%TO.N,N/C*%
X464789776Y-114241260D03*
%TO.P,D33,2,A_2*%
X464789776Y-110941260D03*
%TD*%
D16*
%TO.P,SW4,1,1_1*%
%TO.N,/COL3*%
X179348750Y-76265000D03*
D17*
X177523750Y-76265000D03*
D18*
X175798750Y-76265000D03*
%TO.P,SW4,2,2_2*%
%TO.N,Net-(D3-A)*%
X189248750Y-73725000D03*
D17*
X187498750Y-73725000D03*
D16*
X185698750Y-73725000D03*
%TD*%
%TO.P,SW102,1,1_1*%
%TO.N,/COL15*%
X412711250Y-181040000D03*
D17*
X410886250Y-181040000D03*
D18*
X409161250Y-181040000D03*
%TO.P,SW102,2,2_2*%
%TO.N,Net-(D101-A)*%
X422611250Y-178500000D03*
D17*
X420861250Y-178500000D03*
D16*
X419061250Y-178500000D03*
%TD*%
D15*
%TO.P,D79,1,K_1*%
%TO.N,N/C*%
X212377276Y-171391260D03*
%TO.P,D79,2,A_2*%
X212377276Y-168091260D03*
%TD*%
D16*
%TO.P,SW29,1,1_1*%
%TO.N,/COL11*%
X331748750Y-104840000D03*
D17*
X329923750Y-104840000D03*
D18*
X328198750Y-104840000D03*
%TO.P,SW29,2,2_2*%
%TO.N,Net-(D28-A)*%
X341648750Y-102300000D03*
D17*
X339898750Y-102300000D03*
D16*
X338098750Y-102300000D03*
%TD*%
%TO.P,SW53,1,1_1*%
%TO.N,/COL14*%
X412711250Y-123890000D03*
D17*
X410886250Y-123890000D03*
D18*
X409161250Y-123890000D03*
%TO.P,SW53,2,2_2*%
%TO.N,Net-(D52-A)*%
X422611250Y-121350000D03*
D17*
X420861250Y-121350000D03*
D16*
X419061250Y-121350000D03*
%TD*%
%TO.P,SW73,1,1_1*%
%TO.N,/COL17*%
X474623750Y-142940000D03*
D17*
X472798750Y-142940000D03*
D18*
X471073750Y-142940000D03*
%TO.P,SW73,2,2_2*%
%TO.N,Net-(D72-A)*%
X484523750Y-140400000D03*
D17*
X482773750Y-140400000D03*
D16*
X480973750Y-140400000D03*
%TD*%
%TO.P,SW34,1,1_1*%
%TO.N,/COL16*%
X455573750Y-104840000D03*
D17*
X453748750Y-104840000D03*
D18*
X452023750Y-104840000D03*
%TO.P,SW34,2,2_2*%
%TO.N,Net-(D33-A)*%
X465473750Y-102300000D03*
D17*
X463723750Y-102300000D03*
D16*
X461923750Y-102300000D03*
%TD*%
%TO.P,SW15,1,1_1*%
%TO.N,/COL14*%
X412711250Y-76265000D03*
D17*
X410886250Y-76265000D03*
D18*
X409161250Y-76265000D03*
%TO.P,SW15,2,2_2*%
%TO.N,Net-(D14-A)*%
X422611250Y-73725000D03*
D17*
X420861250Y-73725000D03*
D16*
X419061250Y-73725000D03*
%TD*%
%TO.P,SW84,1,1_1*%
%TO.N,/COL9*%
X279361250Y-161990000D03*
D17*
X277536250Y-161990000D03*
D18*
X275811250Y-161990000D03*
%TO.P,SW84,2,2_2*%
%TO.N,Net-(D83-A)*%
X289261250Y-159450000D03*
D17*
X287511250Y-159450000D03*
D16*
X285711250Y-159450000D03*
%TD*%
D15*
%TO.P,D26,1,K_1*%
%TO.N,N/C*%
X302864776Y-114241260D03*
%TO.P,D26,2,A_2*%
X302864776Y-110941260D03*
%TD*%
%TO.P,D49,1,K_1*%
%TO.N,N/C*%
X350489776Y-133291260D03*
%TO.P,D49,2,A_2*%
X350489776Y-129991260D03*
%TD*%
%TO.P,D12,1,K_1*%
%TO.N,N/C*%
X379064776Y-85666260D03*
%TO.P,D12,2,A_2*%
X379064776Y-82366260D03*
%TD*%
%TO.P,D71,1,K_1*%
%TO.N,N/C*%
X464789776Y-152341260D03*
%TO.P,D71,2,A_2*%
X464789776Y-149041260D03*
%TD*%
D16*
%TO.P,SW74,1,1_1*%
%TO.N,/COL18*%
X493673750Y-142940000D03*
D17*
X491848750Y-142940000D03*
D18*
X490123750Y-142940000D03*
%TO.P,SW74,2,2_2*%
%TO.N,Net-(D73-A)*%
X503573750Y-140400000D03*
D17*
X501823750Y-140400000D03*
D16*
X500023750Y-140400000D03*
%TD*%
D15*
%TO.P,D54,1,K_1*%
%TO.N,N/C*%
X464789776Y-133291260D03*
%TO.P,D54,2,A_2*%
X464789776Y-129991260D03*
%TD*%
D16*
%TO.P,SW101,1,1_1*%
%TO.N,/COL14*%
X393661250Y-181040000D03*
D17*
X391836250Y-181040000D03*
D18*
X390111250Y-181040000D03*
%TO.P,SW101,2,2_2*%
%TO.N,Net-(D100-A)*%
X403561250Y-178500000D03*
D17*
X401811250Y-178500000D03*
D16*
X400011250Y-178500000D03*
%TD*%
%TO.P,SW51,1,1_1*%
%TO.N,/COL12*%
X365086250Y-123890000D03*
D17*
X363261250Y-123890000D03*
D18*
X361536250Y-123890000D03*
%TO.P,SW51,2,2_2*%
%TO.N,Net-(D50-A)*%
X374986250Y-121350000D03*
D17*
X373236250Y-121350000D03*
D16*
X371436250Y-121350000D03*
%TD*%
%TO.P,SW19,1,1_1*%
%TO.N,/COL1*%
X141248750Y-104840000D03*
D17*
X139423750Y-104840000D03*
D18*
X137698750Y-104840000D03*
%TO.P,SW19,2,2_2*%
%TO.N,Net-(D18-A)*%
X151148750Y-102300000D03*
D17*
X149398750Y-102300000D03*
D16*
X147598750Y-102300000D03*
%TD*%
%TO.P,SW5,1,1_1*%
%TO.N,/COL4*%
X198398750Y-76265000D03*
D17*
X196573750Y-76265000D03*
D18*
X194848750Y-76265000D03*
%TO.P,SW5,2,2_2*%
%TO.N,Net-(D4-A)*%
X208298750Y-73725000D03*
D17*
X206548750Y-73725000D03*
D16*
X204748750Y-73725000D03*
%TD*%
D15*
%TO.P,D14,1,K_1*%
%TO.N,N/C*%
X421927276Y-85666260D03*
%TO.P,D14,2,A_2*%
X421927276Y-82366260D03*
%TD*%
D16*
%TO.P,SW65,1,1_1*%
%TO.N,/COL5*%
X231736250Y-142940000D03*
D17*
X229911250Y-142940000D03*
D18*
X228186250Y-142940000D03*
%TO.P,SW65,2,2_2*%
%TO.N,Net-(D64-A)*%
X241636250Y-140400000D03*
D17*
X239886250Y-140400000D03*
D16*
X238086250Y-140400000D03*
%TD*%
%TO.P,SW11,1,1_1*%
%TO.N,/COL10*%
X331748750Y-76265000D03*
D17*
X329923750Y-76265000D03*
D18*
X328198750Y-76265000D03*
%TO.P,SW11,2,2_2*%
%TO.N,Net-(D10-A)*%
X341648750Y-73725000D03*
D17*
X339898750Y-73725000D03*
D16*
X338098750Y-73725000D03*
%TD*%
%TO.P,SW13,1,1_1*%
%TO.N,/COL12*%
X369848750Y-76265000D03*
D17*
X368023750Y-76265000D03*
D18*
X366298750Y-76265000D03*
%TO.P,SW13,2,2_2*%
%TO.N,Net-(D12-A)*%
X379748750Y-73725000D03*
D17*
X377998750Y-73725000D03*
D16*
X376198750Y-73725000D03*
%TD*%
D15*
%TO.P,D19,1,K_1*%
%TO.N,N/C*%
X169514776Y-114241260D03*
%TO.P,D19,2,A_2*%
X169514776Y-110941260D03*
%TD*%
D16*
%TO.P,SW82,1,1_1*%
%TO.N,/COL7*%
X241261250Y-161990000D03*
D17*
X239436250Y-161990000D03*
D18*
X237711250Y-161990000D03*
%TO.P,SW82,2,2_2*%
%TO.N,Net-(D81-A)*%
X251161250Y-159450000D03*
D17*
X249411250Y-159450000D03*
D16*
X247611250Y-159450000D03*
%TD*%
D15*
%TO.P,D75,1,K_1*%
%TO.N,N/C*%
X124271026Y-171391260D03*
%TO.P,D75,2,A_2*%
X124271026Y-168091260D03*
%TD*%
%TO.P,D36,1,K_1*%
%TO.N,N/C*%
X521939776Y-114241260D03*
%TO.P,D36,2,A_2*%
X521939776Y-110941260D03*
%TD*%
%TO.P,D44,1,K_1*%
%TO.N,N/C*%
X255239776Y-133291260D03*
%TO.P,D44,2,A_2*%
X255239776Y-129991260D03*
%TD*%
D16*
%TO.P,SW36,1,1_1*%
%TO.N,/COL18*%
X493673750Y-104840000D03*
D17*
X491848750Y-104840000D03*
D18*
X490123750Y-104840000D03*
%TO.P,SW36,2,2_2*%
%TO.N,Net-(D35-A)*%
X503573750Y-102300000D03*
D17*
X501823750Y-102300000D03*
D16*
X500023750Y-102300000D03*
%TD*%
%TO.P,SW60,1,1_1*%
%TO.N,/COL0*%
X136486250Y-142940000D03*
D17*
X134661250Y-142940000D03*
D18*
X132936250Y-142940000D03*
%TO.P,SW60,2,2_2*%
%TO.N,Net-(D59-A)*%
X146386250Y-140400000D03*
D17*
X144636250Y-140400000D03*
D16*
X142836250Y-140400000D03*
%TD*%
D15*
%TO.P,D94,1,K_1*%
%TO.N,N/C*%
X162371026Y-190441260D03*
%TO.P,D94,2,A_2*%
X162371026Y-187141260D03*
%TD*%
%TO.P,D21,1,K_1*%
%TO.N,N/C*%
X207614776Y-114241260D03*
%TO.P,D21,2,A_2*%
X207614776Y-110941260D03*
%TD*%
%TO.P,D96,1,K_1*%
%TO.N,N/C*%
X305246026Y-190441260D03*
%TO.P,D96,2,A_2*%
X305246026Y-187141260D03*
%TD*%
%TO.P,D97,1,K_1*%
%TO.N,N/C*%
X329058526Y-190441260D03*
%TO.P,D97,2,A_2*%
X329058526Y-187141260D03*
%TD*%
D16*
%TO.P,SW79,1,1_1*%
%TO.N,/COL4*%
X184111250Y-161990000D03*
D17*
X182286250Y-161990000D03*
D18*
X180561250Y-161990000D03*
%TO.P,SW79,2,2_2*%
%TO.N,Net-(D78-A)*%
X194011250Y-159450000D03*
D17*
X192261250Y-159450000D03*
D16*
X190461250Y-159450000D03*
%TD*%
D15*
%TO.P,D92,1,K_1*%
%TO.N,N/C*%
X114746026Y-190441260D03*
%TO.P,D92,2,A_2*%
X114746026Y-187141260D03*
%TD*%
%TO.P,D43,1,K_1*%
%TO.N,N/C*%
X236189776Y-133291260D03*
%TO.P,D43,2,A_2*%
X236189776Y-129991260D03*
%TD*%
%TO.P,D32,1,K_1*%
%TO.N,N/C*%
X440977276Y-114241260D03*
%TO.P,D32,2,A_2*%
X440977276Y-110941260D03*
%TD*%
%TO.P,D70,1,K_1*%
%TO.N,N/C*%
X367158526Y-152341260D03*
%TO.P,D70,2,A_2*%
X367158526Y-149041260D03*
%TD*%
D16*
%TO.P,SW47,1,1_1*%
%TO.N,/COL8*%
X284123750Y-123890000D03*
D17*
X282298750Y-123890000D03*
D18*
X280573750Y-123890000D03*
%TO.P,SW47,2,2_2*%
%TO.N,Net-(D46-A)*%
X294023750Y-121350000D03*
D17*
X292273750Y-121350000D03*
D16*
X290473750Y-121350000D03*
%TD*%
%TO.P,SW31,1,1_1*%
%TO.N,/COL13*%
X393661250Y-104840000D03*
D17*
X391836250Y-104840000D03*
D18*
X390111250Y-104840000D03*
%TO.P,SW31,2,2_2*%
%TO.N,Net-(D30-A)*%
X403561250Y-102300000D03*
D17*
X401811250Y-102300000D03*
D16*
X400011250Y-102300000D03*
%TD*%
%TO.P,SW59,1,1_1*%
%TO.N,/COL20*%
X110292500Y-142940000D03*
D17*
X108467500Y-142940000D03*
D18*
X106742500Y-142940000D03*
%TO.P,SW59,2,2_2*%
%TO.N,Net-(D58-A)*%
X120192500Y-140400000D03*
D17*
X118442500Y-140400000D03*
D16*
X116642500Y-140400000D03*
%TD*%
D15*
%TO.P,D57,1,K_1*%
%TO.N,N/C*%
X521939776Y-142816260D03*
%TO.P,D57,2,A_2*%
X521939776Y-139516260D03*
%TD*%
D16*
%TO.P,SW46,1,1_1*%
%TO.N,/COL7*%
X265073750Y-123890000D03*
D17*
X263248750Y-123890000D03*
D18*
X261523750Y-123890000D03*
%TO.P,SW46,2,2_2*%
%TO.N,Net-(D45-A)*%
X274973750Y-121350000D03*
D17*
X273223750Y-121350000D03*
D16*
X271423750Y-121350000D03*
%TD*%
%TO.P,SW40,1,1_1*%
%TO.N,/COL1*%
X150773750Y-123890000D03*
D17*
X148948750Y-123890000D03*
D18*
X147223750Y-123890000D03*
%TO.P,SW40,2,2_2*%
%TO.N,Net-(D39-A)*%
X160673750Y-121350000D03*
D17*
X158923750Y-121350000D03*
D16*
X157123750Y-121350000D03*
%TD*%
D15*
%TO.P,D6,1,K_1*%
%TO.N,N/C*%
X255239776Y-85666260D03*
%TO.P,D6,2,A_2*%
X255239776Y-82366260D03*
%TD*%
D16*
%TO.P,SW63,1,1_1*%
%TO.N,/COL3*%
X193636250Y-142940000D03*
D17*
X191811250Y-142940000D03*
D18*
X190086250Y-142940000D03*
%TO.P,SW63,2,2_2*%
%TO.N,Net-(D62-A)*%
X203536250Y-140400000D03*
D17*
X201786250Y-140400000D03*
D16*
X199986250Y-140400000D03*
%TD*%
%TO.P,SW100,1,1_1*%
%TO.N,/COL13*%
X367467500Y-181040000D03*
D17*
X365642500Y-181040000D03*
D18*
X363917500Y-181040000D03*
%TO.P,SW100,2,2_2*%
%TO.N,Net-(D99-A)*%
X377367500Y-178500000D03*
D17*
X375617500Y-178500000D03*
D16*
X373817500Y-178500000D03*
%TD*%
%TO.P,SW6,1,1_1*%
%TO.N,/COL5*%
X226973750Y-76265000D03*
D17*
X225148750Y-76265000D03*
D18*
X223423750Y-76265000D03*
%TO.P,SW6,2,2_2*%
%TO.N,Net-(D5-A)*%
X236873750Y-73725000D03*
D17*
X235123750Y-73725000D03*
D16*
X233323750Y-73725000D03*
%TD*%
D15*
%TO.P,D29,1,K_1*%
%TO.N,N/C*%
X369539776Y-114241260D03*
%TO.P,D29,2,A_2*%
X369539776Y-110941260D03*
%TD*%
D16*
%TO.P,SW43,1,1_1*%
%TO.N,/COL4*%
X207923750Y-123890000D03*
D17*
X206098750Y-123890000D03*
D18*
X204373750Y-123890000D03*
%TO.P,SW43,2,2_2*%
%TO.N,Net-(D42-A)*%
X217823750Y-121350000D03*
D17*
X216073750Y-121350000D03*
D16*
X214273750Y-121350000D03*
%TD*%
%TO.P,SW27,1,1_1*%
%TO.N,/COL9*%
X293648750Y-104840000D03*
D17*
X291823750Y-104840000D03*
D18*
X290098750Y-104840000D03*
%TO.P,SW27,2,2_2*%
%TO.N,Net-(D26-A)*%
X303548750Y-102300000D03*
D17*
X301798750Y-102300000D03*
D16*
X299998750Y-102300000D03*
%TD*%
%TO.P,SW41,1,1_1*%
%TO.N,/COL2*%
X169823750Y-123890000D03*
D17*
X167998750Y-123890000D03*
D18*
X166273750Y-123890000D03*
%TO.P,SW41,2,2_2*%
%TO.N,Net-(D40-A)*%
X179723750Y-121350000D03*
D17*
X177973750Y-121350000D03*
D16*
X176173750Y-121350000D03*
%TD*%
%TO.P,SW81,1,1_1*%
%TO.N,/COL6*%
X222211250Y-161990000D03*
D17*
X220386250Y-161990000D03*
D18*
X218661250Y-161990000D03*
%TO.P,SW81,2,2_2*%
%TO.N,Net-(D80-A)*%
X232111250Y-159450000D03*
D17*
X230361250Y-159450000D03*
D16*
X228561250Y-159450000D03*
%TD*%
D15*
%TO.P,D37,1,K_1*%
%TO.N,N/C*%
X117127276Y-133291260D03*
%TO.P,D37,2,A_2*%
X117127276Y-129991260D03*
%TD*%
%TO.P,D65,1,K_1*%
%TO.N,N/C*%
X260002276Y-152341260D03*
%TO.P,D65,2,A_2*%
X260002276Y-149041260D03*
%TD*%
%TO.P,D76,1,K_1*%
%TO.N,N/C*%
X155227276Y-171391260D03*
%TO.P,D76,2,A_2*%
X155227276Y-168091260D03*
%TD*%
D16*
%TO.P,SW28,1,1_1*%
%TO.N,/COL10*%
X312698750Y-104840000D03*
D17*
X310873750Y-104840000D03*
D18*
X309148750Y-104840000D03*
%TO.P,SW28,2,2_2*%
%TO.N,Net-(D27-A)*%
X322598750Y-102300000D03*
D17*
X320848750Y-102300000D03*
D16*
X319048750Y-102300000D03*
%TD*%
%TO.P,SW69,1,1_1*%
%TO.N,/COL9*%
X307936250Y-142940000D03*
D17*
X306111250Y-142940000D03*
D18*
X304386250Y-142940000D03*
%TO.P,SW69,2,2_2*%
%TO.N,Net-(D68-A)*%
X317836250Y-140400000D03*
D17*
X316086250Y-140400000D03*
D16*
X314286250Y-140400000D03*
%TD*%
D15*
%TO.P,D87,1,K_1*%
%TO.N,N/C*%
X421927276Y-171391260D03*
%TO.P,D87,2,A_2*%
X421927276Y-168091260D03*
%TD*%
%TO.P,D86,1,K_1*%
%TO.N,N/C*%
X362396026Y-171391260D03*
%TO.P,D86,2,A_2*%
X362396026Y-168091260D03*
%TD*%
D16*
%TO.P,SW37,1,1_1*%
%TO.N,/COL19*%
X512723750Y-104840000D03*
D17*
X510898750Y-104840000D03*
D18*
X509173750Y-104840000D03*
%TO.P,SW37,2,2_2*%
%TO.N,Net-(D36-A)*%
X522623750Y-102300000D03*
D17*
X520873750Y-102300000D03*
D16*
X519073750Y-102300000D03*
%TD*%
D15*
%TO.P,D81,1,K_1*%
%TO.N,N/C*%
X250477276Y-171391260D03*
%TO.P,D81,2,A_2*%
X250477276Y-168091260D03*
%TD*%
%TO.P,D58,1,K_1*%
%TO.N,N/C*%
X119508526Y-152341260D03*
%TO.P,D58,2,A_2*%
X119508526Y-149041260D03*
%TD*%
%TO.P,D52,1,K_1*%
%TO.N,N/C*%
X421927276Y-133291260D03*
%TO.P,D52,2,A_2*%
X421927276Y-129991260D03*
%TD*%
D16*
%TO.P,SW99,1,1_1*%
%TO.N,/COL12*%
X343655000Y-181040000D03*
D17*
X341830000Y-181040000D03*
D18*
X340105000Y-181040000D03*
%TO.P,SW99,2,2_2*%
%TO.N,Net-(D98-A)*%
X353555000Y-178500000D03*
D17*
X351805000Y-178500000D03*
D16*
X350005000Y-178500000D03*
%TD*%
D15*
%TO.P,D22,1,K_1*%
%TO.N,N/C*%
X226664776Y-114241260D03*
%TO.P,D22,2,A_2*%
X226664776Y-110941260D03*
%TD*%
%TO.P,D41,1,K_1*%
%TO.N,N/C*%
X198089776Y-133291260D03*
%TO.P,D41,2,A_2*%
X198089776Y-129991260D03*
%TD*%
%TO.P,D63,1,K_1*%
%TO.N,N/C*%
X221902276Y-152341260D03*
%TO.P,D63,2,A_2*%
X221902276Y-149041260D03*
%TD*%
D16*
%TO.P,SW95,1,1_1*%
%TO.N,/COL2*%
X153155000Y-181040000D03*
D17*
X151330000Y-181040000D03*
D18*
X149605000Y-181040000D03*
%TO.P,SW95,2,2_2*%
%TO.N,Net-(D94-A)*%
X163055000Y-178500000D03*
D17*
X161305000Y-178500000D03*
D16*
X159505000Y-178500000D03*
%TD*%
D15*
%TO.P,D39,1,K_1*%
%TO.N,N/C*%
X159989776Y-133291260D03*
%TO.P,D39,2,A_2*%
X159989776Y-129991260D03*
%TD*%
D16*
%TO.P,SW50,1,1_1*%
%TO.N,/COL11*%
X341273750Y-123890000D03*
D17*
X339448750Y-123890000D03*
D18*
X337723750Y-123890000D03*
%TO.P,SW50,2,2_2*%
%TO.N,Net-(D49-A)*%
X351173750Y-121350000D03*
D17*
X349423750Y-121350000D03*
D16*
X347623750Y-121350000D03*
%TD*%
%TO.P,SW55,1,1_1*%
%TO.N,/COL16*%
X455573750Y-123890000D03*
D17*
X453748750Y-123890000D03*
D18*
X452023750Y-123890000D03*
%TO.P,SW55,2,2_2*%
%TO.N,Net-(D54-A)*%
X465473750Y-121350000D03*
D17*
X463723750Y-121350000D03*
D16*
X461923750Y-121350000D03*
%TD*%
D15*
%TO.P,D31,1,K_1*%
%TO.N,N/C*%
X421927276Y-114241260D03*
%TO.P,D31,2,A_2*%
X421927276Y-110941260D03*
%TD*%
%TO.P,D89,1,K_1*%
%TO.N,N/C*%
X483839776Y-171391260D03*
%TO.P,D89,2,A_2*%
X483839776Y-168091260D03*
%TD*%
%TO.P,D11,1,K_1*%
%TO.N,N/C*%
X360014776Y-85666260D03*
%TO.P,D11,2,A_2*%
X360014776Y-82366260D03*
%TD*%
%TO.P,D80,1,K_1*%
%TO.N,N/C*%
X231427276Y-171391260D03*
%TO.P,D80,2,A_2*%
X231427276Y-168091260D03*
%TD*%
%TO.P,D13,1,K_1*%
%TO.N,N/C*%
X402877276Y-85666260D03*
%TO.P,D13,2,A_2*%
X402877276Y-82366260D03*
%TD*%
D16*
%TO.P,SW92,1,1_1*%
%TO.N,/COL20*%
X512723750Y-171515000D03*
D17*
X510898750Y-171515000D03*
D18*
X509173750Y-171515000D03*
%TO.P,SW92,2,2_2*%
%TO.N,Net-(D91-A)*%
X522623750Y-168975000D03*
D17*
X520873750Y-168975000D03*
D16*
X519073750Y-168975000D03*
%TD*%
D15*
%TO.P,D20,1,K_1*%
%TO.N,N/C*%
X188564776Y-114241260D03*
%TO.P,D20,2,A_2*%
X188564776Y-110941260D03*
%TD*%
D16*
%TO.P,SW23,1,1_1*%
%TO.N,/COL5*%
X217448750Y-104840000D03*
D17*
X215623750Y-104840000D03*
D18*
X213898750Y-104840000D03*
%TO.P,SW23,2,2_2*%
%TO.N,Net-(D22-A)*%
X227348750Y-102300000D03*
D17*
X225598750Y-102300000D03*
D16*
X223798750Y-102300000D03*
%TD*%
%TO.P,SW49,1,1_1*%
%TO.N,/COL10*%
X322223750Y-123890000D03*
D17*
X320398750Y-123890000D03*
D18*
X318673750Y-123890000D03*
%TO.P,SW49,2,2_2*%
%TO.N,Net-(D48-A)*%
X332123750Y-121350000D03*
D17*
X330373750Y-121350000D03*
D16*
X328573750Y-121350000D03*
%TD*%
%TO.P,SW42,1,1_1*%
%TO.N,/COL3*%
X188873750Y-123890000D03*
D17*
X187048750Y-123890000D03*
D18*
X185323750Y-123890000D03*
%TO.P,SW42,2,2_2*%
%TO.N,Net-(D41-A)*%
X198773750Y-121350000D03*
D17*
X197023750Y-121350000D03*
D16*
X195223750Y-121350000D03*
%TD*%
%TO.P,SW18,1,1_1*%
%TO.N,N/C*%
X122198750Y-104840000D03*
D17*
X120373750Y-104840000D03*
D18*
X118648750Y-104840000D03*
%TO.P,SW18,2,2_2*%
X132098750Y-102300000D03*
D17*
X130348750Y-102300000D03*
D16*
X128548750Y-102300000D03*
%TD*%
%TO.P,SW8,1,1_1*%
%TO.N,/COL7*%
X265073750Y-76265000D03*
D17*
X263248750Y-76265000D03*
D18*
X261523750Y-76265000D03*
%TO.P,SW8,2,2_2*%
%TO.N,Net-(D7-A)*%
X274973750Y-73725000D03*
D17*
X273223750Y-73725000D03*
D16*
X271423750Y-73725000D03*
%TD*%
D15*
%TO.P,D55,1,K_1*%
%TO.N,N/C*%
X483839776Y-133291260D03*
%TO.P,D55,2,A_2*%
X483839776Y-129991260D03*
%TD*%
%TO.P,D85,1,K_1*%
%TO.N,N/C*%
X326677276Y-171391260D03*
%TO.P,D85,2,A_2*%
X326677276Y-168091260D03*
%TD*%
%TO.P,D93,1,K_1*%
%TO.N,N/C*%
X138558526Y-190441260D03*
%TO.P,D93,2,A_2*%
X138558526Y-187141260D03*
%TD*%
%TO.P,D67,1,K_1*%
%TO.N,N/C*%
X298102276Y-152341260D03*
%TO.P,D67,2,A_2*%
X298102276Y-149041260D03*
%TD*%
%TO.P,D38,1,K_1*%
%TO.N,N/C*%
X140939776Y-133291260D03*
%TO.P,D38,2,A_2*%
X140939776Y-129991260D03*
%TD*%
%TO.P,D15,1,K_1*%
%TO.N,N/C*%
X440977276Y-85666260D03*
%TO.P,D15,2,A_2*%
X440977276Y-82366260D03*
%TD*%
D16*
%TO.P,SW58,1,1_1*%
%TO.N,/COL19*%
X512723750Y-133415000D03*
D17*
X510898750Y-133415000D03*
D18*
X509173750Y-133415000D03*
%TO.P,SW58,2,2_2*%
%TO.N,Net-(D57-A)*%
X522623750Y-130875000D03*
D17*
X520873750Y-130875000D03*
D16*
X519073750Y-130875000D03*
%TD*%
D15*
%TO.P,D90,1,K_1*%
%TO.N,N/C*%
X502889776Y-171391260D03*
%TO.P,D90,2,A_2*%
X502889776Y-168091260D03*
%TD*%
D16*
%TO.P,SW24,1,1_1*%
%TO.N,/COL6*%
X236498750Y-104840000D03*
D17*
X234673750Y-104840000D03*
D18*
X232948750Y-104840000D03*
%TO.P,SW24,2,2_2*%
%TO.N,Net-(D23-A)*%
X246398750Y-102300000D03*
D17*
X244648750Y-102300000D03*
D16*
X242848750Y-102300000D03*
%TD*%
D15*
%TO.P,D42,1,K_1*%
%TO.N,N/C*%
X217139776Y-133291260D03*
%TO.P,D42,2,A_2*%
X217139776Y-129991260D03*
%TD*%
%TO.P,D1,1,K_1*%
%TO.N,N/C*%
X150464776Y-85666260D03*
%TO.P,D1,2,A_2*%
X150464776Y-82366260D03*
%TD*%
%TO.P,D46,1,K_1*%
%TO.N,N/C*%
X293339776Y-133291260D03*
%TO.P,D46,2,A_2*%
X293339776Y-129991260D03*
%TD*%
D16*
%TO.P,SW56,1,1_1*%
%TO.N,/COL17*%
X474623750Y-123890000D03*
D17*
X472798750Y-123890000D03*
D18*
X471073750Y-123890000D03*
%TO.P,SW56,2,2_2*%
%TO.N,Net-(D55-A)*%
X484523750Y-121350000D03*
D17*
X482773750Y-121350000D03*
D16*
X480973750Y-121350000D03*
%TD*%
D15*
%TO.P,D59,1,K_1*%
%TO.N,N/C*%
X145702276Y-152341260D03*
%TO.P,D59,2,A_2*%
X145702276Y-149041260D03*
%TD*%
%TO.P,D34,1,K_1*%
%TO.N,N/C*%
X483839776Y-114241260D03*
%TO.P,D34,2,A_2*%
X483839776Y-110941260D03*
%TD*%
D16*
%TO.P,SW2,1,1_1*%
%TO.N,/COL0*%
X103148750Y-76265000D03*
D17*
X101323750Y-76265000D03*
D18*
X99598750Y-76265000D03*
%TO.P,SW2,2,2_2*%
%TO.N,Net-(D1-A)*%
X113048750Y-73725000D03*
D17*
X111298750Y-73725000D03*
D16*
X109498750Y-73725000D03*
%TD*%
%TO.P,SW98,1,1_1*%
%TO.N,/COL11*%
X319842500Y-181040000D03*
D17*
X318017500Y-181040000D03*
D18*
X316292500Y-181040000D03*
%TO.P,SW98,2,2_2*%
%TO.N,Net-(D97-A)*%
X329742500Y-178500000D03*
D17*
X327992500Y-178500000D03*
D16*
X326192500Y-178500000D03*
%TD*%
D15*
%TO.P,D2,1,K_1*%
%TO.N,N/C*%
X169514776Y-85666260D03*
%TO.P,D2,2,A_2*%
X169514776Y-82366260D03*
%TD*%
D16*
%TO.P,SW85,1,1_1*%
%TO.N,/COL10*%
X298411250Y-161990000D03*
D17*
X296586250Y-161990000D03*
D18*
X294861250Y-161990000D03*
%TO.P,SW85,2,2_2*%
%TO.N,Net-(D84-A)*%
X308311250Y-159450000D03*
D17*
X306561250Y-159450000D03*
D16*
X304761250Y-159450000D03*
%TD*%
%TO.P,SW97,1,1_1*%
%TO.N,/COL10*%
X296030000Y-181040000D03*
D17*
X294205000Y-181040000D03*
D18*
X292480000Y-181040000D03*
%TO.P,SW97,2,2_2*%
%TO.N,Net-(D96-A)*%
X305930000Y-178500000D03*
D17*
X304180000Y-178500000D03*
D16*
X302380000Y-178500000D03*
%TD*%
%TO.P,SW103,1,1_1*%
%TO.N,/COL16*%
X431761250Y-181040000D03*
D17*
X429936250Y-181040000D03*
D18*
X428211250Y-181040000D03*
%TO.P,SW103,2,2_2*%
%TO.N,Net-(D102-A)*%
X441661250Y-178500000D03*
D17*
X439911250Y-178500000D03*
D16*
X438111250Y-178500000D03*
%TD*%
%TO.P,SW90,1,1_1*%
%TO.N,/COL18*%
X474623750Y-161990000D03*
D17*
X472798750Y-161990000D03*
D18*
X471073750Y-161990000D03*
%TO.P,SW90,2,2_2*%
%TO.N,Net-(D89-A)*%
X484523750Y-159450000D03*
D17*
X482773750Y-159450000D03*
D16*
X480973750Y-159450000D03*
%TD*%
%TO.P,SW77,1,1_1*%
%TO.N,/COL2*%
X146011250Y-161990000D03*
D17*
X144186250Y-161990000D03*
D18*
X142461250Y-161990000D03*
%TO.P,SW77,2,2_2*%
%TO.N,Net-(D76-A)*%
X155911250Y-159450000D03*
D17*
X154161250Y-159450000D03*
D16*
X152361250Y-159450000D03*
%TD*%
%TO.P,SW52,1,1_1*%
%TO.N,/COL13*%
X393661250Y-123890000D03*
D17*
X391836250Y-123890000D03*
D18*
X390111250Y-123890000D03*
%TO.P,SW52,2,2_2*%
%TO.N,Net-(D51-A)*%
X403561250Y-121350000D03*
D17*
X401811250Y-121350000D03*
D16*
X400011250Y-121350000D03*
%TD*%
D15*
%TO.P,D77,1,K_1*%
%TO.N,N/C*%
X174277276Y-171391260D03*
%TO.P,D77,2,A_2*%
X174277276Y-168091260D03*
%TD*%
%TO.P,D100,1,K_1*%
%TO.N,N/C*%
X402877276Y-190441260D03*
%TO.P,D100,2,A_2*%
X402877276Y-187141260D03*
%TD*%
D16*
%TO.P,SW39,1,1_1*%
%TO.N,N/C*%
X131723750Y-123890000D03*
D17*
X129898750Y-123890000D03*
D18*
X128173750Y-123890000D03*
%TO.P,SW39,2,2_2*%
X141623750Y-121350000D03*
D17*
X139873750Y-121350000D03*
D16*
X138073750Y-121350000D03*
%TD*%
%TO.P,SW20,1,1_1*%
%TO.N,/COL2*%
X160298750Y-104840000D03*
D17*
X158473750Y-104840000D03*
D18*
X156748750Y-104840000D03*
%TO.P,SW20,2,2_2*%
%TO.N,Net-(D19-A)*%
X170198750Y-102300000D03*
D17*
X168448750Y-102300000D03*
D16*
X166648750Y-102300000D03*
%TD*%
D15*
%TO.P,D9,1,K_1*%
%TO.N,N/C*%
X321914776Y-85666260D03*
%TO.P,D9,2,A_2*%
X321914776Y-82366260D03*
%TD*%
D16*
%TO.P,SW33,1,1_1*%
%TO.N,/COL15*%
X431761250Y-104840000D03*
D17*
X429936250Y-104840000D03*
D18*
X428211250Y-104840000D03*
%TO.P,SW33,2,2_2*%
%TO.N,Net-(D32-A)*%
X441661250Y-102300000D03*
D17*
X439911250Y-102300000D03*
D16*
X438111250Y-102300000D03*
%TD*%
%TO.P,SW83,1,1_1*%
%TO.N,/COL8*%
X260311250Y-161990000D03*
D17*
X258486250Y-161990000D03*
D18*
X256761250Y-161990000D03*
%TO.P,SW83,2,2_2*%
%TO.N,Net-(D82-A)*%
X270211250Y-159450000D03*
D17*
X268461250Y-159450000D03*
D16*
X266661250Y-159450000D03*
%TD*%
%TO.P,SW72,1,1_1*%
%TO.N,/COL12*%
X455573750Y-142940000D03*
D17*
X453748750Y-142940000D03*
D18*
X452023750Y-142940000D03*
%TO.P,SW72,2,2_2*%
%TO.N,Net-(D71-A)*%
X465473750Y-140400000D03*
D17*
X463723750Y-140400000D03*
D16*
X461923750Y-140400000D03*
%TD*%
D15*
%TO.P,D4,1,K_1*%
%TO.N,N/C*%
X207614776Y-85666260D03*
%TO.P,D4,2,A_2*%
X207614776Y-82366260D03*
%TD*%
D16*
%TO.P,SW78,1,1_1*%
%TO.N,/COL3*%
X165061250Y-161990000D03*
D17*
X163236250Y-161990000D03*
D18*
X161511250Y-161990000D03*
%TO.P,SW78,2,2_2*%
%TO.N,Net-(D77-A)*%
X174961250Y-159450000D03*
D17*
X173211250Y-159450000D03*
D16*
X171411250Y-159450000D03*
%TD*%
D15*
%TO.P,D69,1,K_1*%
%TO.N,N/C*%
X336202276Y-152341260D03*
%TO.P,D69,2,A_2*%
X336202276Y-149041260D03*
%TD*%
%TO.P,D53,1,K_1*%
%TO.N,N/C*%
X440977276Y-133291260D03*
%TO.P,D53,2,A_2*%
X440977276Y-129991260D03*
%TD*%
%TO.P,D25,1,K_1*%
%TO.N,N/C*%
X283814776Y-114241260D03*
%TO.P,D25,2,A_2*%
X283814776Y-110941260D03*
%TD*%
%TO.P,D17,1,K_1*%
%TO.N,N/C*%
X131414776Y-114241260D03*
%TO.P,D17,2,A_2*%
X131414776Y-110941260D03*
%TD*%
D16*
%TO.P,SW61,1,1_1*%
%TO.N,/COL1*%
X155536250Y-142940000D03*
D17*
X153711250Y-142940000D03*
D18*
X151986250Y-142940000D03*
%TO.P,SW61,2,2_2*%
%TO.N,Net-(D60-A)*%
X165436250Y-140400000D03*
D17*
X163686250Y-140400000D03*
D16*
X161886250Y-140400000D03*
%TD*%
%TO.P,SW16,1,1_1*%
%TO.N,/COL15*%
X431761250Y-76265000D03*
D17*
X429936250Y-76265000D03*
D18*
X428211250Y-76265000D03*
%TO.P,SW16,2,2_2*%
%TO.N,Net-(D15-A)*%
X441661250Y-73725000D03*
D17*
X439911250Y-73725000D03*
D16*
X438111250Y-73725000D03*
%TD*%
D15*
%TO.P,D48,1,K_1*%
%TO.N,N/C*%
X331439776Y-133291260D03*
%TO.P,D48,2,A_2*%
X331439776Y-129991260D03*
%TD*%
%TO.P,D0,1,K_1*%
%TO.N,N/C*%
X112191928Y-85666260D03*
%TO.P,D0,2,A_2*%
X112191928Y-82366260D03*
%TD*%
%TO.P,D8,1,K_1*%
%TO.N,N/C*%
X293339776Y-85666260D03*
%TO.P,D8,2,A_2*%
X293339776Y-82366260D03*
%TD*%
D16*
%TO.P,SW14,1,1_1*%
%TO.N,/COL13*%
X393661250Y-76265000D03*
D17*
X391836250Y-76265000D03*
D18*
X390111250Y-76265000D03*
%TO.P,SW14,2,2_2*%
%TO.N,Net-(D13-A)*%
X403561250Y-73725000D03*
D17*
X401811250Y-73725000D03*
D16*
X400011250Y-73725000D03*
%TD*%
%TO.P,SW68,1,1_1*%
%TO.N,/COL8*%
X288886250Y-142940000D03*
D17*
X287061250Y-142940000D03*
D18*
X285336250Y-142940000D03*
%TO.P,SW68,2,2_2*%
%TO.N,Net-(D67-A)*%
X298786250Y-140400000D03*
D17*
X297036250Y-140400000D03*
D16*
X295236250Y-140400000D03*
%TD*%
D15*
%TO.P,D16,1,K_1*%
%TO.N,N/C*%
X112364776Y-114241260D03*
%TO.P,D16,2,A_2*%
X112364776Y-110941260D03*
%TD*%
D16*
%TO.P,SW64,1,1_1*%
%TO.N,/COL4*%
X212686250Y-142940000D03*
D17*
X210861250Y-142940000D03*
D18*
X209136250Y-142940000D03*
%TO.P,SW64,2,2_2*%
%TO.N,Net-(D63-A)*%
X222586250Y-140400000D03*
D17*
X220836250Y-140400000D03*
D16*
X219036250Y-140400000D03*
%TD*%
%TO.P,SW26,1,1_1*%
%TO.N,/COL8*%
X274598750Y-104840000D03*
D17*
X272773750Y-104840000D03*
D18*
X271048750Y-104840000D03*
%TO.P,SW26,2,2_2*%
%TO.N,Net-(D25-A)*%
X284498750Y-102300000D03*
D17*
X282748750Y-102300000D03*
D16*
X280948750Y-102300000D03*
%TD*%
D15*
%TO.P,D23,1,K_1*%
%TO.N,N/C*%
X245714776Y-114241260D03*
%TO.P,D23,2,A_2*%
X245714776Y-110941260D03*
%TD*%
%TO.P,D60,1,K_1*%
%TO.N,N/C*%
X164752276Y-152341260D03*
%TO.P,D60,2,A_2*%
X164752276Y-149041260D03*
%TD*%
%TO.P,D91,1,K_1*%
%TO.N,N/C*%
X521939776Y-180916260D03*
%TO.P,D91,2,A_2*%
X521939776Y-177616260D03*
%TD*%
%TO.P,D28,1,K_1*%
%TO.N,N/C*%
X340964776Y-114241260D03*
%TO.P,D28,2,A_2*%
X340964776Y-110941260D03*
%TD*%
%TO.P,D3,1,K_1*%
%TO.N,N/C*%
X188564776Y-85666260D03*
%TO.P,D3,2,A_2*%
X188564776Y-82366260D03*
%TD*%
D16*
%TO.P,SW89,1,1_1*%
%TO.N,/COL17*%
X455573750Y-161990000D03*
D17*
X453748750Y-161990000D03*
D18*
X452023750Y-161990000D03*
%TO.P,SW89,2,2_2*%
%TO.N,Net-(D88-A)*%
X465473750Y-159450000D03*
D17*
X463723750Y-159450000D03*
D16*
X461923750Y-159450000D03*
%TD*%
D15*
%TO.P,D82,1,K_1*%
%TO.N,N/C*%
X269527276Y-171391260D03*
%TO.P,D82,2,A_2*%
X269527276Y-168091260D03*
%TD*%
%TO.P,D18,1,K_1*%
%TO.N,N/C*%
X150464776Y-114241260D03*
%TO.P,D18,2,A_2*%
X150464776Y-110941260D03*
%TD*%
D16*
%TO.P,SW44,1,1_1*%
%TO.N,/COL5*%
X226973750Y-123890000D03*
D17*
X225148750Y-123890000D03*
D18*
X223423750Y-123890000D03*
%TO.P,SW44,2,2_2*%
%TO.N,Net-(D43-A)*%
X236873750Y-121350000D03*
D17*
X235123750Y-121350000D03*
D16*
X233323750Y-121350000D03*
%TD*%
D15*
%TO.P,D35,1,K_1*%
%TO.N,N/C*%
X502889776Y-114241260D03*
%TO.P,D35,2,A_2*%
X502889776Y-110941260D03*
%TD*%
D16*
%TO.P,SW3,1,1_1*%
%TO.N,/COL2*%
X160298750Y-76265000D03*
D17*
X158473750Y-76265000D03*
D18*
X156748750Y-76265000D03*
%TO.P,SW3,2,2_2*%
%TO.N,Net-(D2-A)*%
X170198750Y-73725000D03*
D17*
X168448750Y-73725000D03*
D16*
X166648750Y-73725000D03*
%TD*%
D15*
%TO.P,D56,1,K_1*%
%TO.N,N/C*%
X502889776Y-133291260D03*
%TO.P,D56,2,A_2*%
X502889776Y-129991260D03*
%TD*%
D16*
%TO.P,SW35,1,1_1*%
%TO.N,/COL17*%
X474623750Y-104840000D03*
D17*
X472798750Y-104840000D03*
D18*
X471073750Y-104840000D03*
%TO.P,SW35,2,2_2*%
%TO.N,Net-(D34-A)*%
X484523750Y-102300000D03*
D17*
X482773750Y-102300000D03*
D16*
X480973750Y-102300000D03*
%TD*%
%TO.P,SW21,1,1_1*%
%TO.N,/COL3*%
X179348750Y-104840000D03*
D17*
X177523750Y-104840000D03*
D18*
X175798750Y-104840000D03*
%TO.P,SW21,2,2_2*%
%TO.N,Net-(D20-A)*%
X189248750Y-102300000D03*
D17*
X187498750Y-102300000D03*
D16*
X185698750Y-102300000D03*
%TD*%
%TO.P,SW12,1,1_1*%
%TO.N,/COL11*%
X350798750Y-76265000D03*
D17*
X348973750Y-76265000D03*
D18*
X347248750Y-76265000D03*
%TO.P,SW12,2,2_2*%
%TO.N,Net-(D11-A)*%
X360698750Y-73725000D03*
D17*
X358948750Y-73725000D03*
D16*
X357148750Y-73725000D03*
%TD*%
%TO.P,SW9,1,1_1*%
%TO.N,/COL8*%
X284123750Y-76265000D03*
D17*
X282298750Y-76265000D03*
D18*
X280573750Y-76265000D03*
%TO.P,SW9,2,2_2*%
%TO.N,Net-(D8-A)*%
X294023750Y-73725000D03*
D17*
X292273750Y-73725000D03*
D16*
X290473750Y-73725000D03*
%TD*%
%TO.P,SW45,1,1_1*%
%TO.N,/COL6*%
X246023750Y-123890000D03*
D17*
X244198750Y-123890000D03*
D18*
X242473750Y-123890000D03*
%TO.P,SW45,2,2_2*%
%TO.N,Net-(D44-A)*%
X255923750Y-121350000D03*
D17*
X254173750Y-121350000D03*
D16*
X252373750Y-121350000D03*
%TD*%
D15*
%TO.P,D45,1,K_1*%
%TO.N,N/C*%
X274289776Y-133291260D03*
%TO.P,D45,2,A_2*%
X274289776Y-129991260D03*
%TD*%
%TO.P,D10,1,K_1*%
%TO.N,N/C*%
X340964776Y-85666260D03*
%TO.P,D10,2,A_2*%
X340964776Y-82366260D03*
%TD*%
%TO.P,D98,1,K_1*%
%TO.N,N/C*%
X352871026Y-190441260D03*
%TO.P,D98,2,A_2*%
X352871026Y-187141260D03*
%TD*%
D16*
%TO.P,SW2,1,1_1*%
%TO.N,N/C*%
X141248750Y-76265000D03*
D17*
X139423750Y-76265000D03*
D18*
X137698750Y-76265000D03*
%TO.P,SW2,2,2_2*%
X151148750Y-73725000D03*
D17*
X149398750Y-73725000D03*
D16*
X147598750Y-73725000D03*
%TD*%
D15*
%TO.P,D68,1,K_1*%
%TO.N,N/C*%
X317152276Y-152341260D03*
%TO.P,D68,2,A_2*%
X317152276Y-149041260D03*
%TD*%
%TO.P,D102,1,K_1*%
%TO.N,N/C*%
X440977276Y-190441260D03*
%TO.P,D102,2,A_2*%
X440977276Y-187141260D03*
%TD*%
D16*
%TO.P,SW67,1,1_1*%
%TO.N,/COL7*%
X269836250Y-142940000D03*
D17*
X268011250Y-142940000D03*
D18*
X266286250Y-142940000D03*
%TO.P,SW67,2,2_2*%
%TO.N,Net-(D66-A)*%
X279736250Y-140400000D03*
D17*
X277986250Y-140400000D03*
D16*
X276186250Y-140400000D03*
%TD*%
%TO.P,SW93,1,1_1*%
%TO.N,/COL0*%
X105530000Y-181040000D03*
D17*
X103705000Y-181040000D03*
D18*
X101980000Y-181040000D03*
%TO.P,SW93,2,2_2*%
%TO.N,Net-(D92-A)*%
X115430000Y-178500000D03*
D17*
X113680000Y-178500000D03*
D16*
X111880000Y-178500000D03*
%TD*%
D15*
%TO.P,D72,1,K_1*%
%TO.N,N/C*%
X483839776Y-152341260D03*
%TO.P,D72,2,A_2*%
X483839776Y-149041260D03*
%TD*%
%TO.P,D27,1,K_1*%
%TO.N,N/C*%
X321914776Y-114241260D03*
%TO.P,D27,2,A_2*%
X321914776Y-110941260D03*
%TD*%
%TO.P,D24,1,K_1*%
%TO.N,N/C*%
X264764776Y-114241260D03*
%TO.P,D24,2,A_2*%
X264764776Y-110941260D03*
%TD*%
%TO.P,D104,1,K_1*%
%TO.N,N/C*%
X502889776Y-190441260D03*
%TO.P,D104,2,A_2*%
X502889776Y-187141260D03*
%TD*%
%TO.P,D78,1,K_1*%
%TO.N,N/C*%
X193327276Y-171391260D03*
%TO.P,D78,2,A_2*%
X193327276Y-168091260D03*
%TD*%
%TO.P,D95,1,K_1*%
%TO.N,N/C*%
X233808526Y-190441260D03*
%TO.P,D95,2,A_2*%
X233808526Y-187141260D03*
%TD*%
D16*
%TO.P,SW86,1,1_1*%
%TO.N,/COL11*%
X317461250Y-161990000D03*
D17*
X315636250Y-161990000D03*
D18*
X313911250Y-161990000D03*
%TO.P,SW86,2,2_2*%
%TO.N,Net-(D85-A)*%
X327361250Y-159450000D03*
D17*
X325611250Y-159450000D03*
D16*
X323811250Y-159450000D03*
%TD*%
%TO.P,SW70,1,1_1*%
%TO.N,/COL10*%
X326986250Y-142940000D03*
D17*
X325161250Y-142940000D03*
D18*
X323436250Y-142940000D03*
%TO.P,SW70,2,2_2*%
%TO.N,Net-(D69-A)*%
X336886250Y-140400000D03*
D17*
X335136250Y-140400000D03*
D16*
X333336250Y-140400000D03*
%TD*%
D15*
%TO.P,D51,1,K_1*%
%TO.N,N/C*%
X402877276Y-133291260D03*
%TO.P,D51,2,A_2*%
X402877276Y-129991260D03*
%TD*%
%TO.P,D64,1,K_1*%
%TO.N,N/C*%
X240952276Y-152341260D03*
%TO.P,D64,2,A_2*%
X240952276Y-149041260D03*
%TD*%
D16*
%TO.P,SW62,1,1_1*%
%TO.N,/COL2*%
X174586250Y-142940000D03*
D17*
X172761250Y-142940000D03*
D18*
X171036250Y-142940000D03*
%TO.P,SW62,2,2_2*%
%TO.N,Net-(D61-A)*%
X184486250Y-140400000D03*
D17*
X182736250Y-140400000D03*
D16*
X180936250Y-140400000D03*
%TD*%
%TO.P,SW25,1,1_1*%
%TO.N,/COL7*%
X255548750Y-104840000D03*
D17*
X253723750Y-104840000D03*
D18*
X251998750Y-104840000D03*
%TO.P,SW25,2,2_2*%
%TO.N,Net-(D24-A)*%
X265448750Y-102300000D03*
D17*
X263698750Y-102300000D03*
D16*
X261898750Y-102300000D03*
%TD*%
%TO.P,SW71,1,1_1*%
%TO.N,/COL11*%
X357942500Y-142940000D03*
D17*
X356117500Y-142940000D03*
D18*
X354392500Y-142940000D03*
%TO.P,SW71,2,2_2*%
%TO.N,Net-(D70-A)*%
X367842500Y-140400000D03*
D17*
X366092500Y-140400000D03*
D16*
X364292500Y-140400000D03*
%TD*%
%TO.P,SW17,1,1_1*%
%TO.N,/COL16*%
X103148750Y-104840000D03*
D17*
X101323750Y-104840000D03*
D18*
X99598750Y-104840000D03*
%TO.P,SW17,2,2_2*%
%TO.N,Net-(D16-A)*%
X113048750Y-102300000D03*
D17*
X111298750Y-102300000D03*
D16*
X109498750Y-102300000D03*
%TD*%
D15*
%TO.P,D103,1,K_1*%
%TO.N,N/C*%
X474314776Y-190441260D03*
%TO.P,D103,2,A_2*%
X474314776Y-187141260D03*
%TD*%
D16*
%TO.P,SW87,1,1_1*%
%TO.N,/COL12*%
X353180000Y-161990000D03*
D17*
X351355000Y-161990000D03*
D18*
X349630000Y-161990000D03*
%TO.P,SW87,2,2_2*%
%TO.N,Net-(D86-A)*%
X363080000Y-159450000D03*
D17*
X361330000Y-159450000D03*
D16*
X359530000Y-159450000D03*
%TD*%
D15*
%TO.P,D88,1,K_1*%
%TO.N,N/C*%
X464789776Y-171391260D03*
%TO.P,D88,2,A_2*%
X464789776Y-168091260D03*
%TD*%
%TO.P,D61,1,K_1*%
%TO.N,N/C*%
X183802276Y-152341260D03*
%TO.P,D61,2,A_2*%
X183802276Y-149041260D03*
%TD*%
D16*
%TO.P,SW104,1,1_1*%
%TO.N,/COL17*%
X465098750Y-181040000D03*
D17*
X463273750Y-181040000D03*
D18*
X461548750Y-181040000D03*
%TO.P,SW104,2,2_2*%
%TO.N,Net-(D103-A)*%
X474998750Y-178500000D03*
D17*
X473248750Y-178500000D03*
D16*
X471448750Y-178500000D03*
%TD*%
D15*
%TO.P,D99,1,K_1*%
%TO.N,N/C*%
X376683526Y-190441260D03*
%TO.P,D99,2,A_2*%
X376683526Y-187141260D03*
%TD*%
D16*
%TO.P,SW66,1,1_1*%
%TO.N,/COL6*%
X250786250Y-142940000D03*
D17*
X248961250Y-142940000D03*
D18*
X247236250Y-142940000D03*
%TO.P,SW66,2,2_2*%
%TO.N,Net-(D65-A)*%
X260686250Y-140400000D03*
D17*
X258936250Y-140400000D03*
D16*
X257136250Y-140400000D03*
%TD*%
%TO.P,SW80,1,1_1*%
%TO.N,/COL5*%
X203161250Y-161990000D03*
D17*
X201336250Y-161990000D03*
D18*
X199611250Y-161990000D03*
%TO.P,SW80,2,2_2*%
%TO.N,Net-(D79-A)*%
X213061250Y-159450000D03*
D17*
X211311250Y-159450000D03*
D16*
X209511250Y-159450000D03*
%TD*%
D15*
%TO.P,D40,1,K_1*%
%TO.N,N/C*%
X179039776Y-133291260D03*
%TO.P,D40,2,A_2*%
X179039776Y-129991260D03*
%TD*%
%TO.P,D83,1,K_1*%
%TO.N,N/C*%
X288577276Y-171391260D03*
%TO.P,D83,2,A_2*%
X288577276Y-168091260D03*
%TD*%
%TO.P,D47,1,K_1*%
%TO.N,N/C*%
X312389776Y-133291260D03*
%TO.P,D47,2,A_2*%
X312389776Y-129991260D03*
%TD*%
%TO.P,D101,1,K_1*%
%TO.N,N/C*%
X421927276Y-190441260D03*
%TO.P,D101,2,A_2*%
X421927276Y-187141260D03*
%TD*%
%TO.P,D62,1,K_1*%
%TO.N,N/C*%
X202852276Y-152341260D03*
%TO.P,D62,2,A_2*%
X202852276Y-149041260D03*
%TD*%
D16*
%TO.P,SW22,1,1_1*%
%TO.N,/COL4*%
X198398750Y-104840000D03*
D17*
X196573750Y-104840000D03*
D18*
X194848750Y-104840000D03*
%TO.P,SW22,2,2_2*%
%TO.N,Net-(D21-A)*%
X208298750Y-102300000D03*
D17*
X206548750Y-102300000D03*
D16*
X204748750Y-102300000D03*
%TD*%
%TO.P,SW88,1,1_1*%
%TO.N,/COL15*%
X412711250Y-161990000D03*
D17*
X410886250Y-161990000D03*
D18*
X409161250Y-161990000D03*
%TO.P,SW88,2,2_2*%
%TO.N,Net-(D87-A)*%
X422611250Y-159450000D03*
D17*
X420861250Y-159450000D03*
D16*
X419061250Y-159450000D03*
%TD*%
D15*
%TO.P,D50,1,K_1*%
%TO.N,N/C*%
X374302276Y-133291260D03*
%TO.P,D50,2,A_2*%
X374302276Y-129991260D03*
%TD*%
D16*
%TO.P,SW48,1,1_1*%
%TO.N,/COL9*%
X303173750Y-123890000D03*
D17*
X301348750Y-123890000D03*
D18*
X299623750Y-123890000D03*
%TO.P,SW48,2,2_2*%
%TO.N,Net-(D47-A)*%
X313073750Y-121350000D03*
D17*
X311323750Y-121350000D03*
D16*
X309523750Y-121350000D03*
%TD*%
D15*
%TO.P,D66,1,K_1*%
%TO.N,N/C*%
X279052276Y-152341260D03*
%TO.P,D66,2,A_2*%
X279052276Y-149041260D03*
%TD*%
%TO.P,D30,1,K_1*%
%TO.N,N/C*%
X402877276Y-114241260D03*
%TO.P,D30,2,A_2*%
X402877276Y-110941260D03*
%TD*%
D16*
%TO.P,SW105,1,1_1*%
%TO.N,/COL19*%
X493673750Y-181040000D03*
D17*
X491848750Y-181040000D03*
D18*
X490123750Y-181040000D03*
%TO.P,SW105,2,2_2*%
%TO.N,Net-(D104-A)*%
X503573750Y-178500000D03*
D17*
X501823750Y-178500000D03*
D16*
X500023750Y-178500000D03*
%TD*%
%TO.P,SW94,1,1_1*%
%TO.N,/COL1*%
X129342500Y-181040000D03*
D17*
X127517500Y-181040000D03*
D18*
X125792500Y-181040000D03*
%TO.P,SW94,2,2_2*%
%TO.N,Net-(D93-A)*%
X139242500Y-178500000D03*
D17*
X137492500Y-178500000D03*
D16*
X135692500Y-178500000D03*
%TD*%
%TO.P,SW7,1,1_1*%
%TO.N,/COL6*%
X246023750Y-76265000D03*
D17*
X244198750Y-76265000D03*
D18*
X242473750Y-76265000D03*
%TO.P,SW7,2,2_2*%
%TO.N,Net-(D6-A)*%
X255923750Y-73725000D03*
D17*
X254173750Y-73725000D03*
D16*
X252373750Y-73725000D03*
%TD*%
%TO.P,SW91,1,1_1*%
%TO.N,/COL19*%
X493673750Y-161990000D03*
D17*
X491848750Y-161990000D03*
D18*
X490123750Y-161990000D03*
%TO.P,SW91,2,2_2*%
%TO.N,Net-(D90-A)*%
X503573750Y-159450000D03*
D17*
X501823750Y-159450000D03*
D16*
X500023750Y-159450000D03*
%TD*%
%TO.P,SW10,1,1_1*%
%TO.N,/COL9*%
X312698750Y-76265000D03*
D17*
X310873750Y-76265000D03*
D18*
X309148750Y-76265000D03*
%TO.P,SW10,2,2_2*%
%TO.N,Net-(D9-A)*%
X322598750Y-73725000D03*
D17*
X320848750Y-73725000D03*
D16*
X319048750Y-73725000D03*
%TD*%
%TO.P,SW96,1,1_1*%
%TO.N,/COL5*%
X224592500Y-181040000D03*
D17*
X222767500Y-181040000D03*
D18*
X221042500Y-181040000D03*
%TO.P,SW96,2,2_2*%
%TO.N,Net-(D95-A)*%
X234492500Y-178500000D03*
D17*
X232742500Y-178500000D03*
D16*
X230942500Y-178500000D03*
%TD*%
%TO.P,SW54,1,1_1*%
%TO.N,/COL15*%
X431761250Y-123890000D03*
D17*
X429936250Y-123890000D03*
D18*
X428211250Y-123890000D03*
%TO.P,SW54,2,2_2*%
%TO.N,Net-(D53-A)*%
X441661250Y-121350000D03*
D17*
X439911250Y-121350000D03*
D16*
X438111250Y-121350000D03*
%TD*%
%TO.P,SW38,1,1_1*%
%TO.N,/COL20*%
X107911250Y-123890000D03*
D17*
X106086250Y-123890000D03*
D18*
X104361250Y-123890000D03*
%TO.P,SW38,2,2_2*%
%TO.N,Net-(D37-A)*%
X117811250Y-121350000D03*
D17*
X116061250Y-121350000D03*
D16*
X114261250Y-121350000D03*
%TD*%
D15*
%TO.P,D73,1,K_1*%
%TO.N,N/C*%
X502889776Y-152341260D03*
%TO.P,D73,2,A_2*%
X502889776Y-149041260D03*
%TD*%
D16*
%TO.P,SW32,1,1_1*%
%TO.N,/COL14*%
X412711250Y-104840000D03*
D17*
X410886250Y-104840000D03*
D18*
X409161250Y-104840000D03*
%TO.P,SW32,2,2_2*%
%TO.N,Net-(D31-A)*%
X422611250Y-102300000D03*
D17*
X420861250Y-102300000D03*
D16*
X419061250Y-102300000D03*
%TD*%
%TO.P,SW76,1,1_1*%
%TO.N,/COL1*%
X115055000Y-161990000D03*
D17*
X113230000Y-161990000D03*
D18*
X111505000Y-161990000D03*
%TO.P,SW76,2,2_2*%
%TO.N,Net-(D75-A)*%
X124955000Y-159450000D03*
D17*
X123205000Y-159450000D03*
D16*
X121405000Y-159450000D03*
%TD*%
D15*
%TO.P,D5,1,K_1*%
%TO.N,N/C*%
X236189776Y-85666260D03*
%TO.P,D5,2,A_2*%
X236189776Y-82366260D03*
%TD*%
%TO.P,D84,1,K_1*%
%TO.N,N/C*%
X307627276Y-171391260D03*
%TO.P,D84,2,A_2*%
X307627276Y-168091260D03*
%TD*%
%TO.N,Net-(U1-GPIO40{slash}MTDO)*%
D19*
X523000000Y-69500000D02*
X527500000Y-74000000D01*
X65543400Y-116043400D02*
X66000000Y-109500000D01*
X490000000Y-71000000D02*
X491500000Y-69500000D01*
X491500000Y-69500000D02*
X523000000Y-69500000D01*
X62500000Y-119400000D02*
X62500000Y-117712952D01*
X527500000Y-74000000D02*
X527500000Y-119000000D01*
X64912792Y-116500000D02*
X65543400Y-116043400D01*
X91757578Y-119425079D02*
X62500000Y-119400000D01*
X154000000Y-118000000D02*
X91757578Y-119425079D01*
X516000000Y-118500000D02*
X154000000Y-118000000D01*
X66000000Y-109500000D02*
X64140000Y-107720000D01*
X62500000Y-117712952D02*
X63805686Y-116500000D01*
X527500000Y-119000000D02*
X516000000Y-118500000D01*
X490000000Y-76000000D02*
X490000000Y-71000000D01*
X63805686Y-116500000D02*
X64912792Y-116500000D01*
%TO.N,Net-(U1-GPIO41{slash}MTDI)*%
X58989464Y-115042908D02*
X59000000Y-129500000D01*
X523000000Y-67500000D02*
X490500000Y-67500000D01*
X60628480Y-110260000D02*
X58989464Y-115042908D01*
X59000000Y-129500000D02*
X59000000Y-130500000D01*
X487000000Y-73000000D02*
X487000000Y-81000000D01*
X504000000Y-136500000D02*
X509500000Y-144500000D01*
X64000000Y-136000000D02*
X374500000Y-136000000D01*
X487000000Y-81000000D02*
X490000000Y-81000000D01*
X523000000Y-145500000D02*
X529000000Y-137500000D01*
X59000000Y-130500000D02*
X64000000Y-136000000D01*
X529000000Y-137500000D02*
X529500000Y-74000000D01*
X490500000Y-67500000D02*
X487000000Y-73000000D01*
X64140000Y-110260000D02*
X60628480Y-110260000D01*
X374500000Y-136000000D02*
X504000000Y-136500000D01*
X529500000Y-74000000D02*
X523000000Y-67500000D01*
X509500000Y-144500000D02*
X523000000Y-145500000D01*
%TO.N,GND*%
X493383740Y-83116260D02*
X482116260Y-83116260D01*
X504500000Y-76000000D02*
X501000000Y-79500000D01*
X497000000Y-79500000D02*
X491000000Y-79500000D01*
X482116260Y-83116260D02*
X464500000Y-65500000D01*
X464500000Y-65500000D02*
X93666400Y-65500000D01*
X491000000Y-79500000D02*
X490000000Y-78500000D01*
X93666400Y-65500000D02*
X87003680Y-72162720D01*
X501000000Y-79500000D02*
X497000000Y-79500000D01*
X497000000Y-79500000D02*
X493383740Y-83116260D01*
%TO.N,/ROW4*%
X110891260Y-171391260D02*
X106500000Y-167000000D01*
X362396026Y-171391260D02*
X348891260Y-171391260D01*
X82000000Y-94000000D02*
X90000000Y-94000000D01*
X88500000Y-111500000D02*
X84000000Y-111500000D01*
X132891260Y-171391260D02*
X131500000Y-170000000D01*
X97500000Y-167000000D02*
X96000000Y-168500000D01*
X61000000Y-106500000D02*
X62000000Y-96500000D01*
X341000000Y-171000000D02*
X327068536Y-171000000D01*
X521939776Y-180916260D02*
X512414776Y-180916260D01*
X57500000Y-110000000D02*
X61000000Y-106500000D01*
X327068536Y-171000000D02*
X326677276Y-171391260D01*
X57500000Y-134000000D02*
X57500000Y-110000000D01*
X512414776Y-180916260D02*
X502889776Y-171391260D01*
X347000000Y-169500000D02*
X342500000Y-169500000D01*
X124271026Y-171391260D02*
X110891260Y-171391260D01*
X106500000Y-167000000D02*
X97500000Y-167000000D01*
X502889776Y-171391260D02*
X371891260Y-171391260D01*
X348891260Y-171391260D02*
X347000000Y-169500000D01*
X84000000Y-111500000D02*
X84000000Y-114880000D01*
X125662286Y-170000000D02*
X124271026Y-171391260D01*
X90000000Y-110000000D02*
X88500000Y-111500000D01*
X371891260Y-171391260D02*
X371000000Y-170500000D01*
X326677276Y-171391260D02*
X132891260Y-171391260D01*
X371000000Y-170500000D02*
X363287286Y-170500000D01*
X84000000Y-114880000D02*
X87000000Y-117880000D01*
X131500000Y-170000000D02*
X125662286Y-170000000D01*
X90000000Y-94000000D02*
X90000000Y-110000000D01*
X363287286Y-170500000D02*
X362396026Y-171391260D01*
X96000000Y-168500000D02*
X57500000Y-134000000D01*
X342500000Y-169500000D02*
X341000000Y-171000000D01*
X62000000Y-96500000D02*
X82000000Y-94000000D01*
%TO.N,/ROW5*%
X82000000Y-91000000D02*
X91000000Y-91000000D01*
X478000000Y-188500000D02*
X476058740Y-190441260D01*
X502889776Y-190441260D02*
X500948516Y-188500000D01*
X162371026Y-190441260D02*
X97000000Y-190441260D01*
X56500000Y-134500000D02*
X56500000Y-106500000D01*
X181941260Y-190441260D02*
X181000000Y-189500000D01*
X442418536Y-189000000D02*
X440977276Y-190441260D01*
X61000000Y-94000000D02*
X82000000Y-91000000D01*
X461441260Y-190441260D02*
X460000000Y-189000000D01*
X181000000Y-189500000D02*
X163312286Y-189500000D01*
X59000000Y-104000000D02*
X61000000Y-94000000D01*
X460000000Y-189000000D02*
X442418536Y-189000000D01*
X233808526Y-190441260D02*
X181941260Y-190441260D01*
X91000000Y-91000000D02*
X91000000Y-112000000D01*
X500948516Y-188500000D02*
X478000000Y-188500000D01*
X440977276Y-190441260D02*
X283941260Y-190441260D01*
X97000000Y-171500000D02*
X56500000Y-134500000D01*
X91000000Y-112000000D02*
X87660000Y-115340000D01*
X97000000Y-190441260D02*
X97000000Y-171500000D01*
X476058740Y-190441260D02*
X461441260Y-190441260D01*
X283941260Y-190441260D02*
X282000000Y-188500000D01*
X87660000Y-115340000D02*
X87000000Y-115340000D01*
X56500000Y-106500000D02*
X59000000Y-104000000D01*
X235749786Y-188500000D02*
X233808526Y-190441260D01*
X282000000Y-188500000D02*
X235749786Y-188500000D01*
X163312286Y-189500000D02*
X162371026Y-190441260D01*
%TO.N,/ROW3*%
X61000000Y-109000000D02*
X62000000Y-105000000D01*
X368999786Y-150500000D02*
X367158526Y-152341260D01*
X62000000Y-105000000D02*
X63000000Y-104000000D01*
X94000000Y-154000000D02*
X83500000Y-154000000D01*
X58500000Y-111500000D02*
X61000000Y-109000000D01*
X58000000Y-133000000D02*
X58500000Y-111500000D01*
X502889776Y-152341260D02*
X378341260Y-152341260D01*
X365817266Y-151000000D02*
X337543536Y-151000000D01*
X63000000Y-104000000D02*
X75000000Y-104000000D01*
X367158526Y-152341260D02*
X365817266Y-151000000D01*
X336202276Y-152341260D02*
X95658740Y-152341260D01*
X337543536Y-151000000D02*
X336202276Y-152341260D01*
X75000000Y-104000000D02*
X83980000Y-95020000D01*
X378341260Y-152341260D02*
X376500000Y-150500000D01*
X95658740Y-152341260D02*
X94000000Y-154000000D01*
X83500000Y-154000000D02*
X58000000Y-133000000D01*
X376500000Y-150500000D02*
X368999786Y-150500000D01*
X83980000Y-95020000D02*
X87000000Y-95020000D01*
%TO.N,/ROW0*%
X90333740Y-85666260D02*
X90000000Y-86000000D01*
X119000000Y-85666260D02*
X112191928Y-85666260D01*
X90000000Y-86000000D02*
X70620000Y-86000000D01*
X119000000Y-85666260D02*
X118666260Y-85666260D01*
X70620000Y-86000000D02*
X64140000Y-92480000D01*
X440977276Y-85666260D02*
X119000000Y-85666260D01*
X112191928Y-85666260D02*
X90333740Y-85666260D01*
%TO.N,/ROW2*%
X96708740Y-133291260D02*
X95500000Y-134500000D01*
X59500000Y-119980000D02*
X64140000Y-115340000D01*
X95500000Y-134500000D02*
X66000000Y-134500000D01*
X521939776Y-142816260D02*
X512414776Y-142816260D01*
X502889776Y-133291260D02*
X96708740Y-133291260D01*
X66000000Y-134500000D02*
X59500000Y-128000000D01*
X59500000Y-128000000D02*
X59500000Y-119980000D01*
X512414776Y-142816260D02*
X502889776Y-133291260D01*
%TO.N,/ROW1*%
X378741260Y-114241260D02*
X377500000Y-113000000D01*
X349500000Y-114000000D02*
X95500000Y-114000000D01*
X354000000Y-113000000D02*
X352000000Y-112500000D01*
X521939776Y-114241260D02*
X378741260Y-114241260D01*
X377500000Y-113000000D02*
X374000000Y-113000000D01*
X352000000Y-112500000D02*
X349500000Y-114000000D01*
X374000000Y-113000000D02*
X372500000Y-114500000D01*
X90500000Y-119000000D02*
X65260000Y-119000000D01*
X354500000Y-114500000D02*
X354000000Y-113000000D01*
X95500000Y-114000000D02*
X90500000Y-119000000D01*
X372500000Y-114500000D02*
X354500000Y-114500000D01*
X65260000Y-119000000D02*
X64140000Y-117880000D01*
%TO.N,Net-(D29-A)*%
X367000000Y-102363125D02*
X367000000Y-108636875D01*
X367000000Y-108636875D02*
X369501250Y-111138125D01*
%TO.N,Net-(D56-A)*%
X500500000Y-121363125D02*
X500500000Y-127636875D01*
X500500000Y-127636875D02*
X503001250Y-130138125D01*
%TO.N,Net-(D3-A)*%
X186000000Y-80136875D02*
X188501250Y-82638125D01*
X186000000Y-73863125D02*
X186000000Y-80136875D01*
%TO.N,Net-(D101-A)*%
X419500000Y-178363125D02*
X419500000Y-184636875D01*
X419500000Y-184636875D02*
X422001250Y-187138125D01*
%TO.N,Net-(D28-A)*%
X338500000Y-108636875D02*
X341001250Y-111138125D01*
X338500000Y-102363125D02*
X338500000Y-108636875D01*
%TO.N,Net-(D52-A)*%
X419500000Y-121363125D02*
X419500000Y-127636875D01*
X419500000Y-127636875D02*
X422001250Y-130138125D01*
%TO.N,Net-(D72-A)*%
X481500000Y-146636875D02*
X484001250Y-149138125D01*
X481500000Y-140363125D02*
X481500000Y-146636875D01*
%TO.N,Net-(D33-A)*%
X462000000Y-102363125D02*
X462000000Y-108636875D01*
X462000000Y-108636875D02*
X464501250Y-111138125D01*
%TO.N,Net-(D14-A)*%
X419500000Y-80136875D02*
X422001250Y-82638125D01*
X419500000Y-73863125D02*
X419500000Y-80136875D01*
%TO.N,Net-(D83-A)*%
X286000000Y-165636875D02*
X288501250Y-168138125D01*
X286000000Y-159363125D02*
X286000000Y-165636875D01*
%TO.N,Net-(D73-A)*%
X500500000Y-146636875D02*
X503001250Y-149138125D01*
X500500000Y-140363125D02*
X500500000Y-146636875D01*
%TO.N,Net-(D100-A)*%
X400500000Y-184636875D02*
X403001250Y-187138125D01*
X400500000Y-178363125D02*
X400500000Y-184636875D01*
%TO.N,Net-(D50-A)*%
X371500000Y-127636875D02*
X374001250Y-130138125D01*
X371500000Y-121363125D02*
X371500000Y-127636875D01*
%TO.N,Net-(D18-A)*%
X148000000Y-108636875D02*
X150501250Y-111138125D01*
X148000000Y-102363125D02*
X148000000Y-108636875D01*
%TO.N,Net-(D4-A)*%
X205000000Y-73863125D02*
X205000000Y-80136875D01*
X205000000Y-80136875D02*
X207501250Y-82638125D01*
%TO.N,Net-(D64-A)*%
X238500000Y-140363125D02*
X238500000Y-146636875D01*
X238500000Y-146636875D02*
X241001250Y-149138125D01*
%TO.N,Net-(D10-A)*%
X338500000Y-80136875D02*
X341001250Y-82638125D01*
X338500000Y-73863125D02*
X338500000Y-80136875D01*
%TO.N,Net-(D12-A)*%
X376500000Y-73863125D02*
X376500000Y-80136875D01*
X376500000Y-80136875D02*
X379001250Y-82638125D01*
%TO.N,Net-(D81-A)*%
X248000000Y-165636875D02*
X250501250Y-168138125D01*
X248000000Y-159363125D02*
X248000000Y-165636875D01*
%TO.N,Net-(D35-A)*%
X500500000Y-108636875D02*
X503001250Y-111138125D01*
X500500000Y-102363125D02*
X500500000Y-108636875D01*
%TO.N,Net-(D59-A)*%
X143000000Y-146636875D02*
X145501250Y-149138125D01*
X143000000Y-140363125D02*
X143000000Y-146636875D01*
%TO.N,Net-(D78-A)*%
X191000000Y-159363125D02*
X191000000Y-165636875D01*
X191000000Y-165636875D02*
X193501250Y-168138125D01*
%TO.N,Net-(D46-A)*%
X291000000Y-127636875D02*
X293501250Y-130138125D01*
X291000000Y-121363125D02*
X291000000Y-127636875D01*
%TO.N,Net-(D30-A)*%
X400500000Y-108636875D02*
X403001250Y-111138125D01*
X400500000Y-102363125D02*
X400500000Y-108636875D01*
%TO.N,Net-(D58-A)*%
X117000000Y-140363125D02*
X117000000Y-146636875D01*
X117000000Y-146636875D02*
X119501250Y-149138125D01*
%TO.N,Net-(D45-A)*%
X272000000Y-121363125D02*
X272000000Y-127636875D01*
X272000000Y-127636875D02*
X274501250Y-130138125D01*
%TO.N,Net-(D39-A)*%
X157500000Y-121363125D02*
X157500000Y-127636875D01*
X157500000Y-127636875D02*
X160001250Y-130138125D01*
%TO.N,Net-(D62-A)*%
X200500000Y-146636875D02*
X203001250Y-149138125D01*
X200500000Y-140363125D02*
X200500000Y-146636875D01*
%TO.N,Net-(D99-A)*%
X374000000Y-184636875D02*
X376501250Y-187138125D01*
X374000000Y-178363125D02*
X374000000Y-184636875D01*
%TO.N,Net-(D5-A)*%
X233500000Y-80136875D02*
X236001250Y-82638125D01*
X233500000Y-73863125D02*
X233500000Y-80136875D01*
%TO.N,Net-(D42-A)*%
X214500000Y-121363125D02*
X214500000Y-127636875D01*
X214500000Y-127636875D02*
X217001250Y-130138125D01*
%TO.N,Net-(D26-A)*%
X300500000Y-102363125D02*
X300500000Y-108636875D01*
X300500000Y-108636875D02*
X303001250Y-111138125D01*
%TO.N,Net-(D40-A)*%
X176500000Y-127636875D02*
X179001250Y-130138125D01*
X176500000Y-121363125D02*
X176500000Y-127636875D01*
%TO.N,Net-(D80-A)*%
X229000000Y-165636875D02*
X231501250Y-168138125D01*
X229000000Y-159363125D02*
X229000000Y-165636875D01*
%TO.N,Net-(D27-A)*%
X319500000Y-108636875D02*
X322001250Y-111138125D01*
X319500000Y-102363125D02*
X319500000Y-108636875D01*
%TO.N,Net-(D68-A)*%
X314500000Y-140363125D02*
X314500000Y-146636875D01*
X314500000Y-146636875D02*
X317001250Y-149138125D01*
%TO.N,Net-(D36-A)*%
X519500000Y-108636875D02*
X522001250Y-111138125D01*
X519500000Y-102363125D02*
X519500000Y-108636875D01*
%TO.N,Net-(D98-A)*%
X350500000Y-184636875D02*
X353001250Y-187138125D01*
X350500000Y-178363125D02*
X350500000Y-184636875D01*
%TO.N,Net-(D94-A)*%
X160000000Y-178363125D02*
X160000000Y-184636875D01*
X160000000Y-184636875D02*
X162501250Y-187138125D01*
%TO.N,Net-(D49-A)*%
X348000000Y-127636875D02*
X350501250Y-130138125D01*
X348000000Y-121363125D02*
X348000000Y-127636875D01*
%TO.N,Net-(D54-A)*%
X462500000Y-121363125D02*
X462500000Y-127636875D01*
X462500000Y-127636875D02*
X465001250Y-130138125D01*
%TO.N,Net-(D91-A)*%
X519500000Y-168863125D02*
X519500000Y-175136875D01*
X519500000Y-175136875D02*
X522001250Y-177638125D01*
%TO.N,Net-(D22-A)*%
X224000000Y-102363125D02*
X224000000Y-108636875D01*
X224000000Y-108636875D02*
X226501250Y-111138125D01*
%TO.N,Net-(D48-A)*%
X329000000Y-121363125D02*
X329000000Y-127636875D01*
X329000000Y-127636875D02*
X331501250Y-130138125D01*
%TO.N,Net-(D41-A)*%
X195500000Y-127636875D02*
X198001250Y-130138125D01*
X195500000Y-121363125D02*
X195500000Y-127636875D01*
%TO.N,Net-(D7-A)*%
X271500000Y-80136875D02*
X274001250Y-82638125D01*
X271500000Y-73863125D02*
X271500000Y-80136875D01*
X271500000Y-73863125D02*
X271500000Y-80136875D01*
X271500000Y-80136875D02*
X274001250Y-82638125D01*
%TO.N,Net-(D57-A)*%
X519500000Y-137136875D02*
X522001250Y-139638125D01*
X519500000Y-130863125D02*
X519500000Y-137136875D01*
%TO.N,Net-(D23-A)*%
X243500000Y-108636875D02*
X246001250Y-111138125D01*
X243500000Y-102363125D02*
X243500000Y-108636875D01*
%TO.N,Net-(D55-A)*%
X481500000Y-121363125D02*
X481500000Y-127636875D01*
X481500000Y-127636875D02*
X484001250Y-130138125D01*
%TO.N,Net-(D1-A)*%
X109498750Y-73725000D02*
X109498750Y-79998750D01*
X138500000Y-127636875D02*
X141001250Y-130138125D01*
X129000000Y-108636875D02*
X131501250Y-111138125D01*
X138500000Y-121363125D02*
X138500000Y-127636875D01*
X109498750Y-79998750D02*
X112000000Y-82500000D01*
X129000000Y-102363125D02*
X129000000Y-108636875D01*
X148000000Y-80136875D02*
X150501250Y-82638125D01*
X148000000Y-73863125D02*
X148000000Y-80136875D01*
%TO.N,Net-(D97-A)*%
X326500000Y-178363125D02*
X326500000Y-184636875D01*
X326500000Y-184636875D02*
X329001250Y-187138125D01*
%TO.N,Net-(D84-A)*%
X305500000Y-159363125D02*
X305500000Y-165636875D01*
X305500000Y-165636875D02*
X308001250Y-168138125D01*
%TO.N,Net-(D96-A)*%
X303000000Y-178363125D02*
X303000000Y-184636875D01*
X303000000Y-184636875D02*
X305501250Y-187138125D01*
%TO.N,Net-(D102-A)*%
X438500000Y-178363125D02*
X438500000Y-184636875D01*
X438500000Y-184636875D02*
X441001250Y-187138125D01*
%TO.N,Net-(D89-A)*%
X481500000Y-165636875D02*
X484001250Y-168138125D01*
X481500000Y-159363125D02*
X481500000Y-165636875D01*
%TO.N,Net-(D76-A)*%
X153000000Y-159363125D02*
X153000000Y-165636875D01*
X153000000Y-165636875D02*
X155501250Y-168138125D01*
%TO.N,Net-(D51-A)*%
X400500000Y-127636875D02*
X403001250Y-130138125D01*
X400500000Y-121363125D02*
X400500000Y-127636875D01*
%TO.N,Net-(D19-A)*%
X167000000Y-102363125D02*
X167000000Y-108636875D01*
X167000000Y-108636875D02*
X169501250Y-111138125D01*
%TO.N,Net-(D32-A)*%
X438500000Y-102363125D02*
X438500000Y-108636875D01*
X438500000Y-108636875D02*
X441001250Y-111138125D01*
%TO.N,Net-(D82-A)*%
X267000000Y-165636875D02*
X269501250Y-168138125D01*
X267000000Y-159363125D02*
X267000000Y-165636875D01*
%TO.N,Net-(D71-A)*%
X462000000Y-140363125D02*
X462000000Y-146636875D01*
X462000000Y-146636875D02*
X464501250Y-149138125D01*
%TO.N,Net-(D77-A)*%
X172000000Y-159363125D02*
X172000000Y-165636875D01*
X172000000Y-165636875D02*
X174501250Y-168138125D01*
%TO.N,Net-(D60-A)*%
X162500000Y-146636875D02*
X165001250Y-149138125D01*
X162500000Y-140363125D02*
X162500000Y-146636875D01*
%TO.N,Net-(D15-A)*%
X438500000Y-80136875D02*
X441001250Y-82638125D01*
X438500000Y-73863125D02*
X438500000Y-80136875D01*
%TO.N,Net-(D13-A)*%
X400500000Y-73863125D02*
X400500000Y-80136875D01*
X400500000Y-80136875D02*
X403001250Y-82638125D01*
%TO.N,Net-(D67-A)*%
X295500000Y-146636875D02*
X298001250Y-149138125D01*
X295500000Y-140363125D02*
X295500000Y-146636875D01*
%TO.N,Net-(D63-A)*%
X219500000Y-140363125D02*
X219500000Y-146636875D01*
X219500000Y-146636875D02*
X222001250Y-149138125D01*
%TO.N,Net-(D25-A)*%
X281500000Y-108636875D02*
X284001250Y-111138125D01*
X281500000Y-102363125D02*
X281500000Y-108636875D01*
%TO.N,Net-(D88-A)*%
X462000000Y-165636875D02*
X464501250Y-168138125D01*
X462000000Y-159363125D02*
X462000000Y-165636875D01*
%TO.N,Net-(D43-A)*%
X234000000Y-121363125D02*
X234000000Y-127636875D01*
X234000000Y-127636875D02*
X236501250Y-130138125D01*
%TO.N,Net-(D2-A)*%
X167000000Y-73863125D02*
X167000000Y-80136875D01*
X167000000Y-80136875D02*
X169501250Y-82638125D01*
%TO.N,Net-(D34-A)*%
X481500000Y-108636875D02*
X484001250Y-111138125D01*
X481500000Y-102363125D02*
X481500000Y-108636875D01*
%TO.N,Net-(D20-A)*%
X186000000Y-108636875D02*
X188501250Y-111138125D01*
X186000000Y-102363125D02*
X186000000Y-108636875D01*
%TO.N,Net-(D11-A)*%
X357500000Y-80136875D02*
X360001250Y-82638125D01*
X357500000Y-73863125D02*
X357500000Y-80136875D01*
%TO.N,Net-(D8-A)*%
X291000000Y-80136875D02*
X293501250Y-82638125D01*
X291000000Y-73863125D02*
X291000000Y-80136875D01*
%TO.N,Net-(D44-A)*%
X253000000Y-127636875D02*
X255501250Y-130138125D01*
X253000000Y-121363125D02*
X253000000Y-127636875D01*
%TO.N,Net-(D66-A)*%
X276500000Y-146636875D02*
X279001250Y-149138125D01*
X276500000Y-140363125D02*
X276500000Y-146636875D01*
%TO.N,Net-(D92-A)*%
X112000000Y-178363125D02*
X112000000Y-184636875D01*
X112000000Y-184636875D02*
X114501250Y-187138125D01*
%TO.N,Net-(D85-A)*%
X324000000Y-165636875D02*
X326501250Y-168138125D01*
X324000000Y-159363125D02*
X324000000Y-165636875D01*
%TO.N,Net-(D69-A)*%
X333500000Y-140363125D02*
X333500000Y-146636875D01*
X333500000Y-146636875D02*
X336001250Y-149138125D01*
%TO.N,Net-(D61-A)*%
X181500000Y-140363125D02*
X181500000Y-146636875D01*
X181500000Y-146636875D02*
X184001250Y-149138125D01*
%TO.N,Net-(D24-A)*%
X262500000Y-102363125D02*
X262500000Y-108636875D01*
X262500000Y-108636875D02*
X265001250Y-111138125D01*
%TO.N,Net-(D70-A)*%
X364500000Y-146636875D02*
X367001250Y-149138125D01*
X364500000Y-140363125D02*
X364500000Y-146636875D01*
%TO.N,Net-(D16-A)*%
X110000000Y-102363125D02*
X110000000Y-108636875D01*
X110000000Y-108636875D02*
X112501250Y-111138125D01*
%TO.N,Net-(D86-A)*%
X360000000Y-165636875D02*
X362501250Y-168138125D01*
X360000000Y-159363125D02*
X360000000Y-165636875D01*
%TO.N,Net-(D103-A)*%
X472000000Y-184636875D02*
X474501250Y-187138125D01*
X472000000Y-178363125D02*
X472000000Y-184636875D01*
%TO.N,Net-(D65-A)*%
X257500000Y-146636875D02*
X260001250Y-149138125D01*
X257500000Y-140363125D02*
X257500000Y-146636875D01*
%TO.N,Net-(D79-A)*%
X210000000Y-165636875D02*
X212501250Y-168138125D01*
X210000000Y-159363125D02*
X210000000Y-165636875D01*
%TO.N,Net-(D21-A)*%
X205000000Y-102363125D02*
X205000000Y-108636875D01*
X205000000Y-108636875D02*
X207501250Y-111138125D01*
%TO.N,Net-(D87-A)*%
X419500000Y-159363125D02*
X419500000Y-165636875D01*
X419500000Y-165636875D02*
X422001250Y-168138125D01*
%TO.N,Net-(D47-A)*%
X310000000Y-121363125D02*
X310000000Y-127636875D01*
X310000000Y-127636875D02*
X312501250Y-130138125D01*
%TO.N,Net-(D104-A)*%
X500500000Y-178363125D02*
X500500000Y-184636875D01*
X500500000Y-184636875D02*
X503001250Y-187138125D01*
%TO.N,Net-(D93-A)*%
X136000000Y-178363125D02*
X136000000Y-184636875D01*
X136000000Y-184636875D02*
X138501250Y-187138125D01*
%TO.N,Net-(D6-A)*%
X252500000Y-80136875D02*
X255001250Y-82638125D01*
X252500000Y-73863125D02*
X252500000Y-80136875D01*
%TO.N,Net-(D90-A)*%
X500500000Y-159363125D02*
X500500000Y-165636875D01*
X500500000Y-165636875D02*
X503001250Y-168138125D01*
%TO.N,Net-(D9-A)*%
X319500000Y-73863125D02*
X319500000Y-80136875D01*
X319500000Y-80136875D02*
X322001250Y-82638125D01*
%TO.N,Net-(D95-A)*%
X231500000Y-178363125D02*
X231500000Y-184636875D01*
X231500000Y-184636875D02*
X234001250Y-187138125D01*
%TO.N,Net-(D53-A)*%
X438500000Y-121363125D02*
X438500000Y-127636875D01*
X438500000Y-127636875D02*
X441001250Y-130138125D01*
%TO.N,Net-(D37-A)*%
X114500000Y-127636875D02*
X117001250Y-130138125D01*
X114500000Y-121363125D02*
X114500000Y-127636875D01*
%TO.N,Net-(D31-A)*%
X419500000Y-108636875D02*
X422001250Y-111138125D01*
X419500000Y-102363125D02*
X419500000Y-108636875D01*
%TO.N,Net-(D75-A)*%
X122000000Y-165636875D02*
X124501250Y-168138125D01*
X122000000Y-159363125D02*
X122000000Y-165636875D01*
%TD*%
M02*
